<svg width="250" height="250" viewBox="0 0 250 250" fill="none" xmlns="http://www.w3.org/2000/svg">
<g id="Chef-bro 1">
<g id="freepik--background-simple--inject-2">
<path id="Vector" d="M184.97 60.7149C184.255 60.5249 183.53 60.3399 182.81 60.1749C173.16 57.9149 163.21 57.6199 153.345 57.8049C144.315 57.9699 134.73 59.9549 125.845 57.7299C119.75 56.2299 114.345 52.6299 109.58 48.5349C104 43.7299 99 38.0699 92.55 34.4999C76.465 25.5499 60.345 31.1099 48.345 42.2349L48.295 42.2849C47.53 42.9899 46.795 43.7249 46.06 44.4699C46.0394 44.4788 46.0194 44.4888 46 44.4999C39.1271 51.6174 33.968 60.2086 30.915 69.6199C29.5508 73.9741 28.4455 78.4052 27.605 82.8899C27.5997 82.9096 27.5997 82.9303 27.605 82.9499C27.43 83.8599 27.265 84.7699 27.105 85.6849C27.1074 85.7049 27.1074 85.725 27.105 85.7449C20.5 126.55 36.155 168.725 74.565 188.705C92.97 198.28 114.705 206.545 135.93 204.985C149.49 203.985 161.96 197.635 172.665 189.56C195.78 172.12 213.855 146.02 219.165 117.29C224 90.8549 211.375 67.8399 184.97 60.7149Z" fill="#00934C"/>
<path id="Vector_2" opacity="0.5" d="M184.97 60.7149C184.255 60.5249 183.53 60.3399 182.81 60.1749C173.16 57.9149 163.21 57.6199 153.345 57.8049C144.315 57.9699 134.73 59.9549 125.845 57.7299C119.75 56.2299 114.345 52.6299 109.58 48.5349C104 43.7299 99 38.0699 92.55 34.4999C76.465 25.5499 60.345 31.1099 48.345 42.2349L48.295 42.2849C47.53 42.9899 46.795 43.7249 46.06 44.4699C46.0394 44.4788 46.0194 44.4888 46 44.4999C39.1271 51.6174 33.968 60.2086 30.915 69.6199C29.5508 73.9741 28.4455 78.4052 27.605 82.8899C27.5997 82.9096 27.5997 82.9303 27.605 82.9499C27.43 83.8599 27.265 84.7699 27.105 85.6849C27.1074 85.7049 27.1074 85.725 27.105 85.7449C20.5 126.55 36.155 168.725 74.565 188.705C92.97 198.28 114.705 206.545 135.93 204.985C149.49 203.985 161.96 197.635 172.665 189.56C195.78 172.12 213.855 146.02 219.165 117.29C224 90.8549 211.375 67.8399 184.97 60.7149Z" fill="white"/>
</g>
<g id="freepik--Table--inject-2">
<g id="freepik--table-line--inject-2">
<path id="Vector_3" d="M223.635 204.89H233.75" stroke="#263238" stroke-width="0.953494" stroke-linecap="round" stroke-linejoin="round"/>
<path id="Vector_4" d="M143.855 204.89H155.08" stroke="#263238" stroke-width="0.953494" stroke-linecap="round" stroke-linejoin="round"/>
<path id="Vector_5" d="M55.6899 204.89H93.3749" stroke="#263238" stroke-width="0.953494" stroke-linecap="round" stroke-linejoin="round"/>
<path id="Vector_6" d="M41.0601 204.89H49.5901" stroke="#263238" stroke-width="0.953494" stroke-linecap="round" stroke-linejoin="round"/>
</g>
</g>
<g id="freepik--Stars--inject-2">
<g id="freepik--stars--inject-2">
<path id="Vector_7" d="M79.68 89.6299C79.68 89.6299 80.305 93.6999 76.855 95.4249C76.855 95.4249 81.02 96.3149 81.405 100.34C81.405 100.34 81.485 94.8399 83.875 94.1749C83.875 94.1749 80.64 94.1249 79.68 89.6299Z" fill="white"/>
<path id="Vector_8" d="M129.235 90.1399C129.235 90.1399 129.04 92.6399 126.735 93.1749C126.735 93.1749 129.075 94.2849 128.735 96.7199C128.735 96.7199 129.55 93.4749 131.06 93.4149C131.085 93.4149 129.175 92.9299 129.235 90.1399Z" fill="white"/>
<path id="Vector_9" d="M132 81.6399C132 81.6399 131.8 84.1399 129.5 84.6749C129.5 84.6749 131.835 85.7849 131.5 88.2199C131.5 88.2199 132.315 84.9749 133.825 84.9149C133.83 84.9149 131.92 84.4299 132 81.6399Z" fill="white"/>
<path id="Vector_10" d="M73.59 81.8198C73.59 81.8198 73.415 85.5398 71.125 86.6848C72.1158 86.9834 72.9972 87.566 73.6602 88.3606C74.3232 89.1551 74.7386 90.1266 74.855 91.1548C74.855 91.1548 74.355 86.9898 76.935 86.1098C76.1071 85.6702 75.3813 85.0609 74.8049 84.3216C74.2285 83.5824 73.8145 82.7299 73.59 81.8198Z" fill="white"/>
</g>
</g>
<g id="freepik--Dish--inject-2">
<g id="freepik--dish--inject-2">
<path id="Vector_11" d="M188.44 216.09C206.602 216.09 221.325 212.792 221.325 208.725C221.325 204.657 206.602 201.36 188.44 201.36C170.278 201.36 155.555 204.657 155.555 208.725C155.555 212.792 170.278 216.09 188.44 216.09Z" fill="white" stroke="#263238" stroke-width="0.953494" stroke-linecap="round" stroke-linejoin="round"/>
<path id="Vector_12" d="M188.625 213.275C204.542 213.275 217.445 210.629 217.445 207.365C217.445 204.101 204.542 201.455 188.625 201.455C172.708 201.455 159.805 204.101 159.805 207.365C159.805 210.629 172.708 213.275 188.625 213.275Z" stroke="#263238" stroke-width="0.953494" stroke-linecap="round" stroke-linejoin="round"/>
<path id="Vector_13" d="M169.065 199.5C167.767 198.874 166.286 198.739 164.895 199.12C164.209 199.321 163.588 199.703 163.1 200.225C162.611 200.748 162.271 201.392 162.115 202.09C162.031 202.761 162.104 203.443 162.328 204.081C162.552 204.72 162.921 205.298 163.405 205.77C164.384 206.706 165.545 207.431 166.815 207.9C170.263 209.347 173.967 210.083 177.705 210.065C180.84 210.065 183.975 209.505 187.095 209.815C190.095 210.105 192.935 211.175 195.895 211.655C198.919 212.145 202.01 212.02 204.985 211.29C208.055 210.535 211.325 208.675 211.86 205.56C212 204.484 211.832 203.389 211.374 202.405C210.916 201.421 210.189 200.587 209.275 200C208.351 199.434 207.314 199.076 206.237 198.952C205.16 198.827 204.069 198.939 203.04 199.28C203.585 199.11 202.785 194.28 202.645 193.63C201.645 189.13 196.33 185.945 191.91 186.185C188.94 186.345 185.975 188.36 185.35 191.265C184.35 190.7 182.915 190.915 181.9 191.475C181.396 191.764 180.971 192.174 180.665 192.668C180.358 193.162 180.18 193.725 180.145 194.305C178.19 192.525 175.145 192.11 172.645 192.92C171.574 193.216 170.639 193.875 170 194.785C169.614 195.467 169.347 196.209 169.21 196.98C169.025 197.8 169.255 198.69 169.065 199.5Z" fill="#00934C"/>
<path id="Vector_14" d="M168.86 199.59C167.562 198.962 166.08 198.829 164.69 199.215C164.004 199.416 163.384 199.798 162.895 200.32C162.406 200.843 162.066 201.486 161.91 202.185C161.828 202.856 161.901 203.537 162.126 204.175C162.351 204.812 162.72 205.389 163.205 205.86C164.181 206.798 165.341 207.525 166.61 207.995C170.059 209.439 173.762 210.176 177.5 210.16C180.635 210.16 183.775 209.595 186.895 209.905C189.895 210.2 192.73 211.265 195.69 211.75C198.716 212.24 201.809 212.115 204.785 211.385C207.855 210.625 211.125 208.77 211.655 205.65C211.796 204.575 211.628 203.482 211.172 202.498C210.715 201.514 209.988 200.681 209.075 200.095C208.15 199.53 207.112 199.173 206.035 199.048C204.958 198.922 203.866 199.032 202.835 199.37C203.38 199.2 202.585 194.37 202.44 193.72C201.44 189.22 196.125 186.04 191.705 186.275C188.735 186.435 185.77 188.45 185.145 191.355C184.145 190.795 182.71 191.005 181.7 191.57C181.195 191.858 180.769 192.268 180.462 192.762C180.155 193.256 179.975 193.819 179.94 194.4C177.985 192.615 174.965 192.205 172.44 193.01C171.371 193.309 170.437 193.968 169.795 194.875C169.412 195.559 169.145 196.303 169.005 197.075C168.82 197.89 169.05 198.775 168.86 199.59Z" stroke="#263238" stroke-width="0.953494" stroke-linecap="round" stroke-linejoin="round"/>
<path id="Vector_15" opacity="0.19" d="M169.075 199.62C167.779 198.993 166.298 198.86 164.91 199.245C164.224 199.446 163.605 199.827 163.116 200.348C162.627 200.869 162.287 201.512 162.13 202.21C162.047 202.881 162.119 203.563 162.343 204.201C162.567 204.84 162.936 205.418 163.42 205.89C164.399 206.826 165.56 207.551 166.83 208.02C170.278 209.466 173.982 210.204 177.72 210.19C180.855 210.19 183.99 209.625 187.11 209.935C190.11 210.23 192.95 211.295 195.91 211.78C198.934 212.27 202.026 212.145 205 211.41C208.07 210.655 211.34 208.795 211.875 205.68C212.016 204.604 211.847 203.511 211.389 202.527C210.932 201.544 210.204 200.71 209.29 200.125C208.366 199.558 207.33 199.199 206.253 199.074C205.176 198.949 204.085 199.06 203.055 199.4C203.6 199.23 202.8 194.4 202.655 193.75C201.655 189.25 196.345 186.07 191.92 186.305C188.955 186.465 185.99 188.48 185.365 191.385C184.365 190.825 182.93 191.035 181.915 191.6C181.412 191.888 180.987 192.298 180.681 192.791C180.375 193.284 180.196 193.845 180.16 194.425C178.205 192.645 175.185 192.235 172.66 193.04C171.593 193.341 170.661 193.999 170.02 194.905C169.634 195.588 169.367 196.332 169.23 197.105C169.04 197.92 169.27 198.805 169.075 199.62Z" fill="white"/>
<path id="Vector_16" opacity="0.2" d="M200.935 190.58C198.6 188.465 194.735 188.78 192.21 190.66C189.685 192.54 188.315 195.635 187.735 198.73C187.221 198.405 186.626 198.231 186.017 198.225C185.409 198.22 184.811 198.384 184.29 198.7C183.257 199.351 182.455 200.311 182 201.445C181.104 200.803 180.031 200.454 178.929 200.447C177.827 200.44 176.749 200.774 175.845 201.405C175.225 201.914 174.631 202.455 174.065 203.025C172.383 204.514 170.189 205.294 167.945 205.201C165.7 205.108 163.578 204.149 162.025 202.525C162.025 202.525 160.24 205.06 167.095 207.935C173.95 210.81 178.405 210.435 182.095 209.975C185.785 209.515 190.435 210.345 193.68 211.475C196.925 212.605 206.38 212.68 209.715 209.065C213.05 205.45 212.68 198.405 203.04 199.065C203.06 199.035 203.17 192.6 200.935 190.58Z" fill="black"/>
<path id="Vector_17" d="M181.72 184.635C180.365 184.015 179.72 182.34 179.93 180.86C180.14 179.38 180.93 178.07 181.83 176.86C182.73 175.65 183.695 174.5 184.265 173.12C186.48 167.72 181.71 161.335 183.835 155.9" stroke="#263238" stroke-width="0.953494" stroke-linecap="round" stroke-linejoin="round"/>
<path id="Vector_18" d="M201.12 184.22C199.845 183.83 199.12 182.48 198.865 181.17C198.11 177.06 200.94 173.17 201.55 169.055C202.05 165.63 201.015 162.18 199.985 158.87" stroke="#263238" stroke-width="0.953494" stroke-linecap="round" stroke-linejoin="round"/>
<path id="Vector_19" d="M191.705 183C190.35 181.725 190.5 179.5 191.205 177.79C191.91 176.08 193.13 174.57 193.63 172.79C193.917 171.73 193.95 170.617 193.726 169.542C193.503 168.466 193.03 167.458 192.345 166.6" stroke="#263238" stroke-width="0.953494" stroke-linecap="round" stroke-linejoin="round"/>
<path id="Vector_20" d="M179.74 159.92C179.621 161.802 179.739 163.692 180.09 165.545" stroke="#263238" stroke-width="0.953494" stroke-linecap="round" stroke-linejoin="round"/>
<path id="Vector_21" d="M179.84 171.415C180.015 173.28 178.78 174.94 177.795 176.535C176.642 178.333 175.861 180.344 175.5 182.45C175.138 184.567 175.479 186.744 176.47 188.65" stroke="#263238" stroke-width="0.953494" stroke-linecap="round" stroke-linejoin="round"/>
</g>
</g>
<g id="freepik--Character--inject-2">
<g id="freepik--character--inject-2">
<path id="Vector_22" d="M112.67 96.07L113.17 102.185V102.33C112.75 102.28 112.328 102.255 111.905 102.255C108.585 102.255 103.405 103.345 99.7299 104.255C97.1499 104.895 95.2899 105.445 95.2899 105.445L94.7349 103.24L92.6299 95C90.9249 93.535 88.3249 87.78 88.3249 87.78C86.2099 87.455 83.5799 85.535 83.0099 82.85C82.4399 80.165 85.7449 80.43 85.7449 80.43L87.8849 79.115L90.5649 71.8C90.5649 71.8 88.2099 66.355 92.8449 64.165C97.4799 61.975 113.24 69.605 113.24 69.605L114.945 76.76C117.135 77.65 114.82 83.01 114.82 83.01C114.82 83.01 115.03 83.095 115.27 86.26C115.51 89.425 112.67 96.07 112.67 96.07Z" fill="white"/>
<path id="Vector_23" d="M107.405 79.075C108.105 81.735 110.57 83.63 110.48 84.315C110.365 85.195 109.28 86.385 108.295 86.4" stroke="#263238" stroke-width="0.953494" stroke-linecap="round" stroke-linejoin="round"/>
<path id="Vector_24" d="M112.26 74.7951C112.26 74.7951 110.095 73.0301 108.42 75.2951" stroke="#263238" stroke-width="1.90699" stroke-linecap="round" stroke-linejoin="round"/>
<path id="Vector_25" d="M99.845 88.2349C99.845 88.2349 100.945 91.1049 105.345 91.0099" stroke="#263238" stroke-width="0.953494" stroke-linecap="round" stroke-linejoin="round"/>
<path id="Vector_26" d="M102.66 77.0501C101.08 76.0751 98.89 76.1601 97.73 78.3151" stroke="#263238" stroke-width="1.90699" stroke-linecap="round" stroke-linejoin="round"/>
<path id="Vector_27" d="M102.425 81.2399C102.57 82.0199 102.355 82.7399 101.925 82.7949C101.495 82.8499 101.045 82.2949 100.895 81.5299C100.745 80.7649 100.97 80.0549 101.395 79.9799C101.82 79.9049 102.275 80.4649 102.425 81.2399Z" fill="#263238"/>
<path id="Vector_28" d="M111.44 79.5C111.585 80.28 111.37 81 110.94 81.055C110.51 81.11 110.06 80.555 109.91 79.79C109.76 79.025 109.985 78.315 110.41 78.235C110.835 78.155 111.29 78.71 111.44 79.5Z" fill="#263238"/>
<path id="Vector_29" d="M88.1199 82.3499C88.1199 82.3499 84.4599 79.1699 83.2999 81.3499C82.1399 83.5299 85.9049 88.5899 89.4399 87.0449" stroke="#263238" stroke-width="0.953494" stroke-linecap="round" stroke-linejoin="round"/>
<path id="Vector_30" d="M112.735 70.45C112.735 70.45 113.015 79.615 114.03 81.655C115.045 83.695 115.915 84.71 114.845 90.03C113.775 95.35 109.695 101.565 105.345 101.98C100.995 102.395 90.9999 95.765 88.1699 87.5" stroke="#263238" stroke-width="0.953494" stroke-linecap="round" stroke-linejoin="round"/>
<path id="Vector_31" d="M88.2198 82.7249C88.2198 82.7249 90.8748 81.3499 90.3948 78.9699C89.9148 76.5899 90.2498 76.2949 92.1548 75.0699C94.0598 73.8449 92.8798 71.3149 91.0548 68.8249C89.2298 66.3349 92.6998 63.3549 95.5248 64.6049C98.3498 65.8549 114.45 72.1899 118.775 70.3099C123.1 68.4299 121.86 62.4199 116.035 59.0599C116.035 59.0599 112.89 55.3049 113.735 51.8499C114.58 48.3949 94.4098 37.9599 84.9548 59.2099C84.9548 59.2099 80.4548 60.9649 79.5298 67.0049C78.6098 72.9499 85.1148 80.6399 85.1148 80.6399C85.1148 80.6399 87.4148 81.8249 88.2198 82.7249Z" fill="#263238"/>
<path id="Vector_32" d="M90.9399 63.525C92.4399 61.525 95.1699 60.81 97.6249 61.16C100.08 61.51 102.31 62.765 104.405 64.09C106.5 65.415 108.56 66.865 110.905 67.685C112.222 68.215 113.67 68.3319 115.055 68.02C115.595 67.8765 116.1 67.6213 116.536 67.2708C116.971 66.9203 117.329 66.4822 117.585 65.985" stroke="white" stroke-width="0.953494" stroke-linecap="round" stroke-linejoin="round"/>
<path id="Vector_33" d="M86.7449 61.9099C84.9449 62.0299 83.3749 63.3799 82.6749 65.0449C82.0364 66.7469 81.9923 68.6148 82.5499 70.3449C82.9184 71.5636 83.4215 72.7375 84.0499 73.8449" stroke="white" stroke-width="0.953494" stroke-linecap="round" stroke-linejoin="round"/>
<path id="Vector_34" d="M113.025 95.25C112.762 96.2762 112.677 97.3401 112.775 98.395C112.831 99.6346 112.969 100.869 113.19 102.09" stroke="#263238" stroke-width="0.953494" stroke-linecap="round" stroke-linejoin="round"/>
<path id="Vector_35" d="M92.6099 94.6399C93.4749 97.6999 94.4349 101.385 95.3199 105.485" stroke="#263238" stroke-width="0.953494" stroke-linecap="round" stroke-linejoin="round"/>
<path id="Vector_36" d="M113.295 78.3799C113.295 78.3799 114.115 76.1499 115.665 77.1399C117.215 78.1299 114.745 83.1399 114.745 83.1399" stroke="#263238" stroke-width="0.953494" stroke-linecap="round" stroke-linejoin="round"/>
<path id="Vector_37" d="M115.56 68.9099C115.56 68.9099 116.335 75.2149 114.455 77.2049L113.015 77.6499L112.255 69.2749L115.56 68.9099Z" fill="#263238"/>
<path id="Vector_38" d="M78.59 61C78.59 61 73.52 60.645 68.62 54.815C63.72 48.985 67.68 44.89 70.12 42.7C72.56 40.51 78.58 34.505 81.095 31.7C83.61 28.895 88.65 25.345 94.345 26.275C100.04 27.205 105.585 30.655 111 32.245C116.415 33.835 121.81 39.745 122.605 43.6C123.4 47.455 121.69 53.5 119.705 54.955L116.29 54.85L117.79 60.025C117.79 60.025 97.5 52 79.375 67.065L80.91 61.675L78.59 61Z" fill="white"/>
<path id="Vector_39" d="M87.9149 54.115C87.9149 56.42 87.9499 58.725 88.0949 61.02L79.6699 67.28L81.7299 57.13L87.9149 54.115Z" fill="#00934C"/>
<path id="Vector_40" opacity="0.6" d="M87.9149 54.115C87.9149 56.42 88.0199 58.98 88.1599 61.275L79.6599 67.275L81.7199 57.125L87.9149 54.115Z" fill="white"/>
<path id="Vector_41" d="M88.9148 26.4349C89.3219 26.309 89.7576 26.3085 90.165 26.4333C90.5725 26.5581 90.933 26.8026 91.1998 27.1349C91.7202 27.8105 91.9858 28.6479 91.9498 29.4999C91.9248 32.2749 89.8598 34.6249 87.5948 36.2349C85.3298 37.8449 82.7398 39.0149 80.7498 40.9549C79.6153 42.0608 78.7136 43.3826 78.098 44.8425C77.4823 46.3023 77.1651 47.8706 77.1651 49.4549C77.1651 51.0393 77.4823 52.6076 78.098 54.0674C78.7136 55.5273 79.6153 56.8491 80.7498 57.9549C80.9748 58.1699 81.2048 58.3749 81.4248 58.5999L80.7298 61.4399C80.7298 61.4399 71.7298 60.2649 68.6398 54.8149C65.5498 49.3649 66.5248 46.8149 69.2198 43.6149C71.9148 40.4149 75.4148 38.6749 78.8448 33.7899C82.2748 28.9049 88.9148 26.4349 88.9148 26.4349Z" fill="#00934C"/>
<path id="Vector_42" opacity="0.6" d="M88.9148 26.4349C89.3219 26.309 89.7576 26.3085 90.165 26.4333C90.5725 26.5581 90.933 26.8026 91.1998 27.1349C91.7202 27.8105 91.9858 28.6479 91.9498 29.4999C91.9248 32.2749 89.8598 34.6249 87.5948 36.2349C85.3298 37.8449 82.7398 39.0149 80.7498 40.9549C79.6153 42.0608 78.7136 43.3826 78.098 44.8425C77.4823 46.3023 77.1651 47.8706 77.1651 49.4549C77.1651 51.0393 77.4823 52.6076 78.098 54.0674C78.7136 55.5273 79.6153 56.8491 80.7498 57.9549C80.9748 58.1699 81.2048 58.3749 81.4248 58.5999L80.7298 61.4399C80.7298 61.4399 71.7298 60.2649 68.6398 54.8149C65.5498 49.3649 66.5248 46.8149 69.2198 43.6149C71.9148 40.4149 75.4148 38.6749 78.8448 33.7899C82.2748 28.9049 88.9148 26.4349 88.9148 26.4349Z" fill="white"/>
<path id="Vector_43" d="M79.6699 67.28C79.6699 67.28 93.6199 52.82 117.77 60.28L114.8 52.085C114.8 52.085 97.9999 47.5 81.7299 57.13L79.6699 67.28Z" stroke="#263238" stroke-width="0.953494" stroke-linecap="round" stroke-linejoin="round"/>
<path id="Vector_44" d="M116.405 56.4999C118.12 56.2249 121.465 54.3199 122.225 52.7549C122.92 51.1506 123.23 49.4057 123.13 47.6599C123.145 45.1733 122.567 42.7188 121.445 40.4999C118.86 35.7149 113.405 33.3699 108.35 31.3649L98.8899 27.6099C96.9749 26.8499 95.0198 26.0799 92.9648 25.9449C88.8898 25.6799 85.0398 27.9449 82.0598 30.7499C79.0798 33.5549 76.6849 36.9249 73.6599 39.6749C72.1849 41.0149 70.5648 42.1749 69.1998 43.6749C67.8348 45.1749 66.6998 46.9049 66.5048 48.8899C66.2148 51.7449 67.8948 54.4599 69.9598 56.4549C72.0248 58.4499 74.0398 60.7549 80.6698 61.5399" stroke="#263238" stroke-width="0.953494" stroke-linecap="round" stroke-linejoin="round"/>
<path id="Vector_45" d="M106.45 50.9998C107.826 50.1859 109.032 49.1127 110 47.8398" stroke="#263238" stroke-width="0.953494" stroke-linecap="round" stroke-linejoin="round"/>
<path id="Vector_46" d="M86.3698 54.6499C85.1711 54.2342 84.0761 53.5647 83.1597 52.6871C82.2433 51.8095 81.5271 50.7446 81.0598 49.5649" stroke="#263238" stroke-width="0.953494" stroke-linecap="round" stroke-linejoin="round"/>
<path id="Vector_47" d="M88.125 30.365C85.885 30.205 83.925 31.865 82.49 33.575C81.055 35.285 79.775 37.295 77.77 38.31" stroke="#263238" stroke-width="0.953494" stroke-linecap="round" stroke-linejoin="round"/>
<path id="Vector_48" d="M168.92 128.8L148.28 144.91C148.28 144.91 140.355 119.09 139.89 115.875C138.62 112.78 134.015 108.455 134.015 108.455C134.015 108.455 117.09 107.62 115.87 106.92C114.65 106.22 114.515 102.175 114.515 102.175C114.075 102.175 113.615 102.175 113.15 102.175C112.685 102.175 112.32 102.215 111.895 102.245C107.839 102.629 103.824 103.363 99.895 104.44C96.68 105.28 94.43 106.03 94.43 106.03L95.68 111.46L94.775 112.82C91.81 115.035 75.565 120.42 71.36 122.32C69.5189 123.776 67.7533 125.324 66.07 126.96C66.07 126.96 51.5 155.55 49.24 159.04C47.8648 161.227 47.1191 163.752 47.085 166.335C48.76 169.91 51.22 170.145 53.755 171.02C54.1807 171.163 54.5981 171.33 55.005 171.52C57.97 172.91 84.115 170.84 84.115 170.84C84.115 170.84 82.235 180.15 90.805 176.61C104.52 170.94 137.305 174.865 137.305 174.865L136.52 153.865L143.95 162.365C143.95 162.365 147.425 164.41 151.605 161.8C157.96 157.695 176.385 135.02 176.385 135.02C174.605 130.815 168.92 128.8 168.92 128.8ZM86.12 161.54L84.62 160.04C82.03 158.47 72.37 156.65 72.37 156.65L79.17 146.825C79.17 146.825 86.345 157.925 86.67 158.865C86.995 159.805 86.12 161.54 86.12 161.54Z" fill="white"/>
<path id="Vector_49" d="M100.425 183.945L101.965 217.13C101.965 217.13 96.925 215.87 95.525 213.77C94.125 211.67 91 180.215 91 180.215C91 180.215 94 182.965 100.425 183.945Z" fill="#00934C"/>
<path id="Vector_50" opacity="0.56" d="M100.425 183.945L101.965 217.13C101.965 217.13 96.925 215.87 95.525 213.77C94.125 211.67 91 180.215 91 180.215C91 180.215 94 182.965 100.425 183.945Z" fill="white"/>
<path id="Vector_51" d="M86.88 159.415L79 147.145L85.595 138.42C85.595 138.42 86.095 143.355 89.02 145.645C93.705 149.3 92.675 160.535 92.675 160.535L86.88 159.415Z" fill="#00934C"/>
<path id="Vector_52" opacity="0.6" d="M86.88 159.415L79 147.145L85.595 138.42C85.595 138.42 86.095 143.355 89.02 145.645C93.705 149.3 92.675 160.535 92.675 160.535L86.88 159.415Z" fill="white"/>
<path id="Vector_53" d="M134.8 127.45C134.8 127.45 140.52 152.895 143.835 156.95C147.15 161.005 147.22 145.195 148.39 144.975C149.56 144.755 151.515 154.24 150.76 157.105C150.76 157.105 151.21 158.605 152.87 157.105C154.53 155.605 175.155 136.5 175.155 136.5C175.155 136.5 153.96 163.315 147.9 163.15C142.775 163.86 137.24 154.7 137.24 154.7L134.8 127.45Z" fill="#00934C"/>
<path id="Vector_54" opacity="0.6" d="M134.8 127.45C134.8 127.45 140.52 152.895 143.835 156.95C147.15 161.005 147.22 145.195 148.39 144.975C149.56 144.755 151.515 154.24 150.76 157.105C150.76 157.105 151.21 158.605 152.87 157.105C154.53 155.605 175.155 136.5 175.155 136.5C175.155 136.5 153.96 163.315 147.9 163.15C142.775 163.86 137.24 154.7 137.24 154.7L134.8 127.45Z" fill="white"/>
<path id="Vector_55" d="M73.395 155.075L72.125 156.775C72.125 156.775 61.96 155.5 53.755 171C51.22 170.125 48.755 169.89 47.085 166.315C47.1191 163.732 47.8648 161.207 49.24 159.02C51.5 155.52 66.24 126.615 66.24 126.615C67.7508 124.961 69.4721 123.512 71.36 122.305C81.86 116.755 91.81 115.025 94.775 112.805L95.68 111.445L94.43 106.015C94.43 106.015 96.68 105.265 99.895 104.425L101.555 111.51C101.828 112.682 101.67 113.913 101.109 114.978C100.548 116.042 99.6213 116.868 98.5 117.305L74.5 126.56C72.9509 127.155 71.6832 128.312 70.95 129.8L57.81 156.34C58.075 156.105 63.3 150.79 73.395 155.075Z" fill="#00934C"/>
<path id="Vector_56" opacity="0.6" d="M73.395 155.075L72.125 156.775C72.125 156.775 61.96 155.5 53.755 171C51.22 170.125 48.755 169.89 47.085 166.315C47.1191 163.732 47.8648 161.207 49.24 159.02C51.5 155.52 66.24 126.615 66.24 126.615C66.24 126.615 69.39 123.76 71.36 122.305C81.315 117.175 91.81 115.025 94.775 112.805L95.68 111.445L94.43 106.015C94.43 106.015 96.68 105.265 99.895 104.425L101.555 111.51C101.828 112.682 101.67 113.913 101.109 114.978C100.548 116.042 99.6213 116.868 98.5 117.305L74.5 126.56C72.9509 127.155 71.6832 128.312 70.95 129.8L57.81 156.34C58.075 156.105 63.3 150.79 73.395 155.075Z" fill="white"/>
<path id="Vector_57" d="M171 127.525L177.33 118.58C177.33 118.58 181.8 115.58 183.42 114.8C185.04 114.02 185.275 112.485 186.045 113.025C186.815 113.565 186.12 116.73 184.5 117.73C182.88 118.73 181.03 119.73 181.26 120.43C181.49 121.13 190.905 120.275 190.905 120.275C190.905 120.275 202.905 120.115 203.08 121.045C203.255 121.975 195.61 123.36 195.61 123.36C195.61 123.36 203.825 123.27 203.845 123.74C203.865 124.21 199.16 125.83 199.16 125.83C199.16 125.83 202.485 126.005 202.325 126.725C202.165 127.445 198.775 128.375 198.775 128.375C198.775 128.375 191.83 132.62 190.275 133.315C188.72 134.01 178.165 132.695 178.165 132.695L176.36 135.03C176.36 135.03 173.305 130.69 170.065 128.84L171 127.525Z" fill="white"/>
<path id="Vector_58" d="M147.7 155.04C148.14 151.733 148.354 148.401 148.34 145.065" stroke="#263238" stroke-width="0.953494" stroke-linecap="round" stroke-linejoin="round"/>
<path id="Vector_59" d="M113.18 102.225C113.68 102.225 114.215 102.195 114.745 102.19L115.245 105.415C115.324 105.933 115.586 106.405 115.983 106.747C116.38 107.089 116.886 107.278 117.41 107.28L133.685 108.385C134.88 108.385 139.415 114.59 140.185 116.93L148.39 145L168.925 128.695C168.925 128.695 172.925 129.24 176.39 135.045C176.39 135.045 163.17 152.64 151.17 162.045C149.415 163.415 145.485 163.72 143.92 162.14C141.28 159.48 138.89 157.1 137.045 154.64" stroke="#263238" stroke-width="0.953494" stroke-linecap="round" stroke-linejoin="round"/>
<path id="Vector_60" d="M82.4199 146.47L86.5349 143.815" stroke="#263238" stroke-width="0.953494" stroke-linecap="round" stroke-linejoin="round"/>
<path id="Vector_61" d="M83.9448 147.365C85.0337 147.013 86.1769 146.861 87.3198 146.915" stroke="#263238" stroke-width="0.953494" stroke-linecap="round" stroke-linejoin="round"/>
<path id="Vector_62" d="M79.18 147.07C81.6803 150.557 83.9968 154.171 86.12 157.9C86.5892 158.735 86.7318 159.715 86.52 160.65L76.52 204.84" stroke="#263238" stroke-width="0.953494" stroke-linecap="round" stroke-linejoin="round"/>
<path id="Vector_63" d="M133.695 120.545L137.14 153.825C137.37 161.295 137.925 166.025 138.255 175.385" stroke="#263238" stroke-width="0.953494" stroke-linecap="round" stroke-linejoin="round"/>
<path id="Vector_64" d="M95.265 112.565L99.895 142.235L106.095 140.165C110.363 138.74 114.854 138.105 119.35 138.29L125.68 138.555L118.05 107H120.945L137.24 154.7L138.24 175.855C138.24 175.855 107.915 169.2 90.925 178.175L92.255 191.175C92.255 191.175 93.065 194.735 93.92 205.1L80.42 204.855H76.52L86.37 161.62C86.37 161.62 94.87 162.245 94.625 155.405C94.38 148.565 92.03 114.195 92.03 114.195L95.265 112.565Z" fill="#263238"/>
<path id="Vector_65" d="M107.605 112.285C107.605 112.564 107.522 112.836 107.367 113.068C107.212 113.3 106.992 113.481 106.734 113.588C106.477 113.694 106.193 113.722 105.92 113.668C105.646 113.614 105.395 113.479 105.198 113.282C105.001 113.085 104.866 112.834 104.812 112.56C104.758 112.287 104.786 112.003 104.892 111.745C104.999 111.488 105.18 111.268 105.412 111.113C105.643 110.958 105.916 110.875 106.195 110.875C106.569 110.875 106.928 111.024 107.192 111.288C107.456 111.552 107.605 111.911 107.605 112.285Z" fill="#263238"/>
<path id="Vector_66" d="M107.805 120.545C108.584 120.545 109.215 119.914 109.215 119.135C109.215 118.356 108.584 117.725 107.805 117.725C107.026 117.725 106.395 118.356 106.395 119.135C106.395 119.914 107.026 120.545 107.805 120.545Z" fill="#263238"/>
<path id="Vector_67" d="M116.62 156.805C121.717 155.935 126.843 155.258 132 154.775" stroke="white" stroke-width="0.953494" stroke-linecap="round" stroke-linejoin="round"/>
<path id="Vector_68" d="M107.81 158.5C109.903 158.057 112.005 157.645 114.115 157.265" stroke="white" stroke-width="0.953494" stroke-linecap="round" stroke-linejoin="round"/>
<path id="Vector_69" d="M132 156.605C127.853 158.272 123.675 159.853 119.465 161.35" stroke="white" stroke-width="0.953494" stroke-linecap="round" stroke-linejoin="round"/>
<path id="Vector_70" d="M131.03 121.205C131.461 123.912 132.084 126.586 132.895 129.205" stroke="#263238" stroke-width="0.953494" stroke-linecap="round" stroke-linejoin="round"/>
<path id="Vector_71" d="M191 124.1C191 124.1 203 122.1 203.085 121.045C203.17 119.99 194.445 120.545 192.39 120.365C190.335 120.185 181.725 121.29 181.44 120.75C181.155 120.21 181.855 120.085 183.75 118.505C185.645 116.925 187.04 114.135 186.53 113.25C186.02 112.365 184.33 114.33 183.03 115.05C181.985 115.635 178.03 117.875 177.315 118.855C176.6 119.835 171.845 126.395 170.045 128.895" stroke="#263238" stroke-width="0.953494" stroke-linecap="round" stroke-linejoin="round"/>
<path id="Vector_72" d="M191.275 124C191.275 124 203.915 122.84 203.865 123.76C203.785 125.295 195.31 126.505 191.84 126.76" stroke="#263238" stroke-width="0.953494" stroke-linecap="round" stroke-linejoin="round"/>
<path id="Vector_73" d="M191.76 126.805C191.76 126.805 202.505 125.305 202.345 126.725C202.185 128.145 189.97 130.46 189.97 130.46" stroke="#263238" stroke-width="0.953494" stroke-linecap="round" stroke-linejoin="round"/>
<path id="Vector_74" d="M175.945 135.6C177.15 133.87 177.945 132.68 177.945 132.68C177.945 132.68 188.295 133.815 189.78 133.53C191.265 133.245 198.25 128.77 198.25 128.77" stroke="#263238" stroke-width="0.953494" stroke-linecap="round" stroke-linejoin="round"/>
<path id="Vector_75" d="M180.5 124.04C181.647 124.18 182.738 124.62 183.661 125.315C184.584 126.01 185.308 126.936 185.76 128" stroke="#263238" stroke-width="0.953494" stroke-linecap="round" stroke-linejoin="round"/>
<path id="Vector_76" d="M150 146.075C151.165 147.86 151.295 150.105 151.39 152.235" stroke="#263238" stroke-width="0.953494" stroke-linecap="round" stroke-linejoin="round"/>
<path id="Vector_77" d="M91 178.765L94.705 210.39C94.705 210.39 94.53 213.72 97.325 215.39C100.12 217.06 112.37 219.78 119.21 219.355C126.05 218.93 134.71 218.5 137.87 216.075C141.03 213.65 140.29 207.1 140.29 207.1L142.57 187.3C142.57 187.3 144.645 179.74 142.145 177.47C137.575 173.35 99.06 170.22 91 178.765Z" fill="white"/>
<path id="Vector_78" d="M90.9998 180.215C92.4881 181.505 94.2257 182.475 96.1048 183.065C99.1048 183.965 136.025 182.905 140.605 182.01C145.185 181.115 143.525 177.365 140.975 176.315C138.425 175.265 114.74 171.815 104.28 174.195C94.9998 176.305 89.1998 176.465 90.9998 180.215Z" fill="#00934C"/>
<path id="Vector_79" opacity="0.6" d="M90.9999 180.215C92.4882 181.505 94.2258 182.475 96.1049 183.065C99.1049 183.965 136.025 182.905 140.605 182.01C145.185 181.115 143.525 177.365 140.975 176.315C138.425 175.265 117.535 172.23 104.935 173.955C95.6249 176.055 89.1999 176.465 90.9999 180.215Z" fill="white"/>
<path id="Vector_80" d="M143.55 179.305C143.55 180.305 142.485 181.205 140.6 182.01C136.195 183.91 127.32 185.2 117.1 185.2C107.34 185.2 98.8099 184.025 94.2299 182.27C91.9549 181.4 90.6499 180.39 90.6499 179.305C90.6499 176.045 102.495 173.405 117.1 173.405C131.705 173.405 143.55 176.045 143.55 179.305Z" stroke="#263238" stroke-width="0.953494" stroke-linecap="round" stroke-linejoin="round"/>
<path id="Vector_81" d="M140.6 182C136.195 183.9 127.32 185.19 117.1 185.19C107.34 185.19 98.81 184.015 94.23 182.26C97.655 180.12 106.84 178.58 117.635 178.58C128 178.59 136.875 180 140.6 182Z" fill="#263238"/>
<path id="Vector_82" d="M90.6399 179.305L94.7749 211.94C94.8667 212.686 95.1485 213.396 95.5932 214.002C96.0379 214.607 96.6308 215.089 97.3149 215.4C102.52 217.75 116.5 222.465 136.45 216.94C137.289 216.702 138.038 216.22 138.601 215.555C139.165 214.889 139.518 214.071 139.615 213.205L140.88 202.33L141.005 201.22L142.03 192.44L142.255 190.5L143.55 179.305" stroke="#263238" stroke-width="0.953494" stroke-linecap="round" stroke-linejoin="round"/>
<path id="Vector_83" d="M112.535 219.435C111.86 218.573 111.398 217.564 111.187 216.49C110.976 215.417 111.022 214.308 111.32 213.255C111.32 213.255 108.275 214.78 108.185 217.465C108.185 217.465 103.685 216.215 104.24 209.675C104.24 209.675 101.74 213.705 103.975 218.095C106.21 222.485 112.535 219.435 112.535 219.435Z" fill="#263238"/>
<path id="Vector_84" d="M124.2 219.455C126.397 217.211 127.835 214.334 128.31 211.23C128.937 213.44 128.901 215.786 128.205 217.975C129.17 217.545 130.018 216.889 130.679 216.064C131.339 215.238 131.792 214.266 132 213.23C132 213.23 132.635 217.23 130.735 219.455C128.835 221.68 124.2 219.455 124.2 219.455Z" fill="#263238"/>
<path id="Vector_85" d="M151.185 193.5C149.995 197.66 145.735 202.19 140.88 202.32L141.005 201.21C145.17 200.995 149.055 196.945 150.12 193.21C150.38 192.3 150.815 190.07 149.245 189.06C148.862 188.793 148.427 188.61 147.969 188.524C147.51 188.438 147.038 188.45 146.585 188.56C144.215 189.14 142.45 192.145 142.435 192.175C142.394 192.249 142.335 192.312 142.265 192.359C142.194 192.406 142.114 192.435 142.03 192.445L142.255 190.505C143.075 189.435 144.515 187.93 146.32 187.505C146.92 187.362 147.543 187.345 148.15 187.456C148.757 187.567 149.334 187.803 149.845 188.15C151.39 189.12 151.875 191.085 151.185 193.5Z" fill="#263238"/>
<path id="Vector_86" d="M113.11 181.085C115.82 182.62 119.16 182.705 122.19 181.99C123.258 181.782 124.277 181.372 125.19 180.78" stroke="white" stroke-width="0.953494" stroke-linecap="round" stroke-linejoin="round"/>
<path id="Vector_87" d="M129.145 181.285C128.305 182.135 127.278 182.775 126.145 183.155" stroke="white" stroke-width="0.953494" stroke-linecap="round" stroke-linejoin="round"/>
<path id="Vector_88" d="M94.245 203.27C84.34 204.445 83.355 193 86 191.195C88.645 189.39 93.905 195.58 93.905 195.58" stroke="white" stroke-width="1.90699" stroke-linecap="round" stroke-linejoin="round"/>
<path id="Vector_89" d="M120.415 180.775L100.75 145.035C100.75 145.035 98.5999 143.74 98.7499 146.325C98.8999 148.91 117 181 117 181L120.415 180.775Z" fill="white" stroke="#263238" stroke-width="0.953494" stroke-linecap="round" stroke-linejoin="round"/>
<path id="Vector_90" d="M112.945 188.5C118.895 188.865 126.445 188.72 132.905 186.725" stroke="#263238" stroke-width="0.953494" stroke-linecap="round" stroke-linejoin="round"/>
<path id="Vector_91" d="M102.47 187.245C102.47 187.245 104.47 187.65 107.625 188.03" stroke="#263238" stroke-width="0.953494" stroke-linecap="round" stroke-linejoin="round"/>
<path id="Vector_92" d="M83.79 141.385C79.7568 145.933 76.0966 150.799 72.845 155.935" stroke="#263238" stroke-width="0.953494" stroke-linecap="round" stroke-linejoin="round"/>
<path id="Vector_93" d="M70.5748 155.74C68.1365 155.175 65.5896 155.295 63.2148 156.085" stroke="#263238" stroke-width="0.953494" stroke-linecap="round" stroke-linejoin="round"/>
<path id="Vector_94" d="M69.7749 125.84C69.7749 125.84 78.7749 130.995 82.1099 138.915" stroke="#263238" stroke-width="0.953494" stroke-linecap="round" stroke-linejoin="round"/>
<path id="Vector_95" d="M77.2249 158.045C77.3949 164.505 81.4199 171.11 81.4199 171.11L96.2149 168.85L95.2149 165.985C95.7149 166.23 96.7449 166.145 97.4399 166.31C101.795 167.31 108.94 167.125 108.94 167.125C110.006 166.233 110.897 165.149 111.565 163.93C112.77 161.8 111.635 161.22 111.635 161.22C113.38 158.775 112.04 157.01 112.04 157.01C114.62 155.535 113.54 154.73 113.54 154.73C111.88 152.135 102.085 153.255 102.085 153.255L93.4999 160.5L87.6699 159.5L77.2249 158.045Z" fill="white"/>
<path id="Vector_96" d="M92.7048 160.595L93.9998 160.17L102.1 153.255C102.1 153.255 112.68 152.695 113.435 154.595C114.19 156.495 111.99 157.375 110.09 158.135" stroke="#263238" stroke-width="0.953494" stroke-linecap="round" stroke-linejoin="round"/>
<path id="Vector_97" d="M111.73 157.46C111.73 157.46 114.345 158.6 110.73 161.785" stroke="#263238" stroke-width="0.953494" stroke-linecap="round" stroke-linejoin="round"/>
<path id="Vector_98" d="M111.385 161.3C112.535 160.65 113.29 163.58 109.26 164.99" stroke="#263238" stroke-width="0.953494" stroke-linecap="round" stroke-linejoin="round"/>
<path id="Vector_99" d="M111.68 164.12L108.725 167.3C108.725 167.3 102.065 167.88 96.0798 165.95L95.4248 166.14" stroke="#263238" stroke-width="0.953494" stroke-linecap="round" stroke-linejoin="round"/>
<path id="Vector_100" d="M61.1699 161.575C62.5806 160.076 64.2804 158.878 66.1666 158.054C68.0529 157.23 70.0865 156.797 72.1449 156.78C72.9944 156.792 73.8372 156.932 74.6449 157.195C77.5399 158.1 89.4349 159.45 93.0649 160.725L96.2199 168.68C83.7649 171.83 67.1599 172.085 57.1799 171.62C54.6782 171.426 52.2422 170.725 50.0199 169.56C49.3722 169.227 48.797 168.77 48.3276 168.213C47.8582 167.657 47.5039 167.013 47.2853 166.318C47.0667 165.624 46.9881 164.893 47.0542 164.168C47.1202 163.443 47.3295 162.738 47.6699 162.095L65.5849 127.595C66.0849 126.66 69.5849 123.36 70.5499 122.97L79.6799 118.565C80.6572 118.096 81.6586 117.678 82.6799 117.315L92.7749 113.93C93.5399 113.62 95.7749 111.85 95.5549 111.045L94.3199 106C100.358 103.724 106.73 102.455 113.18 102.245" stroke="#263238" stroke-width="0.953494" stroke-linecap="round" stroke-linejoin="round"/>
</g>
</g>
<g id="freepik--Kitchen--inject-2">
<g id="freepik--Wall--inject-2">
<path id="Vector_101" d="M44.64 98.9351H33.835V105.455H44.64V98.9351Z" stroke="#263238" stroke-width="0.953494" stroke-linecap="round" stroke-linejoin="round"/>
<path id="Vector_102" d="M49.4449 107.34H38.6399V113.86H49.4449V107.34Z" stroke="#263238" stroke-width="0.953494" stroke-linecap="round" stroke-linejoin="round"/>
<path id="Vector_103" d="M221.035 96.8201H210.23V103.34H221.035V96.8201Z" stroke="#263238" stroke-width="0.953494" stroke-linecap="round" stroke-linejoin="round"/>
<path id="Vector_104" d="M214.3 105.225H203.495V111.745H214.3V105.225Z" stroke="#263238" stroke-width="0.953494" stroke-linecap="round" stroke-linejoin="round"/>
<path id="Vector_105" d="M62.135 187.81H53.105V190.24H62.135V187.81Z" stroke="#263238" stroke-width="0.953494" stroke-linecap="round" stroke-linejoin="round"/>
<path id="Vector_106" d="M67.2549 179.945H57.1299V186.465H67.2549V179.945Z" stroke="#263238" stroke-width="0.953494" stroke-linecap="round" stroke-linejoin="round"/>
</g>
<g id="freepik--Graphics--inject-2">
<g id="freepik--graphics--inject-2">
<path id="Vector_107" d="M146.625 57.94V30.54H215.345V78.995H205.105" stroke="#263238" stroke-width="0.953494" stroke-linecap="round" stroke-linejoin="round"/>
<path id="Vector_108" d="M146.625 67.9351V63.8201" stroke="#263238" stroke-width="0.953494" stroke-linecap="round" stroke-linejoin="round"/>
<path id="Vector_109" d="M155.84 78.995H146.625V70.635" stroke="#263238" stroke-width="0.953494" stroke-linecap="round" stroke-linejoin="round"/>
<path id="Vector_110" d="M165.2 35.44C165.204 35.6307 165.151 35.8182 165.048 35.9787C164.945 36.1392 164.797 36.2653 164.622 36.3411C164.446 36.4168 164.253 36.4387 164.065 36.4039C163.878 36.3692 163.705 36.2794 163.569 36.1459C163.432 36.0125 163.339 35.8415 163.3 35.6548C163.262 35.468 163.279 35.274 163.351 35.0974C163.423 34.9208 163.546 34.7697 163.705 34.6633C163.863 34.5569 164.049 34.5 164.24 34.5C164.491 34.4999 164.732 34.5983 164.912 34.7741C165.091 34.9498 165.195 35.1889 165.2 35.44Z" stroke="#263238" stroke-width="0.953494" stroke-linecap="round" stroke-linejoin="round"/>
<path id="Vector_111" d="M181 36.4749C181.53 36.4749 181.96 36.0451 181.96 35.5149C181.96 34.9847 181.53 34.5549 181 34.5549C180.47 34.5549 180.04 34.9847 180.04 35.5149C180.04 36.0451 180.47 36.4749 181 36.4749Z" stroke="#263238" stroke-width="0.953494" stroke-linecap="round" stroke-linejoin="round"/>
<path id="Vector_112" d="M198.89 35.44C198.894 35.6307 198.841 35.8182 198.738 35.9787C198.635 36.1392 198.486 36.2653 198.311 36.3411C198.136 36.4168 197.943 36.4387 197.755 36.4039C197.568 36.3692 197.395 36.2794 197.259 36.1459C197.122 36.0125 197.029 35.8415 196.99 35.6548C196.951 35.468 196.969 35.274 197.041 35.0974C197.113 34.9208 197.236 34.7697 197.395 34.6633C197.553 34.5569 197.739 34.5 197.93 34.5C198.181 34.4999 198.422 34.5983 198.602 34.7741C198.781 34.9498 198.885 35.1889 198.89 35.44Z" stroke="#263238" stroke-width="0.953494" stroke-linecap="round" stroke-linejoin="round"/>
<path id="Vector_113" d="M167.03 72.2201C166.832 72.2256 166.634 72.1906 166.45 72.1172C166.265 72.0437 166.097 71.9335 165.957 71.7931C165.817 71.6527 165.706 71.4851 165.633 71.3006C165.559 71.1161 165.524 70.9186 165.53 70.7201L166 42.0701C166.05 41.0301 165.695 40.1201 164.655 40.1201H163.945C162.92 40.1201 162.09 40.5901 162.115 41.6201L162.775 70.7601C162.78 70.9552 162.747 71.1493 162.676 71.3311C162.605 71.5129 162.498 71.6786 162.362 71.8184C162.226 71.9583 162.063 72.0694 161.883 72.1453C161.703 72.2211 161.51 72.2602 161.315 72.2601H161.215C160.832 72.2614 160.464 72.4129 160.191 72.6821C159.918 72.9513 159.762 73.3168 159.755 73.7001L159.57 86.9751C159.566 87.3159 159.63 87.6541 159.758 87.9698C159.887 88.2856 160.077 88.5724 160.318 88.8137C160.559 89.0549 160.845 89.2457 161.161 89.3747C161.476 89.5037 161.814 89.5685 162.155 89.5651L166.875 89.5051C167.214 89.5013 167.549 89.43 167.86 89.2955C168.171 89.1609 168.452 88.9658 168.687 88.7215C168.922 88.4772 169.106 88.1886 169.229 87.8724C169.351 87.5563 169.409 87.219 169.4 86.8801L169 73.6251C168.988 73.2387 168.824 72.8728 168.543 72.6075C168.261 72.3423 167.886 72.1993 167.5 72.2101L167.03 72.2201Z" stroke="#263238" stroke-width="0.953494" stroke-linecap="round" stroke-linejoin="round"/>
<path id="Vector_114" d="M163.315 42.2101C163.315 42.042 163.365 41.8777 163.458 41.7379C163.552 41.5981 163.684 41.4891 163.84 41.4248C163.995 41.3605 164.166 41.3436 164.331 41.3764C164.496 41.4092 164.647 41.4902 164.766 41.6091C164.885 41.7279 164.966 41.8794 164.999 42.0443C165.031 42.2092 165.015 42.3801 164.95 42.5354C164.886 42.6907 164.777 42.8235 164.637 42.9169C164.497 43.0103 164.333 43.0601 164.165 43.0601C163.939 43.0601 163.723 42.9706 163.564 42.8111C163.404 42.6517 163.315 42.4355 163.315 42.2101Z" stroke="#263238" stroke-width="0.953494" stroke-linecap="round" stroke-linejoin="round"/>
<path id="Vector_115" d="M161.12 85.8249V78.4299" stroke="#263238" stroke-width="0.953494" stroke-linecap="round" stroke-linejoin="round"/>
<path id="Vector_116" d="M162.535 85.8249V78.4299" stroke="#263238" stroke-width="0.953494" stroke-linecap="round" stroke-linejoin="round"/>
<path id="Vector_117" d="M164.155 85.7051L164.135 78.4351" stroke="#263238" stroke-width="0.953494" stroke-linecap="round" stroke-linejoin="round"/>
<path id="Vector_118" d="M165.88 85.8V78.405" stroke="#263238" stroke-width="0.953494" stroke-linecap="round" stroke-linejoin="round"/>
<path id="Vector_119" d="M167.705 85.78V78.385" stroke="#263238" stroke-width="0.953494" stroke-linecap="round" stroke-linejoin="round"/>
<path id="Vector_120" d="M197.125 42.665C197.122 42.4961 197.17 42.3301 197.261 42.1883C197.353 42.0464 197.485 41.9351 197.64 41.8686C197.796 41.8021 197.967 41.7835 198.133 41.8149C198.299 41.8464 198.452 41.9267 198.572 42.0454C198.693 42.1642 198.775 42.3161 198.808 42.4817C198.842 42.6473 198.825 42.8191 198.76 42.9752C198.696 43.1313 198.586 43.2646 198.445 43.3581C198.304 43.4516 198.139 43.501 197.97 43.5C197.748 43.4988 197.535 43.4107 197.378 43.2547C197.22 43.0986 197.129 42.887 197.125 42.665Z" stroke="#263238" stroke-width="0.953494" stroke-linecap="round" stroke-linejoin="round"/>
<path id="Vector_121" d="M198.14 74.055L199.925 42.29C199.939 42.0425 199.902 41.7948 199.816 41.562C199.731 41.3293 199.599 41.1163 199.429 40.9362C199.259 40.7561 199.053 40.6125 198.826 40.5143C198.598 40.4161 198.353 40.3653 198.105 40.365H197.775C197.532 40.3649 197.292 40.4133 197.069 40.5072C196.845 40.6011 196.642 40.7386 196.472 40.9118C196.302 41.085 196.168 41.2904 196.079 41.5158C195.989 41.7413 195.945 41.9824 195.95 42.225L196.35 61.115C196.44 65.4483 196.533 69.7933 196.63 74.15C196.635 74.3379 196.591 74.5238 196.504 74.6901C196.416 74.8564 196.288 74.9975 196.13 75.1C194.919 75.9445 194.036 77.1806 193.63 78.6C193.058 80.5112 192.937 82.5289 193.275 84.495C193.64 86.605 195.105 88.91 197.395 89.225C199.685 89.54 201.265 87.545 201.85 85.59C202.507 83.5204 202.622 81.3169 202.185 79.19C201.932 78.2205 201.479 77.3145 200.855 76.53C200.293 75.9175 199.599 75.4405 198.825 75.135C198.611 75.0507 198.43 74.9007 198.307 74.7066C198.183 74.5125 198.125 74.2844 198.14 74.055Z" stroke="#263238" stroke-width="0.953494" stroke-linecap="round" stroke-linejoin="round"/>
<path id="Vector_122" d="M194.58 84.005V79.76" stroke="#263238" stroke-width="0.953494" stroke-linecap="round" stroke-linejoin="round"/>
<path id="Vector_123" d="M200.64 84.005V79.76" stroke="#263238" stroke-width="0.953494" stroke-linecap="round" stroke-linejoin="round"/>
<path id="Vector_124" d="M196.385 84.9849V78.6799" stroke="#263238" stroke-width="0.953494" stroke-linecap="round" stroke-linejoin="round"/>
<path id="Vector_125" d="M199.255 84.9849V78.6799" stroke="#263238" stroke-width="0.953494" stroke-linecap="round" stroke-linejoin="round"/>
<path id="Vector_126" d="M197.785 87.04V77.71" stroke="#263238" stroke-width="0.953494" stroke-linecap="round" stroke-linejoin="round"/>
<path id="Vector_127" d="M180.965 43.3851C181.435 43.3851 181.815 43.0045 181.815 42.5351C181.815 42.0656 181.435 41.6851 180.965 41.6851C180.496 41.6851 180.115 42.0656 180.115 42.5351C180.115 43.0045 180.496 43.3851 180.965 43.3851Z" stroke="#263238" stroke-width="0.953494" stroke-linecap="round" stroke-linejoin="round"/>
<path id="Vector_128" d="M182.125 70.5L183.46 41.89C183.468 41.6451 183.427 41.4011 183.339 41.1724C183.251 40.9437 183.118 40.7351 182.948 40.5588C182.777 40.3826 182.573 40.2423 182.348 40.1463C182.123 40.0503 181.88 40.0005 181.635 40H180.38C180.132 40.0003 179.887 40.0511 179.659 40.1493C179.432 40.2475 179.227 40.3911 179.056 40.5712C178.886 40.7513 178.754 40.9643 178.669 41.197C178.583 41.4298 178.546 41.6775 178.56 41.925L180.115 70.73C180.13 70.9264 180.092 71.1232 180.004 71.2994C179.916 71.4755 179.781 71.6244 179.615 71.73C178.115 72.675 173.955 75.76 173.855 81.11C173.73 87.655 181.125 90.565 185.355 88.14C189.505 85.77 192.495 75.975 182.75 71.575C182.548 71.4821 182.379 71.3289 182.267 71.1365C182.155 70.944 182.106 70.7217 182.125 70.5Z" stroke="#263238" stroke-width="0.953494" stroke-linecap="round" stroke-linejoin="round"/>
<path id="Vector_129" d="M181.745 86.2801C181.999 86.2801 182.205 86.0742 182.205 85.8201C182.205 85.5661 181.999 85.3601 181.745 85.3601C181.491 85.3601 181.285 85.5661 181.285 85.8201C181.285 86.0742 181.491 86.2801 181.745 86.2801Z" stroke="#263238" stroke-width="0.953494" stroke-linecap="round" stroke-linejoin="round"/>
<path id="Vector_130" d="M178.335 84.665C178.328 84.6002 178.335 84.5348 178.355 84.4728C178.376 84.4109 178.408 84.3539 178.452 84.3055C178.496 84.2572 178.549 84.2185 178.608 84.192C178.668 84.1655 178.732 84.1519 178.798 84.1519C178.863 84.1519 178.927 84.1655 178.987 84.192C179.046 84.2185 179.099 84.2572 179.143 84.3055C179.187 84.3539 179.219 84.4109 179.24 84.4728C179.26 84.5348 179.267 84.6002 179.26 84.665C179.248 84.7794 179.194 84.8853 179.109 84.9623C179.023 85.0392 178.913 85.0819 178.798 85.0819C178.683 85.0819 178.572 85.0392 178.486 84.9623C178.401 84.8853 178.347 84.7794 178.335 84.665Z" stroke="#263238" stroke-width="0.953494" stroke-linecap="round" stroke-linejoin="round"/>
<path id="Vector_131" d="M184.745 85.1251C184.999 85.1251 185.205 84.9191 185.205 84.6651C185.205 84.411 184.999 84.2051 184.745 84.2051C184.491 84.2051 184.285 84.411 184.285 84.6651C184.285 84.9191 184.491 85.1251 184.745 85.1251Z" stroke="#263238" stroke-width="0.953494" stroke-linecap="round" stroke-linejoin="round"/>
<path id="Vector_132" d="M181.745 83.275C181.999 83.275 182.205 83.069 182.205 82.815C182.205 82.5609 181.999 82.355 181.745 82.355C181.491 82.355 181.285 82.5609 181.285 82.815C181.285 83.069 181.491 83.275 181.745 83.275Z" stroke="#263238" stroke-width="0.953494" stroke-linecap="round" stroke-linejoin="round"/>
<path id="Vector_133" d="M178.335 81.6599C178.334 81.5678 178.36 81.4774 178.411 81.4003C178.461 81.3231 178.534 81.2627 178.619 81.2268C178.703 81.1908 178.797 81.1809 178.888 81.1983C178.978 81.2156 179.061 81.2595 179.127 81.3244C179.193 81.3892 179.237 81.472 179.256 81.5624C179.274 81.6527 179.265 81.7465 179.23 81.8317C179.195 81.917 179.135 81.9899 179.059 82.0412C178.982 82.0925 178.892 82.1199 178.8 82.1199C178.678 82.12 178.56 82.0716 178.473 81.9855C178.386 81.8994 178.336 81.7824 178.335 81.6599Z" stroke="#263238" stroke-width="0.953494" stroke-linecap="round" stroke-linejoin="round"/>
<path id="Vector_134" d="M184.745 82.12C184.999 82.12 185.205 81.914 185.205 81.66C185.205 81.4059 184.999 81.2 184.745 81.2C184.491 81.2 184.285 81.4059 184.285 81.66C184.285 81.914 184.491 82.12 184.745 82.12Z" stroke="#263238" stroke-width="0.953494" stroke-linecap="round" stroke-linejoin="round"/>
<path id="Vector_135" d="M181.745 80.275C181.999 80.275 182.205 80.069 182.205 79.815C182.205 79.5609 181.999 79.355 181.745 79.355C181.491 79.355 181.285 79.5609 181.285 79.815C181.285 80.069 181.491 80.275 181.745 80.275Z" stroke="#263238" stroke-width="0.953494" stroke-linecap="round" stroke-linejoin="round"/>
<path id="Vector_136" d="M178.335 78.6601C178.328 78.5954 178.335 78.5299 178.355 78.468C178.376 78.406 178.408 78.349 178.452 78.3007C178.496 78.2523 178.549 78.2136 178.608 78.1871C178.668 78.1607 178.732 78.147 178.798 78.147C178.863 78.147 178.927 78.1607 178.987 78.1871C179.046 78.2136 179.099 78.2523 179.143 78.3007C179.187 78.349 179.219 78.406 179.24 78.468C179.26 78.5299 179.267 78.5954 179.26 78.6601C179.248 78.7745 179.194 78.8804 179.109 78.9574C179.023 79.0344 178.913 79.077 178.798 79.077C178.683 79.077 178.572 79.0344 178.486 78.9574C178.401 78.8804 178.347 78.7745 178.335 78.6601Z" stroke="#263238" stroke-width="0.953494" stroke-linecap="round" stroke-linejoin="round"/>
<path id="Vector_137" d="M184.745 79.12C184.999 79.12 185.205 78.914 185.205 78.66C185.205 78.4059 184.999 78.2 184.745 78.2C184.491 78.2 184.285 78.4059 184.285 78.66C184.285 78.914 184.491 79.12 184.745 79.12Z" stroke="#263238" stroke-width="0.953494" stroke-linecap="round" stroke-linejoin="round"/>
<path id="Vector_138" d="M181.745 75.19C181.999 75.19 182.205 74.9841 182.205 74.73C182.205 74.476 181.999 74.27 181.745 74.27C181.491 74.27 181.285 74.476 181.285 74.73C181.285 74.9841 181.491 75.19 181.745 75.19Z" stroke="#263238" stroke-width="0.953494" stroke-linecap="round" stroke-linejoin="round"/>
<path id="Vector_139" d="M178.335 75.8851C178.328 75.9499 178.335 76.0154 178.355 76.0773C178.376 76.1392 178.408 76.1962 178.452 76.2446C178.496 76.293 178.549 76.3316 178.608 76.3581C178.668 76.3846 178.732 76.3983 178.798 76.3983C178.863 76.3983 178.927 76.3846 178.987 76.3581C179.046 76.3316 179.099 76.293 179.143 76.2446C179.187 76.1962 179.219 76.1392 179.24 76.0773C179.26 76.0154 179.267 75.9499 179.26 75.8851C179.248 75.7707 179.194 75.6648 179.109 75.5879C179.023 75.5109 178.913 75.4683 178.798 75.4683C178.683 75.4683 178.572 75.5109 178.486 75.5879C178.401 75.6648 178.347 75.7707 178.335 75.8851Z" stroke="#263238" stroke-width="0.953494" stroke-linecap="round" stroke-linejoin="round"/>
<path id="Vector_140" d="M184.745 76.345C184.999 76.345 185.205 76.1391 185.205 75.885C185.205 75.631 184.999 75.425 184.745 75.425C184.491 75.425 184.285 75.631 184.285 75.885C184.285 76.1391 184.491 76.345 184.745 76.345Z" stroke="#263238" stroke-width="0.953494" stroke-linecap="round" stroke-linejoin="round"/>
</g>
</g>
</g>
</g>
</svg>
