<svg width="429" height="372" viewBox="0 0 429 372" fill="none" xmlns="http://www.w3.org/2000/svg">
<path d="M119.4 222.1C114.7 224.7 109.8 224.8 105.3 223.3C98.4 221 94.2001 214.8 97.6001 207.3C99.2001 203.7 102.8 201.5 106.6 200.2C107.9 199.7 108.6 200.5 108.1 202C107.7 203.4 107.3 204.8 107.1 206.3C106.7 208.9 107.9 210.6 110.4 211.4C110.7 211.5 110.9 211.6 111.2 211.6C113.1 211.5 115.5 212.4 116.7 210.4C117.9 208.5 116.4 206.6 115.5 204.9C113.8 201.5 111.7 198.2 109.8 194.9C108.8 193.2 109 191.3 109.5 189.6C110.1 187.7 112.9 187.1 114.4 188.4C117.9 191.5 122.1 192.5 126.6 193C130.2 193.4 133.8 194.2 137.5 194.4C146.7 194.9 155.8 194.7 165 194.5C171.9 194.3 178.7 193.2 185.7 193C189.3 192.9 192.8 191.9 196.4 191.7C201.5 191.4 206.4 190.1 211.4 189.6C214.4 189.3 217.3 188.4 220.2 187.7C225.7 186.3 231.2 184.9 236.6 183.2C243.6 181.1 250.5 178.6 257.3 175.9C261.8 174.1 266.2 172 270.6 169.8C274.3 168 277.9 166 281.5 164.1C284.4 162.5 287.3 160.7 289.9 158.7C294.3 155.4 298.8 152.1 302 147.4C305.7 142.1 305.2 137.6 299.6 133.6C293.7 129.4 287 128 280 126.8C274.2 125.8 268.4 124.9 262.4 125C264.8 123.6 267.5 123.7 270 123.1C279.1 121.1 288.2 121 297.2 123.6C304.3 125.6 310.3 129.5 314 136.2C314.9 137.9 315.4 139.8 315.4 141.9C315.3 147.1 315.4 152.3 315.4 157.6C317.2 156.8 318.8 155.1 320.5 153.6C323 151.3 325.5 149 327.3 146C328.8 143.6 328.8 141.1 326.9 139.2C325.5 137.8 323.9 136.7 322.4 135.5C321.3 134.7 320.1 133.8 320.5 132.3C320.9 130.9 322.3 130.4 323.7 130.4C329.7 130.1 334.7 132.3 337.8 137.5C339.5 140.3 339.6 143.8 339 147.1C337.6 154.1 333.8 159.6 328.6 164.5C325.5 167.4 322.2 169.9 318.4 171.6C317 172.3 316.5 173.1 316.9 174.9C318.2 182.4 318.2 190 318.2 197.7C318.2 202.8 317.6 207.8 316.2 212.7C314.9 217.2 313 221.4 310.2 225.3C306.3 230.7 301.3 234.8 295.8 238.4C291.6 241.2 287.2 243.7 282.6 245.8C279.7 247.1 276.9 248.4 274 249.6C270 251.3 265.9 252.8 261.7 254.3C259.1 255.2 256.4 256.1 253.7 256.9C248.7 258.4 243.6 259.8 238.5 261C234.9 261.9 231.3 262.6 227.6 263.4C221.4 264.7 215.2 265.6 208.9 266.5C196 268.2 183.1 268.9 170.1 268.2C162.8 267.8 155.7 266.8 148.9 264.2C141.3 261.3 134.5 256.9 129.4 250.2C125.7 245.5 123.1 240.3 121.5 234.6C120.3 230.6 119.2 226.6 119.4 222.1ZM158.2 255.7C159.5 255.7 160.9 255.7 162.2 255.7C163.2 255.7 164.4 255.6 164.6 254.5C164.8 253.6 163.8 252.7 162.9 252.3C158.9 250.4 155.1 248.1 151.6 245.4C147.9 242.5 145 238.8 143.3 234.5C140.3 227.2 138.4 219.5 138 211.5C137.9 210 137.1 208.9 135.9 208.4C134.8 207.9 133.7 208.9 133 209.7C132.3 210.6 131.5 211.7 131.3 212.8C130.2 218.4 129.1 223.9 129.8 229.7C130.1 232.6 130.6 235.6 131.3 238.4C132.4 243.3 134.5 247.8 139 250.4C144.9 254 151.2 255.9 158.2 255.7Z" fill="#00934C"/>
<path d="M150 110.4C146.2 110 142.7 109.3 139.1 108.3C133.6 106.7 130.8 102.1 132.4 96.6997C134.3 90.4997 138.5 86.2997 143.7 82.7997C146.3 81.0997 148.9 79.4997 151.8 78.4997C156.1 76.8997 160.4 76.0997 164.5 79.3997C167.1 81.4997 167.8 84.2997 167.5 87.3997C167.2 89.7997 166.6 92.1997 165.8 94.4997C165.2 96.1997 165.3 97.9997 164.9 99.6997C164.7 100.3 164.9 101.3 165.7 101.4C166.3 101.6 166.7 100.9 167.1 100.3C168 98.8997 168.3 97.3997 168.8 95.8997C169.9 92.0997 170.1 87.6997 173.7 85.0997C176.6 83.0997 179.6 81.2997 182.7 79.4997C185.3 77.9997 188.1 76.5997 190.8 75.2997C195.2 73.0997 199.7 70.9997 204.3 69.1997C207.9 67.7997 211.6 66.4997 215.3 65.2997C222.8 62.6997 230.5 61.8997 238.3 62.5997C245.1 63.1997 251.8 68.8997 253.1 75.4997C253.9 79.4997 253.7 83.6997 252.3 87.7997C250.2 93.8997 246.9 99.2997 242.9 104.2C239.7 108.2 235.9 111.9 232.1 115.4C226.6 120.4 220.8 125.1 214.8 129.7C210.6 132.9 206.3 136.1 201.9 139.1C198.1 141.7 194.4 144.5 190.5 147C186.6 149.5 182.6 151.9 178.6 154.2C174.1 156.9 169.7 159.6 165.1 162.1C160.4 164.7 155.5 166.9 150.7 169.4C147.9 170.9 145 172.2 142.1 173.5C136.9 175.8 131.8 178 126.4 179.7C124.1 180.4 121.8 181.2 119.4 181.9C113.6 183.4 107.8 185 101.8 184.6C96.7999 184.3 91.9999 183.2 88.3999 179.5C86.7999 177.8 85.6999 175.7 85.4999 173.1C84.8999 165.3 87.9999 158.7 91.8999 152.3C96.9999 144 103.7 137.1 111 130.7C116.2 126.2 121.4 121.8 126.5 117.2C128.5 115.3 130.8 113.7 133.1 112.2C135.2 110.8 137.7 111.1 140 111.5C142.5 111.9 145.1 111.6 147.6 111.7C148.6 111.7 149.1 110.7 150 110.4ZM131.4 129.6C128.1 131 125.7 133.2 123.3 135.3C115 142.4 108.1 150.4 105.2 161.2C104.4 164.3 104.1 167.4 105.8 170.4C107.3 173.1 112.2 173.6 114.4 171.3C116.4 169.2 116.8 166.5 117.3 164C118 160.2 118.7 156.4 119.9 152.8C122.2 146.3 125.6 140.4 129.1 134.5C129.9 133.1 131.2 131.8 131.4 129.6Z" fill="#00934C"/>
<path d="M263.6 143.7C257.1 141.2 251.5 137.9 248.7 131.2C247.5 128.2 247.6 125 248 121.8C249.1 113.8 254.2 108.9 260.5 104.7C266 101 272.1 98.0999 277.7 94.3999C282 91.4999 286.1 88.0999 288.4 83.2999C290.9 77.8999 291.6 72.3999 289.7 66.4999C287.4 59.5999 282.4 54.8999 276.9 50.5999C272.3 46.9999 267.6 43.5999 263.1 39.8999C259.1 36.5999 255.8 32.6999 254 27.7999C252.6 23.8999 252.1 19.6999 253.1 15.5999C254.6 9.1999 258.8 5.4999 264.7 2.9999C267.5 1.7999 270.3 1.3999 273.2 0.899902C270.8 1.9999 268.6 3.3999 266.5 4.9999C264.5 6.4999 262.7 8.1999 261.9 10.6999C260.9 14.1999 262.2 16.9999 264.3 19.5999C267.5 23.2999 271.6 25.9999 275.8 28.5999C279.3 30.6999 282.9 32.6999 286.4 34.5999C290.1 36.5999 294 38.3999 297.6 40.4999C301.3 42.5999 304.7 45.1999 307.7 48.2999C309.9 50.5999 311.9 53.0999 313.4 55.8999C317.1 62.7999 318.6 69.9999 316.6 77.9999C314.6 85.6999 309.9 91.3999 303.9 95.9999C298.8 99.9999 292.9 102.8 286.7 105C281.9 106.7 277.1 107.9 272.3 109.5C269.2 110.6 266.2 111.8 263.2 113.2C257 116.3 251.7 126 254.7 132.8C256.4 136.6 258.7 139.6 262 142.1C262.5 142.5 263.3 142.7 263.6 143.7Z" fill="#FCB116"/>
<path d="M5.20001 356.4C2.20001 356.1 0 353.9 0 350.9V295.9C0 292.7 2.40001 290.3 5.60001 290.3H36.3C37.8 290.3 39.1 290.9 40.2 292C41.3 293.1 41.8 294.4 41.8 295.9C41.8 297.5 41.2 298.8 40.2 299.9C39.1 301 37.8 301.6 36.3 301.6H11.1V317.5H29.7C32.9 317.5 35.3 320 35.3 323C35.3 324.6 34.7 325.8 33.7 326.8C32.6 327.9 31.3 328.4 29.7 328.4H11.1V345.6H36.3C37.8 345.6 39.1 346.2 40.2 347.3C41.3 348.4 41.8 349.7 41.8 351.2C41.8 352.8 41.2 354.1 40.2 355.1C39.1 356.2 37.8 356.7 36.3 356.7H5.20001V356.4Z" fill="#00934C"/>
<path d="M53.4998 349.8C48.6998 345 46.2998 339.3 46.2998 332.6C46.2998 326 48.8998 319.9 53.4998 315.3C58.0998 310.7 64.1998 308.1 70.6998 308.1C77.3998 308.1 83.1998 310.5 87.8998 315.3C92.6998 320.2 94.9998 325.9 94.9998 332.6V351.2C94.9998 352.8 94.3998 354.1 93.2998 355.2C92.1998 356.4 90.8998 356.9 89.2998 356.9C86.6998 356.9 84.6998 355.3 83.9998 352.9C79.8998 355.6 75.4998 357 70.5998 357C64.1998 356.9 57.9998 354.3 53.4998 349.8ZM70.5998 345.8C74.2998 345.8 77.3998 344.5 79.9998 341.9C82.5998 339.3 83.7998 336.2 83.7998 332.5C83.7998 328.8 82.4998 325.7 79.9998 323.1C77.3998 320.5 74.2998 319.2 70.5998 319.2C66.8998 319.2 63.7998 320.5 61.2998 323.1C58.6998 325.7 57.3998 328.8 57.3998 332.5C57.3998 336.2 58.6998 339.3 61.2998 341.9C63.8998 344.5 66.9998 345.8 70.5998 345.8Z" fill="#00934C"/>
<path d="M111.1 349.9C106.3 345.2 103.9 339.5 103.9 332.7V299.2C103.9 297.5 104.5 296.2 105.6 295.2C106.7 294.1 108 293.5 109.5 293.5C111.1 293.5 112.4 294.1 113.6 295.1C114.8 296.3 115.4 297.6 115.4 299.2V307.3H133C136.1 307.3 138.6 309.9 138.6 312.9C138.6 314.3 138 315.6 136.9 316.7C135.8 317.8 134.5 318.3 132.9 318.3H115.3V332.9C115.3 336.6 116.6 339.7 119.1 342.2C121.6 344.8 124.7 346 128.4 346C131.7 346 134.5 345 136.9 343C138.4 341.7 139.8 341.1 141.1 341.1C142.4 341.1 143.6 341.6 144.6 342.6C145.7 343.7 146.2 345 146.2 346.4C146.2 348.3 145.5 349.8 144.2 351.1C140 355.1 134.8 357.1 128.5 357.1C121.6 357 115.8 354.6 111.1 349.9Z" fill="#00934C"/>
<path d="M156.4 349.8C146.8 341 146.8 324.2 156.4 315.3C161.2 310.5 166.9 308.1 173.6 308.1C180.2 308.1 186.3 310.7 190.9 315.3C195.5 319.9 198.1 326.1 198.1 332.6C198.1 339.3 195.7 345.1 190.9 349.8C186.3 354.4 180.2 357 173.6 357C166.9 356.9 161.1 354.5 156.4 349.8ZM183.1 341.9C185.7 339.3 187 336.2 187 332.5C187 328.8 185.7 325.7 183.1 323.1C180.5 320.5 177.4 319.2 173.7 319.2C170 319.2 166.9 320.5 164.3 323.1C161.7 325.7 160.4 328.8 160.4 332.5C160.4 336.2 161.7 339.3 164.3 341.9C166.9 344.5 170 345.8 173.7 345.8C177.3 345.8 180.5 344.5 183.1 341.9Z" fill="#FCB116"/>
<path d="M205.1 354.8C203.9 353.7 203.3 352.4 203.3 350.9V331.7C203.3 325.1 205.6 319.6 210.2 314.9C214.7 310.3 220.2 308 226.8 308C233.2 308 239.2 310.5 243.6 314.9C248.3 319.6 250.6 325.1 250.6 331.7V350.9C250.6 352.5 250.1 353.7 249 354.8C247.9 355.9 246.6 356.4 245.1 356.4C243.5 356.4 242.2 355.8 241.1 354.8C239.9 353.7 239.4 352.5 239.4 350.9V331.8C239.4 328.2 238 325.3 235.6 322.9C233.1 320.4 230.2 319.2 226.7 319.2C223.2 319.2 220.3 320.4 217.9 322.8C215.5 325.2 214.4 328.2 214.4 331.7V350.9C214.4 352.5 213.9 353.7 212.8 354.8C211.7 355.9 210.4 356.4 208.9 356.4C207.5 356.4 206.2 355.8 205.1 354.8Z" fill="#00934C"/>
<path d="M264.6 349.8C255 341 255 324.2 264.6 315.3C269.4 310.5 275.1 308.1 281.8 308.1C288.4 308.1 294.5 310.7 299.1 315.3C303.7 319.9 306.3 326.1 306.3 332.6C306.3 339.3 303.9 345.1 299.1 349.8C294.5 354.4 288.4 357 281.8 357C275.1 356.9 269.3 354.5 264.6 349.8ZM291.2 341.9C293.8 339.3 295.1 336.2 295.1 332.5C295.1 328.8 293.8 325.7 291.2 323.1C288.6 320.5 285.5 319.2 281.8 319.2C278.1 319.2 275 320.5 272.4 323.1C269.8 325.7 268.5 328.8 268.5 332.5C268.5 336.2 269.8 339.3 272.4 341.9C275 344.5 278.1 345.8 281.8 345.8C285.5 345.8 288.6 344.5 291.2 341.9Z" fill="#FCB116"/>
<path d="M314.6 354.8C313.5 353.7 312.9 352.4 312.9 350.9V325.3C312.9 320.5 314.6 316.5 318 313.1C321.4 309.7 325.4 308 330.2 308C334.7 308 338.6 309.6 341.9 312.6C345.2 309.5 349.1 308 353.6 308C358.5 308 362.6 309.7 366 313.1C369.5 316.6 371.3 320.7 371.3 325.3V350.9C371.3 352.4 370.7 353.7 369.6 354.8C368.5 355.9 367.2 356.4 365.7 356.4C362.5 356.4 360.1 353.9 360.1 350.9V325.6C360.1 323.9 359.4 322.5 358.1 321.3C356.8 320.1 355.3 319.5 353.6 319.5C352 319.5 350.7 320.1 349.5 321.2C348.3 322.3 347.6 323.6 347.5 325.2C347.5 325.3 347.5 325.4 347.5 325.8V350.8C347.5 354 345 356.4 342 356.4C338.8 356.4 336.4 354 336.4 350.8V326L336.3 325.6V325.5C336.3 323.8 335.7 322.3 334.5 321.1C333.3 319.9 331.8 319.3 330.2 319.3C327 319.3 324.5 321.5 323.9 324.5C323.9 324.8 324 325.4 324 325.4L323.8 350.7C323.8 352.2 323.2 353.5 322.1 354.6C321 355.7 319.7 356.2 318.3 356.2C317 356.4 315.6 355.8 314.6 354.8Z" fill="#00934C"/>
<path d="M416.8 366.1V351C412.7 354.4 408.3 356.1 403.4 356.1C396.6 356.1 390.8 353.7 386 348.9C381.4 344.4 378.8 338.1 378.8 331.5V313.7C378.8 310.5 381.4 308 384.4 308C387.5 308 390 310.5 390 313.7V331.5C390 335.2 391.4 338.3 394 340.9C396.7 343.6 399.8 344.9 403.4 344.9C407 344.9 410 343.6 412.6 341.1C415.3 338.6 416.7 335.6 416.8 332.1V313.7C416.8 312.1 417.4 310.7 418.4 309.7C419.5 308.6 420.8 308 422.4 308C423.9 308 425.3 308.6 426.4 309.7C427.5 310.8 428.1 312.2 428.1 313.7V366C428.1 367.6 427.5 368.9 426.4 370C425.2 371.1 423.9 371.6 422.3 371.6C419 371.6 416.8 369.3 416.8 366.1Z" fill="#00934C"/>
</svg>
