<svg width="160" height="160" viewBox="0 0 160 160" fill="none" xmlns="http://www.w3.org/2000/svg">
<g id="Product quality-pana 1">
<g id="freepik--background-complete--inject-2">
<path id="Vector" d="M114.87 100.614H137.994V82.7776H114.87V100.614Z" fill="#EBEBEB"/>
<path id="Vector_2" d="M116.521 99.0559H119.309V95.9071H116.521V99.0559Z" fill="white"/>
<path id="Vector_3" d="M130.941 82.8224H128.313V86.6272H130.941V82.8224Z" fill="#FAFAFA"/>
<path id="Vector_4" d="M130.941 96.7551H128.313V100.56H130.941V96.7551Z" fill="#FAFAFA"/>
<path id="Vector_5" d="M120.64 100.736C120.598 100.736 120.566 96.8128 120.566 91.9744C120.566 87.136 120.598 83.2128 120.64 83.2128C120.682 83.2128 120.714 87.136 120.714 91.9744C120.714 96.8128 120.682 100.736 120.64 100.736Z" fill="#E0E0E0"/>
<path id="Vector_6" d="M105.44 131.328H145.337V100.553H105.44V131.328Z" fill="#EBEBEB"/>
<path id="Vector_7" d="M108.291 128.643H113.098V123.209H108.291V128.643Z" fill="white"/>
<path id="Vector_8" d="M133.165 100.634H128.633V107.2H133.165V100.634Z" fill="#FAFAFA"/>
<path id="Vector_9" d="M133.165 124.669H128.633V131.235H133.165V124.669Z" fill="#FAFAFA"/>
<path id="Vector_10" d="M115.398 131.539C115.328 131.539 115.27 124.771 115.27 116.422C115.27 108.074 115.328 101.306 115.398 101.306C115.468 101.306 115.523 108.074 115.523 116.422C115.523 124.771 115.468 131.539 115.398 131.539Z" fill="#E0E0E0"/>
<path id="Vector_11" d="M144.07 36.5471L146.208 40.8767L150.986 41.5711L147.53 44.9439L148.346 49.7023L144.07 47.4559L139.795 49.7023L140.611 44.9439L137.155 41.5711L141.933 40.8767L144.07 36.5471Z" fill="#EBEBEB"/>
<path id="Vector_12" d="M16.8032 92.4703L18.1504 95.1999L21.1616 95.6351L18.9824 97.7599L19.4976 100.762L16.8032 99.3439L14.1088 100.762L14.624 97.7599L12.4448 95.6351L15.456 95.1999L16.8032 92.4703Z" fill="#EBEBEB"/>
<path id="Vector_13" d="M18.4735 68.6912L21.4655 74.752L28.1535 75.7248L23.3151 80.4416L24.4575 87.104L18.4735 83.9584L12.4927 87.104L13.6351 80.4416L8.79346 75.7248L15.4815 74.752L18.4735 68.6912Z" fill="#EBEBEB"/>
<path id="Vector_14" d="M142.166 56.1023L143.456 58.7167L146.339 59.1359L144.253 61.1679L144.746 64.0383L142.166 62.6847L139.587 64.0383L140.08 61.1679L137.994 59.1359L140.877 58.7167L142.166 56.1023Z" fill="#EBEBEB"/>
<path id="Vector_15" d="M99.8559 13.7823L101.145 16.3935L104.029 16.8127L101.942 18.8479L102.435 21.7183L99.8559 20.3615L97.2767 21.7183L97.7695 18.8479L95.6831 16.8127L98.5663 16.3935L99.8559 13.7823Z" fill="#EBEBEB"/>
<path id="Vector_16" d="M129.35 41.7312L130.195 43.44L132.083 43.7152L130.717 45.0464L131.04 46.9248L129.35 46.0384L127.664 46.9248L127.987 45.0464L126.621 43.7152L128.509 43.44L129.35 41.7312Z" fill="#EBEBEB"/>
<path id="Vector_17" d="M51.4942 128.035L53.139 131.363L56.8126 131.898L54.1534 134.49L54.7838 138.15L51.4942 136.422L48.2078 138.15L48.835 134.49L46.1758 131.898L49.8526 131.363L51.4942 128.035Z" fill="#EBEBEB"/>
<path id="Vector_18" d="M55.8337 124.723L56.5121 126.099L58.0321 126.32L56.9313 127.392L57.1905 128.906L55.8337 128.189L54.4769 128.906L54.7361 127.392L53.6353 126.32L55.1553 126.099L55.8337 124.723Z" fill="#EBEBEB"/>
</g>
<g id="freepik--Stars--inject-2">
<path id="Vector_19" d="M116.521 111.974L117.968 114.902L121.2 115.373L118.861 117.651L119.414 120.87L116.521 119.35L113.632 120.87L114.185 117.651L111.846 115.373L115.078 114.902L116.521 111.974Z" fill="#00934C"/>
<path id="Vector_20" d="M123.417 109.379L124.099 110.758L125.619 110.979L124.518 112.054L124.777 113.571L123.417 112.854L122.054 113.571L122.316 112.054L121.212 110.979L122.736 110.758L123.417 109.379Z" fill="#00934C"/>
</g>
<g id="freepik--speech-bubble--inject-2">
<path id="Vector_21" d="M114.381 33.1713L115.52 29.6321C114.434 27.4456 114.105 24.9608 114.583 22.567C115.061 20.1731 116.319 18.0053 118.161 16.4034C120.003 14.8014 122.324 13.8558 124.761 13.7145C127.198 13.5733 129.613 14.2445 131.628 15.6229C133.643 17.0013 135.143 19.0092 135.895 21.3318C136.646 23.6545 136.605 26.1607 135.78 28.4579C134.954 30.7551 133.389 32.7135 131.331 34.0262C129.273 35.3389 126.838 35.9318 124.406 35.7121C122.034 35.5505 119.79 34.5789 118.048 32.9601L114.381 33.1713Z" fill="#FAFAFA"/>
<path id="Vector_22" d="M114.381 33.1712L114.624 33.152L115.331 33.1008L118.048 32.9152C119.395 34.1607 121.053 35.0187 122.848 35.3984C123.402 35.5215 123.965 35.6018 124.531 35.6384L125.427 35.6736C125.728 35.6736 126.039 35.6384 126.349 35.6224C129.156 35.3677 131.757 34.0418 133.613 31.92C134.659 30.7414 135.435 29.3491 135.888 27.84C136.352 26.2274 136.446 24.5308 136.163 22.8768C136.093 22.4516 135.995 22.0315 135.869 21.6192C135.812 21.4104 135.743 21.2052 135.661 21.0048C135.581 20.8 135.511 20.5952 135.424 20.3936C135.068 19.5798 134.617 18.8107 134.08 18.1024C133.813 17.7493 133.523 17.4137 133.213 17.0976C133.062 16.9364 132.902 16.7847 132.733 16.6432C132.57 16.4992 132.413 16.3424 132.24 16.2112L131.715 15.8208L131.453 15.6288L131.171 15.4624L130.618 15.1424C130.429 15.0368 130.231 14.9568 130.039 14.8608C128.568 14.1648 126.96 13.8075 125.333 13.8153C123.706 13.823 122.101 14.1956 120.637 14.9056C118.1 16.124 116.13 18.2727 115.136 20.9056C115.082 21.0528 115.031 21.2 114.979 21.344C114.921 21.4861 114.875 21.6327 114.842 21.7824C114.768 22.0768 114.698 22.368 114.627 22.6528C114.53 23.2109 114.464 23.7739 114.429 24.3392C114.357 26.1681 114.742 27.986 115.549 29.6288L114.691 32.2464L114.464 32.9248C114.413 33.0784 114.384 33.1584 114.384 33.1584C114.384 33.1584 114.403 33.0848 114.451 32.9344L114.656 32.2624L115.479 29.6096V29.6352C114.65 27.9893 114.25 26.1614 114.314 24.32C114.344 23.7483 114.407 23.1788 114.503 22.6144C114.573 22.3264 114.647 22.032 114.717 21.7344C114.751 21.5831 114.796 21.4345 114.851 21.2896C114.906 21.1424 114.957 20.9952 115.011 20.8448C115.546 19.4093 116.372 18.1004 117.439 17.001C118.505 15.9015 119.789 15.0354 121.207 14.4576C122.626 13.8798 124.149 13.6027 125.68 13.644C127.211 13.6854 128.717 14.0441 130.103 14.6976C130.298 14.7904 130.499 14.8736 130.691 14.9824L131.255 15.3184L131.536 15.488L131.805 15.6832L132.336 16.0768C132.512 16.2144 132.672 16.3712 132.839 16.5152C133.009 16.6597 133.171 16.8135 133.325 16.976C133.639 17.2986 133.933 17.6406 134.205 18C134.752 18.7124 135.213 19.4868 135.578 20.3072C135.664 20.512 135.735 20.7232 135.815 20.928C135.899 21.1366 135.971 21.3504 136.029 21.568C136.156 21.9876 136.254 22.4153 136.323 22.848C136.612 24.5266 136.516 26.2489 136.042 27.8848C135.587 29.4226 134.802 30.8425 133.741 32.0448C131.857 34.1867 129.222 35.5226 126.381 35.776C126.061 35.776 125.741 35.8208 125.447 35.8208L124.541 35.7824C123.969 35.7424 123.401 35.659 122.842 35.5328C121.04 35.1384 119.381 34.2599 118.042 32.992H118.067L115.325 33.136L114.627 33.168C114.458 33.1712 114.381 33.1712 114.381 33.1712Z" fill="#263238"/>
<path id="Vector_23" d="M119.139 24.32L120.954 22.7456L124.01 25.8848L130.864 20.176L132.314 21.984L123.533 29.1328L119.139 24.32Z" fill="#00934C"/>
</g>
<g id="freepik--Clipboard--inject-2">
<path id="Vector_24" d="M95.3956 111.837L34.0324 125.514C33.6772 125.595 33.3095 125.605 32.9504 125.543C32.5913 125.482 32.2479 125.35 31.9401 125.155C31.6322 124.96 31.366 124.706 31.1566 124.408C30.9473 124.11 30.799 123.773 30.7204 123.418L10.8196 34.0576C10.7403 33.7035 10.7317 33.3373 10.7941 32.9799C10.8566 32.6224 10.989 32.2809 11.1837 31.9747C11.3784 31.6685 11.6316 31.4038 11.9288 31.1956C12.226 30.9874 12.5613 30.8399 12.9156 30.7616L74.2788 17.0848C74.6331 17.0055 74.9995 16.9968 75.3571 17.0592C75.7148 17.1217 76.0566 17.254 76.363 17.4487C76.6694 17.6434 76.9345 17.8966 77.1429 18.1938C77.3514 18.491 77.4993 18.8264 77.578 19.1808L97.4916 108.541C97.5709 108.895 97.5795 109.261 97.517 109.618C97.4545 109.976 97.3222 110.318 97.1275 110.624C96.9328 110.93 96.6796 111.195 96.3824 111.403C96.0852 111.611 95.7499 111.758 95.3956 111.837Z" fill="#E0E0E0"/>
<path id="Vector_25" d="M95.3954 111.837L95.6002 111.779C95.7992 111.714 95.9911 111.63 96.173 111.526C96.4715 111.351 96.735 111.122 96.9506 110.851C97.2444 110.48 97.4373 110.039 97.5106 109.571C97.557 109.288 97.557 109 97.5106 108.717C97.4594 108.419 97.3794 108.106 97.309 107.779C97.1618 107.139 96.989 106.41 96.829 105.635C96.4813 104.084 96.0813 102.3 95.629 100.282C93.8274 92.2272 91.2226 80.5728 88.0034 66.1696C86.4035 58.9696 84.637 51.0816 82.7458 42.6112C81.8029 38.3786 80.8269 34.0053 79.8178 29.4912C79.3165 27.2341 78.8066 24.9461 78.2882 22.6272C78.0258 21.4688 77.7666 20.3008 77.501 19.1264C77.3568 18.541 77.0199 18.0211 76.5446 17.6503C76.0693 17.2794 75.4831 17.0791 74.8802 17.0816C74.5796 17.0882 74.2809 17.1312 73.9906 17.2096L73.0946 17.408L71.293 17.8112L67.6578 18.6208L60.2594 20.272L45.0146 23.68L12.9378 30.8224C12.2598 30.9726 11.6657 31.3783 11.279 31.9552C10.8922 32.532 10.7425 33.2357 10.861 33.92C11.1522 35.28 11.4658 36.6432 11.7634 38C12.3693 40.7093 12.9698 43.4026 13.565 46.08L17.085 61.8912C19.3954 72.256 21.6226 82.24 23.7442 91.776C25.8658 101.312 27.8786 110.336 29.7666 118.819C30.0013 119.886 30.2349 120.935 30.4674 121.968C30.5858 122.486 30.6914 123.011 30.8162 123.52C30.9507 124.021 31.2261 124.473 31.6098 124.822C31.9911 125.167 32.4611 125.397 32.9666 125.488C33.2173 125.529 33.4724 125.536 33.725 125.51C33.9746 125.478 34.2274 125.418 34.477 125.36L37.4562 124.698L48.7618 122.182L82.8802 114.602L92.1602 112.547L94.573 112.016L95.3954 111.837L94.5762 112.029L92.1634 112.573L82.8834 114.65L48.7714 122.275L37.4786 124.8L34.4994 125.466C34.2498 125.52 34.0002 125.584 33.7378 125.619C33.4755 125.646 33.2107 125.637 32.9506 125.594C32.4212 125.502 31.9291 125.26 31.5322 124.898C31.1354 124.536 30.8503 124.068 30.7106 123.549C30.5826 123.034 30.477 122.515 30.3586 121.997C30.1261 120.958 29.8914 119.908 29.6546 118.848C27.7666 110.378 25.7474 101.328 23.6226 91.8048C21.4978 82.2816 19.2706 72.2848 16.957 61.92L13.437 46.112C12.8418 43.4368 12.2413 40.7413 11.6354 38.0256C11.3346 36.6688 11.0242 35.312 10.7298 33.9392C10.6067 33.2223 10.7643 32.4855 11.1701 31.8819C11.576 31.2782 12.1987 30.8541 12.909 30.6976L44.989 23.5456L60.2434 20.16L67.6386 18.512L71.2738 17.7024L73.0786 17.28L73.9746 17.0816C74.2705 17.0049 74.5746 16.964 74.8802 16.96C75.5048 16.9614 76.1112 17.1707 76.6037 17.5549C77.0961 17.939 77.4468 18.4761 77.6002 19.0816C77.8626 20.2592 78.125 21.424 78.3842 22.5856C78.9069 24.9066 79.421 27.1914 79.9266 29.44C80.9272 33.952 81.901 38.3253 82.8482 42.56C84.733 51.0304 86.4866 58.9184 88.0898 66.1216C91.2898 80.5216 93.8818 92.1856 95.6738 100.243C96.1186 102.256 96.5154 104.048 96.861 105.597C97.0306 106.374 97.181 107.088 97.3346 107.744C97.405 108.064 97.485 108.384 97.533 108.682C97.581 108.968 97.581 109.26 97.533 109.546C97.4601 110.022 97.2637 110.471 96.9634 110.848C96.745 111.119 96.4794 111.347 96.1794 111.523C95.9951 111.627 95.7998 111.709 95.597 111.77L95.3954 111.837Z" fill="#263238"/>
<g id="Group" opacity="0.3">
<path id="Vector_26" d="M37.1429 122.349L93.0533 109.568L91.2869 98.6111L88.1157 92.4703L34.6309 113.478L37.1429 122.349Z" fill="black"/>
</g>
<g id="Group_2" opacity="0.3">
<path id="Vector_27" d="M60.4868 20.3616L62.602 23.8528L63.0116 25.7056L61.578 26.0256L60.4868 20.3616Z" fill="black"/>
</g>
<path id="Vector_28" d="M14.0034 34.5759L33.4018 121.616L94.205 108.067L90.7362 92.5023L74.8066 21.0239L14.0034 34.5759Z" fill="white"/>
<path id="Vector_29" d="M14.0032 34.576L74.8032 20.9728H74.8544V21.0272C80.2496 45.216 86.9792 75.4016 94.2624 108.067V108.134H94.1984L33.3984 121.68H33.3408V121.619C21.92 70.2208 14.1184 35.0976 14 34.5792C14.1184 35.1104 21.9712 70.224 33.4592 121.619L33.3856 121.574L94.1856 108.016L94.1344 108.096C86.8608 75.4368 80.1376 45.2512 74.752 21.056L74.816 21.0976L14.0032 34.576Z" fill="#263238"/>
<path id="Vector_30" d="M31.125 24.2194L57.9396 18.2453C58.4639 18.1284 59.0132 18.2247 59.4666 18.5129C59.92 18.8011 60.2403 19.2575 60.3572 19.7819L61.9062 26.7346L31.1311 33.5911L29.5835 26.6446C29.5246 26.3841 29.5178 26.1145 29.5635 25.8514C29.6092 25.5882 29.7064 25.3367 29.8497 25.1113C29.993 24.8859 30.1794 24.6911 30.3983 24.538C30.6171 24.3849 30.8641 24.2766 31.125 24.2194Z" fill="#263238"/>
<path id="Vector_31" d="M47.7025 17.0079L39.8721 18.7519L42.2817 25.2607L48.1793 23.9455L47.7025 17.0079Z" fill="#263238"/>
<path id="Vector_32" d="M57.9393 18.24C57.9393 18.2752 51.9521 19.6416 44.5505 21.2928C37.1489 22.944 31.1361 24.2592 31.1265 24.224C31.1169 24.1888 37.1137 22.8224 44.5217 21.1712C51.9297 19.52 57.9201 18.2144 57.9393 18.24Z" fill="#455A64"/>
<path id="Vector_33" d="M31.5072 31.9999C31.472 31.9999 31.1616 30.7519 30.816 29.1967C30.4704 27.6415 30.2144 26.3711 30.2528 26.3615C30.2912 26.3519 30.5984 27.6095 30.944 29.1679C31.2896 30.7263 31.5424 31.9999 31.5072 31.9999Z" fill="#455A64"/>
<path id="Vector_34" d="M60.4386 24.8447C60.1815 24.0029 59.9679 23.1485 59.7986 22.2847C59.5868 21.4405 59.418 20.5861 59.293 19.7247C59.5495 20.5613 59.7631 21.4104 59.933 22.2687C60.1453 23.1182 60.314 23.978 60.4386 24.8447Z" fill="#455A64"/>
<path id="Vector_35" d="M59.2193 26.3648C59.2193 26.4 53.0721 27.8016 45.4753 29.4944C37.8785 31.1872 31.7152 32.5344 31.6992 32.496C31.6832 32.4576 37.8432 31.0592 45.4593 29.3664C53.0753 27.6736 59.2001 26.3296 59.2193 26.3648Z" fill="#455A64"/>
<path id="Vector_36" d="M43.0244 51.6831C43.0244 51.7215 38.8804 52.6751 33.7444 53.8207C28.6084 54.9663 24.4644 55.8591 24.442 55.8239C24.4196 55.7887 28.602 54.8319 33.722 53.6895C38.842 52.5471 43.0148 51.6479 43.0244 51.6831Z" fill="#263238"/>
<path id="Vector_37" d="M73.9712 48.1984C73.9712 48.2368 63.1328 50.6848 49.7472 53.6672C36.3616 56.6496 25.4976 59.04 25.4912 59.0048C25.4848 58.9696 36.3264 56.5184 49.7184 53.536C63.1104 50.5536 73.9648 48.1632 73.9712 48.1984Z" fill="#263238"/>
<path id="Vector_38" d="M74.6404 51.2C74.6404 51.2352 63.7988 53.6832 50.4132 56.6688C37.0276 59.6544 26.1668 62.0416 26.1572 62.0032C26.1476 61.9648 36.9956 59.52 50.3844 56.5376C63.7732 53.5552 74.6308 51.1552 74.6404 51.2Z" fill="#263238"/>
<path id="Vector_39" d="M75.306 54.1824C75.306 54.2176 64.4676 56.6656 51.082 59.648C37.6964 62.6304 26.8324 65.024 26.8228 64.9856C26.8132 64.9472 37.6612 62.5024 51.0532 59.5168C64.4452 56.5312 75.2964 54.1472 75.306 54.1824Z" fill="#263238"/>
<path id="Vector_40" d="M75.9712 57.1744C75.9712 57.2096 65.1328 59.6576 51.7472 62.64C38.3616 65.6224 27.4976 68.0128 27.4912 67.9776C27.4848 67.9424 38.3264 65.4944 51.7184 62.5088C65.1104 59.5232 75.9648 57.136 75.9712 57.1744Z" fill="#263238"/>
<path id="Vector_41" d="M76.6402 60.16C76.6402 60.1984 65.7986 62.6464 52.413 65.6288C39.0274 68.6112 28.1602 71.0048 28.1602 70.9696C28.1602 70.9344 38.9986 68.4864 52.3874 65.5008C65.7762 62.5152 76.6306 60.128 76.6402 60.16Z" fill="#263238"/>
<path id="Vector_42" d="M37.5587 81.2191C37.5457 81.1871 37.536 81.1539 37.5299 81.1199L37.4595 80.8351C37.3987 80.5759 37.3123 80.2143 37.2067 79.7631C36.9923 78.8383 36.6915 77.5391 36.3331 75.9839L36.4035 76.0287L31.1555 77.2063C31.1555 77.2063 31.2515 77.0559 31.2067 77.1263V77.1487V77.1935L31.2259 77.2831L31.2675 77.4623L31.3443 77.8175C31.3987 78.0543 31.4499 78.2879 31.5011 78.5215C31.6035 78.9823 31.7059 79.4367 31.8019 79.8783C31.9971 80.7583 32.1795 81.5903 32.3491 82.3551L32.2787 82.3103L36.0707 81.4943L37.1491 81.2703L37.4371 81.2159L37.5395 81.1967C37.5395 81.1967 37.5139 81.1967 37.4499 81.2255L37.1779 81.2927L36.1219 81.5423L32.3203 82.4479H32.2627V82.3903L31.7059 79.9167C31.6067 79.4751 31.5043 79.0207 31.3859 78.5599C31.3347 78.3263 31.2803 78.0927 31.2291 77.8559C31.2003 77.7407 31.1747 77.6191 31.1491 77.5007L31.1075 77.3215L31.0883 77.2319V77.1871V77.1647V77.1487C31.0435 77.2223 31.1491 77.0527 31.1395 77.0687L36.3907 75.9071H36.4483V75.9647L37.2739 79.8047C37.3667 80.2527 37.4403 80.6111 37.4947 80.8671C37.5171 80.9823 37.5331 81.0719 37.5491 81.1455C37.5555 81.1695 37.5587 81.1943 37.5587 81.2191Z" fill="#263238"/>
<path id="Vector_43" d="M76.5668 68.2816L39.9541 76.4387L40.6347 79.4934L77.2474 71.3363L76.5668 68.2816Z" fill="#E0E0E0"/>
<path id="Vector_44" d="M39.5875 90.3263C39.5754 90.2929 39.5658 90.2587 39.5587 90.224C39.5395 90.1504 39.5171 90.0543 39.4883 89.9391C39.4275 89.6799 39.3411 89.3216 39.2355 88.8704C39.0211 87.9424 38.7203 86.6303 38.3619 85.0879L38.4323 85.1328L33.1843 86.3104C33.1843 86.3296 33.2803 86.16 33.2355 86.2336V86.2496V86.272V86.3167L33.2547 86.4063L33.2963 86.5855C33.3219 86.7071 33.3475 86.8256 33.3763 86.944L33.5299 87.6448C33.6323 88.1088 33.7347 88.56 33.8307 89.0016C34.0259 89.8816 34.2083 90.7135 34.3779 91.4783L34.3075 91.4336L38.1027 90.6208L39.1779 90.3967L39.4659 90.3391C39.4993 90.3298 39.5336 90.3245 39.5683 90.3232L39.4819 90.3487L39.2067 90.4159L38.1507 90.6687L34.3331 91.5487H34.2755V91.4912L33.7187 89.0175C33.6195 88.5759 33.5171 88.1216 33.3987 87.6608C33.3475 87.4304 33.2931 87.1936 33.2419 86.96C33.2163 86.8416 33.1875 86.7232 33.1619 86.6016L33.1203 86.4224L33.1011 86.3328V86.2879V86.2496L33.1523 86.1663L38.4003 85.0208H38.4579V85.0751C38.7971 86.6527 39.0979 87.9551 39.2835 88.9151C39.3763 89.3631 39.4499 89.7215 39.5043 89.9775C39.5267 90.0927 39.5427 90.1823 39.5587 90.2559C39.5713 90.2781 39.581 90.3017 39.5875 90.3263Z" fill="#263238"/>
<path id="Vector_45" d="M78.5942 77.3889L41.9814 85.546L42.662 88.6007L79.2748 80.4436L78.5942 77.3889Z" fill="#E0E0E0"/>
<path id="Vector_46" d="M41.6163 99.4303C41.6163 99.4303 41.6163 99.3919 41.5875 99.3279C41.5587 99.2639 41.5459 99.1583 41.5171 99.0431C41.4563 98.7839 41.3699 98.4255 41.2643 97.9743C41.0499 97.0495 40.7491 95.7343 40.3907 94.1919L40.4611 94.2367L35.2003 95.4143C35.2003 95.4335 35.2963 95.2639 35.2515 95.3375V95.3599V95.3823V95.4271L35.2707 95.5167L35.3123 95.6959C35.3379 95.8175 35.3635 95.9359 35.3923 96.0543L35.5459 96.7551C35.6483 97.2191 35.7507 97.6703 35.8467 98.1119L36.3939 100.589L36.3235 100.547L40.1187 99.7311L41.1939 99.5071L41.4819 99.4495C41.5159 99.4458 41.5503 99.4458 41.5843 99.4495L41.4979 99.4751L41.2227 99.5423L40.1667 99.7951L36.3491 100.675H36.2915V100.617C36.1219 99.8559 35.9331 99.0175 35.7347 98.1439C35.6355 97.7023 35.5331 97.2511 35.4147 96.7871C35.3635 96.5567 35.3091 96.3231 35.2579 96.0863C35.2323 95.9679 35.2035 95.8495 35.1779 95.7311L35.1395 95.5519L35.1171 95.4623V95.4143V95.3599C35.0723 95.4303 35.1779 95.2607 35.1683 95.2799L40.4195 94.1183H40.4771V94.1759L41.3027 98.0159C41.3955 98.4639 41.4691 98.8223 41.5235 99.0815C41.5459 99.1935 41.5651 99.2831 41.5779 99.3567C41.594 99.3793 41.6069 99.4041 41.6163 99.4303Z" fill="#263238"/>
<path id="Vector_47" d="M80.6254 86.4962L44.0127 94.6533L44.6933 97.708L81.306 89.5509L80.6254 86.4962Z" fill="#E0E0E0"/>
<path id="Vector_48" d="M32.5156 79.3408L33.066 78.4736L34.7012 79.3824L36.8068 76.208L37.6196 76.7712L34.906 80.7712L32.5156 79.3408Z" fill="#00934C"/>
<path id="Vector_49" d="M34.4771 88.1407L35.0275 87.2735L36.6627 88.1823L38.7651 85.0079L39.5811 85.5711L36.8642 89.5679L34.4771 88.1407Z" fill="#00934C"/>
<path id="Vector_50" d="M36.4897 97.1616L37.0401 96.2976L38.6721 97.2064L40.7777 94.032L41.5905 94.592L38.8769 98.592L36.4897 97.1616Z" fill="#00934C"/>
<path id="Vector_51" d="M53.2484 108.48C53.2484 108.518 50.1636 109.238 46.3428 110.08C42.522 110.922 39.418 111.59 39.4116 111.555C39.4052 111.52 42.4932 110.8 46.314 109.955C50.1348 109.11 53.2388 108.448 53.2484 108.48Z" fill="#263238"/>
<path id="Vector_52" d="M60.1408 106.835C59.3056 107.092 58.4575 107.306 57.6 107.475C56.7556 107.685 55.9012 107.853 55.04 107.978C55.8744 107.721 56.7214 107.507 57.5776 107.338C58.9824 107.027 60.1344 106.8 60.1408 106.835Z" fill="#263238"/>
<path id="Vector_53" d="M82.9698 99.6512C82.9698 99.6864 80.1954 100.339 76.7586 101.104C73.3218 101.869 70.525 102.461 70.5186 102.426C70.5122 102.39 73.2898 101.741 76.7298 100.973C80.1698 100.205 82.9634 99.616 82.9698 99.6512Z" fill="#263238"/>
<path id="Vector_54" d="M80.0002 108.074C80.0002 108.074 80.029 107.987 80.061 107.821C80.1033 107.575 80.0902 107.322 80.0226 107.082C79.9088 106.701 79.761 106.332 79.581 105.977C79.3259 105.508 79.1762 104.988 79.1426 104.454C79.1502 104.126 79.2264 103.803 79.3664 103.506C79.5064 103.209 79.707 102.944 79.9554 102.729C80.2464 102.488 80.5946 102.325 80.9665 102.256C81.3385 102.187 81.7219 102.215 82.0802 102.336C82.4736 102.456 82.8245 102.685 83.0914 102.998C83.2335 103.167 83.3177 103.377 83.3314 103.597C83.335 103.715 83.3006 103.831 83.2332 103.929C83.1658 104.026 83.069 104.099 82.957 104.137C82.7477 104.205 82.5338 104.258 82.317 104.294L81.677 104.425C81.2482 104.512 80.813 104.589 80.365 104.646C79.4973 104.771 78.6165 104.777 77.7474 104.662C77.3547 104.578 76.9446 104.644 76.5986 104.848C76.3236 105.125 76.0908 105.441 75.9074 105.785C75.796 105.955 75.6413 106.092 75.4594 106.182C75.2743 106.264 75.0653 106.273 74.8738 106.208C74.5446 106.061 74.2315 105.881 73.9394 105.67C73.8039 105.58 73.6495 105.522 73.4882 105.501C73.3372 105.484 73.1853 105.521 73.0594 105.606C72.838 105.809 72.6549 106.049 72.5186 106.317C72.373 106.546 72.1742 106.737 71.9391 106.873C71.704 107.009 71.4395 107.086 71.1682 107.097C70.7578 107.114 70.3567 106.972 70.0482 106.701C69.8543 106.533 69.7021 106.323 69.6034 106.086C69.5689 106.005 69.5441 105.92 69.5298 105.834C69.5298 105.834 69.5586 105.92 69.629 106.077C69.7327 106.303 69.8871 106.502 70.0802 106.659C70.3811 106.914 70.768 107.044 71.1618 107.024C71.4206 107.011 71.6723 106.935 71.8953 106.803C72.1183 106.67 72.3058 106.486 72.4418 106.265C72.5825 105.986 72.7734 105.734 73.005 105.523C73.1507 105.422 73.3275 105.375 73.5042 105.392C73.6793 105.418 73.8471 105.48 73.997 105.574C74.2843 105.778 74.5908 105.952 74.9122 106.096C75.0766 106.151 75.2557 106.143 75.4146 106.074C75.5774 105.993 75.7139 105.867 75.8082 105.712C75.9984 105.358 76.2399 105.035 76.525 104.752C76.7022 104.625 76.9098 104.548 77.1266 104.528C77.3393 104.505 77.5539 104.505 77.7666 104.528C78.6263 104.639 79.4971 104.634 80.3554 104.512C80.797 104.454 81.229 104.374 81.6578 104.291L82.2978 104.163C82.5033 104.125 82.7063 104.075 82.9058 104.013C82.9935 103.985 83.0697 103.929 83.1228 103.854C83.1759 103.779 83.2031 103.689 83.2002 103.597C83.1857 103.405 83.1119 103.223 82.989 103.075C82.7365 102.775 82.4034 102.553 82.029 102.435C81.6896 102.32 81.3265 102.293 80.9738 102.357C80.6211 102.42 80.2905 102.573 80.013 102.8C79.7746 103.003 79.5813 103.253 79.4457 103.536C79.3101 103.818 79.2352 104.125 79.2258 104.438C79.2546 104.96 79.3942 105.469 79.6354 105.933C79.8124 106.292 79.9549 106.667 80.061 107.053C80.1236 107.3 80.1291 107.558 80.077 107.808C80.0619 107.899 80.0362 107.988 80.0002 108.074Z" fill="#263238"/>
<path id="Vector_55" d="M86.6145 103.978C86.5606 103.999 86.5049 104.016 86.4481 104.029L85.9617 104.144L84.1761 104.557C82.6721 104.909 80.5921 105.402 78.3041 105.981C76.0161 106.56 73.9521 107.12 72.4641 107.53L70.6977 108.016L70.2145 108.144C70.1591 108.161 70.1024 108.174 70.0449 108.182C70.0964 108.154 70.1513 108.133 70.2081 108.118L70.6817 107.968C71.0945 107.837 71.6929 107.648 72.4353 107.44C73.9233 107.005 75.9809 106.432 78.2721 105.84C80.5633 105.248 82.6433 104.781 84.1569 104.458C84.9121 104.294 85.5265 104.166 85.9521 104.083L86.4417 103.99C86.4988 103.981 86.5567 103.977 86.6145 103.978Z" fill="#263238"/>
<path id="Vector_56" d="M60.3677 33.7623L35.5146 39.2994L36.555 43.969L61.408 38.4319L60.3677 33.7623Z" fill="#E0E0E0"/>
</g>
<g id="freepik--Character--inject-2">
<path id="Vector_57" d="M83.8784 109.539L91.9072 151.958L99.2448 138.4L113.152 146.563L98.3904 105.258L83.8784 109.539Z" fill="#00934C"/>
<g id="Group_3" opacity="0.3">
<path id="Vector_58" d="M86.5793 123.805C87.3437 123.949 88.1316 123.905 88.8752 123.677C89.6188 123.449 90.2959 123.044 90.8481 122.496C91.5809 121.741 92.0673 120.711 92.9889 120.205C93.8177 119.751 94.8385 119.814 95.7505 120.067C96.6625 120.32 97.5201 120.739 98.4321 120.976C99.332 121.205 100.269 121.253 101.187 121.117C102.106 120.981 102.988 120.663 103.783 120.183L101.466 113.75L90.7137 112.406L85.5938 118.566L86.5793 123.805Z" fill="black"/>
</g>
<path id="Vector_59" d="M98.723 136.717C98.6782 136.717 97.4814 132.32 96.051 126.877C94.6206 121.434 93.491 117.005 93.5422 116.995C93.5934 116.986 94.7806 121.386 96.211 126.835C97.6414 132.285 98.7678 136.704 98.723 136.717Z" fill="#263238"/>
<path id="Vector_60" d="M85.0529 111.744L77.0241 154.163L69.6865 140.608L55.7793 148.768L70.5409 107.462L85.0529 111.744Z" fill="#00934C"/>
<g id="Group_4" opacity="0.3">
<path id="Vector_61" d="M66.125 119.818C66.125 119.818 68.4098 121.696 71.133 120.832C73.8562 119.968 75.549 119.782 77.0242 120.832C78.4994 121.882 82.4898 125.296 82.4898 125.296L83.4146 120.403L78.0546 113.043L72.461 114.173L68.4802 114.56L66.9986 117.366L66.125 119.818Z" fill="black"/>
</g>
<path id="Vector_62" d="M132.128 73.4529C132.128 76.4961 128.24 79.1169 127.67 81.9937C127.085 84.9569 129.664 88.8641 128.534 91.5937C127.405 94.3233 122.774 95.3025 121.133 97.7697C119.491 100.237 120.355 104.858 118.253 106.963C116.15 109.069 111.533 108.182 109.059 109.843C106.586 111.504 105.658 116.093 102.883 117.245C100.157 118.374 96.2495 115.795 93.2831 116.381C90.4031 116.95 87.7855 120.838 84.7423 120.838C81.6991 120.838 79.0751 116.95 76.1983 116.381C73.2351 115.795 69.3279 118.374 66.5983 117.245C63.8687 116.115 62.8927 111.485 60.4255 109.843C57.9583 108.202 53.3375 109.066 51.2287 106.963C49.1199 104.861 50.0095 100.243 48.3487 97.7697C46.6879 95.2961 42.0991 94.3681 40.9503 91.5937C39.8015 88.8193 42.3999 84.9601 41.8143 81.9937C41.2447 79.1137 37.3535 76.4961 37.3535 73.4529C37.3535 70.4097 41.2447 67.7857 41.8143 64.9089C42.3999 61.9457 39.8175 58.0385 40.9503 55.3089C42.0831 52.5793 46.7103 51.6001 48.3487 49.1361C49.9871 46.6721 49.1263 42.0481 51.2287 39.9393C53.3311 37.8305 57.9487 38.7201 60.4255 37.0593C62.9023 35.3985 63.8239 30.8097 66.5983 29.6609C69.3727 28.5121 73.2319 31.1105 76.1983 30.5249C79.0783 29.9553 81.6991 26.0641 84.7423 26.0641C87.7855 26.0641 90.4063 29.9553 93.2831 30.5249C96.2463 31.1105 100.154 28.5281 102.883 29.6609C105.658 30.8097 106.592 35.4209 109.059 37.0593C111.526 38.6977 116.147 37.8369 118.253 39.9393C120.358 42.0417 119.472 46.6593 121.133 49.1361C122.794 51.6129 127.382 52.5345 128.534 55.3089C129.686 58.0833 127.085 61.9425 127.67 64.9089C128.24 67.7857 132.128 70.4001 132.128 73.4529Z" fill="#00934C"/>
<path id="Vector_63" d="M73.6546 46.8896C73.6546 46.8896 73.6194 46.848 73.5682 46.7584C73.517 46.6688 73.437 46.5248 73.3506 46.368C73.1618 46.0288 72.9026 45.5296 72.5954 44.9088C71.9778 43.6672 71.1778 41.92 70.4066 39.9488C69.6354 37.9776 69.0434 36.1472 68.6562 34.8288C68.4642 34.16 68.317 33.6192 68.2242 33.2288C68.1826 33.056 68.1474 32.9088 68.1218 32.7936C68.1052 32.7441 68.0966 32.6922 68.0962 32.64C68.121 32.6867 68.1404 32.7361 68.1538 32.7872L68.285 33.2128C68.4098 33.6064 68.573 34.1376 68.7682 34.7808C69.1842 36.1024 69.7954 37.9168 70.5602 39.9008C71.325 41.8848 72.1122 43.616 72.701 44.8704L73.4082 46.352L73.597 46.7552C73.6202 46.7982 73.6395 46.8432 73.6546 46.8896Z" fill="#263238"/>
<path id="Vector_64" d="M77.8718 45.2864C77.8158 45.1747 77.7739 45.0565 77.747 44.9344C77.6798 44.704 77.5902 44.368 77.4846 43.952C77.2734 43.1232 77.011 41.9648 76.7742 40.6784C76.5374 39.392 76.371 38.2176 76.275 37.3664C76.2238 36.9408 76.1918 36.5952 76.1726 36.3552C76.1579 36.2319 76.1579 36.1073 76.1726 35.984C76.2094 36.1028 76.2341 36.225 76.2462 36.3488L76.3998 37.3504C76.5278 38.1984 76.7198 39.3664 76.947 40.6496C77.1742 41.9328 77.427 43.0912 77.6062 43.9264C77.6926 44.3168 77.763 44.6496 77.8206 44.9184C77.8499 45.0391 77.8671 45.1623 77.8718 45.2864Z" fill="#263238"/>
<path id="Vector_65" d="M85.3119 44.5472C85.2639 44.5472 85.1455 40.9568 85.0463 36.5312C84.9471 32.1056 84.9023 28.512 84.9471 28.5088C84.9919 28.5056 85.1135 32.096 85.2127 36.528C85.3119 40.96 85.3567 44.5472 85.3119 44.5472Z" fill="#263238"/>
<path id="Vector_66" d="M92.8002 37.1712C92.845 37.1712 92.3266 38.9792 91.645 41.1808C90.9634 43.3824 90.365 45.152 90.333 45.1392C90.301 45.1264 90.8066 43.3312 91.4882 41.1296C92.1698 38.928 92.7522 37.1584 92.8002 37.1712Z" fill="#263238"/>
<path id="Vector_67" d="M95.8525 46.448C95.8588 46.395 95.8728 46.3433 95.8941 46.2944L96.0381 45.872C96.1661 45.5072 96.3581 44.9824 96.6141 44.336C97.1165 43.056 97.8333 41.2672 98.6525 39.3152C99.4717 37.3632 100.233 35.6064 100.793 34.3392C101.069 33.7248 101.296 33.2192 101.469 32.8416L101.657 32.4384C101.705 32.3488 101.731 32.3008 101.737 32.304C101.726 32.3544 101.71 32.4036 101.689 32.4512L101.526 32.8672L100.902 34.3872C100.355 35.6864 99.6221 37.44 98.8061 39.3824C97.9901 41.3248 97.2669 43.0784 96.7229 44.3808L96.0989 45.8976L95.9229 46.3072C95.9054 46.3568 95.8817 46.4041 95.8525 46.448Z" fill="#263238"/>
<path id="Vector_68" d="M99.8398 48.5345C99.8884 48.4213 99.9496 48.3139 100.022 48.2145C100.15 48.0097 100.342 47.7185 100.579 47.3633C101.059 46.6561 101.75 45.6897 102.553 44.6593C103.357 43.6289 104.128 42.7393 104.697 42.0993C104.982 41.7793 105.219 41.5265 105.385 41.3537C105.466 41.2578 105.557 41.1718 105.657 41.0977C105.596 41.2068 105.52 41.3079 105.433 41.3985C105.261 41.6097 105.043 41.8689 104.793 42.1761C104.246 42.8353 103.494 43.7473 102.691 44.7777C101.888 45.8081 101.187 46.7585 100.681 47.4497L100.083 48.2657C100.012 48.3635 99.93 48.4536 99.8398 48.5345Z" fill="#263238"/>
<path id="Vector_69" d="M105.67 53.3025C105.638 53.2705 108.173 50.864 111.325 47.9296C114.477 44.9952 117.062 42.6432 117.085 42.6752C117.107 42.7072 114.585 45.1169 111.43 48.0513C108.275 50.9857 105.702 53.3377 105.67 53.3025Z" fill="#263238"/>
<path id="Vector_70" d="M115.84 54.2976C115.531 54.4927 115.211 54.668 114.88 54.8224C114.278 55.1424 113.462 55.5872 112.56 56.1024C111.657 56.6176 110.825 57.0464 110.208 57.3344C109.888 57.4784 109.651 57.5904 109.472 57.6544C109.384 57.7 109.29 57.7323 109.193 57.7504C109.502 57.5553 109.823 57.38 110.153 57.2256C110.755 56.9056 111.571 56.4608 112.473 55.9456C113.376 55.4304 114.208 54.9856 114.825 54.7136C115.145 54.5696 115.382 54.4576 115.561 54.3936C115.648 54.3467 115.742 54.3143 115.84 54.2976Z" fill="#263238"/>
<path id="Vector_71" d="M125.245 58.1985C125.261 58.2433 122.246 59.3441 118.525 60.6593C114.803 61.9745 111.754 63.0017 111.741 62.9601C111.728 62.9185 114.736 61.8145 118.461 60.4993C122.186 59.1841 125.229 58.1569 125.245 58.1985Z" fill="#263238"/>
<path id="Vector_72" d="M128.24 75.3089C128.24 75.3537 124.96 75.0817 120.925 74.6977C116.89 74.3137 113.619 73.9649 113.625 73.9169C113.632 73.8689 116.902 74.1473 120.941 74.5313C124.979 74.9153 128.243 75.2641 128.24 75.3089Z" fill="#263238"/>
<path id="Vector_73" d="M125.83 90.656C125.811 90.6976 122.749 89.2896 118.992 87.5168C115.235 85.744 112.205 84.2688 112.224 84.2272C112.243 84.1856 115.305 85.5904 119.062 87.3664C122.819 89.1424 125.849 90.6144 125.83 90.656Z" fill="#263238"/>
<path id="Vector_74" d="M115.757 105.258C115.721 105.286 113.517 102.723 110.825 99.536C108.134 96.3488 105.984 93.7344 106.025 93.7056C106.067 93.6768 108.265 96.2368 110.957 99.4272C113.648 102.618 115.792 105.226 115.757 105.258Z" fill="#263238"/>
<path id="Vector_75" d="M107.347 107.2C107.248 107.089 107.159 106.969 107.082 106.842C106.919 106.605 106.688 106.256 106.413 105.824C105.856 104.957 105.111 103.744 104.323 102.384C103.536 101.024 102.864 99.7697 102.403 98.8641C102.17 98.4065 101.981 98.0353 101.859 97.7761C101.787 97.6443 101.727 97.5061 101.68 97.3633C101.771 97.4827 101.85 97.6102 101.917 97.7441C102.071 98.0257 102.269 98.3841 102.509 98.8097C103.005 99.7089 103.696 100.95 104.48 102.31C105.264 103.67 105.994 104.89 106.525 105.77C106.775 106.192 106.986 106.541 107.149 106.816C107.229 106.936 107.296 107.065 107.347 107.2Z" fill="#263238"/>
<path id="Vector_76" d="M102.125 114.528C102.125 114.528 102.093 114.486 102.042 114.397L101.834 114.006C101.651 113.664 101.405 113.165 101.111 112.544C100.522 111.299 99.7633 109.552 99.0433 107.574C98.3233 105.597 97.7793 103.773 97.4433 102.454C97.2673 101.789 97.1233 101.245 97.0529 100.87C97.0177 100.698 96.9889 100.55 96.9633 100.435C96.9506 100.385 96.9431 100.333 96.9409 100.282C96.9671 100.327 96.9854 100.377 96.9953 100.429L97.1169 100.854C97.2289 101.251 97.3761 101.779 97.5553 102.422C97.9329 103.744 98.4929 105.562 99.2129 107.542C99.9329 109.523 100.669 111.261 101.232 112.518L101.904 114C101.975 114.16 102.035 114.294 102.087 114.403C102.104 114.443 102.117 114.485 102.125 114.528Z" fill="#263238"/>
<path id="Vector_77" d="M91.5455 109.379C91.4762 109.011 91.4303 108.639 91.4079 108.266C91.3343 107.578 91.2159 106.627 91.0431 105.587C90.8703 104.547 90.6687 103.613 90.5151 102.938C90.4145 102.576 90.3375 102.208 90.2847 101.837C90.3323 101.926 90.3689 102.02 90.3935 102.118C90.4575 102.304 90.5375 102.573 90.6303 102.909C90.8127 103.578 91.0303 104.509 91.2063 105.562C91.3594 106.454 91.4662 107.353 91.5263 108.256C91.5487 108.602 91.5615 108.896 91.5615 109.078C91.5697 109.179 91.5643 109.28 91.5455 109.379Z" fill="#263238"/>
<path id="Vector_78" d="M84.6237 118.592C84.6163 118.538 84.6163 118.483 84.6237 118.429C84.6237 118.301 84.6237 118.144 84.6237 117.958C84.6237 117.549 84.6237 116.957 84.6237 116.227C84.6493 114.765 84.7165 112.749 84.8317 110.525C84.9469 108.301 85.0909 106.285 85.2093 104.829C85.2669 104.099 85.3213 103.51 85.3629 103.104C85.3853 102.918 85.4013 102.762 85.4141 102.637C85.4179 102.581 85.4286 102.526 85.4461 102.474C85.4536 102.529 85.4536 102.585 85.4461 102.64C85.4461 102.765 85.4461 102.922 85.4237 103.11C85.3981 103.542 85.3661 104.125 85.3245 104.835C85.2381 106.317 85.1229 108.32 85.0045 110.531C84.8861 112.742 84.8029 114.771 84.7485 116.23C84.7229 116.941 84.7005 117.51 84.6845 117.958C84.6845 118.147 84.6653 118.301 84.6589 118.429C84.6553 118.485 84.6435 118.54 84.6237 118.592Z" fill="#263238"/>
<path id="Vector_79" d="M78.9985 102.474C78.9962 102.749 78.964 103.024 78.9025 103.293C78.8193 103.792 78.6849 104.48 78.5089 105.232C78.3329 105.984 78.1473 106.662 78.0001 107.152C77.9363 107.42 77.8429 107.679 77.7217 107.926C77.7502 107.653 77.8048 107.383 77.8849 107.12L78.3457 105.2C78.5121 104.48 78.6657 103.827 78.7873 103.28C78.8317 103.005 78.9024 102.735 78.9985 102.474Z" fill="#263238"/>
<path id="Vector_80" d="M68.8257 97.6001C68.4065 98.2933 67.9392 98.9562 67.4273 99.5841C66.9577 100.245 66.4457 100.874 65.8945 101.469C66.3129 100.775 66.7802 100.112 67.2929 99.4849C67.7603 98.8225 68.2725 98.1927 68.8257 97.6001Z" fill="#263238"/>
<path id="Vector_81" d="M63.491 94.0033C63.5231 94.0321 61.5391 96.3649 59.0559 99.2097C56.5727 102.054 54.5278 104.33 54.4926 104.307C54.4574 104.285 56.4446 101.946 58.9278 99.1009C61.411 96.2561 63.4558 93.9713 63.491 94.0033Z" fill="#263238"/>
<path id="Vector_82" d="M60.8192 90.032C60.0344 90.7889 59.2109 91.5045 58.352 92.176C56.96 93.3216 55.808 94.224 55.792 94.1888C56.5773 93.4335 57.4008 92.719 58.2592 92.048C59.0782 91.3335 59.9326 90.6606 60.8192 90.032Z" fill="#263238"/>
<path id="Vector_83" d="M57.696 84.0449C57.7152 84.0865 54.9504 85.4625 51.5168 87.1137C48.0832 88.7649 45.2896 90.0737 45.2672 90.0321C45.2448 89.9905 48.0128 88.6177 51.4464 86.9633C54.88 85.3089 57.6768 84.0033 57.696 84.0449Z" fill="#263238"/>
<path id="Vector_84" d="M56.4418 81.0592C56.3499 81.0996 56.253 81.1276 56.1538 81.1424C55.965 81.1872 55.693 81.2448 55.357 81.3056C54.6818 81.4336 53.741 81.5744 52.6978 81.68C51.6546 81.7856 50.7042 81.8304 50.0162 81.84C49.6738 81.84 49.3954 81.84 49.2034 81.84C49.1033 81.8465 49.0028 81.8368 48.9058 81.8112C49.2728 81.7608 49.6425 81.7319 50.013 81.7248C50.6978 81.6832 51.6418 81.6192 52.6818 81.5136C53.7218 81.408 54.6594 81.2864 55.3378 81.1936C55.7021 81.1228 56.071 81.0778 56.4418 81.0592Z" fill="#263238"/>
<path id="Vector_85" d="M55.4272 74.1632C55.2409 74.1787 55.0536 74.1787 54.8672 74.1632L53.344 74.0864C52.064 74.0224 50.2848 73.9648 48.3232 73.9744C46.3616 73.984 44.5824 74.064 43.2992 74.1408L41.7792 74.2336C41.5934 74.2549 41.4061 74.2613 41.2192 74.2528C41.401 74.2092 41.5863 74.1813 41.7728 74.1696C42.1312 74.128 42.6496 74.0768 43.2896 74.0224C44.5696 73.9168 46.3552 73.8208 48.32 73.808C50.2848 73.7952 52.0672 73.8752 53.3536 73.968C53.9936 74.016 54.5152 74.0608 54.8736 74.0992C55.0594 74.1075 55.2444 74.1289 55.4272 74.1632Z" fill="#263238"/>
<path id="Vector_86" d="M56.0544 68.1088C56.0544 68.1536 53.9712 67.6128 51.4272 66.9024C48.8832 66.192 46.832 65.584 46.8448 65.5392C46.8576 65.4944 48.928 66.032 51.472 66.7424C54.016 67.4528 56.0672 68.064 56.0544 68.1088Z" fill="#263238"/>
<path id="Vector_87" d="M57.3953 63.0401C57.3438 63.0371 57.2931 63.0263 57.2449 63.0081L56.8193 62.8801C56.4545 62.7649 55.9265 62.5857 55.2833 62.3521C53.6026 61.735 51.9556 61.03 50.3489 60.2401C48.7428 59.4493 47.18 58.5734 45.6673 57.6161C45.0881 57.2481 44.6241 56.9409 44.3105 56.7201L43.9521 56.4609C43.8721 56.4001 43.8305 56.3681 43.8337 56.3617C43.8821 56.3812 43.9282 56.4059 43.9713 56.4353L44.3489 56.6657C44.6689 56.8705 45.1425 57.1617 45.7281 57.5169C46.9025 58.2273 48.5473 59.1649 50.4225 60.0769C52.2977 60.9889 54.0449 61.7313 55.3249 62.2305C55.9649 62.4769 56.4801 62.6721 56.8417 62.8065L57.2545 62.9633C57.3035 62.9849 57.3506 63.0106 57.3953 63.0401Z" fill="#263238"/>
<path id="Vector_88" d="M60.4064 57.9201C60.3808 57.9553 58.7616 56.8609 56.7904 55.4721C54.8192 54.0833 53.2416 52.928 53.2704 52.8896C53.2992 52.8512 54.9152 53.9488 56.8896 55.3376C58.864 56.7264 60.432 57.8913 60.4064 57.9201Z" fill="#263238"/>
<path id="Vector_89" d="M54.0416 42.3744C54.0416 42.3744 54.0864 42.4 54.1632 42.4608L54.4832 42.7424L55.664 43.7856L59.5392 47.2448L63.4304 50.6848L64.608 51.7312L64.928 52.0224C64.9667 52.0541 65.0011 52.0907 65.0304 52.1312C65.0304 52.1312 64.9856 52.1088 64.9056 52.048L64.5856 51.7824C64.2944 51.5488 63.8816 51.2032 63.3728 50.7744C62.3552 49.9168 60.9664 48.7168 59.4464 47.3696C57.9264 46.0224 56.5664 44.7808 55.6064 43.872C55.12 43.4176 54.7296 43.0496 54.4608 42.7872L54.1568 42.4864C54.08 42.416 54.0352 42.3776 54.0416 42.3744Z" fill="#263238"/>
<path id="Vector_90" d="M64.0225 42.6656C64.0225 42.6656 64.1089 42.7361 64.2401 42.8865C64.3713 43.0369 64.5601 43.2577 64.7809 43.5265C65.2257 44.0833 65.8177 44.8705 66.4321 45.7665C67.0465 46.6625 67.5617 47.5008 67.9169 48.1184C68.0961 48.4384 68.2369 48.6784 68.3265 48.8544C68.3818 48.942 68.4249 49.0368 68.4545 49.1361C68.2199 48.8307 68.0061 48.51 67.8145 48.1761C67.4337 47.5745 66.9025 46.7521 66.2913 45.8561C65.6801 44.9601 65.1041 44.1697 64.6913 43.5969C64.45 43.3 64.2267 42.9891 64.0225 42.6656Z" fill="#263238"/>
<g id="Group_5" opacity="0.2">
<path id="Vector_91" d="M51.2319 39.9424L65.1551 52.1312L68.6143 49.3632L60.5375 36.9856C60.5375 36.9856 59.9167 37.44 58.2975 37.9008C56.7519 38.3456 52.1599 38.464 51.2319 39.9424Z" fill="black"/>
</g>
<g id="Group_6" opacity="0.2">
<path id="Vector_92" d="M66.7295 29.632L73.5263 46.6464L77.8719 45.2864L76.4223 30.528C76.4223 30.528 75.6767 30.704 74.0159 30.4928C72.4063 30.288 68.5055 28.7616 66.7295 29.632Z" fill="black"/>
</g>
<g id="Group_7" opacity="0.3">
<path id="Vector_93" d="M84.8545 26.0704L85.3121 44.5472L89.3825 44.7424L93.5041 30.56C92.6478 30.39 91.8333 30.0529 91.1073 29.568C89.6993 28.6656 86.8257 25.92 84.8545 26.0704Z" fill="black"/>
</g>
<g id="Group_8" opacity="0.2">
<path id="Vector_94" d="M102.608 29.5616L95.8525 46.5952L99.5197 48.352L108.816 36.8768C108.117 36.287 107.521 35.5852 107.053 34.8C106.176 33.3824 104.665 30.128 102.608 29.5616Z" fill="black"/>
</g>
<g id="Group_9" opacity="0.2">
<path id="Vector_95" d="M118.474 40.1888L105.891 53.3088L108.694 57.088L120.989 48.8832C120.584 48.1376 120.31 47.328 120.179 46.4896C119.885 44.8896 119.843 41.984 118.474 40.1888Z" fill="black"/>
</g>
<g id="Group_10" opacity="0.2">
<path id="Vector_96" d="M128.406 54.9921L111.462 61.9649L112.867 66.2945L127.61 64.6945C127.61 64.6945 127.517 64.2401 127.712 62.5793C127.898 60.9697 129.6 57.3729 128.406 54.9921Z" fill="black"/>
</g>
<g id="Group_11" opacity="0.2">
<path id="Vector_97" d="M132.16 73.4529L113.686 74.0929L113.533 78.1665L127.613 82.2881C127.706 81.7016 127.894 81.1342 128.17 80.6081C129.219 78.6497 132.16 75.8849 132.16 73.4529Z" fill="black"/>
</g>
<g id="Group_12" opacity="0.2">
<path id="Vector_98" d="M128.752 90.9185L111.744 84.2913L110.025 88.0001L121.6 97.1617C122.208 96.579 122.881 96.068 123.606 95.6385C125.014 94.7393 128.361 93.2833 128.752 90.9185Z" fill="black"/>
</g>
<g id="Group_13" opacity="0.2">
<path id="Vector_99" d="M103.738 90.656L99.5264 94.176C99.8464 94.496 105.456 104.045 108.915 109.939C108.96 109.9 109.007 109.864 109.056 109.83C111.331 108.307 115.382 108.918 117.667 107.411L103.738 90.656Z" fill="black"/>
<path id="Vector_100" d="M96.0001 97.3376L89.7153 99.4817L92.6913 116.544C92.8846 116.476 93.0824 116.421 93.2833 116.381C96.2465 115.795 100.154 118.374 102.883 117.245C103.257 117.085 103.604 116.869 103.914 116.605L96.0001 97.3376Z" fill="black"/>
<path id="Vector_101" d="M84.5249 120.832L85.5265 98.5408L80.0865 97.1616L76.0449 116.362L76.1921 116.387C79.0081 116.934 81.5713 120.64 84.5249 120.832Z" fill="black"/>
<path id="Vector_102" d="M70.8609 94.7552C70.8609 94.7552 63.6801 104.374 59.9233 109.552C60.0972 109.64 60.266 109.737 60.4289 109.843C62.8961 111.494 63.8273 116.093 66.6017 117.245C66.7297 117.296 66.8609 117.338 66.9921 117.376L77.0241 98.3873L70.8609 94.7552Z" fill="black"/>
<path id="Vector_103" d="M63.491 87.0112L48.1758 97.536C48.2334 97.6128 48.2974 97.6864 48.3486 97.7664C50.0126 100.25 49.1262 104.854 51.2286 106.96C51.4226 107.151 51.6373 107.319 51.8686 107.462C57.2798 101.363 66.995 90.4128 67.347 90.032L63.491 87.0112Z" fill="black"/>
<path id="Vector_104" d="M59.9807 79.4945L41.8719 82.4193C42.1631 85.3249 39.8719 88.9921 40.9503 91.5905C41.0153 91.7493 41.0934 91.9023 41.1839 92.0481C47.5199 88.8929 60.7583 82.3297 61.3087 82.2945L59.9807 79.4945Z" fill="black"/>
<path id="Vector_105" d="M58.9919 69.4081L41.8751 64.4705C41.8591 64.6177 41.8399 64.7649 41.8143 64.9089C41.2447 67.7889 37.3535 70.4097 37.3535 73.4529C37.3544 73.6555 37.3715 73.8577 37.4047 74.0577H58.2975L58.9919 69.4081Z" fill="black"/>
<path id="Vector_106" d="M41.0205 55.1777C47.4205 58.6049 59.9229 65.5393 59.9229 65.5393L63.0013 59.6929L48.5437 48.8129C48.4797 48.9249 48.4189 49.0401 48.3485 49.1329C46.7197 51.5617 42.2621 52.5089 41.0205 55.1777Z" fill="black"/>
</g>
<path id="Vector_107" d="M132.128 73.4528L132.109 73.248C132.101 73.0473 132.073 72.8479 132.026 72.6528C131.839 71.8855 131.514 71.1588 131.066 70.5088C130.515 69.6256 129.683 68.6368 128.826 67.3856C128.341 66.72 127.969 65.9795 127.725 65.1936C127.516 64.2762 127.516 63.3238 127.725 62.4064C127.904 61.4304 128.195 60.4256 128.448 59.36C128.701 58.2944 128.938 57.1424 128.701 55.9648C128.567 55.3688 128.294 54.8129 127.904 54.3424C127.486 53.8635 127.008 53.4398 126.483 53.0816C125.421 52.3264 124.198 51.7248 123.03 50.9376C122.426 50.548 121.877 50.0787 121.398 49.5424C120.928 48.9603 120.587 48.2852 120.397 47.5616C119.987 46.1056 119.894 44.5504 119.584 42.9952C119.448 42.2034 119.181 41.4398 118.794 40.736C118.373 40.0276 117.734 39.4742 116.973 39.1584C116.187 38.8427 115.364 38.6277 114.525 38.5184C113.677 38.3776 112.806 38.2784 111.936 38.1248C111.044 37.9962 110.179 37.7228 109.376 37.3152C108.579 36.8363 107.904 36.1791 107.405 35.3952C106.874 34.6336 106.416 33.8144 105.93 33.0048C105.464 32.1765 104.905 31.4035 104.266 30.7008C103.606 29.99 102.707 29.5488 101.741 29.4624C100.754 29.4259 99.7676 29.5414 98.816 29.8048C97.856 30.0384 96.8704 30.3232 95.8624 30.512C94.8434 30.7522 93.7804 30.7324 92.7712 30.4544C91.7873 30.0685 90.8671 29.5366 90.0416 28.8768C89.1872 28.2368 88.3552 27.5968 87.4432 27.0272C86.5312 26.4576 85.4976 26.0448 84.4224 26.1664H84.2208C84.1536 26.1664 84.0896 26.1952 84.0256 26.208C83.8944 26.24 83.76 26.2624 83.632 26.3008C83.3742 26.3828 83.122 26.4811 82.8768 26.5952C82.3818 26.8306 81.9066 27.1057 81.456 27.4176C80.5472 28.0576 79.6864 28.7552 78.752 29.3888C78.2868 29.7145 77.7943 29.9993 77.28 30.24C76.7529 30.4758 76.1887 30.6177 75.6128 30.6592C74.4581 30.6666 73.3087 30.5038 72.2016 30.176C71.0868 29.8578 69.9497 29.6235 68.8 29.4752C68.2258 29.4187 67.6462 29.4577 67.0848 29.5904C66.5255 29.7459 66.0097 30.0285 65.5776 30.416C64.6944 31.1872 64.08 32.224 63.4656 33.2416C62.8855 34.3072 62.2074 35.3164 61.44 36.256C61.0337 36.7215 60.5456 37.1087 60 37.3984C59.4429 37.6618 58.8578 37.8615 58.256 37.9936C57.0528 38.2592 55.824 38.3712 54.6112 38.5888C53.3984 38.8064 52.16 39.1488 51.2832 40C50.8599 40.4508 50.5333 40.9833 50.3232 41.5648C50.1113 42.1514 49.9559 42.7568 49.8592 43.3728C49.6352 44.608 49.5392 45.8752 49.2192 47.12C49.0816 47.7518 48.852 48.3599 48.5375 48.9248C48.2063 49.4845 47.7719 49.9764 47.2575 50.3744C46.2463 51.1872 45.0976 51.7888 43.9968 52.4608C43.4453 52.7927 42.9161 53.1605 42.4127 53.5616C41.912 53.9618 41.4908 54.4524 41.1712 55.008C40.8663 55.5739 40.7121 56.2086 40.7232 56.8512C40.7345 57.4972 40.8106 58.1404 40.9504 58.7712C41.2192 60.0512 41.6255 61.3088 41.8431 62.6112C41.9721 63.2796 41.998 63.9638 41.92 64.64C41.8291 65.3145 41.612 65.9659 41.28 66.56C40.6112 67.728 39.7408 68.7552 38.9696 69.8432C38.5735 70.3794 38.2285 70.9515 37.9392 71.552C37.6221 72.1377 37.4561 72.7932 37.4561 73.4592C37.4561 74.1252 37.6221 74.7807 37.9392 75.3664C38.228 75.9672 38.573 76.5393 38.9696 77.0752C39.7408 78.1632 40.6112 79.1904 41.28 80.3584C41.6059 80.9415 41.8228 81.5791 41.92 82.24C42.0012 82.9071 41.9797 83.5827 41.856 84.2432C41.6416 85.5584 41.2351 86.8192 40.9631 88.0992C40.8246 88.7302 40.7485 89.3733 40.736 90.0192C40.7233 90.6627 40.8765 91.2985 41.1808 91.8656C41.498 92.4229 41.9182 92.9149 42.4192 93.3152C42.9225 93.7164 43.4517 94.0841 44.0031 94.416C45.104 95.088 46.2432 95.696 47.2672 96.5024C47.7807 96.9013 48.2149 97.393 48.5472 97.952C48.8639 98.5147 49.0937 99.1221 49.2288 99.7536C49.5296 101.002 49.632 102.269 49.8688 103.504C49.9681 104.12 50.1245 104.725 50.336 105.312C50.5411 105.893 50.8623 106.427 51.28 106.88C52.1664 107.741 53.4144 108.083 54.6112 108.301C55.808 108.518 57.0528 108.621 58.256 108.896C58.8587 109.029 59.4448 109.228 60.0032 109.491C60.5481 109.782 61.036 110.169 61.4432 110.634C62.2029 111.575 62.8745 112.584 63.4496 113.648C64.064 114.666 64.6784 115.702 65.5616 116.474C65.993 116.86 66.5076 117.143 67.0656 117.299C67.6318 117.442 68.218 117.49 68.8 117.44C69.9476 117.286 71.0824 117.047 72.1952 116.726C73.3029 116.396 74.4536 116.232 75.6096 116.24C76.1855 116.283 76.7496 116.426 77.2768 116.662C77.7907 116.904 78.2831 117.189 78.7488 117.514C79.6832 118.154 80.5408 118.861 81.4528 119.482C81.9015 119.796 82.3757 120.072 82.8704 120.307C83.1158 120.421 83.368 120.519 83.6255 120.602C83.7568 120.637 83.888 120.662 84.0192 120.694L84.2176 120.736H84.416C85.4944 120.858 86.5312 120.416 87.44 119.875C88.3488 119.334 89.1839 118.653 90.0351 118.026C90.8619 117.366 91.7831 116.834 92.768 116.448C93.7775 116.172 94.84 116.152 95.8592 116.39C96.8672 116.582 97.84 116.867 98.8128 117.101C99.766 117.361 100.753 117.477 101.741 117.443C102.705 117.354 103.603 116.911 104.262 116.202C104.9 115.496 105.458 114.722 105.926 113.894C106.41 113.088 106.867 112.269 107.398 111.504C107.901 110.721 108.576 110.065 109.373 109.584C110.176 109.176 111.041 108.904 111.933 108.778C112.806 108.621 113.674 108.522 114.522 108.384C115.362 108.27 116.185 108.049 116.97 107.728C117.73 107.411 118.368 106.858 118.79 106.15C119.176 105.446 119.442 104.683 119.578 103.891C119.898 102.336 119.981 100.778 120.394 99.3216C120.582 98.5982 120.923 97.9238 121.395 97.344C121.873 96.8062 122.422 96.3367 123.027 95.9488C124.195 95.1616 125.418 94.56 126.477 93.8048C127.005 93.4474 127.483 93.0225 127.901 92.5408C128.29 92.0717 128.562 91.5167 128.694 90.9216C128.806 90.3469 128.822 89.7576 128.742 89.1776C128.676 88.6215 128.576 88.0701 128.442 87.5264C128.186 86.4608 127.898 85.456 127.718 84.48C127.51 83.5626 127.51 82.6102 127.718 81.6928C127.964 80.9074 128.336 80.1672 128.819 79.5008C129.686 78.2496 130.522 77.2608 131.059 76.3776C131.508 75.7279 131.833 75.0012 132.019 74.2336C132.067 74.0386 132.095 73.8391 132.102 73.6384L132.122 73.4368C132.122 73.4368 132.122 73.504 132.122 73.6384C132.115 73.8399 132.09 74.0403 132.045 74.2368C131.863 75.0105 131.537 75.7432 131.085 76.3968C130.538 77.2864 129.709 78.2784 128.845 79.5296C128.365 80.1908 127.998 80.9272 127.76 81.7088C127.552 82.6165 127.552 83.5595 127.76 84.4672C127.939 85.4272 128.23 86.4416 128.49 87.5072C128.629 88.0551 128.736 88.6107 128.81 89.1712C128.889 89.7587 128.873 90.3553 128.762 90.9376C128.628 91.5463 128.352 92.1144 127.955 92.5952C127.534 93.0822 127.051 93.5125 126.518 93.8752C125.45 94.6368 124.23 95.2416 123.069 96.0256C122.476 96.411 121.937 96.875 121.469 97.4048C121.007 97.9756 120.673 98.6392 120.49 99.3504C120.083 100.79 119.994 102.346 119.68 103.91C119.545 104.714 119.275 105.49 118.883 106.205C118.451 106.933 117.796 107.503 117.014 107.83C116.221 108.156 115.39 108.38 114.541 108.496C113.69 108.637 112.819 108.736 111.952 108.893C111.071 109.019 110.217 109.288 109.424 109.69C108.65 110.159 107.993 110.8 107.504 111.562C106.979 112.32 106.522 113.136 106.035 113.949C105.564 114.785 105.002 115.567 104.358 116.278C103.678 117.012 102.75 117.468 101.754 117.558C100.752 117.598 99.7503 117.482 98.784 117.216C97.808 116.982 96.8352 116.701 95.8368 116.512C94.8399 116.279 93.8006 116.297 92.8128 116.566C91.843 116.949 90.9359 117.474 90.1216 118.125C89.2736 118.749 88.4384 119.421 87.5168 119.984C87.2768 120.112 87.0496 120.262 86.8 120.368C86.6752 120.426 86.5536 120.486 86.4288 120.538L86.0416 120.675C85.5165 120.856 84.9589 120.921 84.4063 120.867L84.1984 120.851C84.1312 120.851 84.064 120.822 83.9936 120.81C83.8592 120.778 83.7216 120.752 83.5904 120.714C83.3245 120.631 83.0647 120.531 82.8128 120.413C82.3106 120.175 81.8289 119.895 81.3728 119.578C80.4544 118.938 79.5936 118.24 78.6688 117.61C78.2093 117.291 77.7245 117.011 77.2192 116.771C76.7079 116.544 76.1612 116.406 75.6032 116.365C74.4623 116.36 73.327 116.523 72.2336 116.848C71.1092 117.179 69.9614 117.424 68.8 117.581C68.2065 117.639 67.6076 117.599 67.0272 117.462C66.4457 117.3 65.9093 117.007 65.4592 116.605C64.5504 115.808 63.9296 114.762 63.3152 113.741C62.7458 112.685 62.0795 111.684 61.3248 110.752C60.9316 110.301 60.4586 109.927 59.9296 109.648C59.3842 109.389 58.8108 109.193 58.2208 109.066C57.0304 108.803 55.8048 108.691 54.5824 108.47C53.9665 108.368 53.3613 108.209 52.7744 107.997C52.179 107.779 51.6346 107.441 51.1744 107.005C50.7376 106.538 50.403 105.986 50.192 105.382C49.9759 104.786 49.8163 104.171 49.7152 103.546C49.4912 102.301 49.3952 101.034 49.0752 99.8048C48.9423 99.1893 48.7179 98.5971 48.4096 98.048C48.0857 97.5054 47.6623 97.0288 47.1616 96.6432C46.1696 95.8464 45.024 95.2448 43.92 94.5696C43.363 94.2336 42.8285 93.8616 42.32 93.456C41.8023 93.0411 41.368 92.5318 41.04 91.9552C40.724 91.3654 40.5653 90.7042 40.5792 90.0352C40.5867 89.373 40.664 88.7133 40.8096 88.0672C41.0816 86.7872 41.488 85.5072 41.6992 84.2272C41.8199 83.5825 41.8405 82.923 41.76 82.272C41.663 81.6252 41.4459 81.0022 41.12 80.4352C40.48 79.2832 39.5968 78.2624 38.8192 77.1648C38.4139 76.6179 38.0594 76.0353 37.76 75.424C37.4345 74.8157 37.2642 74.1364 37.2642 73.4464C37.2642 72.7565 37.4345 72.0772 37.76 71.4688C38.0553 70.8594 38.4067 70.2788 38.8096 69.7344C39.5872 68.6368 40.4544 67.616 41.1072 66.4672C41.4328 65.8989 41.6499 65.275 41.7472 64.6272C41.8218 63.9759 41.8002 63.3171 41.6831 62.672C41.4687 61.392 41.0624 60.112 40.7904 58.832C40.6474 58.1866 40.5713 57.5282 40.5632 56.8672C40.5504 56.198 40.7102 55.5368 41.0272 54.9472C41.3573 54.373 41.7914 53.8652 42.3072 53.4496C42.8149 53.043 43.3495 52.671 43.9072 52.336C45.0112 51.6608 46.1472 51.056 47.1488 50.2624C47.6485 49.8768 48.0709 49.4002 48.3936 48.8576C48.7004 48.3071 48.9237 47.7139 49.056 47.0976C49.3536 45.8688 49.456 44.6048 49.696 43.36C49.796 42.7343 49.9545 42.1193 50.1696 41.5232C50.3625 40.9131 50.6984 40.3578 51.1492 39.9036C51.6001 39.4494 52.1528 39.1095 52.7616 38.912C53.3485 38.6994 53.9537 38.5409 54.5696 38.4384C55.792 38.2176 57.0176 38.1184 58.208 37.8464C58.7969 37.7147 59.3699 37.5194 59.9168 37.264C60.4442 36.9827 60.9159 36.6075 61.3088 36.1568C62.0635 35.2245 62.7298 34.2239 63.2992 33.168C63.9136 32.1472 64.5344 31.1008 65.4464 30.3072C65.8987 29.8992 66.44 29.6022 67.0272 29.44C67.6078 29.305 68.2065 29.2651 68.8 29.3216C69.9542 29.476 71.0955 29.7156 72.2144 30.0384C73.3073 30.3666 74.4429 30.5305 75.584 30.5248C76.1368 30.4808 76.678 30.3422 77.184 30.1152C77.6909 29.8791 78.176 29.5985 78.6336 29.2768C79.5616 28.6368 80.4224 27.936 81.3408 27.312C81.7962 26.9933 82.2779 26.7139 82.7808 26.4768C83.0323 26.3596 83.291 26.258 83.5551 26.1728C83.6895 26.1344 83.8272 26.112 83.9616 26.08L84.1632 26.0352H84.3712C84.9237 25.983 85.481 26.0485 86.0064 26.2272L86.3936 26.3648C86.5184 26.416 86.64 26.4768 86.7648 26.5344C87.0176 26.6432 87.2448 26.7904 87.4816 26.9184C88.4064 27.4816 89.2384 28.1536 90.0896 28.7776C90.9031 29.4279 91.8091 29.9531 92.7776 30.336C93.7652 30.6067 94.8049 30.6254 95.8016 30.3904C96.8 30.2048 97.7728 29.9232 98.7488 29.6896C99.7152 29.4239 100.717 29.3073 101.718 29.344C102.715 29.4356 103.642 29.8913 104.323 30.624C104.968 31.3372 105.531 32.1196 106.003 32.9568C106.49 33.7664 106.944 34.5856 107.469 35.3408C107.957 36.1044 108.614 36.7459 109.389 37.216C110.182 37.6194 111.036 37.8886 111.917 38.0128C112.784 38.1696 113.654 38.2688 114.506 38.4096C115.355 38.5274 116.186 38.751 116.979 39.0752C117.76 39.4022 118.416 39.9708 118.851 40.6976C119.242 41.413 119.511 42.1884 119.648 42.992C119.968 44.5568 120.051 46.112 120.454 47.552C120.64 48.2625 120.973 48.9256 121.434 49.4976C121.901 50.0293 122.44 50.4944 123.034 50.88C124.195 51.664 125.418 52.2688 126.483 53.0304C127.015 53.3932 127.498 53.8234 127.92 54.3104C128.317 54.7902 128.594 55.3572 128.73 55.9648C128.841 56.5482 128.857 57.1458 128.778 57.7344C128.704 58.2939 128.597 58.8485 128.458 59.3952C128.202 60.464 127.907 61.4656 127.728 62.4384C127.52 63.3461 127.52 64.2891 127.728 65.1968C127.966 65.9784 128.333 66.7149 128.813 67.376C129.674 68.6304 130.502 69.616 131.053 70.5088C131.504 71.163 131.83 71.8955 132.013 72.6688C132.058 72.8653 132.083 73.0657 132.09 73.2672C132.128 73.3824 132.128 73.4528 132.128 73.4528Z" fill="#263238"/>
<path id="Vector_108" d="M75.8399 117.44C75.8847 117.44 74.7039 122.24 73.2031 128.134C71.7023 134.029 70.4479 138.8 70.4031 138.79C70.3583 138.781 71.5391 133.99 73.0399 128.093C74.5407 122.195 75.8079 117.414 75.8399 117.44Z" fill="#263238"/>
<path id="Vector_109" d="M84.7425 102.502C100.786 102.502 113.792 89.4964 113.792 73.4528C113.792 57.4091 100.786 44.4032 84.7425 44.4032C68.6988 44.4032 55.6929 57.4091 55.6929 73.4528C55.6929 89.4964 68.6988 102.502 84.7425 102.502Z" fill="white"/>
<path id="Vector_110" d="M66.8544 63.3856C66.4544 63.7856 64.2528 67.792 64.0512 71.0976C63.8496 74.4032 64.3264 92.9568 64.3264 92.9568L64.4128 94.1888C69.6416 100.304 88.6496 109.405 105.77 94.1568L106.73 82.7424L103.904 58.5792L94.08 56.176L91.7792 52.448L76.4448 56.0384L75.0752 59.2704L66.8544 63.3856Z" fill="#455A64"/>
<path id="Vector_111" d="M90.7263 42.7328C91.4015 40.2208 92.0639 37.6928 92.2975 35.104C92.5311 32.5152 92.3167 29.84 91.2863 27.4528C91.1295 27.0912 89.8335 24.6752 89.4431 24.736C89.1647 24.7776 90.0031 27.0496 89.8751 27.296C88.6431 29.6864 88.4191 32.4928 88.7743 35.1584C89.1408 37.747 89.7955 40.2865 90.7263 42.7296" fill="#263238"/>
<path id="Vector_112" d="M90.4706 32.8128C90.349 26.2944 86.4514 20.9344 79.9394 21.2384L79.3378 21.3024C76.4251 21.6095 73.7347 23.0016 71.8018 25.202C69.8688 27.4023 68.8349 30.2497 68.9058 33.1776C69.0466 38.8256 69.2706 45.0656 69.6258 48.0672C70.3586 54.2784 76.6658 54.592 76.6658 54.592L76.957 58.6784L79.629 61.5808L92.0162 53.9008L90.4706 32.8128Z" fill="#FFBF9D"/>
<path id="Vector_113" d="M76.6816 54.6401C76.6816 54.6401 80.6272 54.4577 84.528 51.3921C84.528 51.3921 83.2224 57.0273 76.9568 57.1201L76.6816 54.6401Z" fill="#FF9A6C"/>
<path id="Vector_114" d="M72.4865 38.2432C72.5085 38.4768 72.6215 38.6924 72.8012 38.8433C72.9808 38.9942 73.2127 39.0683 73.4465 39.0496C73.5604 39.0468 73.6726 39.0212 73.7765 38.9743C73.8803 38.9275 73.9737 38.8603 74.0513 38.7769C74.1288 38.6934 74.1888 38.5952 74.2279 38.4882C74.2669 38.3812 74.2841 38.2674 74.2785 38.1536C74.2558 37.9203 74.1425 37.7053 73.9631 37.5545C73.7836 37.4038 73.5522 37.3294 73.3185 37.3472C73.2045 37.3496 73.0921 37.3749 72.9881 37.4216C72.884 37.4683 72.7904 37.5354 72.7128 37.619C72.6352 37.7026 72.5752 37.8009 72.5363 37.9081C72.4974 38.0154 72.4805 38.1293 72.4865 38.2432Z" fill="#263238"/>
<path id="Vector_115" d="M70.5088 35.6193C70.6304 35.7217 71.2512 35.1553 72.208 35.0561C73.1648 34.9569 73.9136 35.3761 74.0064 35.2321C74.0512 35.1777 73.9168 34.9793 73.5872 34.7873C73.1437 34.5455 72.6364 34.446 72.1344 34.5025C71.6373 34.5537 71.169 34.7609 70.7968 35.0945C70.5248 35.3537 70.448 35.5713 70.5088 35.6193Z" fill="#263238"/>
<path id="Vector_116" d="M80.9312 37.5264C80.9532 37.76 81.0662 37.9756 81.2458 38.1265C81.4255 38.2774 81.6573 38.3515 81.8912 38.3328C82.0051 38.33 82.1173 38.3044 82.2211 38.2575C82.325 38.2107 82.4184 38.1435 82.4959 38.0601C82.5735 37.9766 82.6335 37.8784 82.6725 37.7714C82.7116 37.6644 82.7288 37.5506 82.7232 37.4368C82.7012 37.203 82.5883 36.9871 82.4088 36.8357C82.2292 36.6843 81.9974 36.6094 81.7632 36.6272C81.6492 36.6305 81.5369 36.6565 81.4331 36.7037C81.3292 36.7509 81.2358 36.8183 81.1583 36.902C81.0808 36.9858 81.0208 37.0841 80.9818 37.1913C80.9428 37.2985 80.9256 37.4125 80.9312 37.5264Z" fill="#263238"/>
<path id="Vector_117" d="M79.9135 35.0177C80.0351 35.1233 80.6591 34.5537 81.6127 34.4545C82.5663 34.3553 83.3215 34.7745 83.4111 34.6337C83.4559 34.5761 83.3247 34.3777 82.9951 34.1889C82.5508 33.9458 82.0422 33.8463 81.5391 33.9041C81.0413 33.9531 80.5725 34.1606 80.2015 34.4961C79.9327 34.7521 79.8559 34.9729 79.9135 35.0177Z" fill="#263238"/>
<path id="Vector_118" d="M77.2578 42.7265C77.2578 42.6721 76.653 42.6304 75.677 42.608C75.4306 42.608 75.1938 42.5857 75.1362 42.4225C75.0879 42.173 75.1181 41.9148 75.2226 41.6832L75.7474 39.7633C76.4706 37.0113 76.9666 34.7584 76.8578 34.7296C76.749 34.7008 76.0674 36.9088 75.3442 39.664L74.8514 41.6C74.7309 41.9072 74.7218 42.2469 74.8258 42.5601C74.8695 42.6434 74.9317 42.7156 75.0077 42.7711C75.0837 42.8266 75.1715 42.8638 75.2642 42.88C75.4034 42.8971 75.5442 42.8971 75.6834 42.88C76.6594 42.8385 77.261 42.7809 77.2578 42.7265Z" fill="#263238"/>
<path id="Vector_119" d="M80.1409 43.0912C79.9841 43.0912 80.0929 44.1344 79.2833 44.9664C78.4737 45.7984 77.3633 45.7984 77.3633 45.9456C77.3633 46.0096 77.6289 46.1216 78.0993 46.0832C78.7052 46.0263 79.2717 45.7578 79.6993 45.3248C80.1074 44.9059 80.3368 44.3448 80.3393 43.76C80.3553 43.3216 80.2113 43.0784 80.1409 43.0912Z" fill="#263238"/>
<path id="Vector_120" d="M79.5585 31.1328C79.6801 31.3824 80.6209 31.1584 81.7569 31.1776C82.8929 31.1968 83.8337 31.4048 83.9553 31.1552C84.0097 31.0368 83.8273 30.8096 83.4337 30.5952C82.9115 30.3421 82.3388 30.2106 81.7585 30.2106C81.1782 30.2106 80.6054 30.3421 80.0833 30.5952C79.6801 30.7872 79.5041 31.0144 79.5585 31.1328Z" fill="#263238"/>
<path id="Vector_121" d="M70.5695 32.4C70.7583 32.5984 71.3951 32.304 72.1855 32.208C72.9759 32.112 73.6639 32.208 73.7855 31.9584C73.8431 31.84 73.7151 31.6384 73.4015 31.4592C72.9814 31.2543 72.5099 31.1787 72.0468 31.2419C71.5837 31.3052 71.1497 31.5044 70.7999 31.8144C70.5503 32.0672 70.4831 32.3008 70.5695 32.4Z" fill="#263238"/>
<path id="Vector_122" d="M90.4478 37.4752C90.5502 37.4176 94.5886 35.76 94.9022 40.0352C95.2158 44.3104 90.8798 43.728 90.851 43.6064C90.8222 43.4848 90.4478 37.4752 90.4478 37.4752Z" fill="#FFBF9D"/>
<path id="Vector_123" d="M92.035 41.8944C92.0542 41.8944 92.1118 41.9392 92.243 41.9872C92.4253 42.0504 92.625 42.04 92.7998 41.9584C93.2382 41.76 93.5646 41.0176 93.5294 40.2464C93.5146 39.8796 93.4172 39.5209 93.2446 39.1968C93.1946 39.0667 93.1137 38.9506 93.0089 38.8587C92.9041 38.7667 92.7785 38.7015 92.643 38.6688C92.5564 38.6517 92.4664 38.6657 92.3891 38.7085C92.3118 38.7512 92.2521 38.8199 92.2206 38.9024C92.1694 39.0272 92.2046 39.1104 92.1822 39.12C92.1598 39.1296 92.0862 39.0528 92.1054 38.8768C92.1222 38.7686 92.1752 38.6694 92.2558 38.5952C92.367 38.4984 92.5118 38.4489 92.659 38.4576C92.8367 38.4786 93.0059 38.5454 93.1501 38.6514C93.2942 38.7574 93.4084 38.8991 93.4814 39.0624C93.6916 39.4183 93.8103 39.8207 93.827 40.2336C93.8622 41.0944 93.4814 41.9328 92.867 42.1536C92.7551 42.1958 92.6352 42.2122 92.5161 42.2017C92.397 42.1911 92.2818 42.1539 92.179 42.0928C92.051 41.9968 92.0222 41.9008 92.035 41.8944Z" fill="#FF9A6C"/>
<path id="Vector_124" d="M71.2126 25.92C70.499 25.5808 72.4286 23.2096 74.0926 22.3296C76.5854 21.0016 80.4574 20.032 82.867 20.5504C85.7694 21.1904 88.227 22.4384 89.8238 24.9408C91.4206 27.4432 92.1534 30.4288 92.2622 33.3952C92.2942 34.3008 92.2622 35.248 91.827 36.0416C91.2926 37.024 90.1854 37.6928 90.3198 38.992C90.3518 39.2266 90.3366 39.4652 90.2751 39.6938C90.2135 39.9224 90.1069 40.1364 89.9614 40.3232C89.2318 41.2064 88.227 40.4864 87.7374 39.7312C86.691 38.1312 86.4574 36.1312 86.2526 34.2176C86.1054 32.8608 85.9614 31.472 86.2526 30.1408C86.4126 29.4144 86.707 28.72 86.8286 27.9872C86.9502 27.2544 86.8766 26.4384 86.3902 25.8752C86.2769 25.7571 86.1526 25.65 86.019 25.5552C85.3895 25.072 84.6423 24.7656 83.8547 24.6678C83.0672 24.5699 82.2677 24.684 81.539 24.9984C79.187 26.0032 75.1646 27.5392 74.0382 26.7904C72.4222 25.7152 71.9998 24.96 71.9998 24.96L71.2126 25.92Z" fill="#263238"/>
<path id="Vector_125" d="M66.8542 63.3856C66.6078 63.728 63.1102 64.8896 61.7822 67.1008C60.4542 69.312 59.1422 79.2384 59.1422 79.2384L58.2974 85.76C59.9614 88.3904 62.195 91.8752 64.563 94.3328L66.8542 63.3856Z" fill="#455A64"/>
<g id="Group_14" opacity="0.3">
<path id="Vector_126" d="M93.1357 72.9601C93.2301 74.2985 93.4836 75.6209 93.8909 76.8993C94.3485 78.1569 95.1517 79.3409 96.3261 79.9905C96.8157 80.2593 97.3693 80.4385 97.7821 80.8225C98.1949 81.2065 98.4446 81.8273 98.8446 82.2785C99.3449 82.7747 99.9624 83.1368 100.64 83.3313C102.546 84.0303 104.569 84.3562 106.598 84.2913C106.662 83.6065 106.665 81.0913 106.729 80.4033L93.1357 72.9601Z" fill="black"/>
</g>
<path id="Vector_127" d="M103.904 58.5792C103.904 58.5792 108.314 59.8848 109.606 61.7632C110.899 63.6416 113.187 70.9248 113.658 72.2752C114.128 73.6256 113.715 76.7552 112.835 78.9952C111.955 81.2352 110.426 83.184 107.786 83.4752C105.146 83.7664 100.973 82.2432 100.032 81.2352C99.0913 80.2272 98.7041 77.9968 98.7041 77.9968C99.8765 77.7913 101.033 77.5015 102.163 77.1296" fill="#455A64"/>
<path id="Vector_128" d="M102.163 77.152L102.109 77.1744L101.942 77.2352C101.795 77.2864 101.574 77.36 101.283 77.4464C100.442 77.698 99.5871 77.9031 98.7231 78.0608L98.7583 78.0128C98.8656 78.5626 99.0165 79.103 99.2095 79.6288C99.3149 79.9269 99.4422 80.2167 99.5903 80.496C99.7422 80.7944 99.9422 81.0658 100.182 81.2992C100.453 81.5317 100.752 81.7295 101.072 81.888C101.41 82.0654 101.757 82.2246 102.112 82.3648C102.873 82.6693 103.656 82.9175 104.454 83.1072C105.316 83.3186 106.198 83.4313 107.085 83.4432C107.316 83.4453 107.546 83.4346 107.776 83.4112C108.008 83.3847 108.237 83.3441 108.464 83.2896C108.929 83.1851 109.375 83.0114 109.789 82.7744C110.65 82.2766 111.372 81.5715 111.891 80.7232C112.44 79.8423 112.86 78.8876 113.139 77.888C113.367 77.1199 113.537 76.3359 113.648 75.5424C113.767 74.7741 113.806 73.9955 113.763 73.2192C113.738 72.8457 113.661 72.4775 113.536 72.1248C113.414 71.7664 113.296 71.4112 113.181 71.0592L112.493 69.0016C112.038 67.664 111.59 66.4 111.142 65.2256C110.749 64.1328 110.275 63.0707 109.725 62.048C109.47 61.6133 109.131 61.2345 108.726 60.9344C108.374 60.654 107.999 60.4025 107.606 60.1824C106.975 59.8223 106.322 59.5017 105.651 59.2224C105.101 58.9952 104.666 58.8352 104.371 58.7296L104.035 58.6112C103.995 58.6005 103.957 58.5855 103.92 58.5664C103.96 58.5716 104 58.5813 104.038 58.5952L104.381 58.6976C104.682 58.7936 105.123 58.944 105.68 59.1616C106.357 59.4287 107.016 59.7376 107.654 60.0864C108.054 60.3065 108.436 60.5579 108.797 60.8384C109.213 61.1439 109.564 61.5303 109.827 61.9744C110.39 63.0027 110.874 64.0724 111.274 65.1744C111.731 66.3456 112.182 67.6128 112.64 68.9504C112.867 69.6192 113.098 70.3072 113.334 71.008C113.453 71.3568 113.571 71.712 113.69 72.0704C113.821 72.4352 113.902 72.8164 113.93 73.2032C113.975 73.9911 113.937 74.7816 113.818 75.5616C113.704 76.3636 113.532 77.1562 113.302 77.9328C113.017 78.9494 112.585 79.9194 112.022 80.8128C111.489 81.6838 110.745 82.4067 109.859 82.9152C109.432 83.1579 108.972 83.3359 108.493 83.4432C108.26 83.4987 108.024 83.5404 107.786 83.568C107.549 83.568 107.312 83.6096 107.082 83.6C106.183 83.5837 105.288 83.4656 104.416 83.248C103.611 83.0549 102.821 82.8014 102.054 82.4896C101.697 82.3451 101.348 82.1817 101.008 82C100.679 81.8351 100.371 81.6298 100.093 81.3888C99.8451 81.1437 99.6396 80.8593 99.4847 80.5472C99.3362 80.2637 99.2089 79.9696 99.1039 79.6672C98.9163 79.1319 98.7698 78.5831 98.6655 78.0256V77.984H98.7071C99.8335 77.7888 100.698 77.568 101.283 77.408L101.949 77.2192L102.118 77.1712C102.144 77.152 102.163 77.1488 102.163 77.152Z" fill="#263238"/>
<path id="Vector_129" d="M110.256 74.7936C110.224 74.7936 110.121 74.2496 109.753 73.4368C109.27 72.3802 108.595 71.4222 107.763 70.6112C107.302 70.1723 106.78 69.8016 106.214 69.5104L105.827 69.3376C105.699 69.28 105.565 69.2544 105.443 69.2128C105.213 69.1404 104.976 69.091 104.736 69.0656L104.576 69.0432H104.141C103.99 69.041 103.84 69.0538 103.693 69.0816C103.564 69.1075 103.433 69.1214 103.302 69.1232C103.423 69.073 103.55 69.0376 103.68 69.0176C103.829 68.9754 103.983 68.9528 104.137 68.9504H104.425H104.582L104.749 68.9696C104.997 68.9869 105.242 69.0298 105.481 69.0976C105.616 69.1313 105.748 69.1719 105.878 69.2192L106.281 69.392C106.869 69.682 107.408 70.0596 107.881 70.512C108.732 71.3338 109.406 72.3203 109.862 73.4112C109.944 73.5968 110.014 73.787 110.073 73.9808C110.123 74.1266 110.163 74.2751 110.195 74.4256C110.227 74.5461 110.247 74.6693 110.256 74.7936Z" fill="#263238"/>
<path id="Vector_130" d="M112.662 70.8353C112.481 70.3695 112.258 69.9208 111.997 69.4945C111.334 68.4823 110.341 67.7305 109.187 67.3665C107.834 66.9537 106.518 67.0817 105.6 67.1681L104.502 67.2993C104.369 67.3233 104.234 67.3351 104.099 67.3345C104.226 67.285 104.358 67.2517 104.493 67.2353C104.749 67.1841 105.133 67.1169 105.587 67.0529C106.8 66.8409 108.044 66.8933 109.235 67.2065C109.887 67.4024 110.493 67.7291 111.014 68.1665C111.442 68.5295 111.807 68.9597 112.096 69.4401C112.294 69.7553 112.452 70.0939 112.566 70.4481C112.613 70.573 112.645 70.7029 112.662 70.8353Z" fill="#263238"/>
<path id="Vector_131" d="M109.338 66.1024C107.613 65.6956 105.809 65.7664 104.122 66.3072C104.343 66.1628 104.586 66.0547 104.842 65.9872C105.447 65.801 106.074 65.6935 106.707 65.6672C107.34 65.6447 107.974 65.7028 108.592 65.84C108.852 65.8897 109.104 65.9782 109.338 66.1024Z" fill="#263238"/>
<path id="Vector_132" d="M102.202 59.6801C102.227 59.6801 102.163 60.1313 102.112 60.8545C101.978 62.7069 102.138 64.5688 102.586 66.3713L102.471 66.4097C102.339 66.0417 102.237 65.7409 102.17 65.5297C102.128 65.4267 102.098 65.3193 102.08 65.2097C102.145 65.309 102.197 65.4166 102.234 65.5297C102.32 65.7313 102.439 66.0257 102.586 66.3905L102.471 66.4257C102.217 65.5402 102.049 64.6327 101.968 63.7153C101.884 62.7663 101.893 61.8114 101.994 60.8641C102.035 60.5025 102.083 60.2241 102.122 60.0097C102.132 59.8965 102.159 59.7855 102.202 59.6801Z" fill="#263238"/>
<path id="Vector_133" d="M95.9645 51.472C95.9645 51.472 93.6765 51.472 93.3885 54.2208C93.1677 56.3328 93.3885 58.3808 93.3885 59.3088C93.3885 60.2368 92.9821 63.5232 92.9821 63.5232C92.9821 63.5232 91.4205 64.9088 91.4461 66.5728C91.4717 68.2368 92.6621 68.7552 92.6621 68.7552C92.4625 69.2709 92.4186 69.8338 92.5357 70.3741C92.6529 70.9145 92.9261 71.4086 93.3213 71.7952C93.3213 71.7952 92.6589 73.328 93.2029 74.3552C93.5165 74.8662 94.0058 75.2451 94.5789 75.4208C94.485 75.6231 94.4356 75.8431 94.434 76.066C94.4325 76.2889 94.4787 76.5096 94.5697 76.7132C94.6607 76.9167 94.7943 77.0983 94.9615 77.2458C95.1287 77.3933 95.3256 77.5032 95.5389 77.568C96.3077 77.8062 97.113 77.9048 97.9165 77.8592L99.6253 77.8272L101.129 78.6592C101.129 78.6592 103.709 77.536 103.773 76.016L103.84 74.496C103.84 74.496 103.101 72 103.04 71.2C102.979 70.4 103.635 68.4896 103.238 67.632C102.841 66.7744 101.456 66.2688 101.587 65.072C101.718 63.8752 101.456 63.2096 100.861 62.5472C100.265 61.8848 97.6381 60.5664 97.6381 60.5664C97.6381 60.5664 96.9629 58.6464 96.9629 57.3312C96.9629 56.016 98.2781 51.9744 95.9645 51.472Z" fill="#FFBF9D"/>
<path id="Vector_134" d="M97.5073 61.0657C97.3106 61.2266 97.0958 61.3641 96.8673 61.4753C96.4641 61.7121 95.9073 62.0257 95.2673 62.3649C94.6273 62.7041 94.0705 63.0049 93.6673 63.2129C93.4493 63.3446 93.2175 63.4519 92.9761 63.5329C93.1721 63.3701 93.3869 63.2315 93.6161 63.1201C94.0193 62.8833 94.5761 62.5697 95.2161 62.2305C95.8561 61.8913 96.4129 61.5905 96.8161 61.3825C97.0336 61.2507 97.2655 61.1444 97.5073 61.0657Z" fill="#FF9A6C"/>
<path id="Vector_135" d="M99.0111 66.24C99.0111 66.24 98.9471 66.3136 98.8095 66.4192C98.6185 66.5692 98.4198 66.7091 98.2143 66.8384C97.5386 67.2714 96.8201 67.6339 96.0703 67.92C95.3205 68.2109 94.5432 68.4253 93.7503 68.56C93.4303 68.608 93.1967 68.6368 93.0271 68.6464C92.9383 68.663 92.8471 68.663 92.7583 68.6464C92.7583 68.6208 93.1295 68.5696 93.7183 68.4448C94.4947 68.2816 95.2575 68.0591 95.9999 67.7792C96.7406 67.4926 97.4574 67.1481 98.1439 66.7488C98.4241 66.5645 98.7136 66.3947 99.0111 66.24Z" fill="#FF9A6C"/>
<path id="Vector_136" d="M100.976 64.5921C101.018 64.6081 100.931 64.9121 100.656 65.1457C100.381 65.3793 100.087 65.4497 100.077 65.4081C100.067 65.3665 100.304 65.2449 100.544 65.0209C100.784 64.7969 100.931 64.5729 100.976 64.5921Z" fill="#FF9A6C"/>
<path id="Vector_137" d="M100.032 70.7681C99.7248 70.9174 99.4032 71.0353 99.0722 71.1201C98.2849 71.3543 97.4832 71.5371 96.6722 71.6673C95.8613 71.7994 95.0423 71.8764 94.221 71.8977C93.8806 71.9239 93.5383 71.9132 93.2002 71.8657C93.5364 71.8178 93.8751 71.7901 94.2146 71.7825C94.8546 71.7377 95.7026 71.6545 96.6466 71.5041C97.5906 71.3537 98.4322 71.1585 99.0402 71.0049C99.366 70.9067 99.6972 70.8276 100.032 70.7681Z" fill="#FF9A6C"/>
<path id="Vector_138" d="M102.125 70.4C102.173 70.2334 102.232 70.0699 102.301 69.9104C102.427 69.5195 102.47 69.1062 102.425 68.6976C102.374 68.2894 102.235 67.8972 102.016 67.5488C101.912 67.4097 101.817 67.2643 101.731 67.1136C101.731 67.0976 101.913 67.216 102.115 67.4816C102.374 67.8327 102.537 68.2449 102.589 68.6779C102.64 69.111 102.578 69.55 102.409 69.952C102.278 70.2432 102.141 70.4 102.125 70.4Z" fill="#FF9A6C"/>
<path id="Vector_139" d="M100.16 75.4016C99.8975 75.4982 99.6246 75.5627 99.3469 75.5936C98.6822 75.6985 98.0103 75.7509 97.3373 75.7504C96.6629 75.7492 95.9897 75.6925 95.3245 75.5808C95.0466 75.5494 94.7736 75.4839 94.5117 75.3856C94.7897 75.3905 95.0668 75.4173 95.3405 75.4656C96.0035 75.5406 96.6701 75.5801 97.3373 75.584C98.0033 75.5826 98.6687 75.5463 99.3309 75.4752C99.6048 75.4286 99.8819 75.404 100.16 75.4016Z" fill="#FF9A6C"/>
<path id="Vector_140" d="M96.0893 57.3632C96.0893 57.3824 95.9837 57.4688 95.7693 57.5456C95.4871 57.6399 95.1874 57.6704 94.8919 57.635C94.5965 57.5996 94.3125 57.4991 94.0605 57.3408C93.8685 57.216 93.7789 57.1072 93.7917 57.0912C94.1455 57.2689 94.5226 57.396 94.9117 57.4688C95.3073 57.4898 95.7038 57.4543 96.0893 57.3632Z" fill="#FF9A6C"/>
<path id="Vector_141" d="M102.598 70.5824C102.627 70.6612 102.64 70.7449 102.637 70.8288C102.637 71.0562 102.61 71.2829 102.557 71.504C102.496 71.7824 102.39 72.1056 102.288 72.464C102.164 72.839 102.124 73.2365 102.17 73.6288C102.224 74.0352 102.528 74.3616 102.576 74.7744C102.609 75.1233 102.519 75.4728 102.323 75.7632C102.204 75.9557 102.066 76.1359 101.91 76.3008C101.802 76.4192 101.734 76.4768 101.725 76.4704C101.715 76.464 101.946 76.1888 102.221 75.7056C102.386 75.4332 102.457 75.1137 102.422 74.7968C102.384 74.448 102.077 74.1216 102.003 73.6576C101.955 73.2408 102.002 72.8183 102.141 72.4224C102.253 72.0608 102.368 71.744 102.442 71.4624C102.515 71.1733 102.568 70.8792 102.598 70.5824Z" fill="#FF9A6C"/>
<path id="Vector_142" d="M103.459 72.592C103.511 72.6858 103.548 72.7874 103.568 72.8928C103.625 73.088 103.702 73.376 103.773 73.7344C103.86 74.1561 103.911 74.5842 103.926 75.0144C103.954 75.5524 103.855 76.0894 103.638 76.5824C103.386 77.0546 103.053 77.4782 102.653 77.8336C102.334 78.1236 101.995 78.3899 101.638 78.6304C101.334 78.8384 101.078 78.992 100.899 79.0912C100.811 79.1509 100.715 79.1982 100.614 79.232C100.598 79.2096 100.982 78.9664 101.574 78.5344C101.918 78.2846 102.245 78.0131 102.553 77.7216C102.934 77.3739 103.252 76.9637 103.494 76.5088C103.699 76.0381 103.797 75.5276 103.779 75.0144C103.772 74.5909 103.733 74.1684 103.664 73.7504C103.539 73.0368 103.433 72.5984 103.459 72.592Z" fill="#263238"/>
<path id="Vector_143" d="M79.3154 61.9393C79.1822 61.8609 79.0578 61.7687 78.9442 61.6641L77.9842 60.8609L77.3186 60.3009C77.2048 60.1944 77.0779 60.103 76.941 60.0289C76.8746 59.9949 76.8011 59.9772 76.7266 59.9772C76.652 59.9772 76.5785 59.9949 76.5122 60.0289C76.237 60.1729 76.0514 60.5249 75.8178 60.8193C75.5842 61.1137 75.3538 61.4593 75.1106 61.7793C74.7266 62.2977 74.3522 62.7937 74.0098 63.2545L73.8018 63.5297L73.869 63.1905C74.0524 62.2388 74.319 61.3051 74.6658 60.4001C74.7938 60.0801 74.909 59.8049 74.9858 59.6289C75.0218 59.5343 75.0702 59.445 75.1298 59.3633C75.1078 59.4609 75.0767 59.5563 75.037 59.6481C74.9698 59.8305 74.8706 60.0961 74.7554 60.4353C74.4424 61.3449 74.1975 62.2766 74.0226 63.2225L73.8786 63.1585L74.9762 61.6801L75.6834 60.7201L76.0226 60.2689C76.1302 60.1086 76.2752 59.9768 76.445 59.8849C76.5339 59.8459 76.6305 59.8276 76.7275 59.8315C76.8246 59.8354 76.9194 59.8613 77.005 59.9073C77.1503 59.9892 77.2848 60.0892 77.405 60.2049L78.045 60.7809L78.9794 61.6225C79.0995 61.7191 79.2119 61.825 79.3154 61.9393Z" fill="#263238"/>
<path id="Vector_144" d="M92.8253 59.2353C92.7882 59.2773 92.7463 59.3149 92.7005 59.3473L92.3229 59.6417L90.9117 60.7009L86.2045 64.1665L86.1341 64.2176L86.0861 64.144C86.0477 64.0864 86.0093 64.0225 85.9677 63.9617L83.6061 60.2305L83.6925 60.2592C82.7825 60.6207 81.9047 61.0586 81.0685 61.568C80.7677 61.7504 80.5341 61.8881 80.3741 62.0065C80.2963 62.0651 80.2127 62.1155 80.1245 62.1569C80.1924 62.0862 80.2674 62.023 80.3485 61.968C80.5021 61.856 80.7293 61.6928 81.0269 61.4976C81.8525 60.9603 82.7267 60.5017 83.6381 60.128L83.6925 60.1057L83.7245 60.1536C84.4189 61.232 85.2349 62.5089 86.1085 63.8721C86.1501 63.9329 86.1885 63.9968 86.2269 64.0544L86.1053 64.0321L90.8445 60.608L92.2845 59.5873L92.6813 59.3184C92.7741 59.2576 92.8221 59.2289 92.8253 59.2353Z" fill="#263238"/>
<path id="Vector_145" d="M64.1056 71.9617C64.1202 72.0354 64.1267 72.1105 64.1248 72.1857C64.1248 72.3521 64.1248 72.5665 64.1408 72.8257C64.1408 73.4049 64.1696 74.2145 64.1856 75.2065C64.224 77.2161 64.304 80.0065 64.4096 83.0625C64.5152 86.1185 64.576 88.9089 64.5824 90.9217C64.5824 91.9297 64.5824 92.7425 64.5824 93.3057C64.5824 93.5713 64.5824 93.7889 64.5664 93.9457C64.5699 94.0218 64.5645 94.098 64.5504 94.1729C64.5458 94.0972 64.5458 94.0213 64.5504 93.9457C64.5504 93.7825 64.5504 93.5649 64.5312 93.3057C64.5312 92.7233 64.5056 91.9137 64.4864 90.9249C64.4512 88.9121 64.368 86.1249 64.2656 83.0657C64.1632 80.0065 64.0992 77.2193 64.0928 75.2065C64.0928 74.2017 64.0928 73.3857 64.0928 72.8257C64.0928 72.5569 64.0928 72.3425 64.0928 72.1857C64.0923 72.1108 64.0966 72.036 64.1056 71.9617Z" fill="#263238"/>
<path id="Vector_146" d="M79.4207 100.864C79.41 100.835 79.4036 100.805 79.4015 100.775C79.4015 100.704 79.4015 100.615 79.3727 100.503C79.3471 100.25 79.3119 99.9009 79.2703 99.4561C79.1807 98.5473 79.0783 97.2161 78.9759 95.6001C78.8735 93.9841 78.7871 92.0257 78.7327 89.8689C78.6783 87.7121 78.6719 85.3345 78.7327 82.8289C78.7935 80.3233 78.9055 77.9649 79.0527 75.8113C79.1999 73.6577 79.3727 71.7185 79.5455 70.0961C79.7183 68.4737 79.8655 67.1585 80.0063 66.2561C80.0703 65.8113 80.1183 65.4657 80.1535 65.2161C80.1727 65.1041 80.1855 65.0145 80.1983 64.9441C80.1999 64.9134 80.2063 64.8831 80.2175 64.8545C80.2224 64.8852 80.2224 64.9166 80.2175 64.9473C80.2175 65.0177 80.2015 65.1073 80.1919 65.2193C80.1631 65.4689 80.1247 65.8177 80.0735 66.2625C79.9647 67.1713 79.8239 68.4833 79.6671 70.1025C79.5103 71.7217 79.3471 73.6641 79.2095 75.8177C79.0719 77.9713 78.9663 80.3425 78.9087 82.8321C78.8511 85.3217 78.8671 87.6929 78.9087 89.8497C78.9503 92.0065 79.0303 93.9457 79.1199 95.5745C79.2095 97.2033 79.2895 98.5249 79.3599 99.4337C79.3887 99.8785 79.4143 100.231 79.4303 100.483C79.4303 100.595 79.4303 100.685 79.4463 100.755C79.4407 100.792 79.4322 100.829 79.4207 100.864Z" fill="#263238"/>
<path id="Vector_147" d="M69.8849 48.4865L69.5457 48.7105L68.5473 49.3505C68.1057 49.6353 67.5873 50.0417 66.9793 50.4897C66.6593 50.7201 66.3649 50.9985 66.0193 51.2801L65.4977 51.7185C65.3185 51.8721 65.1489 52.0385 64.9665 52.2145C63.1967 53.8655 61.642 55.733 60.3393 57.7729L59.7697 58.6881C59.5681 58.9921 59.4145 59.3281 59.2289 59.6481C59.0433 59.9681 58.8609 60.3137 58.6945 60.6657C58.5281 61.0177 58.3745 61.3793 58.2017 61.7441C58.1217 61.9265 58.0321 62.1057 57.9553 62.2945C57.8785 62.4833 57.8113 62.6753 57.7377 62.8705C57.5937 63.2545 57.4401 63.6417 57.2993 64.0417C57.0625 64.8513 56.7617 65.6705 56.5825 66.5441C55.6703 70.3239 55.518 74.2473 56.1345 78.0865C56.9368 83.0303 59.007 87.6817 62.143 91.5868C65.2791 95.4919 69.3739 98.5174 74.028 100.368C78.682 102.219 83.7363 102.831 88.6977 102.146C93.6591 101.46 98.358 99.5006 102.336 96.4577C103.34 95.6857 104.296 94.8521 105.197 93.9617L105.837 93.2833C106.055 93.0593 106.266 92.8321 106.477 92.5921L107.085 91.8913C107.277 91.6481 107.466 91.4049 107.658 91.1649C110.552 87.4366 112.483 83.0524 113.28 78.4001C113.467 77.32 113.595 76.2303 113.661 75.1361C113.693 74.5953 113.693 74.0609 113.712 73.5361C113.731 73.0113 113.674 72.4769 113.655 71.9553C113.655 71.6961 113.632 71.4337 113.623 71.1745C113.613 70.9153 113.565 70.6625 113.539 70.4065C113.475 69.8977 113.415 69.3921 113.354 68.8929C113.293 68.3937 113.162 67.9073 113.066 67.4209C112.985 66.9385 112.879 66.461 112.746 65.9905L112.349 64.6049C112.287 64.3776 112.211 64.1542 112.122 63.9361C112.039 63.7153 111.955 63.4945 111.875 63.2769C111.706 62.8449 111.555 62.4033 111.373 61.9969C111.191 61.5905 110.992 61.1777 110.803 60.7777C109.412 57.8846 107.545 55.2453 105.28 52.9697C103.564 51.2648 101.65 49.7725 99.5777 48.5249L98.3553 47.8241C98.1708 47.7159 97.9807 47.6176 97.7857 47.5297L97.2481 47.2737L96.2881 46.8193C96.0001 46.6721 95.7153 46.5889 95.4753 46.4993L94.3617 46.0705L93.9841 45.9169L94.3681 46.0545L95.4849 46.4705C95.7281 46.5665 96.0129 46.6497 96.3041 46.7905L97.2641 47.2385L97.8049 47.4945C98.0009 47.5802 98.1921 47.6763 98.3777 47.7825L99.6033 48.4801C101.689 49.7198 103.616 51.2092 105.341 52.9153C107.619 55.1893 109.499 57.8297 110.903 60.7265C111.091 61.1329 111.283 61.5393 111.479 61.9553C111.674 62.3713 111.799 62.8097 111.984 63.2353L112.234 63.8945C112.323 64.1137 112.399 64.3381 112.461 64.5665C112.595 65.0273 112.73 65.4881 112.864 65.9585C113.003 66.4308 113.115 66.9104 113.2 67.3953C113.296 67.8817 113.411 68.3553 113.495 68.8705C113.578 69.3857 113.616 69.8817 113.68 70.3937C113.709 70.6497 113.751 70.9057 113.767 71.1649C113.783 71.4241 113.789 71.6865 113.799 71.9489C113.818 72.4737 113.847 73.0017 113.859 73.5489C113.872 74.0961 113.843 74.6209 113.808 75.1489C113.481 81.0066 111.38 86.6261 107.783 91.2609L107.2 91.9905L106.586 92.6977C106.387 92.9377 106.173 93.1681 105.946 93.3921L105.306 94.0769C104.399 94.9725 103.437 95.8104 102.426 96.5857C98.4284 99.6413 93.7075 101.609 88.7233 102.297C83.7391 102.985 78.6617 102.37 73.9859 100.512C69.3102 98.6535 65.1958 95.6154 62.0437 91.6937C58.8916 87.772 56.8094 83.1004 56.0001 78.1345C55.6754 76.1327 55.5681 74.1017 55.6801 72.0769C55.7608 70.2092 56.0299 68.3545 56.4833 66.5409C56.6625 65.6641 56.9665 64.8449 57.2033 64.0289C57.3473 63.6321 57.5041 63.2417 57.6513 62.8545C57.7249 62.6625 57.7985 62.4705 57.8689 62.2785C57.9393 62.0865 58.0385 61.9105 58.1185 61.7249C58.2881 61.3601 58.4385 61.0017 58.6145 60.6465C58.7905 60.2913 58.9793 59.9617 59.1553 59.6257C59.3313 59.2897 59.4977 58.9569 59.6993 58.6497L60.2753 57.7345C61.5849 55.6915 63.1519 53.8255 64.9377 52.1825C65.1201 52.0129 65.2897 51.8401 65.4689 51.6865L65.9937 51.2481C66.3393 50.9697 66.6337 50.6945 66.9537 50.4641C67.5777 50.0161 68.0897 49.6161 68.5345 49.3345L69.5425 48.6945C69.7601 48.5537 69.8849 48.4865 69.8849 48.4865Z" fill="#263238"/>
</g>
</g>
</svg>
