<svg width="130" height="130" viewBox="0 0 130 130" fill="none" xmlns="http://www.w3.org/2000/svg">
<g id="Messaging-pana 1">
<g id="freepik--background-complete--inject-5">
<path id="Vector" d="M101.311 62.715L97.6599 71.9989L111.435 77.4166L115.086 68.1326L101.311 62.715Z" fill="#EBEBEB"/>
<path id="Vector_2" d="M115.081 68.25C115.026 68.2815 114.966 68.3059 114.904 68.3228L114.384 68.51L112.481 69.16L106.163 71.2894L106.111 71.3076L106.083 71.2582L106.018 71.1438L102.661 65.2756L101.66 63.4972L101.4 63.0084C101.366 62.9539 101.338 62.8954 101.317 62.8342C101.358 62.8843 101.393 62.9383 101.423 62.9954L101.715 63.4712L102.755 65.2366L106.135 71.084L106.202 71.1984L106.122 71.1698L112.455 69.0768L114.374 68.4606L114.894 68.2994C114.955 68.2782 115.018 68.2617 115.081 68.25Z" fill="#E0E0E0"/>
<path id="Vector_3" d="M97.6534 72.1188C97.6378 72.0876 99.1744 71.2218 101.085 70.187C102.996 69.1522 104.564 68.3384 104.582 68.367C104.601 68.3956 103.064 69.264 101.15 70.2988C99.2368 71.3336 97.6716 72.1526 97.6534 72.1188Z" fill="#E0E0E0"/>
<path id="Vector_4" d="M109.2 70.057C109.236 70.057 109.764 71.7106 110.378 73.7776C110.991 75.8446 111.459 77.5242 111.418 77.5346C111.376 77.545 110.854 75.881 110.24 73.814C109.626 71.747 109.171 70.0674 109.2 70.057Z" fill="#E0E0E0"/>
<path id="Vector_5" d="M55.7827 101.775L42.5396 108.387L46.9956 117.312L60.2388 110.701L55.7827 101.775Z" fill="#EBEBEB"/>
<path id="Vector_6" d="M55.8767 101.865C55.8591 101.927 55.8374 101.987 55.8117 102.045L55.6037 102.552C55.4139 103.004 55.1461 103.636 54.8237 104.408L52.1768 110.531L52.1534 110.581H52.0989L51.9689 110.552L45.3648 109.119L43.3654 108.67L42.8247 108.54C42.7612 108.527 42.6986 108.509 42.6375 108.488C42.7024 108.489 42.767 108.497 42.8298 108.514L43.3759 108.618L45.3831 109.026L52.0001 110.409L52.1301 110.438L52.0547 110.477C53.0947 108.095 54.0489 105.942 54.7379 104.372C55.0837 103.605 55.3645 102.978 55.5647 102.531C55.6609 102.326 55.7362 102.159 55.7934 102.034C55.815 101.975 55.8429 101.919 55.8767 101.865Z" fill="#E0E0E0"/>
<path id="Vector_7" d="M47.0886 117.403C47.0522 117.403 47.437 115.674 47.9466 113.56C48.4562 111.446 48.9034 109.738 48.9372 109.749C48.971 109.759 48.5888 111.478 48.0792 113.591C47.5696 115.705 47.1224 117.411 47.0886 117.403Z" fill="#E0E0E0"/>
<path id="Vector_8" d="M53.2845 107.44C53.3001 107.406 54.8913 108.129 56.8361 109.054C58.7809 109.98 60.3487 110.76 60.3201 110.791C60.2915 110.822 58.7159 110.102 56.7685 109.177C54.8211 108.251 53.2689 107.471 53.2845 107.44Z" fill="#E0E0E0"/>
<path id="Vector_9" d="M34.0263 68.2708C39.0599 64.9116 40.2871 58.5572 40.1805 52.8268C40.1623 51.87 40.2845 50.8638 39.8373 50.0162C39.3901 49.1686 38.3215 48.581 37.4479 48.9762C36.7225 49.3012 36.4079 50.1228 35.9841 50.7962C35.4294 51.7024 34.6299 52.4333 33.6779 52.9048C33.0565 53.2116 32.2895 53.3936 31.6863 53.053C30.8569 52.585 30.7763 51.4436 30.7971 50.492L30.9141 45.175C30.9349 44.226 30.9531 43.2536 30.6541 42.3462C30.3551 41.4388 29.7207 40.5912 28.8081 40.326C27.8955 40.0608 26.7515 40.5626 26.5435 41.4908C26.4577 41.8756 26.5435 42.2708 26.4993 42.6738C26.4551 43.0768 26.2731 43.5032 25.8909 43.6072C25.5087 43.7112 25.1239 43.4382 24.8509 43.1548C23.8707 42.1798 23.2155 40.9318 22.6045 39.6942C21.9935 38.4566 21.3981 37.1852 20.5245 36.1244C19.6509 35.0636 18.4029 34.216 17.0223 34.1172C15.6417 34.0184 14.1623 34.8374 13.7905 36.1712C13.4187 37.505 14.1935 38.8778 15.0385 39.975C16.2971 41.6078 17.786 43.0493 19.4585 44.2546C19.7601 44.473 20.0851 44.707 20.1943 45.0606C20.3945 45.6976 19.7757 46.319 19.1387 46.5192C18.4159 46.7428 17.6385 46.6596 16.8871 46.735C16.1357 46.8104 15.3271 47.125 15.0177 47.8218C14.6095 48.789 15.4181 49.8186 16.2163 50.4998C17.8196 51.8589 19.6421 52.9359 21.6061 53.6848C22.3107 53.9448 23.0543 54.1866 23.6185 54.6858C24.1827 55.185 24.5129 56.0456 24.1567 56.7112C23.8005 57.3768 22.9113 57.577 22.1703 57.4314C21.4293 57.2858 20.7715 56.875 20.0695 56.602C18.7539 56.082 17.0405 56.1522 16.1695 57.2702C15.6027 58.0034 15.5351 59.0382 15.8055 59.9274C16.1152 60.8054 16.5989 61.6119 17.2277 62.2986C19.2971 64.8238 21.9968 66.7575 25.0537 67.9042C28.1087 69.0014 30.9505 69.329 34.0211 68.2708" fill="#EBEBEB"/>
<path id="Vector_10" d="M32.5702 64.662C31.6531 61.5273 30.5558 58.4481 29.2838 55.4398C28.951 54.6355 28.6225 53.8434 28.2984 53.0634C27.9708 52.2834 27.6484 51.5034 27.287 50.778C26.5837 49.3656 25.8025 47.9933 24.947 46.6674C24.1436 45.396 23.3298 44.2182 22.5654 43.121C21.801 42.0238 21.0574 41.0202 20.3476 40.1284C19.2318 38.7172 18.006 37.3966 16.6816 36.179C16.2136 35.7474 15.8392 35.4224 15.5844 35.2066L15.2906 34.9622L15.1892 34.8842C15.1892 34.8842 15.2178 34.9154 15.2828 34.9752L15.5662 35.2352C15.8262 35.4588 16.1824 35.7864 16.6452 36.2232C17.9542 37.4531 19.1692 38.7794 20.28 40.1908C20.9846 41.0826 21.7152 42.094 22.4796 43.1886C23.244 44.2832 24.0396 45.4688 24.8482 46.7402C25.6952 48.0633 26.4686 49.4321 27.1648 50.8404C27.5262 51.5736 27.846 52.338 28.171 53.1206C28.496 53.9032 28.8236 54.6806 29.1564 55.4944C30.4267 58.4977 31.5256 61.5707 32.448 64.6984" fill="#E0E0E0"/>
<path id="Vector_11" d="M27.2507 50.765C27.2935 50.6328 27.3248 50.4971 27.3443 50.3594C27.3963 50.0994 27.4613 49.7146 27.5341 49.2414C27.6823 48.2976 27.8461 46.9846 28.0203 45.539C28.1945 44.0934 28.3791 42.783 28.5403 41.8444C28.6235 41.3738 28.6963 40.9942 28.7483 40.7316C28.7816 40.5976 28.8042 40.4611 28.8159 40.3234C28.7628 40.4519 28.7219 40.5851 28.6937 40.7212C28.6235 40.9812 28.5377 41.3556 28.4337 41.8262C28.2387 42.7622 28.0385 44.0726 27.8643 45.5208C27.6901 46.969 27.5393 48.2534 27.4223 49.2284C27.3625 49.6808 27.3131 50.0578 27.2767 50.349C27.2555 50.4866 27.2468 50.6259 27.2507 50.765Z" fill="#E0E0E0"/>
<path id="Vector_12" d="M14.8979 48.295C14.9397 48.3056 14.9824 48.3126 15.0253 48.3158L15.3919 48.3522C15.7091 48.3834 16.172 48.4276 16.7362 48.4978C17.8672 48.633 19.4271 48.8774 21.1354 49.2206C22.8436 49.5638 24.3724 49.9486 25.4722 50.2606C26.0234 50.4114 26.4654 50.544 26.7722 50.635L27.1258 50.739C27.1669 50.7537 27.2097 50.7633 27.2531 50.7676C27.2169 50.744 27.1775 50.7256 27.1362 50.713L26.7904 50.583C26.4888 50.4738 26.052 50.323 25.4904 50.1618C24.3958 49.8264 22.8644 49.4312 21.1536 49.0828C19.4427 48.7344 17.8749 48.5108 16.7335 48.4016C16.1641 48.3418 15.6935 48.3132 15.3815 48.3002H15.0123C14.9747 48.2931 14.9361 48.2913 14.8979 48.295Z" fill="#E0E0E0"/>
<path id="Vector_13" d="M32.4351 64.4306C32.469 64.385 32.497 64.3352 32.5183 64.2824C32.5755 64.168 32.6483 64.0224 32.7367 63.8404C32.9213 63.4582 33.1787 62.8966 33.4855 62.1998C34.1017 60.8088 34.8947 58.8588 35.7423 56.6956C36.5899 54.5324 37.3673 52.5798 37.9575 51.1784L38.6673 49.5222L38.8571 49.0698C38.8822 49.0182 38.9023 48.9642 38.9169 48.9086C38.8825 48.9545 38.8537 49.0042 38.8311 49.0568L38.6153 49.4988C38.4281 49.881 38.1733 50.4426 37.8665 51.1394C37.2477 52.5304 36.4573 54.4804 35.6097 56.6436C34.7621 58.8068 33.9847 60.7594 33.3919 62.1608L32.6847 63.817L32.4923 64.2694C32.467 64.3207 32.4478 64.3749 32.4351 64.4306Z" fill="#E0E0E0"/>
<path id="Vector_14" d="M16.0549 58.9498C16.1076 58.9761 16.1624 58.9978 16.2187 59.0148L16.6945 59.176L18.4599 59.761C19.9419 60.2576 21.9803 60.9674 24.2319 61.7578C26.4835 62.5482 28.5271 63.2424 30.0195 63.7156C30.7631 63.9496 31.3689 64.1368 31.7901 64.2564L32.2737 64.3916C32.3291 64.4115 32.3868 64.4246 32.4453 64.4306C32.3933 64.403 32.3384 64.3812 32.2815 64.3656L31.8057 64.2018L30.0507 63.6168C28.5687 63.1228 26.5303 62.413 24.2787 61.6226C22.0271 60.8322 19.9835 60.138 18.4937 59.6648C17.7475 59.4282 17.1417 59.2436 16.7205 59.124L16.2369 58.9862C16.1779 58.9669 16.1168 58.9547 16.0549 58.9498Z" fill="#E0E0E0"/>
<path id="Vector_15" d="M34.2733 11.596H19.6041C18.5932 11.596 17.7737 12.4155 17.7737 13.4264V20.6726C17.7737 21.6835 18.5932 22.503 19.6041 22.503H34.2733C35.2842 22.503 36.1037 21.6835 36.1037 20.6726V13.4264C36.1037 12.4155 35.2842 11.596 34.2733 11.596Z" fill="#E0E0E0"/>
<path id="Vector_16" d="M28.9224 22.1572L33.2566 26.0052L33.6128 22.2248" fill="#E0E0E0"/>
<path id="Vector_17" d="M24.5544 17.2068C24.5544 17.4181 24.4918 17.6247 24.3743 17.8005C24.2569 17.9762 24.09 18.1132 23.8948 18.194C23.6995 18.2749 23.4847 18.2961 23.2774 18.2549C23.0701 18.2136 22.8797 18.1118 22.7302 17.9624C22.5808 17.813 22.479 17.6225 22.4378 17.4153C22.3965 17.208 22.4177 16.9931 22.4986 16.7978C22.5795 16.6026 22.7164 16.4357 22.8922 16.3183C23.0679 16.2009 23.2745 16.1382 23.4858 16.1382C23.7692 16.1382 24.041 16.2508 24.2415 16.4512C24.4419 16.6516 24.5544 16.9234 24.5544 17.2068Z" fill="white"/>
<path id="Vector_18" d="M28.2256 17.2068C28.2256 17.4182 28.1628 17.625 28.0453 17.8007C27.9278 17.9765 27.7607 18.1135 27.5653 18.1943C27.3699 18.2751 27.1549 18.2961 26.9475 18.2547C26.7402 18.2132 26.5498 18.1112 26.4004 17.9615C26.2511 17.8118 26.1495 17.6211 26.1086 17.4137C26.0677 17.2062 26.0892 16.9913 26.1705 16.796C26.2517 16.6008 26.3891 16.4341 26.5652 16.317C26.7413 16.1999 26.9481 16.1377 27.1596 16.1382C27.2998 16.1382 27.4386 16.1658 27.5681 16.2196C27.6976 16.2733 27.8153 16.3521 27.9143 16.4513C28.0133 16.5506 28.0918 16.6684 28.1452 16.798C28.1986 16.9277 28.2259 17.0666 28.2256 17.2068Z" fill="white"/>
<path id="Vector_19" d="M31.8994 17.2068C31.8994 17.4182 31.8367 17.625 31.7191 17.8007C31.6016 17.9765 31.4346 18.1135 31.2391 18.1943C31.0437 18.2751 30.8287 18.2961 30.6214 18.2547C30.414 18.2132 30.2236 18.1112 30.0743 17.9615C29.9249 17.8118 29.8234 17.6211 29.7824 17.4137C29.7415 17.2062 29.763 16.9913 29.8443 16.796C29.9256 16.6008 30.0629 16.4341 30.239 16.317C30.4151 16.1999 30.6219 16.1377 30.8334 16.1382C31.1164 16.1389 31.3875 16.2518 31.5873 16.4521C31.7872 16.6524 31.8994 16.9238 31.8994 17.2068Z" fill="white"/>
<path id="Vector_20" d="M87.3665 23.2964L83.7151 32.5803L97.4898 37.998L101.141 28.714L87.3665 23.2964Z" fill="#EBEBEB"/>
<path id="Vector_21" d="M101.14 28.834C101.084 28.8657 101.025 28.891 100.963 28.9094L100.443 29.094L98.54 29.7518L92.2194 31.8812L92.1674 31.8994L92.1388 31.85L92.0738 31.7356L88.7146 25.8674C88.2986 25.1238 87.9554 24.518 87.711 24.0812L87.451 23.5924C87.4166 23.5374 87.3878 23.479 87.3652 23.4182C87.4067 23.4683 87.4433 23.5223 87.4744 23.5794L87.763 24.0552C88.023 24.4868 88.3688 25.0952 88.803 25.8206L92.183 31.668L92.248 31.785L92.17 31.7538L98.501 29.6738L100.422 29.055L100.942 28.8938C101.007 28.8689 101.073 28.8489 101.14 28.834Z" fill="#E0E0E0"/>
<path id="Vector_22" d="M83.7201 32.7028C83.7019 32.6716 85.2385 31.8058 87.1495 30.771C89.0605 29.7362 90.6283 28.9224 90.6465 28.951C90.6647 28.9796 89.1281 29.848 87.2145 30.8828C85.3009 31.9176 83.7201 32.7366 83.7201 32.7028Z" fill="#E0E0E0"/>
<path id="Vector_23" d="M95.2615 30.641C95.2953 30.641 95.8231 32.2972 96.4367 34.3616C97.0503 36.426 97.5209 38.1108 97.4767 38.1212C97.4325 38.1316 96.9151 36.465 96.3015 34.4006C95.6879 32.3362 95.2251 30.6514 95.2615 30.641Z" fill="#E0E0E0"/>
</g>
<g id="freepik--Floor--inject-5">
<path id="Vector_24" d="M121.706 121.269C121.706 121.306 96.3169 121.337 65.0025 121.337C33.6881 121.337 8.29395 121.306 8.29395 121.269C8.29395 121.233 33.6777 121.202 65.0025 121.202C96.3273 121.202 121.706 121.23 121.706 121.269Z" fill="#263238"/>
</g>
<g id="freepik--speech-bubbles--inject-5">
<path id="Vector_25" d="M67.0539 67.3192C68.9063 67.3192 70.4079 65.8176 70.4079 63.9652C70.4079 62.1128 68.9063 60.6112 67.0539 60.6112C65.2016 60.6112 63.7 62.1128 63.7 63.9652C63.7 65.8176 65.2016 67.3192 67.0539 67.3192Z" fill="#00934C"/>
<path id="Vector_26" d="M78.5979 67.3192C80.4503 67.3192 81.9519 65.8176 81.9519 63.9652C81.9519 62.1128 80.4503 60.6112 78.5979 60.6112C76.7455 60.6112 75.2439 62.1128 75.2439 63.9652C75.2439 65.8176 76.7455 67.3192 78.5979 67.3192Z" fill="#00934C"/>
<path id="Vector_27" d="M100.922 46.6102C100.987 46.5966 101.053 46.5923 101.119 46.5972C101.314 46.598 101.509 46.6198 101.699 46.6622C102.015 46.7281 102.32 46.8421 102.601 47.0002C102.993 47.2196 103.336 47.5159 103.61 47.8712C103.963 48.3245 104.192 48.8623 104.273 49.4312C104.298 49.5904 104.311 49.7511 104.315 49.9122C104.315 50.0734 104.315 50.2346 104.315 50.401C104.315 50.7338 104.315 51.0822 104.315 51.441C104.328 52.884 104.338 54.5428 104.354 56.4018C104.372 60.1224 104.393 64.6464 104.419 69.8542C104.419 71.1559 104.424 72.4993 104.434 73.8842C104.434 74.5775 104.434 75.2804 104.434 75.9928C104.434 76.349 104.434 76.7078 104.434 77.0692C104.434 77.2486 104.434 77.4306 104.434 77.6126C104.431 77.8095 104.414 78.0058 104.382 78.2002C104.248 79.0085 103.837 79.7453 103.221 80.2856C102.605 80.8259 101.821 81.1363 101.002 81.1642L96.265 81.1798L96.5458 80.9198C96.239 84.2504 95.9166 87.7682 95.5786 91.4186L95.5266 91.988L95.0846 91.624L82.368 81.146L82.576 81.2188L56.5188 81.2318H50.401C50.193 81.2318 50.0032 81.2318 49.7822 81.2318C49.2229 81.219 48.6744 81.0754 48.1805 80.8127C47.6866 80.5499 47.261 80.1752 46.9378 79.7186C46.6803 79.3563 46.4909 78.9501 46.3788 78.52C46.2825 78.1025 46.2432 77.674 46.2618 77.246C46.2618 76.4487 46.2618 75.6531 46.2618 74.8592C46.2618 73.2767 46.2618 71.7054 46.2618 70.1454C46.2618 63.9054 46.2748 57.8994 46.28 52.1716C46.28 51.4566 46.28 50.7442 46.28 50.0396C46.27 49.6575 46.3182 49.2761 46.423 48.9086C46.5297 48.5386 46.6938 48.1877 46.9092 47.8686C47.3422 47.2399 47.9642 46.7654 48.685 46.514C49.0383 46.388 49.4098 46.3204 49.7848 46.3138C50.1384 46.3138 50.4686 46.3138 50.8118 46.3138L58.7054 46.3294L72.8728 46.371L93.3894 46.4776L98.9664 46.5426L100.417 46.5764C100.583 46.5729 100.748 46.5842 100.911 46.6102C100.748 46.6379 100.583 46.6492 100.417 46.644L98.9664 46.6778L93.3894 46.7428L72.8728 46.8494L58.7054 46.891L50.8118 46.9066C50.4764 46.9066 50.1254 46.9066 49.7978 46.9066C49.4855 46.9121 49.1763 46.9692 48.8826 47.0756C48.2858 47.2866 47.7714 47.6817 47.4136 48.204C47.052 48.7403 46.8699 49.3776 46.8936 50.024C46.8936 50.7286 46.8936 51.441 46.8936 52.156C46.8936 57.876 46.9066 63.895 46.9144 70.1298C46.9144 71.6898 46.9144 73.261 46.9144 74.8436V77.2304C46.8954 77.6024 46.9286 77.9752 47.0132 78.338C47.1493 78.8664 47.4298 79.3465 47.8234 79.7244C48.2169 80.1023 48.7079 80.3632 49.2414 80.4778C49.4195 80.5151 49.6004 80.5368 49.7822 80.5428C49.9668 80.5428 50.1826 80.5428 50.3828 80.5428H56.55L82.6072 80.5558H82.7242L82.8152 80.6312L95.5032 91.143L95.0066 91.3484C95.3576 87.7084 95.6956 84.1828 96.018 80.8548L96.0414 80.5948H96.3014H101.023C101.72 80.5741 102.388 80.3129 102.914 79.8556C103.44 79.3982 103.792 78.7729 103.909 78.0858C103.936 77.9198 103.95 77.7521 103.953 77.584C103.953 77.402 103.953 77.22 103.953 77.0406C103.953 76.6792 103.953 76.3204 103.953 75.9642C103.953 75.2518 103.953 74.5489 103.953 73.8556C103.953 72.4689 103.958 71.1256 103.969 69.8256C103.995 64.6256 104.016 60.0938 104.034 56.3732C104.049 54.5142 104.06 52.8554 104.073 51.4124C104.073 51.0536 104.073 50.7052 104.073 50.3724C104.073 50.206 104.073 50.0448 104.073 49.8836C104.073 49.7323 104.063 49.5812 104.044 49.4312C103.977 48.8956 103.774 48.3862 103.454 47.9518C103.201 47.6054 102.882 47.3128 102.515 47.0912C102.248 46.9285 101.959 46.8051 101.657 46.7246C101.189 46.6206 100.922 46.6362 100.922 46.6102Z" fill="#00934C"/>
<path id="Vector_28" d="M28.769 63.3022H79.4118C80.3358 63.3022 81.222 63.6692 81.8754 64.3226C82.5287 64.976 82.8958 65.8622 82.8958 66.7862V94.1018C82.8958 95.0258 82.5287 95.912 81.8754 96.5653C81.222 97.2187 80.3358 97.5858 79.4118 97.5858H28.769C27.8457 97.5858 26.9602 97.219 26.3073 96.5661C25.6544 95.9132 25.2876 95.0277 25.2876 94.1044V66.7862C25.2873 66.3288 25.3771 65.8758 25.5519 65.4531C25.7267 65.0304 25.983 64.6463 26.3064 64.3228C26.6297 63.9992 27.0136 63.7426 27.4361 63.5674C27.8587 63.3923 28.3116 63.3022 28.769 63.3022Z" fill="#00934C"/>
<path id="Vector_29" d="M60.3303 96.4886L73.9517 108.584L75.0697 96.7044" fill="#00934C"/>
<path id="Vector_30" d="M43.2432 84.2816C45.0955 84.2816 46.5972 82.78 46.5972 80.9276C46.5972 79.0753 45.0955 77.5736 43.2432 77.5736C41.3908 77.5736 39.8892 79.0753 39.8892 80.9276C39.8892 82.78 41.3908 84.2816 43.2432 84.2816Z" fill="white"/>
<path id="Vector_31" d="M54.7871 84.2816C56.6395 84.2816 58.1411 82.78 58.1411 80.9276C58.1411 79.0753 56.6395 77.5736 54.7871 77.5736C52.9347 77.5736 51.4331 79.0753 51.4331 80.9276C51.4331 82.78 52.9347 84.2816 54.7871 84.2816Z" fill="white"/>
<path id="Vector_32" d="M66.3313 84.2816C68.1837 84.2816 69.6853 82.78 69.6853 80.9276C69.6853 79.0753 68.1837 77.5736 66.3313 77.5736C64.4789 77.5736 62.9773 79.0753 62.9773 80.9276C62.9773 82.78 64.4789 84.2816 66.3313 84.2816Z" fill="white"/>
<g id="Group" opacity="0.3">
<path id="Vector_33" d="M80.7456 63.44L75.3324 63.2814H33.4724C36.9512 66.742 41.925 68.5932 46.8104 69.0196C51.6958 69.446 56.6072 68.7024 61.4406 67.8652C66.274 67.028 71.1282 66.092 76.0344 66.1284C77.0744 66.1284 78.143 66.1804 79.105 65.7956C80.067 65.4108 80.8886 64.48 80.7456 63.44Z" fill="black"/>
</g>
<path id="Vector_34" d="M90.1421 67.3192C91.9945 67.3192 93.4961 65.8176 93.4961 63.9652C93.4961 62.1128 91.9945 60.6112 90.1421 60.6112C88.2897 60.6112 86.7881 62.1128 86.7881 63.9652C86.7881 65.8176 88.2897 67.3192 90.1421 67.3192Z" fill="#00934C"/>
</g>
<g id="freepik--Character--inject-5">
<path id="Vector_35" d="M61.2376 14.6484C59.8867 14.6688 58.5768 15.1163 57.4957 15.9266C56.4145 16.7368 55.6174 17.8685 55.2186 19.1594C54.839 20.4932 54.9144 21.9128 54.67 23.2804C54.4256 24.648 53.7366 26.078 52.4392 26.572C51.5942 26.8918 50.6192 26.7592 49.7872 27.092C49.3959 27.2488 49.0501 27.5014 48.7817 27.8265C48.5133 28.1516 48.3307 28.5389 48.2508 28.9528C48.1708 29.3668 48.196 29.7942 48.3241 30.1959C48.4522 30.5976 48.679 30.9607 48.9838 31.252C48.4699 31.6948 48.1253 32.3021 48.0089 32.9704C47.8924 33.6388 48.0113 34.3268 48.3452 34.9174C48.6791 35.5079 49.2074 35.9644 49.8401 36.2092C50.4728 36.4539 51.1708 36.4717 51.8152 36.2596C51.3342 37.0396 51.4928 38.0796 52.057 38.792C52.6578 39.4826 53.5054 39.9101 54.4178 39.9828C55.3212 40.0504 56.2295 39.9687 57.1062 39.741C59.077 39.3042 61.053 38.6022 62.535 37.232C64.16 35.7292 65.0206 33.592 65.6732 31.4678C66.916 27.4248 67.579 23.0698 66.5624 18.9644" fill="#263238"/>
<path id="Vector_36" d="M52.1767 37.18L49.9849 41.9718L45.1879 31.4002C44.9617 30.5448 44.7069 29.5802 44.6549 29.3878C44.5776 29.092 44.5504 28.7853 44.5743 28.4804C44.5903 28.1019 44.6585 27.7274 44.7771 27.3676C44.9201 27.0478 44.6003 26.7228 44.3247 26.8788C44.0491 27.0348 43.6357 27.9188 43.6487 29.029C43.6617 30.1392 39.7955 27.4872 39.1689 28.1164L39.6369 31.8344C40.0607 32.2218 41.2567 33.2904 41.9223 33.8806L46.4463 45.1386C46.6998 45.8315 47.1464 46.4374 47.7334 46.8845C48.3203 47.3317 49.0229 47.6014 49.7583 47.6618C50.4936 47.7223 51.2309 47.5709 51.883 47.2256C52.535 46.8802 53.0745 46.3555 53.4377 45.7132L56.3523 40.5756L52.1767 37.18Z" fill="#FFBE9D"/>
<path id="Vector_37" d="M42.0133 24.7C42.0322 24.6932 42.0523 24.6905 42.0723 24.6921C42.0924 24.6936 42.1118 24.6993 42.1295 24.7089C42.1472 24.7185 42.1626 24.7317 42.1748 24.7476C42.1871 24.7635 42.1958 24.7819 42.2005 24.8014L44.6887 32.188C44.7122 32.2525 44.7131 32.3231 44.6914 32.3882C44.6697 32.4534 44.6266 32.5093 44.5691 32.5468L41.6155 34.203C41.5856 34.2185 41.5526 34.2272 41.5189 34.2284C41.4852 34.2295 41.4517 34.2232 41.4208 34.2097C41.3899 34.1962 41.3624 34.1761 41.3403 34.1506C41.3182 34.1251 41.302 34.0951 41.2931 34.0626L38.4955 26.416C38.4675 26.3471 38.4667 26.2701 38.4932 26.2006C38.5198 26.1311 38.5717 26.0743 38.6385 26.0416L42.0133 24.7Z" fill="#263238"/>
<path id="Vector_38" d="M42.0938 25.2434L44.3818 31.8318L41.4568 33.3918L38.9426 26.494L42.0938 25.2434Z" fill="#F5F5F5"/>
<path id="Vector_39" d="M39.5017 26.9412C39.5901 27.1674 39.7357 27.5314 39.8267 27.7576C39.8372 27.7842 39.853 27.8084 39.8731 27.8288C39.8932 27.8492 39.9171 27.8653 39.9436 27.8762C39.97 27.8871 39.9984 27.8926 40.027 27.8923C40.0556 27.8921 40.0839 27.886 40.1101 27.8746L41.6701 27.222L42.2083 27.3L42.0575 27.0166L42.2343 26.9438C42.2609 26.9333 42.2851 26.9175 42.3055 26.8974C42.3259 26.8773 42.342 26.8534 42.3529 26.8269C42.3638 26.8005 42.3693 26.7721 42.369 26.7435C42.3688 26.7149 42.3627 26.6866 42.3513 26.6604L42.0341 25.9194C42.0118 25.8679 41.9701 25.8273 41.918 25.8063C41.8659 25.7854 41.8077 25.7859 41.7559 25.8076L39.6291 26.6656C39.6023 26.6749 39.5777 26.6894 39.5566 26.7084C39.5356 26.7275 39.5186 26.7505 39.5067 26.7763C39.4948 26.802 39.4883 26.8299 39.4874 26.8582C39.4865 26.8866 39.4914 26.9148 39.5017 26.9412Z" fill="#E0E0E0"/>
<path id="Vector_40" d="M40.82 30.836L41.145 31.6498C41.1555 31.6761 41.1712 31.7 41.1911 31.7201C41.211 31.7403 41.2347 31.7563 41.2609 31.7672C41.287 31.7781 41.315 31.7836 41.3434 31.7836C41.3717 31.7835 41.3997 31.7778 41.4258 31.7668L42.9858 31.1142L43.524 31.1922L43.3732 30.9088L43.55 30.836C43.5766 30.8255 43.6008 30.8097 43.6212 30.7896C43.6416 30.7695 43.6577 30.7455 43.6686 30.7191C43.6795 30.6927 43.685 30.6643 43.6847 30.6357C43.6845 30.6071 43.6784 30.5788 43.667 30.5526L43.3498 29.8142C43.3393 29.7885 43.3238 29.7652 43.3042 29.7456C43.2846 29.726 43.2614 29.7104 43.2358 29.6997C43.2101 29.6891 43.1827 29.6836 43.155 29.6837C43.1272 29.6837 43.0998 29.6891 43.0742 29.6998L40.9448 30.5578C40.9181 30.5676 40.8937 30.5826 40.8729 30.602C40.8522 30.6214 40.8355 30.6447 40.8239 30.6706C40.8122 30.6965 40.8059 30.7245 40.8052 30.7529C40.8046 30.7813 40.8096 30.8095 40.82 30.836Z" fill="#E0E0E0"/>
<path id="Vector_41" d="M42.6399 27.8616C42.7387 28.0826 42.8999 28.444 42.9935 28.665C43.005 28.691 43.0111 28.7192 43.0116 28.7476C43.012 28.7761 43.0068 28.8044 42.9961 28.8308C42.9855 28.8573 42.9696 28.8813 42.9495 28.9015C42.9294 28.9216 42.9055 28.9376 42.8791 28.9484L41.3191 29.5984L40.9993 30.0378L40.9005 29.7284L40.7263 29.8064C40.7002 29.8175 40.6721 29.8234 40.6437 29.8237C40.6153 29.8239 40.5872 29.8186 40.5608 29.808C40.5345 29.7974 40.5105 29.7816 40.4903 29.7617C40.4701 29.7418 40.4539 29.7181 40.4429 29.692L40.1361 28.9458C40.1152 28.8936 40.1155 28.8354 40.1368 28.7835C40.1582 28.7315 40.199 28.6899 40.2505 28.6676L42.3539 27.7524C42.3798 27.7403 42.4078 27.7336 42.4363 27.7326C42.4649 27.7315 42.4933 27.7363 42.52 27.7464C42.5467 27.7566 42.571 27.7721 42.5916 27.7918C42.6122 27.8116 42.6286 27.8353 42.6399 27.8616Z" fill="#E0E0E0"/>
<path id="Vector_42" d="M39.1689 28.301C39.6707 28.3842 40.2869 28.4336 40.7887 28.5168C40.9335 28.5293 41.0733 28.5756 41.1969 28.652C41.2567 28.6926 41.3006 28.7524 41.3215 28.8215C41.3423 28.8907 41.3387 28.9648 41.3113 29.0316C41.2307 29.1772 41.0331 29.1876 40.8667 29.1824C40.4975 29.1824 40.0867 29.25 39.7175 29.237C40.1907 29.2786 40.6275 29.3176 41.1553 29.38C41.2674 29.3909 41.3724 29.4396 41.4532 29.518C41.534 29.5964 41.5857 29.6999 41.5999 29.8116C41.5917 29.9061 41.5505 29.9946 41.4834 30.0617C41.4164 30.1288 41.3278 30.17 41.2333 30.1782C41.0394 30.1916 40.8449 30.1916 40.6509 30.1782C40.6509 30.1782 39.8891 30.1782 39.8553 30.2874C40.3311 30.2874 40.9577 30.3862 41.4335 30.4304C41.5635 30.4304 41.6207 30.6176 41.6519 30.745C41.6708 30.8076 41.6677 30.8747 41.6431 30.9353C41.6185 30.9959 41.5739 31.0462 41.5167 31.0778C41.4565 31.0977 41.3927 31.1047 41.3295 31.0986C40.7133 31.0804 40.3935 31.1194 39.7695 31.0986" fill="#FFBE9D"/>
<path id="Vector_43" d="M50.5802 45.3934C50.628 44.7993 50.6071 44.2017 50.5178 43.6124C50.3836 43.0311 50.1821 42.4674 49.9172 41.9328C50.0432 42.0607 50.1461 42.2093 50.2214 42.3722C50.4251 42.7529 50.5697 43.1623 50.6504 43.5864C50.7344 44.0145 50.751 44.4531 50.6998 44.8864C50.6903 45.0612 50.6498 45.2328 50.5802 45.3934Z" fill="#EB996E"/>
<path id="Vector_44" d="M41.5478 30.5084C41.1889 30.5347 40.8281 30.5155 40.474 30.4512C40.1802 30.4226 39.9098 30.3628 39.7304 30.3628C39.6313 30.3691 39.5346 30.3966 39.447 30.4434C39.447 30.4434 39.447 30.407 39.4938 30.3654C39.5576 30.3093 39.6379 30.2755 39.7226 30.2692C39.9792 30.2614 40.2359 30.2771 40.4896 30.316C40.8489 30.3368 41.2042 30.4015 41.5478 30.5084Z" fill="#EB996E"/>
<path id="Vector_45" d="M41.3789 29.4294C41.0235 29.4558 40.6662 29.4374 40.3155 29.3748C40.0243 29.3462 39.7565 29.2838 39.5823 29.289C39.4081 29.2942 39.3223 29.3956 39.3067 29.38C39.2911 29.3644 39.3561 29.2318 39.5667 29.1954C39.6823 29.1797 39.7994 29.1797 39.9151 29.1954L40.3259 29.2396C40.6834 29.2587 41.0371 29.3225 41.3789 29.4294Z" fill="#EB996E"/>
<path id="Vector_46" d="M56.2145 51.7036C56.2145 51.7036 40.3909 50.5076 35.8123 54.0904C31.2337 57.6732 33.4255 63.4504 33.4255 63.4504H59.3007L60.2939 51.5164L56.2145 51.7036Z" fill="#263238"/>
<path id="Vector_47" d="M59.1914 59.9222C59.1139 59.924 59.0365 59.9188 58.96 59.9066C58.8092 59.8884 58.5856 59.8676 58.3022 59.8286C57.7302 59.7558 56.9034 59.6388 55.8868 59.4672C53.2401 59.012 50.6218 58.4043 48.0452 57.6472C46.5398 57.2 45.1098 56.7554 43.7916 56.42C42.6267 56.1189 41.4357 55.93 40.2348 55.8558C39.4252 55.811 38.6131 55.858 37.8142 55.9962C37.5282 56.0326 37.315 56.1028 37.1668 56.1288C37.0916 56.1487 37.0152 56.1635 36.938 56.173C37.0097 56.1438 37.0836 56.1203 37.159 56.1028C37.371 56.0386 37.5862 55.9857 37.8038 55.9442C38.6054 55.7844 39.4234 55.7224 40.24 55.7596C41.4484 55.8208 42.6477 56.0019 43.8202 56.3004C45.1462 56.6202 46.5788 57.0804 48.0842 57.5146C50.6554 58.2694 53.2641 58.8899 55.8998 59.3736C56.9112 59.5556 57.7354 59.6882 58.3022 59.7766L58.9574 59.878C59.1134 59.904 59.1914 59.9196 59.1914 59.9222Z" fill="#455A64"/>
<path id="Vector_48" d="M44.2571 56.3576C43.813 55.9856 43.3371 55.6533 42.8349 55.3644C42.3116 55.1147 41.7669 54.9128 41.2073 54.7612C41.3825 54.7489 41.5585 54.7673 41.7273 54.8158C42.1363 54.9048 42.5316 55.0482 42.9025 55.2422C43.2725 55.4373 43.6152 55.6803 43.9217 55.965C44.0548 56.076 44.1682 56.2088 44.2571 56.3576Z" fill="#455A64"/>
<path id="Vector_49" d="M67.6676 50.2138C67.6676 50.2138 53.1934 50.6064 48.6148 54.1892C44.0362 57.772 46.228 63.5492 46.228 63.5492L73.372 63.96V60.463L69.8516 60.0834L69.8256 59.9222C71.1906 58.4272 70.1506 53.2168 67.8782 50.4686L67.6676 50.2138Z" fill="#263238"/>
<path id="Vector_50" d="M71.7314 60.32C71.6539 60.3198 71.5765 60.3137 71.5 60.3018C71.3492 60.2862 71.1282 60.2628 70.8422 60.2264C70.2702 60.1536 69.4434 60.0366 68.4294 59.8624C65.7814 59.409 63.1622 58.8013 60.5852 58.0424C59.0772 57.5952 57.6524 57.1428 56.3316 56.8178C55.1686 56.5145 53.9793 56.323 52.78 56.2458C51.9704 56.201 51.1583 56.2481 50.3594 56.3862C50.0734 56.4226 49.8602 56.4954 49.712 56.5214C49.637 56.5415 49.5604 56.5555 49.4832 56.563C49.5547 56.5341 49.6287 56.5115 49.7042 56.4954C49.9161 56.4305 50.1313 56.3767 50.349 56.3342C51.1493 56.1786 51.9656 56.1201 52.78 56.16C53.9877 56.214 55.187 56.3882 56.3602 56.68C57.6888 57.0024 59.1188 57.46 60.6242 57.8968C63.1969 58.6496 65.8074 59.2667 68.445 59.7454C69.4564 59.93 70.2806 60.0626 70.85 60.151L71.5052 60.2524C71.5824 60.2681 71.6582 60.2907 71.7314 60.32Z" fill="#455A64"/>
<path id="Vector_51" d="M56.7969 56.7424C56.3524 56.37 55.8766 56.0368 55.3747 55.7466C54.8503 55.4997 54.3057 55.2979 53.7471 55.1434C53.9224 55.1313 54.0985 55.1506 54.2671 55.2006C55.0894 55.3792 55.8484 55.7762 56.4641 56.3498C56.596 56.4613 56.7084 56.594 56.7969 56.7424Z" fill="#455A64"/>
<path id="Vector_52" d="M60.1846 50.8144C60.1113 50.8336 60.0365 50.8466 59.961 50.8534L59.3162 50.9444C58.7598 51.0276 57.9538 51.1628 56.9762 51.3604C55.9986 51.558 54.813 51.8154 53.5156 52.1248C52.1096 52.4491 50.7618 52.9875 49.5194 53.7212C48.8805 54.1036 48.2955 54.5697 47.78 55.107C47.3044 55.6116 46.8995 56.1784 46.5762 56.7918C46.03 57.8354 45.7403 58.994 45.7312 60.1718C45.7241 60.9649 45.8399 61.7542 46.0744 62.5118C46.1576 62.7718 46.2356 62.985 46.2902 63.1228C46.3201 63.1924 46.3462 63.2636 46.3682 63.336C46.3266 63.2722 46.2918 63.2042 46.2642 63.1332C46.174 62.9356 46.0941 62.7334 46.025 62.5274C45.7059 61.5803 45.5806 60.5787 45.6565 59.5822C45.7325 58.5857 46.0081 57.6146 46.467 56.7268C46.7909 56.1009 47.1995 55.5226 47.6812 55.0082C48.2042 54.4608 48.7989 53.9868 49.4492 53.599C50.6991 52.8593 52.0572 52.3197 53.474 52C54.774 51.6958 55.9518 51.4514 56.945 51.2642C57.9382 51.077 58.7494 50.9574 59.3084 50.8898C59.5892 50.856 59.8076 50.8326 59.9584 50.8222C60.0336 50.8156 60.1091 50.813 60.1846 50.8144Z" fill="#455A64"/>
<path id="Vector_53" d="M73.3718 60.6372L75.847 60.4812L77.4876 61.4354L80.631 61.7786C82.1364 61.8566 82.3756 63.4764 81.45 63.4764C80.7142 63.4764 76.3124 63.7624 76.3124 63.7624L73.3718 63.8404V60.6372Z" fill="#E0E0E0"/>
<path id="Vector_54" d="M77.3942 61.4406C77.2867 61.5338 77.1551 61.5951 77.0146 61.6174C76.678 61.7017 76.3236 61.6798 76.0001 61.5545C75.6765 61.4293 75.3997 61.2069 75.2076 60.918C75.118 60.8079 75.062 60.6743 75.0464 60.5332C75.0646 60.5332 75.1296 60.6684 75.2856 60.8634C75.4851 61.1163 75.7489 61.311 76.0494 61.4272C76.3499 61.5434 76.676 61.5767 76.9938 61.5238C77.2408 61.4848 77.3864 61.4198 77.3942 61.4406Z" fill="#455A64"/>
<path id="Vector_55" d="M81.3226 63.44C81.3226 63.4556 81.1978 63.4868 81.021 63.3958C80.9132 63.3288 80.8206 63.2401 80.749 63.1353C80.6774 63.0306 80.6283 62.9121 80.605 62.7874C80.531 62.5447 80.5543 62.2827 80.67 62.0568C80.7688 61.8852 80.8884 61.8358 80.8962 61.8514C80.904 61.867 80.8208 61.9398 80.7558 62.1114C80.6773 62.3227 80.6709 62.5539 80.7376 62.7692C80.7776 62.9888 80.8958 63.1865 81.0704 63.3256C81.2082 63.4192 81.3252 63.4244 81.3226 63.44Z" fill="#455A64"/>
<path id="Vector_56" d="M56.9398 30.5162C56.9398 30.5162 53.8536 37.2996 54.0356 38.4514C54.2176 39.6032 55.1198 44.2 55.1198 44.2L55.7724 51.6776C55.7724 51.6776 67.4282 50.2658 67.67 50.2658C67.9118 50.2658 67.306 44.0804 67.306 44.0804L69.0818 32.1932C69.0818 32.1932 68.268 30.5734 64.5968 30.0118C62.3998 29.6712 56.9398 30.5162 56.9398 30.5162Z" fill="#00934C"/>
<path id="Vector_57" d="M65.4602 39.6578C65.609 40.8671 65.9819 42.0381 66.56 43.1106C66.7836 43.5136 66.9916 44.0804 67.3608 44.356C67.938 44.7902 68.7674 44.382 69.29 43.8854C69.8126 43.3888 70.343 42.7596 71.0632 42.7336C71.5234 42.718 71.9498 42.9572 72.3996 43.0534C72.8494 43.1496 73.4396 43.0014 73.5358 42.5542C73.5648 42.2901 73.5024 42.024 73.359 41.8002C72.256 39.6088 71.4114 37.2966 70.8422 34.9102C70.6022 34.2325 70.2956 33.5801 69.927 32.9628C69.667 32.5234 68.9962 31.8864 68.3358 31.3508" fill="#00934C"/>
<path id="Vector_58" d="M59.1396 30.0664C55.9312 30.1782 53.5262 32.2998 52.8424 33.8286C52.039 35.6226 51.415 37.791 50.4738 39.5174C50.2625 39.8389 50.0988 40.1891 49.9876 40.5574C49.9357 40.7439 49.9417 40.9417 50.0049 41.1247C50.068 41.3076 50.1853 41.4671 50.3412 41.5818C50.8248 41.8678 51.5268 41.496 51.9714 41.8418C52.2158 42.029 52.2886 42.3618 52.4914 42.5958C52.7514 42.874 53.1596 42.9312 53.5314 42.9728L55.6972 43.2068" fill="#00934C"/>
<path id="Vector_59" d="M64.7399 36.686C64.6874 36.605 64.6455 36.5176 64.6151 36.426C64.5222 36.182 64.4576 35.9281 64.4227 35.6694C64.2955 34.804 64.471 33.9212 64.9197 33.1703C65.3683 32.4194 66.0625 31.8465 66.8849 31.5484C67.1292 31.4576 67.383 31.3948 67.6415 31.3612C67.7363 31.3464 67.8327 31.3464 67.9275 31.3612C67.5844 31.4327 67.2471 31.53 66.9187 31.6524C66.1307 31.9622 65.4676 32.5246 65.0334 33.2514C64.5991 33.9783 64.4182 34.8287 64.5189 35.6694C64.5686 36.013 64.6425 36.3528 64.7399 36.686Z" fill="#263238"/>
<path id="Vector_60" d="M55.9285 34.0288C55.8835 34.1463 55.8278 34.2595 55.7621 34.3668C55.7023 34.4734 55.6321 34.6034 55.5619 34.7594C55.4917 34.9154 55.3981 35.087 55.3175 35.2794C55.1175 35.7436 54.9481 36.2204 54.8105 36.7068C54.6455 37.3035 54.5265 37.9119 54.4543 38.5268C54.3898 39.1416 54.3707 39.7604 54.3971 40.378C54.4225 40.8822 54.4806 41.3842 54.5713 41.8808C54.6051 42.094 54.6545 42.2812 54.6909 42.4502C54.7273 42.6192 54.7663 42.7596 54.8001 42.8766C54.8385 42.9963 54.8672 43.1189 54.8859 43.2432C54.8285 43.1311 54.7824 43.0135 54.7481 42.8922C54.6975 42.7533 54.6541 42.6118 54.6181 42.4684C54.5739 42.302 54.5167 42.1122 54.4777 41.899C54.3725 41.3994 54.3039 40.8928 54.2723 40.3832C54.1942 39.1324 54.3359 37.8775 54.6909 36.6756C54.8355 36.1862 55.0162 35.7082 55.2317 35.2456C55.3095 35.068 55.3963 34.8944 55.4917 34.7256C55.5584 34.5934 55.6322 34.465 55.7127 34.3408C55.7748 34.2303 55.8471 34.1259 55.9285 34.0288Z" fill="#263238"/>
<path id="Vector_61" d="M73.346 41.6364C73.346 41.6364 73.346 41.665 73.32 41.7118C73.2829 41.7801 73.2325 41.8402 73.1718 41.8886C72.9343 42.0546 72.6412 42.1208 72.3554 42.0732C71.9914 42.0316 71.6144 41.8132 71.175 41.7352C70.935 41.7045 70.6912 41.7273 70.461 41.8019C70.2309 41.8766 70.0201 42.0012 69.8438 42.1668C69.4356 42.4944 69.1028 42.8922 68.7102 43.16C68.5281 43.2949 68.3214 43.393 68.1018 43.4486C67.9093 43.487 67.7125 43.4993 67.5168 43.485C67.2338 43.4726 66.9585 43.3894 66.716 43.2432C66.6515 43.1997 66.5944 43.1462 66.547 43.0846C66.5192 43.0395 66.5062 43.0161 66.508 43.0144C66.5816 43.0816 66.6607 43.1425 66.7446 43.1964C66.9861 43.3202 67.2532 43.386 67.5246 43.3888C67.7105 43.396 67.8966 43.3794 68.0784 43.3394C68.2824 43.2821 68.4738 43.1869 68.6426 43.0586C69.0118 42.7986 69.3368 42.4008 69.7632 42.0602C69.9703 41.8911 70.204 41.7576 70.4548 41.665C70.6944 41.5811 70.9521 41.5632 71.201 41.613C71.669 41.7144 72.0356 41.9302 72.371 41.977C72.6381 42.0324 72.9162 41.986 73.151 41.847C73.2257 41.7865 73.2914 41.7156 73.346 41.6364Z" fill="#FAFAFA"/>
<path id="Vector_62" d="M72.6024 40.1154C72.6021 40.1408 72.5959 40.1657 72.5842 40.1882C72.555 40.2541 72.5114 40.3128 72.4568 40.3598C72.3502 40.4414 72.2266 40.498 72.0952 40.5254C71.9638 40.5529 71.8279 40.5505 71.6976 40.5184C71.3648 40.4638 71.0216 40.2454 70.6108 40.2246C70.1554 40.2315 69.7136 40.3806 69.3472 40.651C68.9416 40.924 68.5932 41.2464 68.2318 41.4908C67.9168 41.721 67.5513 41.8726 67.1658 41.9328C66.9014 41.9734 66.631 41.9383 66.3858 41.8314C66.2954 41.7968 66.2144 41.7416 66.1492 41.6702C66.1492 41.6702 66.2376 41.7222 66.4092 41.7846C66.6467 41.8651 66.9011 41.8831 67.1476 41.8366C67.5146 41.7685 67.8604 41.6143 68.1564 41.3868C68.5048 41.145 68.848 40.82 69.2666 40.5392C69.6559 40.2523 70.1272 40.0983 70.6108 40.0998C70.8195 40.119 71.0239 40.1708 71.2166 40.2532C71.3768 40.3226 71.5419 40.3799 71.7106 40.4248C71.8292 40.4586 71.9537 40.4666 72.0757 40.4482C72.1977 40.4298 72.3144 40.3855 72.4178 40.3182C72.4893 40.2604 72.5515 40.192 72.6024 40.1154Z" fill="#FAFAFA"/>
<path id="Vector_63" d="M54.3867 42.0914C54.3867 42.0914 54.3399 42.1616 54.1995 42.1928C54.1014 42.2081 54.0011 42.2027 53.9053 42.1767C53.8094 42.1507 53.7201 42.1048 53.6431 42.042C53.4331 41.8477 53.2681 41.6099 53.1595 41.3452C53.1031 41.194 53.015 41.0566 52.9011 40.9422C52.7872 40.8278 52.6501 40.7392 52.4991 40.6822C52.1707 40.6301 51.8349 40.6478 51.5137 40.7342C51.2324 40.8027 50.9374 40.7891 50.6635 40.6952C50.5712 40.6591 50.487 40.6048 50.416 40.5356C50.345 40.4664 50.2886 40.3836 50.2501 40.2922C50.2007 40.1596 50.2267 40.079 50.2319 40.0816C50.2371 40.0842 50.2319 40.157 50.2969 40.2714C50.386 40.4275 50.5281 40.5465 50.6973 40.6068C50.9576 40.6789 51.2326 40.6789 51.4929 40.6068C51.831 40.5104 52.1863 40.4908 52.5329 40.5496C52.7178 40.5991 52.8825 40.7056 53.0035 40.8538C53.1069 40.9869 53.1942 41.1318 53.2635 41.2854C53.3612 41.5387 53.5078 41.7702 53.6951 41.9666C53.8298 42.0847 54.005 42.1462 54.1839 42.1382C54.2526 42.1275 54.3203 42.1118 54.3867 42.0914Z" fill="#FAFAFA"/>
<path id="Vector_64" d="M53.9942 40.56C53.9942 40.56 53.937 40.5912 53.8382 40.56C53.7018 40.5076 53.5872 40.4104 53.5132 40.2844C53.43 40.1109 53.3113 39.9568 53.1648 39.832C52.9502 39.7373 52.7091 39.7207 52.4836 39.7852C52.2333 39.8386 51.9746 39.8386 51.7244 39.7852C51.5192 39.7374 51.3256 39.649 51.155 39.5252C50.99 39.4261 50.858 39.2805 50.7754 39.1066C50.7962 39.091 50.921 39.2704 51.2096 39.4472C51.5865 39.674 52.0363 39.7466 52.4654 39.65C52.7208 39.58 52.993 39.6069 53.2298 39.7254C53.3924 39.8664 53.5182 40.0449 53.5964 40.2454C53.6547 40.3604 53.7449 40.4561 53.8564 40.521C53.937 40.56 53.9942 40.56 53.9942 40.56Z" fill="#FAFAFA"/>
<path id="Vector_65" d="M66.2114 41.9042C66.2114 41.9042 66.0476 41.8704 65.7538 41.8028C65.46 41.7352 65.0336 41.6338 64.5032 41.5428C64.2432 41.496 63.9468 41.4466 63.6348 41.4076C63.3043 41.3602 62.9697 41.3472 62.6364 41.3686C62.272 41.4183 61.9196 41.5337 61.5964 41.7092C61.2532 41.8808 60.9074 42.0888 60.533 42.2734C60.1691 42.4643 59.7702 42.5793 59.3604 42.6114C58.9802 42.6267 58.5998 42.5847 58.232 42.4866C57.6302 42.2997 57.0171 42.1512 56.3964 42.042C55.978 41.9791 55.5505 42.0193 55.151 42.159C55.0104 42.2228 54.8733 42.294 54.7402 42.3722C54.7402 42.3722 54.7662 42.341 54.8286 42.289C54.9227 42.2189 55.0237 42.1588 55.1302 42.1096C55.5341 41.9476 55.9726 41.8912 56.4042 41.9458C57.0323 42.0417 57.6527 42.1824 58.2606 42.367C58.6173 42.457 58.985 42.4955 59.3526 42.4814C59.7443 42.4463 60.1251 42.3341 60.4732 42.1512C60.8398 41.9718 61.1856 41.7638 61.5366 41.5896C61.8745 41.4105 62.2417 41.2934 62.6208 41.2438C62.9632 41.2248 63.3066 41.2423 63.6452 41.2958C63.9624 41.34 64.2536 41.3946 64.5188 41.4492C65.0388 41.561 65.473 41.6754 65.7642 41.7586C65.9098 41.8028 66.0242 41.8366 66.097 41.8652C66.1698 41.8938 66.214 41.899 66.2114 41.9042Z" fill="#FAFAFA"/>
<path id="Vector_66" d="M66.4794 43.2094C66.4794 43.2094 66.3234 43.147 66.0478 43.03C65.7722 42.913 65.3666 42.7518 64.857 42.5958C64.5804 42.5079 64.2968 42.4435 64.0094 42.4034C63.6815 42.3753 63.3515 42.4187 63.0422 42.5308C62.3792 42.757 61.7422 43.2432 60.9622 43.55C60.5798 43.6959 60.1728 43.7665 59.7636 43.758C59.3882 43.75 59.0142 43.71 58.6456 43.6384C58.0343 43.4989 57.414 43.4024 56.7892 43.3498C56.3694 43.3232 55.9485 43.377 55.549 43.5084C55.2682 43.6098 55.1304 43.706 55.1226 43.6956C55.1148 43.6852 55.1538 43.6644 55.2188 43.6202C55.317 43.5576 55.4206 43.5036 55.5282 43.459C55.9306 43.304 56.361 43.2349 56.7918 43.2562C57.4224 43.294 58.0492 43.3809 58.6664 43.5162C59.358 43.6332 60.1588 43.7268 60.9128 43.4252C61.6668 43.1236 62.3012 42.6452 62.9928 42.4138C63.3196 42.2994 63.6678 42.2594 64.012 42.2968C64.3055 42.3392 64.5945 42.4088 64.8752 42.5048C65.279 42.6406 65.6741 42.8013 66.0582 42.9858C66.1934 43.0508 66.2974 43.1054 66.365 43.1444C66.4057 43.1611 66.4441 43.183 66.4794 43.2094Z" fill="#FAFAFA"/>
<path id="Vector_67" d="M63.0058 42.744C63.0058 42.744 62.9408 42.7648 62.8186 42.7752C62.6453 42.7893 62.471 42.785 62.2986 42.7622C62.0412 42.7317 61.7882 42.6715 61.5446 42.5828C61.2473 42.4725 60.9645 42.3267 60.7022 42.1486C60.4429 41.964 60.2063 41.7493 59.9976 41.509C59.8294 41.3119 59.6854 41.0954 59.5686 40.8642C59.4863 40.7105 59.421 40.5483 59.3736 40.3806C59.3424 40.2636 59.3268 40.196 59.3372 40.1934C59.3476 40.1908 59.436 40.4534 59.6518 40.82C59.7781 41.0366 59.9253 41.2404 60.0912 41.4284C60.2992 41.6545 60.5301 41.8584 60.7802 42.0368C61.0333 42.2095 61.3044 42.3542 61.5888 42.4684C61.8235 42.5586 62.0664 42.6256 62.3142 42.6686C62.7354 42.7388 63.0058 42.718 63.0058 42.744Z" fill="#263238"/>
<g id="Group_2" opacity="0.3">
<path id="Vector_68" d="M59.345 40.4742C59.5218 41.4414 59.891 42.406 60.5956 43.0924C61.3002 43.7788 62.3896 44.1324 63.3048 43.7658C63.4048 43.7383 63.4968 43.6871 63.5729 43.6165C63.6489 43.5459 63.7068 43.458 63.7416 43.3602C63.7531 43.2413 63.7246 43.122 63.6605 43.0211C63.5964 42.9203 63.5005 42.8438 63.388 42.8038C63.1593 42.7324 62.9202 42.6999 62.6808 42.7076C61.9986 42.662 61.3394 42.4429 60.7657 42.0712C60.1919 41.6995 59.7226 41.1873 59.4022 40.5834" fill="black"/>
</g>
<path id="Vector_69" d="M66.9681 44.3326C66.918 44.252 66.8803 44.1644 66.8563 44.0726C66.7913 43.9088 66.7029 43.6696 66.5963 43.3732C66.3883 42.7778 66.1205 41.9536 65.8501 41.0332C65.5797 40.1128 65.3639 39.2704 65.2183 38.6594C65.1455 38.3526 65.0909 38.1056 65.0571 37.9314C65.034 37.8465 65.0209 37.7593 65.0181 37.6714C65.0604 37.7534 65.091 37.8409 65.1091 37.9314C65.1663 38.129 65.2339 38.3656 65.3119 38.6464C65.4783 39.2522 65.7123 40.0868 65.9801 41.0072C66.2479 41.9276 66.5001 42.7544 66.6873 43.3472C66.7705 43.6254 66.8433 43.8672 66.9031 44.0596C66.9348 44.1479 66.9566 44.2395 66.9681 44.3326Z" fill="#263238"/>
<path id="Vector_70" d="M55.2317 51.7764C55.2317 51.7764 57.4781 49.3688 59.4437 48.8956C61.4093 48.4224 68.4501 45.9342 68.4501 45.9342L68.0055 44.5328C68.4585 44.4847 68.8787 44.2741 69.1885 43.94L69.6435 43.4876C70.2623 42.8116 71.0085 42.4476 72.0901 42.8142L72.7713 43.017L73.4811 45.097C73.6466 45.5821 73.7027 46.0978 73.6454 46.607C73.588 47.1163 73.4188 47.6066 73.1496 48.0428C72.8805 48.4789 72.5181 48.8501 72.0886 49.1297C71.6591 49.4093 71.1731 49.5904 70.6653 49.66L55.2317 51.7764Z" fill="#FFBE9D"/>
<path id="Vector_71" d="M71.37 46.2332C70.9041 46.0779 70.4256 45.963 69.94 45.89C69.4526 45.8606 68.9636 45.8745 68.4788 45.9316C68.9513 45.763 69.4557 45.7026 69.9547 45.7548C70.4537 45.807 70.9347 45.9705 71.3622 46.2332H71.37Z" fill="#EB996E"/>
<path id="Vector_72" d="M55.5696 18.8656C55.3798 15.6 59.6334 13.3068 62.5376 14.1258C65.265 14.9058 66.4376 16.2526 66.877 18.0778C67.3164 19.903 67.3034 21.879 66.5884 23.6184C66.2348 24.4738 65.6004 25.3448 64.68 25.4384" fill="#263238"/>
<path id="Vector_73" d="M64.277 16.861C64.5075 16.8851 64.7205 16.995 64.8736 17.1689C65.0268 17.3428 65.109 17.5679 65.1038 17.7996L64.5838 30.3186C64.5656 31.798 62.405 32.6326 60.8242 32.5988C59.2252 32.565 59.1706 31.7824 59.1472 30.3758C59.1108 28.0358 59.1108 27.144 59.1108 27.157C59.1108 27.17 57.0854 26.8216 56.6798 24.18C56.4718 22.88 56.5368 20.7194 56.6486 18.9644C56.7474 17.3836 57.7952 15.4414 59.3708 15.6104L64.277 16.861Z" fill="#FFBE9D"/>
<path id="Vector_74" d="M57.3196 20.6778C57.3195 20.7655 57.3532 20.8498 57.4138 20.9133C57.4743 20.9767 57.557 21.0144 57.6446 21.0184C57.6876 21.0219 57.7308 21.0168 57.7718 21.0033C57.8127 20.9899 57.8506 20.9683 57.8831 20.9399C57.9156 20.9116 57.942 20.877 57.9609 20.8382C57.9798 20.7994 57.9907 20.7573 57.993 20.7142C57.9944 20.6259 57.9612 20.5405 57.9004 20.4763C57.8397 20.4122 57.7563 20.3744 57.668 20.371C57.6249 20.3678 57.5815 20.3733 57.5406 20.3871C57.4996 20.4008 57.4618 20.4226 57.4293 20.4512C57.3969 20.4798 57.3705 20.5145 57.3516 20.5534C57.3328 20.5923 57.3219 20.6346 57.3196 20.6778Z" fill="#263238"/>
<path id="Vector_75" d="M57.101 20.0876C57.1426 20.1318 57.4 19.9446 57.7614 19.9446C58.1228 19.9446 58.3932 20.1266 58.4322 20.0824C58.4712 20.0382 58.4088 19.9836 58.2918 19.8978C58.1346 19.7891 57.9474 19.7318 57.7562 19.734C57.5693 19.7332 57.387 19.7925 57.2362 19.903C57.1192 19.9888 57.0802 20.0694 57.101 20.0876Z" fill="#263238"/>
<path id="Vector_76" d="M60.8738 20.6778C60.8737 20.7659 60.9078 20.8506 60.9689 20.9142C61.03 20.9777 61.1133 21.015 61.2014 21.0184C61.2443 21.0216 61.2874 21.0162 61.3282 21.0026C61.369 20.989 61.4067 20.9674 61.4391 20.9391C61.4716 20.9108 61.498 20.8764 61.517 20.8377C61.536 20.7991 61.5471 20.7571 61.5498 20.7142C61.5505 20.6261 61.5171 20.541 61.4565 20.477C61.3959 20.413 61.3128 20.375 61.2248 20.371C61.1815 20.3678 61.1381 20.3733 61.0969 20.387C61.0558 20.4007 61.0178 20.4225 60.9852 20.4511C60.9525 20.4796 60.9259 20.5143 60.9067 20.5533C60.8876 20.5922 60.8764 20.6345 60.8738 20.6778Z" fill="#263238"/>
<path id="Vector_77" d="M60.676 20.1578C60.7176 20.202 60.975 20.0122 61.3364 20.0122C61.6978 20.0122 61.9682 20.1942 62.0072 20.15C62.0462 20.1058 61.9838 20.0512 61.8668 19.9654C61.709 19.8577 61.5222 19.8006 61.3312 19.8016C61.1442 19.8008 60.962 19.8601 60.8112 19.9706C60.6942 20.0564 60.6552 20.137 60.676 20.1578Z" fill="#263238"/>
<path id="Vector_78" d="M59.3552 22.854C59.1638 22.7936 58.9654 22.7578 58.765 22.7474C58.6714 22.7474 58.5856 22.7188 58.57 22.6564C58.5606 22.5605 58.5815 22.4641 58.6298 22.3808L58.9054 21.6736C59.2876 20.6674 59.5632 19.838 59.5216 19.8224C59.222 20.4008 58.9673 21.0015 58.7598 21.619C58.6688 21.879 58.5804 22.1052 58.4998 22.3314C58.4405 22.443 58.4238 22.5724 58.453 22.6954C58.4657 22.7282 58.486 22.7575 58.5122 22.781C58.5384 22.8045 58.5698 22.8215 58.6038 22.8306C58.6557 22.8438 58.7089 22.8517 58.7624 22.854C58.9592 22.8784 59.1583 22.8784 59.3552 22.854Z" fill="#263238"/>
<path id="Vector_79" d="M59.1057 27.157C60.3462 27.1759 61.5676 26.85 62.6339 26.2158C62.6339 26.2158 61.7785 28.0358 59.1395 27.7758L59.1057 27.157Z" fill="#EB996E"/>
<path id="Vector_80" d="M59.5086 23.7302C59.5779 23.6431 59.6682 23.5749 59.7709 23.5322C59.8737 23.4894 59.9856 23.4735 60.0962 23.4858C60.1767 23.4932 60.2548 23.5168 60.3258 23.5553C60.3969 23.5937 60.4594 23.6461 60.5096 23.7094C60.5585 23.7695 60.5875 23.8433 60.5926 23.9206C60.5977 23.9979 60.5787 24.0749 60.5382 24.141C60.4803 24.2067 60.404 24.2535 60.3192 24.2753C60.2343 24.2971 60.1449 24.2929 60.0624 24.2632C59.8904 24.2022 59.7322 24.1076 59.597 23.985C59.5567 23.9555 59.5216 23.9194 59.493 23.8784C59.4804 23.8581 59.4736 23.8347 59.4736 23.8108C59.4736 23.7869 59.4804 23.7634 59.493 23.7432" fill="#EB996E"/>
<path id="Vector_81" d="M60.4265 23.1062C60.3667 23.1062 60.3667 23.4962 60.0287 23.777C59.6907 24.0578 59.2695 24.0136 59.2669 24.0682C59.2643 24.1228 59.3605 24.1462 59.5269 24.1514C59.7589 24.1537 59.9843 24.0746 60.1639 23.9278C60.3352 23.7875 60.4452 23.5861 60.4707 23.3662C60.4967 23.1998 60.4525 23.1036 60.4265 23.1062Z" fill="#263238"/>
<path id="Vector_82" d="M60.5124 19.5208C60.5488 19.6196 60.9102 19.5728 61.3366 19.6222C61.763 19.6716 62.1166 19.7912 62.166 19.7028C62.192 19.6612 62.1322 19.5676 61.9918 19.4714C61.8065 19.3538 61.5968 19.2801 61.3788 19.2558C61.1607 19.2315 60.94 19.2572 60.7334 19.331C60.58 19.396 60.4968 19.474 60.5124 19.5208Z" fill="#263238"/>
<path id="Vector_83" d="M57.2337 19.0372C57.2987 19.1178 57.5483 19.0372 57.8499 19.0372C58.1515 19.0372 58.4062 19.0918 58.466 19.006C58.492 18.9644 58.4505 18.8812 58.3387 18.8032C58.1902 18.7077 58.0158 18.6605 57.8395 18.668C57.6621 18.6695 57.4898 18.7278 57.3481 18.8344C57.2415 18.9098 57.1999 18.9956 57.2337 19.0372Z" fill="#263238"/>
<path id="Vector_84" d="M60.6708 14.7394C59.7746 14.7828 58.9037 15.0511 58.1384 15.5194C57.7084 15.7397 57.3262 16.0428 57.0139 16.4114C56.7015 16.78 56.4651 17.2067 56.3184 17.667C56.2816 17.7621 56.2645 17.8636 56.268 17.9655C56.2716 18.0674 56.2958 18.1675 56.3392 18.2598C56.4227 18.3659 56.5405 18.4395 56.6725 18.468C56.8044 18.4964 56.9422 18.478 57.062 18.4158C57.2982 18.285 57.4997 18.0995 57.6496 17.875C57.7135 18.1183 57.857 18.3334 58.0572 18.4858C58.2573 18.6383 58.5027 18.7195 58.7543 18.7165C59.0059 18.7135 59.2493 18.6265 59.4458 18.4693C59.6423 18.3122 59.7806 18.0938 59.8388 17.849C59.8587 18.1016 59.9752 18.3368 60.164 18.5058C60.3528 18.6748 60.5995 18.7645 60.8528 18.7564C61.1062 18.7347 61.3477 18.6391 61.5473 18.4815C61.747 18.3239 61.896 18.1112 61.976 17.8698C62.036 18.3311 62.1938 18.7743 62.4388 19.1698C62.564 19.3632 62.7456 19.5136 62.959 19.6005C63.1725 19.6875 63.4074 19.7068 63.6322 19.656C63.5365 20.0436 63.5428 20.4493 63.6504 20.8338C63.7882 21.2082 64.4304 29.2734 64.81 29.1538C65.1896 29.0342 65.0856 20.8338 65.1714 20.4542C65.3579 19.7332 65.4522 18.9915 65.4522 18.2468C65.4769 17.481 65.2292 16.7312 64.7532 16.1309C64.2771 15.5306 63.6035 15.1186 62.8522 14.9682C62.1007 14.7953 61.3294 14.7244 60.559 14.7576" fill="#263238"/>
<path id="Vector_85" d="M51.498 25.1758C51.498 25.1758 51.4694 25.129 51.394 25.0562C51.2856 24.949 51.1466 24.8782 50.9962 24.8534C50.8798 24.831 50.76 24.8326 50.6442 24.858C50.5284 24.8835 50.419 24.9324 50.3228 25.0016C50.2046 25.1033 50.1148 25.2339 50.0619 25.3806C50.0091 25.5273 49.9951 25.6851 50.0212 25.8388C50.0447 26.019 50.1126 26.1905 50.2188 26.338C50.3393 26.4936 50.4965 26.6169 50.6764 26.6968C50.8769 26.7842 51.0933 26.8293 51.3121 26.8293C51.5308 26.8293 51.7472 26.7842 51.9478 26.6968C52.396 26.4944 52.7827 26.1768 53.0684 25.7764C53.3846 25.3506 53.628 24.8753 53.7886 24.3698C54.1318 23.3298 54.2254 22.2742 54.3684 21.3278C54.475 20.4819 54.6991 19.6549 55.034 18.8708C55.2646 18.3396 55.6069 17.8643 56.0376 17.4772C56.1574 17.373 56.2852 17.2782 56.4198 17.1938C56.4644 17.1632 56.5124 17.1379 56.5628 17.1184C56.5628 17.1184 56.373 17.238 56.074 17.5058C55.663 17.8994 55.3381 18.3739 55.1198 18.8994C54.8003 19.6791 54.5886 20.4987 54.4906 21.3356C54.3528 22.2794 54.2644 23.3402 53.9134 24.401C53.749 24.9209 53.4985 25.4096 53.1724 25.8466C52.8699 26.2628 52.4639 26.5926 51.9946 26.8034C51.7789 26.8975 51.5461 26.946 51.3108 26.946C51.0755 26.946 50.8427 26.8975 50.627 26.8034C50.4317 26.7129 50.262 26.5753 50.133 26.403C50.0178 26.2408 49.9453 26.0521 49.9224 25.8544C49.8971 25.6855 49.9165 25.5129 49.9785 25.3537C50.0405 25.1945 50.1431 25.0543 50.276 24.947C50.3808 24.8741 50.4997 24.824 50.6251 24.7998C50.7505 24.7756 50.8796 24.7779 51.004 24.8066C51.1613 24.8398 51.3041 24.9216 51.4122 25.0406C51.4501 25.0791 51.4793 25.1252 51.498 25.1758Z" fill="#263238"/>
<path id="Vector_86" d="M65.4756 29.497C65.4756 29.4814 65.629 29.4138 65.8838 29.237C66.2379 28.9803 66.5404 28.6593 66.7756 28.2906C67.1238 27.7433 67.3515 27.1282 67.4438 26.4862C67.5417 25.6956 67.5075 24.8943 67.3424 24.115C67.1812 23.283 66.942 22.5056 66.7366 21.7958C66.5312 21.086 66.3544 20.4386 66.2504 19.8874C66.1654 19.4518 66.115 19.0101 66.0996 18.5666C66.0996 18.4106 66.0996 18.2884 66.0996 18.2052C66.0969 18.1631 66.1013 18.121 66.1126 18.0804C66.1256 18.0804 66.1126 18.2546 66.1464 18.564C66.1801 19.0011 66.2435 19.4355 66.3362 19.864C66.4532 20.4074 66.6326 21.047 66.8562 21.7542C67.1028 22.523 67.3093 23.304 67.475 24.0942C67.6449 24.8871 67.6757 25.7035 67.566 26.507C67.4669 27.1651 67.2246 27.7935 66.8562 28.3478C66.6086 28.7208 66.2875 29.0393 65.9124 29.2838C65.8111 29.3504 65.7041 29.4078 65.5926 29.4554C65.5549 29.4727 65.5158 29.4867 65.4756 29.497Z" fill="#263238"/>
<path id="Vector_87" d="M65.9462 27.8044C65.9179 27.8252 65.8862 27.841 65.8526 27.8512C65.76 27.8848 65.6641 27.9083 65.5666 27.9214C65.1986 27.9592 64.828 27.882 64.5058 27.7004C64.0291 27.426 63.6679 26.9882 63.4892 26.468C63.2748 25.84 63.2046 25.1717 63.2838 24.5128C63.3462 23.816 63.4736 23.1686 63.5308 22.5732C63.588 21.9778 63.6218 21.4396 63.6322 20.9872C63.6426 20.5348 63.6322 20.1682 63.6322 19.9134C63.6209 19.7828 63.6209 19.6514 63.6322 19.5208C63.661 19.6489 63.6775 19.7795 63.6816 19.9108C63.7024 20.1708 63.7232 20.5322 63.7258 20.9898C63.7282 21.5228 63.7039 22.0556 63.653 22.5862C63.601 23.1868 63.4788 23.8394 63.4164 24.5258C63.339 25.1646 63.4029 25.8125 63.6036 26.4238C63.7687 26.9214 64.105 27.3442 64.5526 27.6172C64.8556 27.7998 65.2052 27.8902 65.5588 27.8772C65.811 27.8486 65.941 27.7914 65.9462 27.8044Z" fill="#263238"/>
<path id="Vector_88" d="M48.9396 30.1808C48.9376 30.0923 48.9517 30.0042 48.9812 29.9208C49.063 29.6904 49.2137 29.4906 49.4128 29.3488C49.7266 29.12 50.1013 28.9897 50.4892 28.9744C50.9364 28.9328 51.4434 28.9978 51.992 28.9744C52.5919 28.9204 53.1704 28.7243 53.6794 28.4024C54.261 28.0276 54.7586 27.5362 55.1406 26.9594C55.5586 26.3188 55.8523 25.6052 56.0064 24.856C56.1719 24.0489 56.2408 23.225 56.2118 22.4016C56.2118 21.554 56.0948 20.7324 56.0454 19.9264C55.9695 19.1505 56.0186 18.3675 56.191 17.6072C56.3509 16.9593 56.6909 16.3698 57.1717 15.9069C57.6525 15.4441 58.2545 15.1268 58.908 14.9916C59.4085 14.8921 59.9249 14.9073 60.4186 15.0358C60.788 15.1316 61.1393 15.2871 61.4586 15.496C61.6603 15.6268 61.8469 15.7794 62.015 15.951C62.0748 16.0108 62.1112 16.0602 62.1398 16.0914C62.1684 16.1226 62.1814 16.1408 62.1788 16.1434C61.9511 15.9166 61.7001 15.7144 61.43 15.5402C61.1086 15.3418 60.7575 15.1961 60.39 15.1086C59.9064 14.9918 59.4029 14.9838 58.9158 15.0852C58.3282 15.2137 57.7842 15.4933 57.3376 15.8964C56.8219 16.3589 56.4591 16.9674 56.2976 17.641C56.1335 18.3884 56.0879 19.157 56.1624 19.9186C56.217 20.7168 56.321 21.5436 56.3366 22.399C56.3628 23.233 56.2913 24.0672 56.1234 24.8846C55.9646 25.6496 55.662 26.3775 55.2316 27.0296C54.8379 27.619 54.3251 28.1194 53.7262 28.4986C53.2007 28.826 52.6041 29.0222 51.9868 29.0706C51.42 29.1018 50.9182 29.029 50.4814 29.0706C50.1093 29.0821 49.7483 29.2003 49.4414 29.4112C49.2444 29.5431 49.0921 29.7317 49.0046 29.952C48.95 30.0924 48.95 30.1808 48.9396 30.1808Z" fill="#455A64"/>
<path id="Vector_89" d="M61.9734 14.1856C61.9734 14.1726 62.1008 14.2298 62.2334 14.3884C62.4146 14.5996 62.5247 14.8625 62.548 15.1398C62.5716 15.4175 62.508 15.6956 62.366 15.9354C62.2542 16.1148 62.1476 16.1954 62.1372 16.1954C62.1268 16.1954 62.1996 16.081 62.2802 15.9016C62.3901 15.6725 62.4368 15.418 62.4153 15.1648C62.3938 14.9115 62.305 14.6686 62.158 14.4612C62.054 14.2844 61.9604 14.2012 61.9734 14.1856Z" fill="#455A64"/>
<path id="Vector_90" d="M67.1656 20.9274C67.133 20.8239 67.1096 20.7178 67.0954 20.6102C67.0564 20.4022 67.0018 20.1058 66.9212 19.7392C66.8406 19.3726 66.7444 18.9358 66.6144 18.46C66.5494 18.2208 66.4766 17.9712 66.3856 17.719C66.2997 17.4607 66.1733 17.2176 66.0112 16.9988C65.701 16.5693 65.2768 16.2352 64.7866 16.0342C64.3858 15.8733 63.9472 15.8309 63.523 15.912C63.235 15.9628 62.9606 16.0726 62.717 16.2344C62.6337 16.3022 62.547 16.3655 62.457 16.4242C62.457 16.4242 62.4726 16.3982 62.509 16.3566C62.5642 16.2962 62.6251 16.2413 62.691 16.1928C62.9315 16.0081 63.2106 15.8801 63.5074 15.8184C63.9503 15.7195 64.4126 15.7538 64.836 15.9172C65.3516 16.1215 65.7981 16.4688 66.123 16.9182C66.2934 17.1475 66.4252 17.403 66.513 17.6748C66.604 17.9348 66.6742 18.1948 66.7392 18.4262C66.8614 18.9098 66.9524 19.3492 67.0174 19.7262C67.0824 20.1032 67.1292 20.397 67.15 20.6076C67.1691 20.7131 67.1744 20.8206 67.1656 20.9274Z" fill="#455A64"/>
<path id="Vector_91" d="M62.2438 16.2838C61.9589 16.2524 61.6792 16.1842 61.4118 16.081C61.1219 15.9846 60.8245 15.9124 60.5226 15.8652C60.1569 15.8122 59.7837 15.8533 59.4384 15.9848C59.0931 16.1138 58.7868 16.3296 58.5492 16.6114C58.3558 16.8396 58.2116 17.1051 58.1254 17.3914C58.0557 17.6634 58.0182 17.9427 58.0136 18.2234C57.9838 18.1509 57.9697 18.073 57.972 17.9946C57.9592 17.7831 57.9794 17.5708 58.0318 17.3654C58.1077 17.056 58.2516 16.7673 58.453 16.5204C58.7004 16.2159 59.0243 15.9826 59.3916 15.8444C59.758 15.7062 60.1541 15.6658 60.5408 15.7274C60.849 15.7857 61.151 15.8728 61.443 15.9874C61.937 16.1772 62.249 16.2656 62.2438 16.2838Z" fill="#455A64"/>
</g>
<g id="freepik--Plants--inject-5">
<path id="Vector_92" d="M114.587 104.442C114.819 103.646 115.31 102.882 116.074 102.547C116.839 102.211 117.785 102.398 118.596 102.695C119.408 102.991 120.206 103.384 121.066 103.436C121.927 103.488 122.902 103.082 123.159 102.258C123.401 101.478 122.933 100.656 122.351 100.092C121.733 99.4984 120.975 99.0697 120.148 98.8454C119.32 98.6211 118.45 98.6085 117.617 98.8086C116.783 99.0087 116.013 99.4153 115.378 99.9908C114.743 100.566 114.263 101.292 113.981 102.102" fill="#263238"/>
<path id="Vector_93" d="M107.76 107.9C106.496 106.699 106.558 104.608 107.19 102.981C107.822 101.353 109.197 100.108 110.734 99.2836C112.235 98.496 113.895 98.0586 115.59 98.0041C117.284 97.9496 118.969 98.2795 120.518 98.969C119.76 99.0014 119.021 99.219 118.367 99.6029C117.712 99.9869 117.162 100.525 116.763 101.171C116.072 102.323 115.916 103.719 115.344 104.936C114.699 106.306 113.553 107.378 112.142 107.929C110.731 108.48 109.163 108.47 107.76 107.9Z" fill="#455A64"/>
<path id="Vector_94" d="M107.154 100.688C105.752 99.0366 105.565 96.3846 105.773 94.2292C105.981 92.0738 106.478 89.9028 106.137 87.763C105.937 86.4968 105.446 85.2878 105.279 84.0138C105.113 82.7398 105.35 81.3046 106.335 80.483C107.469 79.5392 109.252 79.7628 110.43 80.6468C111.608 81.5308 112.291 82.927 112.791 84.3128C113.88 87.36 114.288 90.74 113.389 93.86C112.489 96.98 110.375 99.7542 107.273 100.693" fill="#455A64"/>
<path id="Vector_95" d="M106.48 114.247C106.474 114.183 106.474 114.12 106.48 114.057C106.48 113.932 106.48 113.747 106.48 113.511C106.496 113.035 106.54 112.349 106.647 111.509C106.769 110.522 106.948 109.542 107.182 108.576C107.472 107.389 107.922 106.247 108.519 105.18C109.119 104.115 109.855 103.133 110.708 102.258C111.401 101.541 112.17 100.902 113.001 100.352C113.35 100.11 113.69 99.9284 113.981 99.7568C114.273 99.5852 114.54 99.4734 114.761 99.372L115.266 99.1614C115.323 99.1341 115.384 99.1123 115.445 99.0964C115.393 99.1316 115.337 99.1612 115.279 99.1848L114.785 99.4188C114.577 99.528 114.319 99.6632 114.026 99.8244C113.732 99.9856 113.407 100.186 113.061 100.433C112.244 100.989 111.488 101.63 110.804 102.344C109.966 103.216 109.241 104.191 108.646 105.245C107.346 107.497 107.006 109.86 106.748 111.519C106.631 112.359 106.571 113.04 106.54 113.513C106.525 113.737 106.514 113.919 106.506 114.057C106.505 114.121 106.496 114.184 106.48 114.247Z" fill="#263238"/>
<path id="Vector_96" d="M94.406 94.1694C91.806 95.7294 91.8242 97.1542 92.2584 98.4984C92.6926 99.8426 94.2786 100.773 95.5968 100.272C96.343 99.9856 96.8812 99.3382 97.344 98.6882C97.8068 98.0382 98.2358 97.3414 98.8832 96.8682C99.5306 96.395 100.464 96.2234 101.114 96.6862" fill="#263238"/>
<path id="Vector_97" d="M92.469 95.8828C93.145 94.9468 94.809 94.6764 95.875 95.1444C96.941 95.6124 97.695 96.538 98.397 97.461C99.099 98.384 99.7646 99.3616 100.724 100.004C101.683 100.646 103.022 100.88 103.979 100.233C104.285 100.006 104.54 99.7185 104.73 99.3889C104.92 99.0593 105.041 98.6943 105.084 98.3164C105.169 97.5612 105.118 96.7968 104.933 96.0596C104.705 94.9728 104.33 93.8392 103.462 93.1476C102.495 92.3806 101.15 92.3442 99.9128 92.3832C98.4932 92.43 97.0528 92.5366 95.7242 93.028C94.3956 93.5194 93.0332 94.588 92.469 95.888" fill="#455A64"/>
<path id="Vector_98" d="M104.328 112.172C104.316 112.098 104.309 112.023 104.309 111.948L104.286 111.306C104.27 110.734 104.244 109.931 104.216 108.943C104.187 107.955 104.14 106.756 104.07 105.438C104 104.12 103.896 102.671 103.696 101.166C103.612 100.433 103.47 99.7077 103.269 98.9976C103.064 98.342 102.798 97.7067 102.476 97.0996C101.941 96.0634 101.234 95.1261 100.383 94.328C99.8073 93.794 99.1554 93.3481 98.449 93.0046C98.2579 92.9074 98.0618 92.8206 97.8614 92.7446C97.79 92.7214 97.7212 92.6909 97.656 92.6536C97.7284 92.6708 97.7996 92.6925 97.8692 92.7186C98.0755 92.7822 98.2771 92.8604 98.4724 92.9526C99.1944 93.2811 99.861 93.7196 100.448 94.2526C101.317 95.049 102.04 95.9904 102.586 97.0346C102.915 97.6465 103.185 98.2881 103.394 98.9508C103.6 99.668 103.746 100.401 103.831 101.143C104.031 102.656 104.127 104.107 104.195 105.427C104.263 106.748 104.291 107.934 104.312 108.935C104.333 109.936 104.338 110.742 104.338 111.298V111.943C104.341 112.019 104.337 112.096 104.328 112.172Z" fill="#263238"/>
<path id="Vector_99" d="M105.261 113.342C105.135 112.98 105.039 112.609 104.972 112.232C104.793 111.202 104.751 110.152 104.85 109.112C105.008 107.568 105.338 106.047 105.836 104.577C106.369 102.911 107.089 101.127 107.705 99.2134C108.009 98.2834 108.257 97.3362 108.449 96.3768C108.619 95.4817 108.741 94.5783 108.815 93.6702C108.934 92.1296 108.963 90.5835 108.901 89.0396C108.857 87.7214 108.789 86.6554 108.745 85.9196C108.724 85.5608 108.709 85.2748 108.698 85.072C108.698 84.981 108.698 84.9082 108.698 84.851C108.694 84.826 108.694 84.8005 108.698 84.7756C108.699 84.7998 108.699 84.8241 108.698 84.8484C108.698 84.9056 108.711 84.9784 108.722 85.0694C108.74 85.2722 108.763 85.5556 108.794 85.917C108.854 86.6528 108.937 87.7188 108.995 89.037C109.07 90.5846 109.051 92.1353 108.937 93.6806C108.867 94.5939 108.746 95.5026 108.576 96.4028C108.386 97.3703 108.138 98.3254 107.832 99.2628C107.214 101.184 106.488 102.963 105.953 104.624C105.452 106.084 105.114 107.595 104.944 109.13C104.836 110.164 104.863 111.209 105.022 112.237C105.084 112.601 105.141 112.882 105.193 113.069C105.214 113.157 105.23 113.227 105.245 113.285C105.253 113.303 105.258 113.322 105.261 113.342Z" fill="#263238"/>
<path id="Vector_100" d="M111.68 114.512H99.5201L99.2419 112.172H111.68V114.512Z" fill="#263238"/>
<path id="Vector_101" d="M100.825 114.247L102.346 121.269H108.953L110.375 114.247H100.825Z" fill="#263238"/>
<path id="Vector_102" d="M111.68 114.512C111.68 114.551 109.008 114.574 105.7 114.564C102.393 114.553 99.7205 114.517 99.7205 114.478C99.7205 114.439 102.393 114.418 105.7 114.429C109.008 114.439 111.68 114.475 111.68 114.512Z" fill="#455A64"/>
<path id="Vector_103" d="M109.593 117.978C109.26 117.735 108.901 117.532 108.522 117.372C108.107 117.209 107.667 117.121 107.222 117.112C106.675 117.114 106.134 117.213 105.623 117.406C105.069 117.593 104.551 117.811 104.044 117.926C103.596 118.023 103.133 118.036 102.679 117.965C102.374 117.921 102.077 117.826 101.803 117.684C101.73 117.644 101.66 117.598 101.593 117.549C101.548 117.515 101.525 117.494 101.528 117.491C101.889 117.69 102.285 117.819 102.695 117.871C103.137 117.925 103.584 117.903 104.018 117.806C104.502 117.684 105.019 117.463 105.578 117.273C106.105 117.082 106.663 116.989 107.224 117C107.682 117.015 108.134 117.115 108.555 117.296C108.84 117.415 109.106 117.571 109.348 117.762C109.414 117.812 109.477 117.867 109.536 117.926C109.577 117.952 109.598 117.975 109.593 117.978Z" fill="#455A64"/>
<path id="Vector_104" d="M109.502 118.448C109.177 118.212 108.828 118.011 108.462 117.848C108.063 117.685 107.639 117.596 107.208 117.588C106.681 117.589 106.159 117.683 105.664 117.866C105.128 118.045 104.624 118.253 104.143 118.386C103.721 118.508 103.282 118.558 102.843 118.531C102.543 118.514 102.25 118.434 101.982 118.297C101.911 118.26 101.843 118.216 101.78 118.167C101.735 118.134 101.715 118.113 101.717 118.11C101.72 118.108 101.819 118.167 102.006 118.251C102.273 118.363 102.559 118.426 102.848 118.435C103.279 118.448 103.71 118.391 104.122 118.266C104.59 118.134 105.089 117.923 105.63 117.746C106.14 117.558 106.679 117.465 107.221 117.471C107.969 117.491 108.688 117.756 109.27 118.225C109.351 118.292 109.411 118.347 109.45 118.386C109.489 118.425 109.504 118.443 109.502 118.448Z" fill="white"/>
<path id="Vector_105" d="M109.72 117.52C109.374 117.271 109.005 117.057 108.618 116.88C108.194 116.699 107.743 116.591 107.284 116.561C106.721 116.549 106.161 116.648 105.635 116.852C105.102 117.062 104.557 117.24 104.003 117.385C103.536 117.466 103.06 117.466 102.593 117.385C102.279 117.334 101.974 117.237 101.689 117.096C101.612 117.056 101.539 117.01 101.47 116.958C101.423 116.922 101.4 116.901 101.403 116.899C101.405 116.896 101.512 116.958 101.712 117.049C101.999 117.169 102.301 117.25 102.609 117.291C103.064 117.356 103.527 117.346 103.979 117.263C104.481 117.153 105.019 116.917 105.591 116.724C106.133 116.515 106.711 116.416 107.292 116.436C107.764 116.473 108.226 116.593 108.657 116.792C108.946 116.921 109.217 117.086 109.465 117.283C109.533 117.336 109.598 117.393 109.66 117.452C109.697 117.486 109.72 117.52 109.72 117.52Z" fill="white"/>
<path id="Vector_106" d="M24.7 110.042C24.18 110.791 23.1582 110.542 22.685 110.084C22.2118 109.626 22.0142 108.966 21.8322 108.334C21.4162 106.891 20.9976 105.378 21.3122 103.914C21.3835 103.464 21.5799 103.044 21.879 102.7C22.0283 102.531 22.2194 102.405 22.433 102.334C22.6466 102.263 22.8752 102.249 23.0958 102.294C23.6158 102.43 23.9304 102.931 24.1618 103.41C24.8394 104.824 25.1946 106.371 25.2018 107.939C25.2018 108.67 25.1186 109.434 24.7052 110.037" fill="#00934C"/>
<g id="Group_3" opacity="0.2">
<path id="Vector_107" d="M24.7 110.042C24.18 110.791 23.1582 110.542 22.685 110.084C22.2118 109.626 22.0142 108.966 21.8322 108.334C21.4162 106.891 20.9976 105.378 21.3122 103.914C21.3835 103.464 21.5799 103.044 21.879 102.7C22.0283 102.531 22.2194 102.405 22.433 102.334C22.6466 102.263 22.8752 102.249 23.0958 102.294C23.6158 102.43 23.9304 102.931 24.1618 103.41C24.8394 104.824 25.1946 106.371 25.2018 107.939C25.2018 108.67 25.1186 109.434 24.7052 110.037" fill="black"/>
</g>
<path id="Vector_108" d="M22.7448 113.833C21.8659 113.421 20.8785 113.301 19.9264 113.49C19.4055 113.536 18.9149 113.754 18.5328 114.111C18.187 114.496 18.1194 115.172 18.5328 115.502C18.7901 115.676 19.1001 115.754 19.409 115.723C20.1552 115.723 20.982 115.586 21.5774 116.033C21.9154 116.293 22.1416 116.714 22.5498 116.839C22.7527 116.886 22.9655 116.866 23.1559 116.781C23.3463 116.697 23.5041 116.553 23.6054 116.371C23.7992 115.997 23.842 115.563 23.725 115.159C23.6754 114.877 23.5611 114.611 23.391 114.381C23.2209 114.151 22.9997 113.963 22.7448 113.833Z" fill="#00934C"/>
<path id="Vector_109" d="M26.1482 111.116C25.8788 110.765 25.6993 110.352 25.6255 109.916C25.5516 109.479 25.5856 109.03 25.7244 108.61C26.0107 107.768 26.5245 107.022 27.209 106.454C27.9857 105.766 28.8892 105.236 29.8688 104.894C30.2481 104.741 30.6562 104.672 31.0648 104.692C31.2689 104.703 31.4672 104.764 31.6422 104.869C31.8172 104.975 31.9635 105.122 32.0684 105.297C32.3466 105.83 32.0684 106.478 31.7876 107.006C31.2776 107.937 30.6942 108.826 30.043 109.665C29.523 110.341 28.9198 111.007 28.1216 111.311C27.3234 111.615 26.494 111.571 26.0728 111.028" fill="#00934C"/>
<path id="Vector_110" d="M24.7443 121.334C24.7158 121.224 24.7001 121.11 24.6975 120.996C24.6715 120.736 24.6429 120.437 24.6065 120.065C24.5701 119.694 24.5051 119.21 24.3985 118.706C24.2762 118.157 24.1101 117.618 23.9019 117.096C23.6991 116.575 23.4234 116.086 23.0829 115.643C22.8041 115.282 22.449 114.987 22.0429 114.78C21.7674 114.647 21.4725 114.559 21.1693 114.52C21.0554 114.513 20.9423 114.497 20.8313 114.47C20.9461 114.456 21.0623 114.456 21.1771 114.47C21.4923 114.493 21.8007 114.573 22.0871 114.707C22.5147 114.908 22.8894 115.206 23.1817 115.578C23.5377 116.026 23.8243 116.526 24.0319 117.06C24.2439 117.589 24.4083 118.137 24.5233 118.695C24.6121 119.15 24.6728 119.611 24.7053 120.073C24.7339 120.468 24.7469 120.786 24.7521 121.007C24.7617 121.116 24.7591 121.226 24.7443 121.334Z" fill="#263238"/>
<path id="Vector_111" d="M24.6792 120.622C24.6724 120.569 24.6724 120.516 24.6792 120.463V120.011C24.6792 119.621 24.6792 119.054 24.661 118.352C24.6246 116.953 24.505 115.019 24.271 112.892C24.037 110.765 23.725 108.857 23.4416 107.484C23.3766 107.141 23.309 106.831 23.244 106.561C23.179 106.291 23.1322 106.054 23.0828 105.867C23.0334 105.68 23.0048 105.542 22.9762 105.427C22.9617 105.376 22.953 105.324 22.9502 105.271C22.9749 105.318 22.9933 105.368 23.0048 105.42L23.1348 105.851C23.1946 106.038 23.2544 106.272 23.322 106.543C23.3896 106.813 23.4676 107.12 23.5404 107.463C23.9278 109.251 24.2186 111.058 24.4114 112.876C24.6454 115.006 24.7494 116.945 24.7598 118.349C24.7598 119.051 24.7598 119.618 24.7338 120.011C24.7338 120.193 24.713 120.344 24.7078 120.461C24.7057 120.515 24.6961 120.57 24.6792 120.622Z" fill="#263238"/>
<path id="Vector_112" d="M24.6715 116.883C24.659 116.725 24.659 116.567 24.6715 116.41C24.6897 116.108 24.7313 115.669 24.8171 115.133C25.0481 113.735 25.4488 112.37 26.0105 111.069C26.5494 109.754 27.3238 108.548 28.2959 107.51C28.4643 107.332 28.6441 107.165 28.8341 107.011C28.9147 106.941 28.9875 106.87 29.0629 106.816L29.2709 106.673C29.396 106.575 29.529 106.488 29.6687 106.413C29.2126 106.773 28.7785 107.16 28.3687 107.572C27.4314 108.621 26.6781 109.82 26.1405 111.119C25.8331 111.829 25.5725 112.559 25.3605 113.303C25.1577 113.987 25.0225 114.616 24.9185 115.146C24.8145 115.677 24.7651 116.111 24.7313 116.41C24.7219 116.569 24.7019 116.727 24.6715 116.883Z" fill="#263238"/>
</g>
</g>
</svg>
