<svg width="164" height="80" viewBox="0 0 164 80" fill="none" xmlns="http://www.w3.org/2000/svg">
<g clip-path="url(#clip0_288_16391)">
<path d="M119.921 36.9395C120.503 36.2822 121.104 35.875 121.656 35.4107C123.015 34.2615 124.438 33.197 125.909 32.1898C127.413 31.1615 128.96 30.2072 130.552 29.321C132.321 28.335 134.157 27.4825 136.038 26.7277C137.107 26.2973 138.205 25.9368 139.279 25.5148C139.835 25.2965 140.199 25.642 140.575 25.8965C141.656 26.628 142.693 27.421 143.785 28.1357C144.21 28.4155 144.131 28.6572 143.896 28.9435C143.014 30.0122 142.25 31.1593 141.527 32.3382C140.539 33.9477 139.681 35.6207 138.919 37.3487C138.29 38.7757 137.815 40.2578 137.266 41.7147C137.186 41.9223 137.201 42.1493 137.077 42.3635C136.983 42.5267 137.129 42.6178 137.349 42.5712C138.47 42.3273 139.615 42.1958 140.738 41.9733C141.831 41.757 142.948 41.6913 144.031 41.4113C145.13 41.1272 146.095 41.3965 146.949 42.1387C147.25 42.4017 147.593 42.6307 147.95 42.813C148.344 43.0143 148.403 43.2073 148.179 43.5975C146.863 45.8727 145.761 48.2497 144.983 50.7538C144.491 52.3357 144.099 53.9577 144.052 55.6392C144.028 56.4555 143.776 57.2613 143.954 58.0945C144.015 58.383 144.069 58.6458 144.313 58.8262C145.034 59.3583 144.886 60.1788 145 60.902C145.045 61.1862 144.726 61.0928 144.598 61.0588C143.752 60.8362 142.916 60.5797 142.073 60.3465C141.146 60.0877 140.222 59.8205 139.285 59.6022C138.939 59.5217 138.819 59.3943 138.821 59.0445C138.832 57.2125 138.879 55.3762 139.18 53.5738C139.488 51.7398 139.925 49.9268 140.569 48.167C140.909 47.2382 141.239 46.3052 141.63 45.3935C141.782 45.0372 141.636 45.0075 141.32 45.0563C140.045 45.2513 138.765 45.4317 137.486 45.6097C136.727 45.7158 136.485 46.0742 136.359 47.0218C136.217 48.0757 135.984 49.119 135.8 50.1665C135.625 51.1652 135.471 52.1682 135.293 53.1668C135.126 54.1125 134.972 55.0625 134.752 55.9953C134.649 56.428 134.544 56.905 134.598 57.2888C134.658 57.7023 135.041 58.1327 135.391 58.4297C136.162 59.0848 135.943 59.8523 135.839 60.6623C135.749 61.3537 135.424 61.4405 134.835 61.29C133.74 61.0102 132.612 60.902 131.496 60.743C130.779 60.639 130.056 60.5882 129.341 60.4482C128.077 60.198 126.782 60.111 125.516 59.8545C125.015 59.7527 124.502 59.6955 123.995 59.6255C121.752 59.3138 119.568 58.7943 117.499 57.8783C116.35 57.3693 115.317 56.6823 114.493 55.7028C113.862 54.9522 113.749 54.0892 113.809 53.1795C113.933 51.267 115.075 50.001 116.539 48.9005C117.356 48.2857 118.235 47.7895 119.115 47.2848C119.2 47.236 119.358 47.2403 119.331 47.1047C119.305 46.9773 119.166 46.9095 119.042 46.9032C118.192 46.846 117.386 46.5638 116.549 46.4303C115.7 46.2967 114.863 46.0677 114.023 45.879C113.988 45.8705 113.956 45.8535 113.922 45.843C113.606 45.756 113.079 45.9363 112.998 45.614C112.891 45.1835 113.026 44.6832 113.105 44.2208C113.28 43.1692 113.484 42.1217 113.68 41.0742C113.866 40.0777 114.053 39.0832 114.254 38.0887C114.348 37.6265 114.401 37.1578 114.498 36.6935C114.78 35.3237 114.945 33.9307 115.195 32.5545C115.443 31.1783 115.803 29.8213 115.995 28.4388C116.188 27.067 116.496 25.7183 116.701 24.3507C116.78 23.8207 116.821 23.2672 116.992 22.7542C117.101 22.4297 117.052 22.2812 116.697 22.2897C115.86 22.3088 115.024 22.2918 114.185 22.3193C113.03 22.3597 111.87 22.3152 110.713 22.2792C110.264 22.2643 110.082 22.3703 110.007 22.8707C109.799 24.2512 109.478 25.6145 109.226 26.9885C109.046 27.9702 108.922 28.9625 108.747 29.9443C108.576 30.907 108.362 31.8612 108.18 32.8195C108.004 33.7483 107.85 34.6833 107.683 35.6142C107.495 36.6617 107.298 37.707 107.108 38.7545C106.939 39.6853 106.778 40.6183 106.612 41.5492C106.43 42.5627 106.246 43.5763 106.064 44.5898C105.888 45.5715 105.713 46.5533 105.542 47.535C105.377 48.4807 105.219 49.4285 105.052 50.3742C104.861 51.4598 104.667 52.5433 104.468 53.6268C104.297 54.5535 104.117 55.4802 103.944 56.4067C103.76 57.4033 103.595 58.4063 103.394 59.4007C103.274 59.9838 103.674 60.3485 103.92 60.7747C104.085 61.0632 104.299 61.324 104.502 61.589C104.834 62.0173 104.966 62.4562 104.767 63.0033C104.607 63.4422 104.652 63.9362 104.491 64.39C104.427 64.5723 104.391 64.6827 104.183 64.6275C103.096 64.3307 101.984 64.1589 100.891 63.8832C99.8894 63.6308 98.8818 63.3765 97.8612 63.2005C97.4912 63.1368 97.3585 62.9693 97.4077 62.6365C97.489 62.083 97.5553 61.5212 97.6902 60.9805C97.8485 60.3337 97.9298 59.6763 98.0495 59.0233C98.2272 58.0607 98.4175 57.1002 98.5952 56.1375C98.7043 55.5522 98.7983 54.9648 98.9031 54.3818C99.0166 53.7627 99.1128 53.1392 99.2584 52.5285C99.3675 52.0685 99.4038 51.5977 99.5022 51.1333C99.7932 49.7657 99.913 48.3642 100.213 46.9987C100.512 45.631 100.722 44.2485 100.991 42.8765C101.182 41.9033 101.366 40.9195 101.496 39.9292C101.627 38.9432 101.892 37.9763 102.074 36.9967C102.249 36.051 102.38 35.0968 102.549 34.149C102.728 33.1333 102.921 32.1198 103.122 31.1083C103.21 30.6632 103.291 30.2093 103.353 29.7683C103.55 28.3625 103.858 26.9778 104.089 25.5805C104.243 24.637 104.348 23.6743 104.641 22.752C104.752 22.4042 104.588 22.2748 104.233 22.2855C103.308 22.3152 102.382 22.2962 101.455 22.3385C100.426 22.3852 99.3909 22.3067 98.3575 22.2918C97.6751 22.2812 97.4976 22.4508 97.4162 23.1188C97.2772 24.266 97.0375 25.394 96.8193 26.5263C96.629 27.5228 96.507 28.53 96.3316 29.5287C96.1626 30.4935 95.9593 31.4498 95.7839 32.4125C95.602 33.409 95.4437 34.4098 95.2661 35.4065C95.0842 36.4222 94.9045 37.4378 94.6948 38.4492C94.603 38.8945 94.5558 39.3462 94.4659 39.7935C94.1814 41.1802 94.0445 42.5967 93.7493 43.9792C93.5418 44.9545 93.4176 45.9427 93.2038 46.918C92.9855 47.9062 92.902 48.9238 92.6816 49.9098C92.5596 50.459 92.5448 51.0252 92.3672 51.5595C92.3265 51.6803 92.2516 51.8478 92.3886 51.8818C92.8292 51.9878 92.7245 52.3208 92.6923 52.5795C92.6196 53.154 93.0752 53.4658 93.3256 53.858C93.7065 54.4538 93.9439 55.0115 93.6123 55.7133C93.4647 56.0272 93.6123 56.4173 93.4712 56.7545C93.4047 56.9135 93.3577 57.1573 93.131 57.0747C92.5447 56.8583 92.1682 57.2463 91.7703 57.5157C90.0844 58.6607 88.4178 59.8353 86.734 60.9847C85.0352 62.1445 83.3238 63.2853 81.6207 64.4388C81.242 64.6953 80.8676 64.9583 80.504 65.236C80.3627 65.3442 80.2622 65.4545 80.5681 65.5372C81.854 65.8807 83.1076 66.3153 84.3528 66.7923C87.2902 67.9205 89.8769 69.568 92.0399 71.841C93.5396 73.4165 94.7762 75.1722 95.4973 77.2439C95.6982 77.8184 96.263 77.9775 96.706 78.2722C97.104 78.5372 97.4912 79.4257 97.3777 79.8519C97.3307 80.0257 97.2238 80.0045 97.0911 79.9833C95.48 79.7332 93.8626 79.5423 92.2474 79.3282C90.9851 79.1607 89.7271 78.938 88.452 78.8553C87.9215 78.8214 87.4977 78.6538 87.2325 78.0517C86.1477 75.5962 84.4319 73.5967 82.3118 71.9683C80.6537 70.6938 78.8052 69.7333 76.7834 69.1122C75.5704 68.741 74.3659 68.372 73.0929 68.2618C72.5965 68.2195 72.22 67.9607 71.944 67.5092C71.5782 66.9133 71.1481 66.3557 70.7267 65.798C70.5127 65.516 70.5811 65.3315 70.8486 65.147C71.9077 64.424 72.9603 63.6923 74.0193 62.9693C75.0634 62.2548 76.1116 61.5445 77.1579 60.8342C78.1912 60.1343 79.2266 59.4368 80.258 58.737C81.041 58.2048 81.8218 57.6663 82.6027 57.1298C83.4007 56.5807 84.1667 55.9805 85.0033 55.4972C85.6151 55.143 85.7456 54.615 85.844 54.0255C85.9724 53.2495 86.1071 52.4735 86.2142 51.6932C86.3233 50.8937 86.4388 50.0943 86.4794 49.2907C86.5223 48.4658 86.6741 47.639 86.6548 46.8227C86.6314 45.7603 86.5564 44.6895 86.3681 43.6335C86.2055 42.7197 86.0045 41.8227 85.6407 40.9682C84.8363 39.0875 83.6426 37.5268 81.6677 36.7657C80.2899 36.2333 78.8501 36.0998 77.3547 36.4222C75.8527 36.7443 74.5327 37.3827 73.341 38.2987C72.0402 39.2995 71.1118 40.6057 70.4678 42.0942C69.9094 43.3855 69.5563 44.7383 69.5843 46.161C69.6099 47.4842 70.0527 48.6567 70.9363 49.6597C71.2058 49.965 71.5268 49.9183 71.8478 49.753C73.1549 49.0787 74.1647 48.1393 74.6289 46.7017C74.7402 46.3603 74.7339 46.0083 74.7959 45.6648C74.8408 45.4168 74.6396 45.2365 74.398 45.1008C73.5037 44.594 73.4138 44.3417 73.7134 43.36C73.7283 43.3092 73.754 43.2625 73.7711 43.2115C73.9743 42.5563 74.077 42.5373 74.7446 42.7133C75.5939 42.936 76.4604 43.0907 77.3204 43.273C78.0607 43.43 78.8052 43.572 79.5432 43.7375C80.3671 43.9218 81.1821 44.1467 82.0079 44.3142C82.2454 44.363 82.3503 44.4053 82.3311 44.662C82.2305 46.0042 81.8496 47.2508 81.088 48.379C79.9156 50.1177 78.3045 51.3327 76.3769 52.1108C74.3637 52.923 72.237 53.2325 70.0826 52.9887C68.1272 52.7682 66.4007 51.9645 65.0999 50.4337C64.2292 49.4073 63.7392 48.222 63.5616 46.882C63.4333 45.9067 63.4525 44.9355 63.6193 43.994C63.8526 42.6793 64.3234 41.4242 64.9866 40.243C65.8124 38.7778 66.9099 37.5332 68.1871 36.4687C69.6634 35.239 71.3322 34.3208 73.1805 33.708C74.152 33.3857 75.1511 33.1992 76.1309 32.9235C76.5395 32.809 76.976 32.879 77.4017 32.8068C77.9024 32.722 78.1313 32.582 78.1869 31.9968C78.3111 30.6758 78.1506 29.4418 77.4594 28.3032C76.8712 27.3342 76.0218 26.6195 75.0527 26.0385C73.5592 25.1417 71.9418 24.5565 70.2453 24.1642C69.9394 24.0942 69.6442 23.9733 69.3232 23.9437C68.6707 23.88 68.4674 23.3267 68.2 22.875C67.9625 22.4742 67.6907 22.2537 67.1858 22.2897C65.5514 22.4022 63.9125 22.294 62.2759 22.2918C61.8672 22.2918 61.7067 22.3915 61.6361 22.8368C61.4137 24.2342 61.0991 25.6167 60.8467 27.0077C60.667 27.9893 60.545 28.9817 60.3696 29.9633C60.1984 30.926 59.978 31.8782 59.8027 32.8387C59.6229 33.8203 59.471 34.8085 59.3063 35.7923C59.2164 36.3267 59.1758 36.8758 59.0131 37.389C58.8485 37.9127 58.8078 38.4577 58.7072 38.9857C58.4077 40.5653 58.0996 42.145 57.8429 43.731C57.6183 45.1115 57.3723 46.4918 57.1261 47.8658C56.8823 49.2208 56.7262 50.599 56.3324 51.9263C56.234 52.2593 56.4651 52.5117 56.6341 52.7193C56.8823 53.0205 57.062 53.3662 57.3166 53.6587C57.952 54.3838 57.9841 55.1938 57.6697 56.0568C57.6397 56.1375 57.6139 56.2223 57.6012 56.3072C57.4921 57.1022 57.2674 57.2358 56.5036 57.0153C55.3569 56.6867 54.1909 56.4407 53.0228 56.1925C52.1991 56.0187 51.3881 55.7748 50.571 55.5692C50.2308 55.4843 50.3613 55.23 50.3998 55.0582C50.7378 53.54 50.8876 52.0048 50.8448 50.4548C50.7934 48.5528 50.3676 46.7293 49.5783 44.9905C49.1226 43.9833 48.6455 42.991 47.9565 42.1153C47.8944 42.0368 47.8988 41.8927 47.7619 41.899C47.6335 41.9033 47.5885 42.0263 47.5607 42.1195C47.1114 43.5487 46.4119 44.8655 45.6009 46.1143C44.7923 47.359 43.7504 48.4128 42.5437 49.3035C41.7222 49.9098 40.8386 50.3933 39.8822 50.7453C38.9194 51.1015 37.9333 51.3645 36.8914 51.3453C36.196 51.3327 35.4964 51.3772 34.8054 51.32C33.0253 51.1737 31.4549 50.5312 30.2119 49.2228C28.5667 47.4905 28.156 45.3722 28.2757 43.0822C28.3036 42.5712 28.6395 42.408 29.0182 42.2573C31.2411 41.371 33.4489 40.453 35.6333 39.4797C35.9927 39.3207 36.2923 39.3398 36.3393 39.836C36.3885 40.3597 36.4442 40.8855 36.502 41.4092C36.5254 41.634 36.3885 41.7825 36.2345 41.897C35.0022 42.8235 35.2311 44.0555 35.4815 45.3043C35.6269 46.0338 35.9457 46.6423 36.5533 47.1047C37.3235 47.692 37.8498 47.692 38.6606 47.0155C39.6705 46.1738 40.293 45.052 40.8707 43.9135C41.5317 42.6073 41.9789 41.212 42.3576 39.8062C42.9694 37.5332 43.2604 35.2072 42.9994 32.8683C42.7877 30.9727 42.1779 29.1852 41.0076 27.5992C40.1048 26.3757 38.9686 25.4682 37.6615 24.7452C37.2594 24.5225 36.8079 24.3317 36.3778 24.2342C35.6291 24.0667 35.3017 23.5958 35.1349 22.9555C35.0086 22.4678 34.7647 22.2748 34.2426 22.2833C32.6916 22.313 31.1383 22.2748 29.5872 22.3045C29.093 22.313 29.0823 22.135 29.1743 21.7448C29.3283 21.1002 29.4674 20.4472 29.5402 19.7918C29.5937 19.3 29.7455 19.1007 30.291 19.1007C41.0461 19.1155 51.8011 19.1133 62.5562 19.1133C75.0955 19.1133 87.6346 19.1133 100.172 19.1133C101.455 19.1133 102.739 19.107 104.025 19.1177C104.389 19.1197 104.532 19.0732 104.498 18.6257C104.402 17.3407 104.613 16.077 104.844 14.809C105.262 12.5169 106.209 10.4643 107.519 8.56236C108.319 7.40037 109.295 6.38259 110.336 5.42842C112.007 3.8975 113.922 2.744 115.997 1.85132C117.217 1.32547 118.492 0.956522 119.788 0.627862C122.302 -0.0124939 124.85 -0.0421794 127.407 0.0383953C128.303 0.0659603 129.196 0.235591 130.083 0.394621C131.003 0.557891 131.896 0.786892 132.786 1.0583C134.05 1.44209 135.233 1.99764 136.356 2.66767C137.445 3.31864 138.459 4.08622 139.373 4.97042C140.496 6.05817 141.35 7.34312 142.073 8.71289C142.199 8.95037 142.246 9.18362 141.859 9.41687C139.666 10.7336 137.51 12.1098 135.34 13.4689C134.964 13.7043 134.78 13.628 134.628 13.2145C134.538 12.9706 134.491 12.6971 134.367 12.4851C134.009 11.868 134.206 11.3719 134.63 10.916C135 10.5195 135.077 10.1463 134.814 9.63739C133.46 7.0081 131.384 5.22699 128.575 4.24312C127.058 3.71302 125.514 3.37164 123.907 3.42254C121.652 3.49674 119.542 4.09894 117.576 5.20577C114.932 6.69429 113.083 8.90161 111.81 11.586C111.37 12.5169 111.109 13.5304 110.85 14.544C110.516 15.848 110.674 17.169 110.471 18.4667C110.39 18.984 110.582 19.1262 111.104 19.1262C125.231 19.1133 139.356 19.1155 153.483 19.1155C154.426 19.1155 154.582 19.2575 154.3 20.1587C154.118 20.7355 154.146 21.3355 153.958 21.9123C153.846 22.2515 153.75 22.3067 153.453 22.3025C152.687 22.2897 151.919 22.2982 151.153 22.2982C141.949 22.2982 132.745 22.2982 123.543 22.2982C122.405 22.2982 122.356 22.3363 122.242 23.475C122.108 24.8533 121.755 26.1955 121.553 27.5652C121.382 28.7378 121.117 29.8998 120.927 31.0745C120.704 32.4527 120.343 33.8098 120.141 35.188C120.067 35.7075 119.838 36.2228 119.921 36.9395ZM134.621 32.6097C133.402 33.2225 132.204 33.8733 131.078 34.6473C130.148 35.2877 129.255 35.9768 128.355 36.6575C127.433 37.355 126.605 38.1565 125.8 38.956C124.164 40.5802 122.632 42.3168 121.384 44.2697C120.907 45.0182 120.462 45.7878 119.998 46.547C119.949 46.6253 119.904 46.7038 119.97 46.7865C120.064 46.9053 120.144 46.8183 120.24 46.7697C120.488 46.6508 120.741 46.5405 120.997 46.4452C122.255 45.9723 123.509 45.4803 124.78 45.0457C125.805 44.6958 126.853 44.4223 127.891 44.1063C128.761 43.8413 129.639 43.6038 130.528 43.4108C130.92 43.326 131.145 43.044 131.2 42.6708C131.382 41.4602 131.759 40.296 132.122 39.1383C132.786 37.0392 133.588 34.9867 134.583 33.0147C134.649 32.8832 134.771 32.7475 134.615 32.6012C134.643 32.6287 134.668 32.6563 134.696 32.6817C134.705 32.669 134.713 32.6563 134.722 32.6435C134.692 32.633 134.658 32.6223 134.621 32.6097ZM43.408 22.2897C43.4166 22.5293 43.5407 22.6163 43.6435 22.7032C44.5805 23.492 45.3934 24.391 46.108 25.3792C46.8997 26.4732 47.5308 27.6543 47.9716 28.9308C48.2838 29.8383 48.4743 30.7692 48.6754 31.7042C48.9 32.7538 48.8359 33.8077 48.8786 34.853C48.9086 35.5782 48.8594 36.3288 48.8165 37.0667C48.806 37.2427 48.806 37.425 49.0028 37.5205C50.4061 38.199 51.5637 39.1913 52.627 40.3045C52.7318 40.4148 52.8238 40.6353 52.9843 40.5738C53.166 40.5038 53.0742 40.2685 53.1019 40.1052C53.1319 39.9335 53.1682 39.7617 53.2003 39.59C53.3801 38.6295 53.564 37.6688 53.7395 36.7062C53.9298 35.6567 54.1095 34.605 54.2978 33.5575C54.4648 32.6308 54.6465 31.7042 54.8092 30.7755C54.9804 29.7938 55.1322 28.8078 55.3012 27.826C55.4895 26.7425 55.6585 25.6548 55.896 24.5818C56.018 24.0327 56.033 23.4645 56.202 22.9302C56.3752 22.3788 56.3282 22.2918 55.7291 22.2918C52.0579 22.2918 48.3844 22.2918 44.7132 22.2918C44.2894 22.2897 43.8637 22.2897 43.408 22.2897ZM78.5335 22.2897C78.5206 22.33 78.5079 22.3725 78.4972 22.4127C78.833 22.5865 79.1732 22.7498 79.5027 22.9343C80.949 23.7443 82.2176 24.7367 83.1097 26.1678C83.8136 27.296 84.1538 28.5173 84.2308 29.8107C84.2907 30.8625 84.2651 31.9227 83.9933 32.9532C83.91 33.2733 84.0405 33.4408 84.3165 33.4982C84.6652 33.5702 84.9775 33.7228 85.3026 33.8458C86.826 34.4268 88.0498 35.4148 89.1302 36.6002C89.2201 36.6977 89.2863 36.8717 89.4597 36.8165C89.6051 36.7677 89.6714 36.6108 89.6714 36.473C89.6714 35.9747 89.819 35.504 89.9132 35.0227C90.1186 33.9582 90.2941 32.8873 90.4844 31.8208C90.6514 30.8922 90.8224 29.9655 90.9873 29.0368C91.1648 28.0402 91.3338 27.0415 91.5092 26.0428C91.6933 24.9932 91.8538 23.9393 92.0698 22.8962C92.1875 22.33 91.92 22.2812 91.4685 22.2833C87.3309 22.2918 83.1932 22.2897 79.0556 22.2897C78.88 22.2897 78.7068 22.2897 78.5335 22.2897ZM128.571 57.4755C128.922 57.5178 129.069 57.416 129.116 57.0258C129.178 56.517 129.166 56.0082 129.206 55.5013C129.345 53.8242 129.437 52.1448 129.696 50.476C129.887 49.2505 130.06 48.0207 130.308 46.8057C130.353 46.5852 130.289 46.4473 130.111 46.5322C129.857 46.6552 129.589 46.6233 129.339 46.6997C127.583 47.2233 125.822 47.7365 124.179 48.5677C122.651 49.3437 121.175 50.2088 120.169 51.6358C119.699 52.3017 119.331 53.0227 119.626 53.928C119.91 54.7995 120.58 55.2363 121.301 55.6455C122.394 56.2668 123.597 56.5722 124.812 56.8797C126.055 57.1933 127.334 57.1913 128.571 57.4755Z" fill="#0C1D37"/>
<path d="M134.621 32.608C134.657 32.6185 134.693 32.6314 134.727 32.6419C134.718 32.6545 134.71 32.6672 134.702 32.68C134.674 32.6524 134.649 32.6249 134.621 32.5974C134.621 32.5954 134.621 32.608 134.621 32.608Z" fill="#FCFDFD"/>
<path d="M163.506 52.7821C163.116 54.4296 162.215 55.7548 161.133 57.0164C160.551 57.6929 159.965 58.3333 159.197 58.7933V58.7913C159.058 58.7913 158.985 58.8591 158.976 58.9948L158.972 58.9989C158.846 59.0033 158.773 59.0648 158.76 59.1919C158.705 59.4019 158.54 59.4338 158.356 59.4338C158.21 59.4253 158.131 59.4909 158.125 59.6373C157.992 59.6373 157.917 59.7029 157.904 59.8344L157.892 59.8408C157.729 59.8684 157.504 59.7878 157.489 60.0678C157.35 60.0634 157.278 60.1291 157.265 60.2649L157.258 60.2691C157.141 60.2776 157.064 60.3284 157.055 60.4536C156.422 60.8394 155.793 61.2339 155.153 61.6113C154.473 62.0121 153.786 62.3979 153.095 62.7796C153.009 62.8263 152.887 62.8093 152.783 62.8221C152.665 63.1083 152.333 63.0404 152.141 63.1994C152.126 63.1316 152.1 63.0511 152.019 63.0808C151.974 63.0956 151.955 63.1826 151.925 63.2376C151.89 63.3394 151.852 63.4369 151.713 63.4116C151.698 63.3436 151.672 63.2631 151.591 63.2906C151.546 63.3076 151.527 63.3924 151.495 63.4454C151.452 63.5344 151.418 63.6321 151.285 63.6066C151.268 63.5409 151.234 63.4688 151.161 63.5006C151.116 63.5196 151.099 63.6003 151.069 63.6511C151.007 63.6596 150.943 63.6681 150.878 63.6744C150.744 63.6618 150.656 63.7104 150.641 63.8568C149.601 64.3509 148.538 64.7898 147.436 65.1291C147.258 65.1163 147.196 65.3559 147.01 65.3178C146.995 65.2521 146.97 65.1714 146.893 65.1969C146.848 65.2096 146.826 65.2923 146.794 65.3453C146.619 65.3368 146.559 65.5808 146.369 65.5383C146.356 65.4704 146.332 65.3878 146.251 65.4111C146.206 65.4238 146.182 65.5086 146.15 65.5616C146.065 65.7503 145.909 65.7758 145.727 65.7503C145.714 65.6824 145.692 65.5998 145.609 65.6231C145.564 65.6358 145.541 65.7206 145.508 65.7736C145.425 65.9624 145.267 65.9878 145.085 65.9624C145.072 65.8944 145.051 65.8118 144.969 65.8351C144.924 65.8479 144.901 65.9326 144.867 65.9856C144.642 66.3101 144.24 66.2741 143.932 66.3673C142.98 66.6578 142.01 66.8974 141.065 67.2134C140.853 67.2834 140.609 67.2536 140.38 67.2684C140.307 67.4891 140.128 67.4614 139.954 67.4488C139.942 67.3829 139.927 67.3066 139.839 67.3131C139.756 67.3216 139.749 67.3999 139.74 67.4678C139.516 67.4974 139.36 67.7498 139.099 67.6608C139.088 67.5951 139.071 67.5188 138.985 67.5251C138.902 67.5336 138.893 67.6119 138.885 67.6799C138.66 67.7096 138.506 67.9619 138.245 67.8749C138.232 67.8071 138.217 67.7308 138.13 67.7393C138.046 67.7456 138.04 67.8241 138.029 67.8919C137.804 67.9153 137.648 68.1676 137.389 68.0806C137.376 68.0128 137.359 67.9406 137.274 67.9491C137.192 67.9576 137.184 68.0339 137.173 68.0998C136.193 68.3859 135.188 68.5578 134.187 68.7528C133.536 68.8779 132.894 69.0348 132.242 69.1471C131.966 69.1959 131.675 69.1684 131.39 69.1748C131.236 69.4271 130.988 69.3486 130.763 69.3508C130.751 69.2829 130.733 69.2108 130.648 69.2171C130.566 69.2256 130.556 69.2998 130.547 69.3656C130.177 69.3464 129.867 69.6666 129.48 69.5543C129.317 69.2893 129.174 69.2914 129.05 69.5839C128.705 69.7006 128.363 69.8448 127.984 69.7728C127.824 69.4991 127.68 69.5013 127.554 69.7959C127.208 69.9104 126.865 70.0419 126.487 69.9678C126.324 69.7281 126.178 69.7133 126.057 70.0018C125.558 70.0589 125.083 70.2921 124.563 70.1968C124.407 69.9233 124.264 69.9233 124.133 70.2179C122.368 70.4788 120.584 70.5361 118.81 70.6993C117.266 70.8414 115.723 70.7459 114.191 70.8944C112.028 71.1064 109.87 71.0386 107.709 71.0089C105.76 70.9793 103.811 70.9049 101.864 70.7968C100.242 70.7056 98.6268 70.5318 97.0094 70.3983C96.6414 70.3664 96.299 70.1819 95.9203 70.2223C95.4924 70.1819 95.0282 70.3706 94.6517 70.0186C94.3607 70.0101 94.0718 70.0018 93.781 69.9933C93.306 70.0844 92.9208 69.7091 92.4609 69.6984C92.9081 69.6624 93.3659 69.4589 93.7724 69.8469C94.2003 69.7918 94.6281 69.7981 95.056 69.8384C95.5117 69.8426 95.9695 69.8491 96.4252 69.8491C96.5772 69.8491 96.7034 69.8766 96.7761 70.0229C99.4783 70.0463 102.183 70.0864 104.885 70.0886C106.823 70.0908 108.766 70.1226 110.698 69.9996C112.617 69.8788 114.54 69.7684 116.455 69.5776C117.732 69.4504 119.018 69.3359 120.284 69.1429C121.461 68.9648 122.661 68.9139 123.817 68.5938C123.981 68.5471 124.17 68.5768 124.347 68.5726C124.358 68.6404 124.373 68.7168 124.458 68.7104C124.544 68.7061 124.553 68.6276 124.563 68.5619C124.848 68.5068 125.1 68.2948 125.415 68.3881C125.584 68.6341 125.729 68.6383 125.845 68.3456C126.131 68.2926 126.382 68.0743 126.698 68.1654C126.711 68.2311 126.735 68.3096 126.814 68.2863C126.857 68.2736 126.883 68.1929 126.914 68.1421C127.223 68.1844 127.454 67.8856 127.766 67.9576C127.933 68.2143 128.078 68.2163 128.196 67.9216C128.423 67.9216 128.581 67.6544 128.836 67.7583C128.853 67.8241 128.887 67.8941 128.96 67.8643C129.003 67.8474 129.022 67.7711 129.052 67.7201C129.36 67.7563 129.593 67.4721 129.903 67.5314C129.918 67.5971 129.944 67.6734 130.021 67.6501C130.066 67.6374 130.09 67.5569 130.122 67.5059C130.406 67.4424 130.656 67.2368 130.971 67.3046C132.026 67.0311 133.078 66.7533 134.135 66.4861C134.503 66.3928 134.878 66.3271 135.25 66.2486C135.263 66.3143 135.282 66.3886 135.367 66.3801C135.449 66.3694 135.455 66.2931 135.466 66.2274C135.877 66.0408 136.298 65.8924 136.747 65.8246C136.76 65.8924 136.777 65.9644 136.863 65.9559C136.944 65.9454 136.953 65.8691 136.961 65.8033C137.103 65.7439 137.246 65.6846 137.387 65.6253C137.402 65.6909 137.43 65.7673 137.507 65.7418C137.55 65.7269 137.571 65.6464 137.603 65.5956C138.025 65.4386 138.427 65.2288 138.885 65.1863C138.898 65.2541 138.919 65.3368 139 65.3136C139.045 65.3008 139.069 65.2159 139.103 65.1629C139.191 64.9806 139.345 64.9468 139.524 64.9743C140.744 64.5396 141.963 64.1091 143.181 63.6639C143.677 63.4814 144.165 63.2694 144.657 63.0701C144.67 63.1379 144.693 63.2208 144.775 63.1931C144.82 63.1804 144.843 63.0956 144.875 63.0404C144.92 62.9578 144.95 62.8518 145.085 62.8941C145.215 63.0956 145.262 62.9874 145.299 62.8391C145.583 62.7033 145.868 62.5654 146.153 62.4298C146.167 62.4998 146.189 62.5824 146.272 62.5571C146.317 62.5421 146.339 62.4553 146.369 62.4001C146.405 62.3004 146.437 62.2008 146.578 62.2284L149.145 60.9561C149.161 61.0239 149.188 61.1046 149.27 61.0728C149.315 61.0558 149.332 60.9688 149.362 60.9138C149.394 60.8119 149.434 60.7166 149.573 60.7398C149.588 60.8078 149.614 60.8904 149.698 60.8586C149.742 60.8416 149.757 60.7526 149.787 60.6974C149.832 60.4473 150.033 60.4959 150.202 60.4811C150.337 60.4896 150.419 60.4303 150.433 60.2924C150.474 60.2013 150.506 60.0994 150.643 60.1228C150.66 60.1886 150.694 60.2628 150.771 60.2268C150.814 60.2054 150.831 60.1249 150.859 60.0698C150.913 59.8451 151.095 59.8493 151.272 59.8451C151.302 59.7856 151.319 59.7009 151.368 59.6711C152.498 58.9821 153.602 58.2611 154.59 57.3748C154.734 57.2476 155.008 57.3133 155.11 57.0864C155.262 57.0949 155.341 57.0291 155.341 56.8786C155.485 56.8829 155.557 56.8108 155.557 56.6688C155.701 56.6688 155.771 56.5988 155.771 56.4566H155.778C155.913 56.4566 155.983 56.3868 155.99 56.2531L155.994 56.2509C156.127 56.2468 156.197 56.1789 156.208 56.0474L156.214 56.0411C156.347 56.0304 156.413 55.9604 156.418 55.8291L156.422 55.8269C156.559 55.8184 156.627 55.7463 156.627 55.6106C156.768 55.6084 156.841 55.5386 156.841 55.3986C156.987 55.3964 157.057 55.3223 157.053 55.1823C157.205 55.1803 157.271 55.1018 157.262 54.9554C157.28 54.8918 157.297 54.8283 157.314 54.7668C157.43 54.7561 157.481 54.6841 157.494 54.5779L157.509 54.5548C158.213 53.5539 158.805 52.4936 159.314 51.3804C159.447 51.0858 159.468 50.7761 159.55 50.4856C159.881 49.2876 159.856 48.0874 159.522 46.8556C158.921 44.6419 157.528 42.9838 155.925 41.4443C155.887 41.4083 155.848 41.3744 155.814 41.3341C155.806 41.3256 155.814 41.3023 155.821 41.2303C156.287 41.1729 156.629 41.4994 156.948 41.7073C158.36 42.6276 159.759 43.5774 160.938 44.7966C161.997 45.8908 162.913 47.1164 163.386 48.5476C163.837 49.9089 163.844 51.3466 163.506 52.7821Z" fill="#94959E"/>
<path d="M157.048 55.1883L157.06 55.1821V55.1883C157.054 55.1883 157.054 55.1883 157.048 55.1883Z" fill="#94959E"/>
<path d="M157.501 60.0713L157.489 60.0834C157.489 60.0773 157.489 60.0773 157.489 60.0713C157.495 60.0713 157.495 60.0713 157.501 60.0713Z" fill="#94959E"/>
<path d="M124.132 70.2158C124.263 69.9212 124.406 69.9232 124.562 70.1968C124.419 70.2032 124.276 70.2095 124.132 70.2158Z" fill="#858690"/>
<path d="M128.196 67.9229C128.076 68.2175 127.932 68.2155 127.766 67.9589C127.909 67.9462 128.052 67.9355 128.196 67.9229Z" fill="#858690"/>
<path d="M125.844 68.3458C125.728 68.6384 125.583 68.6319 125.414 68.3883C125.55 68.3205 125.696 68.3268 125.844 68.3458Z" fill="#858690"/>
<path d="M129.48 69.5563C129.336 69.5668 129.193 69.5775 129.05 69.586C129.174 69.2933 129.317 69.2912 129.48 69.5563Z" fill="#858690"/>
<path d="M157.892 59.8433C157.857 60.0914 157.662 60.0574 157.493 60.0744C157.491 60.0744 157.491 60.0744 157.489 60.0744C157.489 60.0723 157.489 60.0723 157.489 60.0703C157.504 59.7903 157.729 59.8709 157.892 59.8433Z" fill="#9C9CA5"/>
<path d="M127.551 69.795C127.677 69.5002 127.823 69.4982 127.981 69.7695C127.84 69.778 127.695 69.7865 127.551 69.795Z" fill="#858690"/>
<path d="M126.056 69.9996C126.178 69.7113 126.324 69.7262 126.486 69.9658C126.347 70.0378 126.202 70.0103 126.056 69.9996Z" fill="#858690"/>
<path d="M157.05 55.1821V55.1841C157.055 55.3241 156.985 55.3983 156.84 55.4005C156.838 55.2605 156.904 55.1863 157.046 55.1821C157.048 55.1821 157.048 55.1821 157.05 55.1821Z" fill="#9C9CA5"/>
<path d="M156.625 55.6119C156.625 55.7475 156.557 55.8197 156.421 55.8282C156.411 55.6819 156.481 55.6097 156.625 55.6119Z" fill="#9C9CA5"/>
<path d="M156.416 55.8267C156.412 55.9582 156.346 56.0282 156.215 56.0387C156.21 55.8988 156.282 55.833 156.416 55.8267Z" fill="#9C9CA5"/>
<path d="M156.206 56.048C156.195 56.1795 156.125 56.2473 155.994 56.2515C156 56.1158 156.066 56.0439 156.206 56.048Z" fill="#9C9CA5"/>
<path d="M155.986 56.2506C155.978 56.3884 155.906 56.4564 155.77 56.4564C155.768 56.3079 155.84 56.2401 155.986 56.2506Z" fill="#9C9CA5"/>
<path d="M155.77 56.458C155.77 56.6002 155.697 56.67 155.558 56.67C155.555 56.5259 155.625 56.456 155.77 56.458Z" fill="#9C9CA5"/>
<path d="M155.555 56.6667C155.553 56.8087 155.481 56.8808 155.338 56.8765C155.343 56.7367 155.413 56.6625 155.555 56.6667Z" fill="#9C9CA5"/>
<path d="M155.339 56.8749C155.337 57.0276 155.258 57.0934 155.11 57.0849C155.116 56.9386 155.193 56.8686 155.339 56.8749Z" fill="#9C9CA5"/>
<path d="M159.195 58.7886V58.7907C159.192 58.9327 159.122 59.0027 158.976 58.9922C158.985 58.8564 159.057 58.7886 159.195 58.7886Z" fill="#9C9CA5"/>
<path d="M158.971 58.9971C158.964 59.1307 158.905 59.2071 158.761 59.1901C158.774 59.0629 158.846 59.0014 158.971 58.9971Z" fill="#9C9CA5"/>
<path d="M158.354 59.4338C158.345 59.578 158.271 59.648 158.125 59.6373C158.131 59.491 158.21 59.4253 158.354 59.4338Z" fill="#9C9CA5"/>
<path d="M158.123 59.6353C158.114 59.7753 158.049 59.8474 157.904 59.8326C157.917 59.7011 157.991 59.6353 158.123 59.6353Z" fill="#9C9CA5"/>
<path d="M38.0311 6.16494C36.4544 6.30489 34.8582 6.36425 33.2707 6.45967C32.43 6.51055 31.5978 6.70987 30.7483 6.6823C30.6178 6.67807 30.5559 6.75229 30.5174 6.86042C30.3696 6.86465 30.222 6.87102 30.0766 6.87527C29.7171 6.9113 29.317 6.71835 29.0154 7.07033C28.2666 6.9622 27.5605 7.24208 26.8353 7.33113C25.8126 7.45837 24.8094 7.72977 23.7952 7.93122C23.654 7.95877 23.5106 7.9609 23.4614 8.13053C23.3844 8.13688 23.3096 8.14113 23.2324 8.14748C23.0079 8.16445 22.7426 8.04995 22.6036 8.34257C22.5286 8.34893 22.4516 8.35317 22.3768 8.35953C22.2013 8.35528 22.0003 8.28743 21.936 8.544C21.6878 8.53763 21.4268 8.51855 21.2022 8.63093C20.2502 9.10802 19.1739 9.21617 18.2027 9.6254C17.7363 9.8226 17.1951 9.8544 16.8164 10.2467C16.7457 10.2551 16.673 10.2636 16.6024 10.2742C16.4269 10.2551 16.2643 10.2679 16.1937 10.4672L16.1788 10.4714C16.0012 10.4629 15.8172 10.446 15.753 10.675L15.7487 10.6771C15.5733 10.6792 15.3722 10.6305 15.3144 10.8807C15.1946 10.904 15.0598 10.8976 14.9571 10.9528C13.8254 11.5592 12.6743 12.1253 11.549 12.7445C9.56572 13.8344 7.83918 15.2635 6.08698 16.6523C5.38096 17.2122 4.70918 17.8503 4.07162 18.5055C2.82647 19.782 1.55991 21.0395 0.562932 22.53C0.284803 22.6615 0.122205 22.8968 0.000257062 23.162C-0.00616128 23.1768 0.109369 23.2892 0.150018 23.2785C0.449541 23.2128 0.64851 23.0177 0.787573 22.7548C1.06356 22.5618 1.34383 22.3732 1.61768 22.176C3.71219 20.6578 5.86447 19.2328 8.14513 17.9882C9.74972 17.1125 11.3885 16.311 13.0209 15.4925C13.5686 15.2168 14.1741 15.0536 14.6747 14.6825C14.8566 14.6973 15.0256 14.6867 15.0941 14.4789L15.1026 14.4768C15.2823 14.4811 15.4706 14.5086 15.5326 14.2733C15.6032 14.2627 15.6738 14.2542 15.7466 14.2436C15.8878 14.269 15.9541 14.1969 15.9755 14.0676C16.0418 14.0591 16.1081 14.0506 16.1745 14.0421C16.228 14.0443 16.29 14.0634 16.3328 14.0443C17.5609 13.4569 18.8466 13.018 20.1089 12.5155C20.5775 12.3289 21.1187 12.2865 21.5166 11.9281C21.69 11.9239 21.8953 11.9896 21.9552 11.7331C22.0237 11.7267 22.0921 11.7203 22.1606 11.7118C22.3381 11.7246 22.52 11.7458 22.5843 11.5147C22.6569 11.5083 22.7297 11.5019 22.8025 11.4956C23.3588 11.3217 23.9192 11.1605 24.4733 10.974C25.1579 10.7428 25.8298 10.4629 26.523 10.2594C27.4943 9.97313 28.4828 9.74413 29.4305 9.37943C29.6551 9.36247 29.9246 9.47908 30.0552 9.17588L30.0681 9.17375C30.2948 9.14832 30.5751 9.28825 30.7098 8.9702L30.7142 8.96808C30.9602 8.949 31.2233 8.97443 31.4522 8.90023C31.8801 8.76028 32.2995 8.6161 32.7423 8.51855C33.3864 8.37648 34.0238 8.20898 34.6657 8.05207C35.4722 7.85488 36.2639 7.60892 37.0854 7.46048C37.7871 7.33538 38.4868 7.1806 39.1736 6.98977C40.0614 6.74167 40.9685 6.58689 41.8736 6.42785C42.2779 6.35577 42.6244 6.16494 43.016 6.06104C41.3472 6.13525 39.6955 6.01862 38.0311 6.16494Z" fill="#858690"/>
<path d="M156.838 55.397C156.838 55.537 156.766 55.607 156.627 55.609C156.624 55.4649 156.696 55.3949 156.838 55.397Z" fill="#9C9CA5"/>
<path d="M150.858 60.0713C150.83 60.1243 150.813 60.2069 150.771 60.2281C150.697 60.2641 150.663 60.1921 150.644 60.1243C150.714 60.1073 150.786 60.0881 150.858 60.0713Z" fill="#94959E"/>
<path d="M157.49 60.0651C157.49 60.0673 157.49 60.0671 157.49 60.0693C157.484 60.2157 157.406 60.2772 157.264 60.2623C157.276 60.1266 157.348 60.0608 157.486 60.0651C157.488 60.0651 157.488 60.0651 157.49 60.0651Z" fill="#9C9CA5"/>
<path d="M150.431 60.2899C150.417 60.4277 150.336 60.487 150.2 60.4785C150.215 60.3387 150.287 60.2687 150.431 60.2899Z" fill="#94959E"/>
<path d="M157.256 60.2666C157.243 60.3874 157.194 60.4701 157.054 60.4509C157.063 60.3259 157.139 60.2749 157.256 60.2666Z" fill="#9C9CA5"/>
<path d="M149.783 60.6963C149.754 60.7534 149.739 60.8426 149.694 60.8594C149.612 60.8913 149.586 60.8086 149.571 60.7408C149.643 60.726 149.713 60.7111 149.783 60.6963Z" fill="#94959E"/>
<path d="M149.359 60.9111C149.329 60.9661 149.312 61.051 149.268 61.0701C149.187 61.102 149.16 61.0213 149.145 60.9535C149.215 60.9408 149.287 60.926 149.359 60.9111Z" fill="#94959E"/>
<path d="M146.367 62.4019C146.335 62.457 146.314 62.5439 146.271 62.5587C146.188 62.5842 146.167 62.5015 146.152 62.4337C146.224 62.421 146.294 62.4125 146.367 62.4019Z" fill="#8F8F99"/>
<path d="M145.296 62.8384C145.26 62.9869 145.213 63.0949 145.083 62.8935C145.154 62.8765 145.226 62.8575 145.296 62.8384Z" fill="#8F8F99"/>
<path d="M144.87 63.04C144.838 63.093 144.817 63.1779 144.772 63.1927C144.692 63.2182 144.669 63.1375 144.654 63.0697C144.726 63.0592 144.798 63.0507 144.87 63.04Z" fill="#8F8F99"/>
<path d="M151.921 63.236C151.951 63.1808 151.97 63.096 152.015 63.0791C152.095 63.0493 152.121 63.13 152.136 63.1978C152.066 63.2105 151.994 63.2233 151.921 63.236Z" fill="#94959E"/>
<path d="M151.495 63.448C151.526 63.395 151.546 63.3102 151.59 63.2932C151.671 63.2655 151.696 63.3462 151.711 63.414C151.639 63.4247 151.567 63.4352 151.495 63.448Z" fill="#94959E"/>
<path d="M151.068 63.6539C151.098 63.6009 151.115 63.5225 151.157 63.5034C151.232 63.4715 151.264 63.5437 151.28 63.6074C151.21 63.6222 151.14 63.6391 151.068 63.6539Z" fill="#94959E"/>
<path d="M150.64 63.8535C150.653 63.7093 150.742 63.6606 150.875 63.6733C150.856 63.8111 150.786 63.8811 150.64 63.8535Z" fill="#94959E"/>
<path d="M146.795 65.348C146.827 65.2972 146.848 65.2145 146.892 65.1997C146.971 65.1742 146.994 65.2547 147.009 65.3205C146.937 65.329 146.865 65.3375 146.795 65.348Z" fill="#8F8F99"/>
<path d="M146.147 65.5644C146.181 65.5112 146.205 65.4264 146.247 65.4137C146.328 65.3904 146.349 65.473 146.364 65.541C146.292 65.5474 146.22 65.5559 146.147 65.5644Z" fill="#8F8F99"/>
<path d="M137.602 65.5986C137.57 65.6495 137.549 65.7301 137.506 65.7449C137.43 65.7703 137.403 65.6961 137.388 65.6305C137.458 65.6176 137.53 65.6071 137.602 65.5986Z" fill="#8A8B95"/>
<path d="M145.508 65.7729C145.54 65.7197 145.563 65.6349 145.608 65.6222C145.688 65.5989 145.71 65.6815 145.724 65.7495C145.652 65.7559 145.58 65.7644 145.508 65.7729Z" fill="#8F8F99"/>
<path d="M136.958 65.8071C136.95 65.8728 136.941 65.9491 136.861 65.9596C136.776 65.9703 136.759 65.8961 136.744 65.8283C136.816 65.8198 136.886 65.8135 136.958 65.8071Z" fill="#8A8B95"/>
<path d="M144.866 65.9834C144.898 65.9304 144.921 65.8434 144.966 65.8307C145.046 65.8074 145.068 65.89 145.082 65.9579C145.01 65.9685 144.938 65.9749 144.866 65.9834Z" fill="#8F8F99"/>
<path d="M135.461 66.2236C135.453 66.2893 135.444 66.3678 135.364 66.3761C135.279 66.3868 135.26 66.3126 135.247 66.2448C135.319 66.2385 135.391 66.2321 135.461 66.2236Z" fill="#8A8B95"/>
<path d="M139.738 67.4644C139.748 67.3987 139.755 67.318 139.837 67.3117C139.924 67.3032 139.939 67.3795 139.952 67.4474C139.88 67.4537 139.81 67.46 139.738 67.4644Z" fill="#8A8B95"/>
<path d="M130.119 67.5063C130.087 67.5572 130.064 67.6378 130.02 67.6505C129.943 67.6738 129.915 67.5975 129.903 67.5297C129.975 67.5212 130.047 67.5127 130.119 67.5063Z" fill="#858690"/>
<path d="M138.885 67.6792C138.895 67.6135 138.902 67.5329 138.984 67.5265C139.071 67.518 139.086 67.5944 139.099 67.6622C139.027 67.6685 138.955 67.6749 138.885 67.6792Z" fill="#8A8B95"/>
<path d="M129.049 67.7212C129.019 67.772 129 67.8484 128.956 67.8654C128.883 67.895 128.849 67.8252 128.833 67.7594C128.905 67.7467 128.977 67.7339 129.049 67.7212Z" fill="#858690"/>
<path d="M139.098 65.1626C139.066 65.2156 139.041 65.3003 138.999 65.3151C138.918 65.3385 138.897 65.2558 138.882 65.1879C138.954 65.1794 139.026 65.1709 139.098 65.1626Z" fill="#8A8B95"/>
<path d="M137.172 68.1C137.183 68.0342 137.189 67.9579 137.27 67.9494C137.355 67.9409 137.372 68.0152 137.384 68.0809C137.314 68.0872 137.244 68.0935 137.172 68.1Z" fill="#8A8B95"/>
<path d="M126.912 68.144C126.881 68.195 126.855 68.2755 126.813 68.2882C126.736 68.3095 126.711 68.2332 126.698 68.1652C126.768 68.1589 126.84 68.1504 126.912 68.144Z" fill="#858690"/>
<path d="M124.559 68.561C124.549 68.6289 124.54 68.7074 124.458 68.7115C124.371 68.7159 124.358 68.6395 124.345 68.5717C124.417 68.5695 124.489 68.5654 124.559 68.561Z" fill="#858690"/>
<path d="M130.545 69.367C130.556 69.3013 130.564 69.225 130.647 69.2187C130.732 69.2123 130.749 69.2843 130.762 69.3501C130.69 69.3565 130.617 69.3628 130.545 69.367Z" fill="#858690"/>
<path d="M96.1213 16.1837C95.3982 15.8402 94.6323 15.6112 93.8898 15.3207C93.1282 15.0217 92.3688 14.7227 91.5857 14.4916C90.5331 14.182 89.4954 13.8237 88.4214 13.5798C87.4201 13.353 86.4338 13.054 85.4369 12.8101C84.5875 12.6023 83.736 12.3818 82.8717 12.2588C82.2727 12.1719 81.6822 11.9302 81.0574 12.0616C80.8093 11.9323 80.5675 11.7966 80.2766 11.7711C79.0506 11.6694 77.8461 11.4043 76.6224 11.2686C76.0126 11.2008 75.3943 11.1605 74.7868 11.0651C73.5693 10.8721 72.3499 10.711 71.1154 10.6961C70.5079 10.6261 69.8981 10.6134 69.2863 10.518C68.0688 10.3293 66.8238 10.3781 65.5956 10.3229C61.8987 10.1575 58.1932 10.2318 54.492 10.2826C54.3122 10.2848 54.1325 10.2784 54.0212 10.4565C53.7903 10.4502 53.5592 10.4459 53.3302 10.4374C51.8412 10.3887 50.367 10.5901 48.8845 10.6686C48.3431 10.6982 47.7976 10.6707 47.282 10.8827C46.6851 10.8106 46.0732 10.8933 45.5063 10.9718C44.659 11.0905 43.8033 11.1478 42.9561 11.2665C42.1259 11.3831 41.2916 11.5209 40.4485 11.5888C39.9694 11.627 39.4602 11.6609 38.9874 11.7839C37.9583 12.0532 36.9015 12.1465 35.8596 12.3373C35.2926 12.4412 34.6998 12.5196 34.1543 12.6617C33.7307 12.772 33.2108 12.6151 32.8622 13.001C32.6333 13.0116 32.3893 12.9776 32.1754 13.0434C31.1335 13.3636 30.0595 13.5544 29.0047 13.8131C27.7959 14.1099 26.5957 14.4471 25.3912 14.763C25.1152 14.8351 24.6958 14.7545 24.5098 15.115C23.8144 15.0641 23.2068 15.4034 22.5843 15.6069C20.3636 16.3363 18.1663 17.14 16.0333 18.0983C15.3187 18.4185 14.5784 18.6942 13.9302 19.148C13.8596 19.1543 13.7804 19.1395 13.7227 19.1692C11.9619 20.083 10.2289 21.0478 8.60509 22.1865C8.19006 22.477 7.69797 22.7102 7.41129 23.1703C7.2658 23.1597 7.18236 23.2192 7.18665 23.3718C7.03475 23.3633 6.95345 23.4268 6.95345 23.5838C6.89354 23.6008 6.8315 23.6198 6.77159 23.6368C6.65179 23.6347 6.61114 23.7217 6.57049 23.8107C5.47509 24.8348 4.42462 25.895 3.54317 27.1163C2.66172 28.3355 2.11403 29.6947 1.89367 31.1472C1.66474 32.6485 1.9065 34.1348 2.54618 35.528C3.38058 37.3472 4.78619 38.717 6.23459 40.0465C6.30305 40.11 6.42928 40.11 6.5277 40.1398C6.52556 40.3008 6.61542 40.3582 6.76518 40.3475C6.76733 40.4938 6.84005 40.5617 6.98981 40.5468L6.9941 40.549C7.00693 40.672 7.05615 40.7568 7.20162 40.7355C7.26368 40.7505 7.32571 40.7632 7.38776 40.778C7.4006 40.865 7.42627 40.9243 7.51185 40.9858C8.63291 41.7978 9.82458 42.4933 11.0762 43.0892C11.1874 43.2058 11.2965 43.3288 11.4848 43.2885L11.5105 43.297C11.6153 43.4222 11.7244 43.5367 11.9127 43.5005L11.9384 43.509C12.0432 43.6342 12.1523 43.7508 12.3406 43.7127L12.3662 43.721C12.4668 43.8483 12.5823 43.9437 12.762 43.914C12.8326 43.9268 12.9032 43.9373 12.9739 43.95C13.0081 44.0073 13.0295 44.0943 13.0787 44.1133C14.311 44.6073 15.539 45.1163 16.7864 45.5722C17.6977 45.9072 18.6327 46.185 19.5633 46.4627C20.4769 46.7364 21.3968 46.9992 22.3232 47.224C23.134 47.4212 23.9384 47.6628 24.775 47.7498C25.0938 48.0233 25.4918 47.9343 25.8619 47.981C25.9304 48.2672 26.1742 48.1378 26.339 48.1653C26.5636 48.2035 26.8074 48.1208 27.0322 48.2587C26.7797 47.9322 26.3989 47.9003 26.0458 47.807C25.7378 47.7817 25.4961 47.5123 25.1622 47.5695C24.33 47.2537 23.4871 46.9654 22.6676 46.6197C21.0095 45.9198 19.3643 45.1863 17.8068 44.2767C16.6494 43.6002 15.5177 42.8942 14.4886 42.0353C13.9837 41.6133 13.4809 41.1893 12.9781 40.7653C12.9845 40.619 12.9118 40.5468 12.7642 40.5532C12.7706 40.407 12.6979 40.337 12.5524 40.339C12.5588 40.197 12.501 40.1143 12.347 40.1185C12.3684 39.932 12.2272 39.845 12.1074 39.7453L12.0881 39.7157C12.0924 39.5863 12.0132 39.5333 11.8977 39.5122L11.8891 39.4993C11.902 39.3573 11.8292 39.2917 11.6923 39.2788C11.7201 39.0987 11.6089 39.0012 11.4741 38.9163C11.3564 38.7848 11.2024 38.6703 11.1296 38.5177C10.6312 37.466 10.2183 36.374 10.0193 35.2332C9.80106 33.9737 10.0321 32.712 10.4793 31.5417C11.0676 30 12.0239 28.6578 13.1921 27.4747C13.483 27.1778 13.8574 26.9573 14.0436 26.563C14.4672 26.23 14.8929 25.8972 15.3165 25.5622C16.6623 24.4998 18.1086 23.5817 19.604 22.7442C21.3283 21.7772 23.1298 20.9567 24.944 20.17C25.5816 19.9218 26.2127 19.6612 26.8546 19.4278C27.9243 19.042 28.9962 18.6538 30.0787 18.302C31.0008 18.003 31.9487 17.7782 32.8535 17.4262C33.4098 17.4262 33.8849 17.1272 34.4132 17.0212C35.4081 16.8218 36.3859 16.5526 37.3679 16.3066C38.4461 16.0352 39.535 15.7935 40.6197 15.5688C41.5718 15.3716 42.5345 15.1956 43.4994 15.0408C44.6548 14.8563 45.8165 14.6952 46.961 14.4492C47.8083 14.3305 48.6577 14.2011 49.5049 14.0908C50.7523 13.9276 52.008 13.794 53.2596 13.6647C54.1517 13.5735 55.0524 13.5629 55.9403 13.4017C56.7341 13.3975 57.5193 13.3211 58.3086 13.2554C59.8705 13.1261 61.4452 13.0943 63.0154 13.0349C65.647 12.9352 68.2829 12.9946 70.9186 12.9883C71.3935 13.2703 71.9242 13.1218 72.4162 13.1197C74.4914 13.1134 76.5496 13.4441 78.6227 13.4102C79.1576 13.7071 79.7438 13.565 80.3107 13.6032C80.5248 13.6095 80.7386 13.6159 80.9547 13.6222C81.0489 13.7495 81.1902 13.7728 81.3334 13.7707C82.2406 13.7664 83.1242 13.9763 84.0207 14.0612C84.6347 14.1184 85.2465 14.216 85.8583 14.3008C86.9708 14.4534 88.0706 14.6867 89.1766 14.8839C90.058 15.0408 90.9481 15.1595 91.821 15.3546C93.2544 15.6748 94.675 16.0437 96.1021 16.3893C96.2047 16.4148 96.3588 16.5781 96.4102 16.3872C96.4614 16.1985 96.239 16.2388 96.1213 16.1837Z" fill="url(#paint0_linear_288_16391)"/>
<path d="M157.492 54.5767C157.48 54.6827 157.429 54.7548 157.314 54.7653C157.3 54.6318 157.376 54.5852 157.492 54.5767Z" fill="#9C9CA5"/>
<path d="M157.26 54.9541C157.269 55.1003 157.203 55.1788 157.053 55.1809C157.05 55.1809 157.05 55.1809 157.048 55.1809V55.1788C157.042 55.0324 157.116 54.9604 157.26 54.9541Z" fill="#9C9CA5"/>
<path d="M138.028 67.894C138.039 67.8284 138.045 67.7477 138.128 67.7414C138.215 67.7329 138.23 67.8092 138.242 67.877C138.17 67.8814 138.098 67.8877 138.028 67.894Z" fill="#8A8B95"/>
</g>
<defs>
<linearGradient id="paint0_linear_288_16391" x1="9.41383" y1="32.6505" x2="78.9752" y2="14.6457" gradientUnits="userSpaceOnUse">
<stop stop-color="#EC7323"/>
<stop offset="1" stop-color="#F9B417"/>
</linearGradient>
<clipPath id="clip0_288_16391">
<rect width="164" height="80" fill="white"/>
</clipPath>
</defs>
</svg>
