<svg width="24" height="24" viewBox="0 0 24 24" fill="none" xmlns="http://www.w3.org/2000/svg">
<g id="fi_1895761" clip-path="url(#clip0_2461_11938)">
<path id="XMLID_1487_" d="M5.06987 3.64012C5.27405 3.68741 5.47954 3.71057 5.68306 3.71057C6.38498 3.71057 7.0622 3.43495 7.57288 2.92432C8.23154 2.26561 8.49914 1.32989 8.28873 0.421354C8.24837 0.246987 8.1122 0.110821 7.93784 0.0704632C7.02921 -0.139902 6.09353 0.127648 5.43482 0.786306C4.77617 1.44501 4.50857 2.38069 4.71898 3.28922C4.75934 3.46359 4.8955 3.59976 5.06987 3.64012ZM6.0977 1.44918C6.45201 1.09482 6.92974 0.914503 7.41886 0.940237C7.44455 1.42945 7.26427 1.90713 6.90996 2.26144C6.5556 2.61571 6.07792 2.79575 5.58875 2.77034C5.56311 2.28113 5.74339 1.80349 6.0977 1.44918Z" fill="#00934C"/>
<path id="XMLID_1490_" d="M9.37943 6.90655C9.45537 6.95394 9.54147 6.97761 9.62753 6.97761C9.71359 6.97761 9.79974 6.9539 9.87567 6.90651C10.6669 6.4128 11.1393 5.56191 11.1393 4.63041C11.1393 3.69895 10.6669 2.84811 9.87567 2.35435C9.72381 2.25953 9.53125 2.25962 9.37943 2.35431C8.58817 2.84802 8.11574 3.69895 8.11574 4.63041C8.11574 5.56191 8.58812 6.4128 9.37943 6.90655ZM9.62753 3.33639C9.99159 3.66412 10.2019 4.12938 10.2019 4.63041C10.2019 5.13143 9.99159 5.59674 9.62753 5.92447C9.26342 5.59674 9.0532 5.13148 9.0532 4.63041C9.0532 4.12938 9.26342 3.66412 9.62753 3.33639Z" fill="#00934C"/>
<path id="XMLID_1493_" d="M23.6362 11.6779C23.8748 11.0505 23.9995 10.3799 23.9995 9.70408C23.9995 6.64801 21.5132 4.16173 18.4571 4.16173H13.4062V4.07605C13.4062 3.37985 13.9725 2.81343 14.6688 2.81343H22.5874C22.8462 2.81343 23.0561 2.60354 23.0561 2.34471C23.0561 2.08587 22.8462 1.87598 22.5874 1.87598H14.6688C13.4557 1.87598 12.4687 2.86293 12.4687 4.07605V4.63046V4.79719C12.4687 7.15415 14.3862 9.07167 16.7432 9.07167H16.835C17.6704 9.07167 18.3502 9.75142 18.3502 10.5869C18.3502 10.9964 18.1868 11.3816 17.8979 11.6657H11.5021C11.8968 11.1629 12.2012 10.5925 12.3996 9.97707C12.5636 9.46831 12.4496 8.93546 12.1423 8.54341L12.2187 8.42248C12.3569 8.20358 12.2915 7.91405 12.0726 7.77587C11.8537 7.63773 11.5642 7.70307 11.426 7.92197L11.3667 8.016C10.9821 7.90121 10.5753 7.93795 10.2169 8.1216C9.84833 8.31045 9.57539 8.63153 9.44836 9.02569C9.19769 9.80331 8.79458 10.5064 8.25015 11.1157L7.75855 11.6657H5.81524C6.3788 10.9782 6.4372 10.0985 5.9239 9.58516C5.3663 9.02756 4.37634 9.14409 3.67011 9.85032C3.35371 10.1667 3.14316 10.559 3.07716 10.9551C3.03512 11.2075 3.05485 11.4507 3.13083 11.6657H0.46925C0.331115 11.6657 0.199965 11.7266 0.110906 11.8322C0.0218479 11.9379 -0.0160722 12.0774 0.00722359 12.2135C0.382769 14.4065 1.35773 16.4559 2.82663 18.14C4.10504 19.6058 5.7087 20.7405 7.50014 21.454V23.5312C7.50014 23.79 7.70999 23.9999 7.96887 23.9999H16.031C16.2899 23.9999 16.4997 23.79 16.4997 23.5312V21.4537C17.3234 21.1257 18.11 20.7079 18.8461 20.206C19.06 20.0602 19.1152 19.7686 18.9694 19.5547C18.8235 19.3408 18.5319 19.2856 18.318 19.4314C17.4529 20.0212 16.5127 20.4856 15.5222 20.8125H8.47762C4.6999 19.5665 1.8954 16.4553 1.03899 12.603H7.98241C7.98288 12.603 7.98335 12.6031 7.98377 12.6031C7.98424 12.6031 7.98476 12.603 7.98522 12.603H10.3949H10.3969H22.9098C22.9103 12.603 22.9108 12.6031 22.9113 12.6031C22.9118 12.6031 22.9122 12.603 22.9127 12.603H22.9611C22.6415 14.0408 22.0478 15.3826 21.1922 16.599C21.0433 16.8107 21.0942 17.1031 21.3059 17.2521C21.5177 17.401 21.8101 17.3501 21.959 17.1383C23.0031 15.6541 23.6874 13.9971 23.9928 12.2135C24.0161 12.0773 23.9782 11.9378 23.8891 11.8322C23.8231 11.7541 23.734 11.7005 23.6362 11.6779ZM4.00187 11.1092C4.03553 10.9073 4.15622 10.6901 4.33303 10.5132C4.5635 10.2828 4.83429 10.1714 5.03415 10.1714C5.13038 10.1714 5.21016 10.1972 5.26102 10.2481C5.41748 10.4045 5.33733 10.8347 4.99586 11.1761C4.8191 11.3529 4.60185 11.4736 4.39987 11.5072C4.33134 11.5188 4.16166 11.5351 4.06782 11.4412C3.97398 11.3474 3.99039 11.1778 4.00187 11.1092ZM15.5623 21.7501V23.0626H8.43764V21.7501H15.5623ZM13.4197 5.09919H16.8955C17.3067 5.52259 17.5332 6.07902 17.5332 6.67051C17.5332 7.21555 17.3408 7.73068 16.989 8.13951C16.938 8.13632 16.8867 8.13416 16.8349 8.13416H16.7432C15.005 8.13421 13.5728 6.79833 13.4197 5.09919ZM17.9577 8.40739C18.2912 7.89474 18.4707 7.29655 18.4707 6.67056C18.4707 6.11076 18.3268 5.57336 18.058 5.09924H18.4571C19.688 5.09924 20.8077 5.58475 21.6347 6.37427C21.6318 6.39527 21.6298 6.4166 21.6298 6.4384C21.6298 7.965 20.4003 9.20905 18.8795 9.23418C18.6484 8.88605 18.3308 8.60041 17.9577 8.40739ZM19.2477 10.1492C20.79 9.97786 22.0515 8.86402 22.4417 7.39798C22.8359 8.07656 23.062 8.8644 23.062 9.70408C23.062 10.3832 22.9111 11.0558 22.6241 11.6657H19.0381C19.2004 11.3347 19.2876 10.9674 19.2876 10.5869C19.2876 10.4375 19.2734 10.2913 19.2477 10.1492ZM10.3406 9.3133C10.3908 9.15749 10.4987 9.03056 10.6444 8.95589C10.7901 8.88118 10.9562 8.86777 11.112 8.91797C11.4337 9.02166 11.611 9.36776 11.5073 9.68941C11.2612 10.453 10.8179 11.133 10.2209 11.6657H9.01413C9.61326 10.9756 10.0596 10.1849 10.3406 9.3133Z" fill="#00934C"/>
<path id="XMLID_1501_" d="M15.3514 5.96942C15.2281 5.96942 15.1072 6.01953 15.02 6.10677C14.9328 6.19395 14.8827 6.31489 14.8827 6.43864C14.8827 6.56192 14.9328 6.68239 15.02 6.76958C15.1072 6.85723 15.2281 6.90739 15.3514 6.90739C15.4747 6.90739 15.5956 6.85723 15.6828 6.76958C15.77 6.68244 15.8202 6.56192 15.8202 6.43864C15.8202 6.31489 15.77 6.19442 15.6828 6.10677C15.5956 6.01953 15.4747 5.96942 15.3514 5.96942Z" fill="#00934C"/>
<path id="XMLID_1635_" d="M3.56462 7.85409C4.51666 7.85409 5.41165 7.48332 6.08484 6.81018C6.26788 6.62714 6.26788 6.33034 6.08484 6.14726L1.70729 1.76975C1.52425 1.58676 1.22745 1.58676 1.04441 1.76975C0.371221 2.44289 0.00050354 3.33793 0.00050354 4.28997C0.00050354 5.242 0.371221 6.13699 1.04441 6.81018C1.7176 7.48332 2.61259 7.85409 3.56462 7.85409ZM1.18986 5.41149L2.90175 4.9528L2.44258 6.66637C2.17297 6.53883 1.92445 6.36437 1.70729 6.14721C1.48745 5.92742 1.31529 5.67782 1.18986 5.41149ZM3.56462 6.91663C3.49207 6.91663 3.42012 6.91302 3.34859 6.90721L3.80724 5.19546L5.06118 6.4494C4.62498 6.75309 4.10737 6.91663 3.56462 6.91663ZM1.40547 2.79374L2.65909 4.04731L0.948133 4.50577C0.899526 3.91133 1.05186 3.30339 1.40547 2.79374Z" fill="#00934C"/>
<path id="XMLID_1640_" d="M6.96538 7.61037C6.87819 7.69755 6.82851 7.81849 6.82851 7.94177C6.82851 8.06505 6.87819 8.18599 6.96538 8.27313C7.05304 8.36032 7.17398 8.41052 7.29726 8.41052C7.42054 8.41052 7.54101 8.36037 7.62866 8.27313C7.71585 8.18599 7.76601 8.06505 7.76601 7.94177C7.76601 7.81849 7.71585 7.69755 7.62866 7.61037C7.54148 7.52318 7.42054 7.47302 7.29726 7.47302C7.17398 7.47302 7.05304 7.52318 6.96538 7.61037Z" fill="#00934C"/>
<path id="XMLID_1641_" d="M14.9408 10.5976C15.028 10.5105 15.0781 10.3895 15.0781 10.2662C15.0781 10.143 15.028 10.022 14.9408 9.93483C14.8531 9.84764 14.7327 9.79749 14.6094 9.79749C14.4861 9.79749 14.3652 9.8476 14.278 9.93483C14.1903 10.022 14.1406 10.143 14.1406 10.2662C14.1406 10.3895 14.1903 10.5105 14.278 10.5976C14.3652 10.6848 14.4861 10.735 14.6094 10.735C14.7327 10.735 14.8536 10.6848 14.9408 10.5976Z" fill="#00934C"/>
<path id="XMLID_1648_" d="M20.2107 18.0101C20.0874 18.0101 19.967 18.0598 19.8793 18.147C19.7921 18.2347 19.7424 18.3556 19.7424 18.4789C19.7424 18.6022 19.7921 18.7226 19.8793 18.8103C19.967 18.8974 20.0874 18.9476 20.2107 18.9476C20.3345 18.9476 20.4549 18.8975 20.5426 18.8103C20.6298 18.7231 20.6799 18.6022 20.6799 18.4789C20.6799 18.3551 20.6298 18.2347 20.5426 18.147C20.4554 18.0598 20.3345 18.0101 20.2107 18.0101Z" fill="#00934C"/>
</g>
<defs>
<clipPath id="clip0_2461_11938">
<rect width="24" height="24" fill="white"/>
</clipPath>
</defs>
</svg>
