<svg width="10" height="10" viewBox="0 0 10 10" fill="none" xmlns="http://www.w3.org/2000/svg">
<g id="vuesax/linear/box-tick">
<g id="box-tick">
<g id="Group">
<path id="Vector" d="M9.58332 7.46248C9.59166 7.77498 9.50832 8.07081 9.35832 8.32498C9.27499 8.47498 9.16249 8.61249 9.03749 8.72499C8.74999 8.99166 8.37082 9.15415 7.94998 9.16665C7.34165 9.17915 6.80415 8.86666 6.50832 8.38749C6.34999 8.14166 6.25416 7.84583 6.24999 7.53333C6.23749 7.00833 6.47082 6.53332 6.84582 6.22082C7.12915 5.98748 7.48749 5.84165 7.87916 5.83332C8.79999 5.81249 9.56249 6.54164 9.58332 7.46248Z" stroke="#00934C" stroke-width="0.625" stroke-miterlimit="10" stroke-linecap="round" stroke-linejoin="round"/>
<path id="Vector_2" d="M7.2666 7.51249L7.68744 7.91248L8.55827 7.0708" stroke="#00934C" stroke-width="0.625" stroke-linecap="round" stroke-linejoin="round"/>
</g>
<g id="Group_2">
<g id="Group_3">
<path id="Vector_3" d="M1.3208 3.09998L4.99996 5.22914L8.65412 3.11246" stroke="#00934C" stroke-width="0.625" stroke-linecap="round" stroke-linejoin="round"/>
<path id="Vector_4" d="M5 9.00415V5.22498" stroke="#00934C" stroke-width="0.625" stroke-linecap="round" stroke-linejoin="round"/>
</g>
<path id="Vector_5" d="M9.00417 3.82081V6.17916C9.00417 6.19999 9.00418 6.21664 9.00001 6.23748C8.70835 5.98331 8.33334 5.83332 7.91668 5.83332C7.52501 5.83332 7.16251 5.97082 6.87501 6.19999C6.49168 6.50416 6.25001 6.97499 6.25001 7.49999C6.25001 7.81249 6.3375 8.10832 6.49167 8.35832C6.52917 8.42499 6.57501 8.48749 6.62501 8.54582L5.86251 8.96666C5.38751 9.23333 4.61251 9.23333 4.13751 8.96666L1.91251 7.73332C1.40834 7.45415 0.99585 6.75416 0.99585 6.17916V3.82081C0.99585 3.24581 1.40834 2.54582 1.91251 2.26666L4.13751 1.03331C4.61251 0.766646 5.38751 0.766646 5.86251 1.03331L8.08751 2.26666C8.59168 2.54582 9.00417 3.24581 9.00417 3.82081Z" stroke="#00934C" stroke-width="0.625" stroke-linecap="round" stroke-linejoin="round"/>
</g>
</g>
</g>
</svg>
