<svg width="12" height="13" viewBox="0 0 12 13" fill="none" xmlns="http://www.w3.org/2000/svg">
<g id="vuesax/linear/box">
<g id="vuesax/linear/box_2">
<g id="box">
<g id="Group">
<g id="Group_2">
<path id="Vector" d="M1.58496 4.21997L5.99995 6.77496L10.3849 4.23495" stroke="#525573" stroke-width="0.75" stroke-linecap="round" stroke-linejoin="round"/>
<path id="Vector_2" d="M6 11.305V6.77002" stroke="#525573" stroke-width="0.75" stroke-linecap="round" stroke-linejoin="round"/>
</g>
<path id="Vector_3" d="M4.9653 1.74L2.2953 3.22502C1.6903 3.56002 1.19531 4.40001 1.19531 5.09001V7.91502C1.19531 8.60502 1.6903 9.44501 2.2953 9.78001L4.9653 11.265C5.5353 11.58 6.4703 11.58 7.0403 11.265L9.71031 9.78001C10.3153 9.44501 10.8103 8.60502 10.8103 7.91502V5.09001C10.8103 4.40001 10.3153 3.56002 9.71031 3.22502L7.0403 1.74C6.4653 1.42 5.5353 1.42 4.9653 1.74Z" stroke="#525573" stroke-width="0.75" stroke-linecap="round" stroke-linejoin="round"/>
</g>
<path id="Vector_4" d="M8.49988 7.12006V5.29007L3.75488 2.55005" stroke="#525573" stroke-width="0.75" stroke-linecap="round" stroke-linejoin="round"/>
</g>
</g>
</g>
</svg>
