<svg width="13" height="13" viewBox="0 0 13 13" fill="none" xmlns="http://www.w3.org/2000/svg">
<g id="fi_833593" clip-path="url(#clip0_1993_17207)">
<g id="Group">
<g id="Group_2">
<g id="Group_3">
<path id="Vector" d="M9.54688 5.89062C9.80576 5.89062 10.0156 5.68076 10.0156 5.42188C10.0156 5.16299 9.80576 4.95312 9.54688 4.95312C9.28799 4.95312 9.07812 5.16299 9.07812 5.42188C9.07812 5.68076 9.28799 5.89062 9.54688 5.89062Z" fill="white"/>
<path id="Vector_2" d="M10.625 1.4375H10.0156V0.96875C10.0156 0.709859 9.80577 0.5 9.54688 0.5C9.28798 0.5 9.07812 0.709859 9.07812 0.96875V1.4375H6.94531V0.96875C6.94531 0.709859 6.73545 0.5 6.47656 0.5C6.21767 0.5 6.00781 0.709859 6.00781 0.96875V1.4375H3.89844V0.96875C3.89844 0.709859 3.68858 0.5 3.42969 0.5C3.1708 0.5 2.96094 0.709859 2.96094 0.96875V1.4375H2.375C1.34113 1.4375 0.5 2.27863 0.5 3.3125V10.625C0.5 11.6589 1.34113 12.5 2.375 12.5H5.96094C6.21983 12.5 6.42969 12.2901 6.42969 12.0312C6.42969 11.7724 6.21983 11.5625 5.96094 11.5625H2.375C1.85806 11.5625 1.4375 11.1419 1.4375 10.625V3.3125C1.4375 2.79556 1.85806 2.375 2.375 2.375H2.96094V2.84375C2.96094 3.10264 3.1708 3.3125 3.42969 3.3125C3.68858 3.3125 3.89844 3.10264 3.89844 2.84375V2.375H6.00781V2.84375C6.00781 3.10264 6.21767 3.3125 6.47656 3.3125C6.73545 3.3125 6.94531 3.10264 6.94531 2.84375V2.375H9.07812V2.84375C9.07812 3.10264 9.28798 3.3125 9.54688 3.3125C9.80577 3.3125 10.0156 3.10264 10.0156 2.84375V2.375H10.625C11.1419 2.375 11.5625 2.79556 11.5625 3.3125V5.98438C11.5625 6.24327 11.7724 6.45312 12.0312 6.45312C12.2901 6.45312 12.5 6.24327 12.5 5.98438V3.3125C12.5 2.27863 11.6589 1.4375 10.625 1.4375Z" fill="white"/>
<path id="Vector_3" d="M9.66406 6.82812C8.10031 6.82812 6.82812 8.10031 6.82812 9.66406C6.82812 11.2278 8.10031 12.5 9.66406 12.5C11.2278 12.5 12.5 11.2278 12.5 9.66406C12.5 8.10031 11.2278 6.82812 9.66406 6.82812ZM9.66406 11.5625C8.61727 11.5625 7.76562 10.7109 7.76562 9.66406C7.76562 8.61725 8.61727 7.76562 9.66406 7.76562C10.7109 7.76562 11.5625 8.61725 11.5625 9.66406C11.5625 10.7109 10.7109 11.5625 9.66406 11.5625Z" fill="white"/>
<path id="Vector_4" d="M10.3438 9.19531H10.1328V8.70312C10.1328 8.44423 9.92295 8.23438 9.66406 8.23438C9.40517 8.23438 9.19531 8.44423 9.19531 8.70312V9.66406C9.19531 9.92295 9.40517 10.1328 9.66406 10.1328H10.3438C10.6026 10.1328 10.8125 9.92295 10.8125 9.66406C10.8125 9.40517 10.6026 9.19531 10.3438 9.19531Z" fill="white"/>
<path id="Vector_5" d="M7.50781 5.89062C7.7667 5.89062 7.97656 5.68076 7.97656 5.42188C7.97656 5.16299 7.7667 4.95312 7.50781 4.95312C7.24893 4.95312 7.03906 5.16299 7.03906 5.42188C7.03906 5.68076 7.24893 5.89062 7.50781 5.89062Z" fill="white"/>
<path id="Vector_6" d="M5.46875 7.92969C5.72763 7.92969 5.9375 7.71982 5.9375 7.46094C5.9375 7.20205 5.72763 6.99219 5.46875 6.99219C5.20987 6.99219 5 7.20205 5 7.46094C5 7.71982 5.20987 7.92969 5.46875 7.92969Z" fill="white"/>
<path id="Vector_7" d="M3.42969 5.89062C3.68857 5.89062 3.89844 5.68076 3.89844 5.42188C3.89844 5.16299 3.68857 4.95312 3.42969 4.95312C3.1708 4.95312 2.96094 5.16299 2.96094 5.42188C2.96094 5.68076 3.1708 5.89062 3.42969 5.89062Z" fill="white"/>
<path id="Vector_8" d="M3.42969 7.92969C3.68857 7.92969 3.89844 7.71982 3.89844 7.46094C3.89844 7.20205 3.68857 6.99219 3.42969 6.99219C3.1708 6.99219 2.96094 7.20205 2.96094 7.46094C2.96094 7.71982 3.1708 7.92969 3.42969 7.92969Z" fill="white"/>
<path id="Vector_9" d="M3.42969 9.96875C3.68857 9.96875 3.89844 9.75888 3.89844 9.5C3.89844 9.24112 3.68857 9.03125 3.42969 9.03125C3.1708 9.03125 2.96094 9.24112 2.96094 9.5C2.96094 9.75888 3.1708 9.96875 3.42969 9.96875Z" fill="white"/>
<path id="Vector_10" d="M5.46875 9.96875C5.72763 9.96875 5.9375 9.75888 5.9375 9.5C5.9375 9.24112 5.72763 9.03125 5.46875 9.03125C5.20987 9.03125 5 9.24112 5 9.5C5 9.75888 5.20987 9.96875 5.46875 9.96875Z" fill="white"/>
<path id="Vector_11" d="M5.46875 5.89062C5.72763 5.89062 5.9375 5.68076 5.9375 5.42188C5.9375 5.16299 5.72763 4.95312 5.46875 4.95312C5.20987 4.95312 5 5.16299 5 5.42188C5 5.68076 5.20987 5.89062 5.46875 5.89062Z" fill="white"/>
</g>
</g>
</g>
</g>
<defs>
<clipPath id="clip0_1993_17207">
<rect width="12" height="12" fill="white" transform="translate(0.5 0.5)"/>
</clipPath>
</defs>
</svg>
