<svg width="13" height="16" viewBox="0 0 13 16" fill="none" xmlns="http://www.w3.org/2000/svg">
<path id="Shape" d="M3.98706 0.0658922C4.89545 -0.207919 5.86254 0.19479 6.31418 1.01224L6.38841 1.16075L7.04987 2.63213C7.46246 3.54992 7.28209 4.61908 6.60754 5.3496L6.47529 5.48248L5.43194 6.45541C5.24417 6.63298 5.38512 7.32181 6.06527 8.49986C6.67716 9.55969 7.17487 10.0552 7.41986 10.0823L7.4628 10.082L7.5158 10.0716L9.56651 9.4446C10.1332 9.27134 10.7438 9.44873 11.1298 9.88654L11.2215 10.0014L12.5781 11.8815C13.1299 12.6462 13.0689 13.6842 12.4533 14.378L12.3314 14.5039L11.7886 15.018C10.7948 15.9592 9.34348 16.2346 8.07389 15.7231C6.13867 14.9433 4.38077 13.1607 2.78368 10.3945C1.18323 7.62242 0.519004 5.20438 0.815977 3.13565C0.99977 1.85539 1.87301 0.786743 3.07748 0.346202L3.27036 0.281923L3.98706 0.0658922Z" fill="white" fill-opacity="0.7"/>
</svg>
