<svg width="13" height="13" viewBox="0 0 13 13" fill="none" xmlns="http://www.w3.org/2000/svg">
<g id="vuesax/linear/group">
<g id="vuesax/linear/group_2">
<g id="group">
<path id="Vector" d="M6.49988 7.5H6.99988C7.54988 7.5 7.99988 7.05 7.99988 6.5V1.5H3.49988C2.74988 1.5 2.09488 1.91499 1.75488 2.52499" stroke="#525573" stroke-width="0.75" stroke-linecap="round" stroke-linejoin="round"/>
<path id="Vector_2" d="M1.5 9C1.5 9.83 2.17 10.5 3 10.5H3.5C3.5 9.95 3.95 9.5 4.5 9.5C5.05 9.5 5.5 9.95 5.5 10.5H7.5C7.5 9.95 7.95 9.5 8.5 9.5C9.05 9.5 9.5 9.95 9.5 10.5H10C10.83 10.5 11.5 9.83 11.5 9V7.5H10C9.725 7.5 9.5 7.275 9.5 7V5.5C9.5 5.225 9.725 5 10 5H10.645L9.79001 3.505C9.61001 3.195 9.28001 3 8.92001 3H8V6.5C8 7.05 7.55 7.5 7 7.5H6.5" stroke="#525573" stroke-width="0.75" stroke-linecap="round" stroke-linejoin="round"/>
<path id="Vector_3" d="M4.5 11.5C5.05228 11.5 5.5 11.0523 5.5 10.5C5.5 9.94772 5.05228 9.5 4.5 9.5C3.94772 9.5 3.5 9.94772 3.5 10.5C3.5 11.0523 3.94772 11.5 4.5 11.5Z" stroke="#525573" stroke-width="0.75" stroke-linecap="round" stroke-linejoin="round"/>
<path id="Vector_4" d="M8.5 11.5C9.05228 11.5 9.5 11.0523 9.5 10.5C9.5 9.94772 9.05228 9.5 8.5 9.5C7.94772 9.5 7.5 9.94772 7.5 10.5C7.5 11.0523 7.94772 11.5 8.5 11.5Z" stroke="#525573" stroke-width="0.75" stroke-linecap="round" stroke-linejoin="round"/>
<path id="Vector_5" d="M11.5 6.5V7.5H10C9.725 7.5 9.5 7.275 9.5 7V5.5C9.5 5.225 9.725 5 10 5H10.645L11.5 6.5Z" stroke="#525573" stroke-width="0.75" stroke-linecap="round" stroke-linejoin="round"/>
<path id="Vector_6" d="M1.5 4.5H4.5" stroke="#525573" stroke-width="0.75" stroke-linecap="round" stroke-linejoin="round"/>
<path id="Vector_7" d="M1.5 6H3.5" stroke="#525573" stroke-width="0.75" stroke-linecap="round" stroke-linejoin="round"/>
<path id="Vector_8" d="M1.5 7.5H2.5" stroke="#525573" stroke-width="0.75" stroke-linecap="round" stroke-linejoin="round"/>
</g>
</g>
</g>
</svg>
