<svg width="21" height="20" viewBox="0 0 21 20" fill="none" xmlns="http://www.w3.org/2000/svg">
<g id="Iconly/Bold/Category">
<g id="Category">
<path id="Category_2" fill-rule="evenodd" clip-rule="evenodd" d="M4.28366 1.66669H7.10033C8.27533 1.66669 9.21699 2.62502 9.21699 3.80085V6.64169C9.21699 7.82502 8.27533 8.77502 7.10033 8.77502H4.28366C3.11699 8.77502 2.16699 7.82502 2.16699 6.64169V3.80085C2.16699 2.62502 3.11699 1.66669 4.28366 1.66669ZM4.28366 11.2248H7.10033C8.27533 11.2248 9.21699 12.1756 9.21699 13.3589V16.1998C9.21699 17.3748 8.27533 18.3331 7.10033 18.3331H4.28366C3.11699 18.3331 2.16699 17.3748 2.16699 16.1998V13.3589C2.16699 12.1756 3.11699 11.2248 4.28366 11.2248ZM16.7171 1.66669H13.9004C12.7254 1.66669 11.7837 2.62502 11.7837 3.80085V6.64169C11.7837 7.82502 12.7254 8.77502 13.9004 8.77502H16.7171C17.8837 8.77502 18.8337 7.82502 18.8337 6.64169V3.80085C18.8337 2.62502 17.8837 1.66669 16.7171 1.66669ZM13.9004 11.2248H16.7171C17.8837 11.2248 18.8337 12.1756 18.8337 13.3589V16.1998C18.8337 17.3748 17.8837 18.3331 16.7171 18.3331H13.9004C12.7254 18.3331 11.7837 17.3748 11.7837 16.1998V13.3589C11.7837 12.1756 12.7254 11.2248 13.9004 11.2248Z" fill="#A0ACC3"/>
</g>
</g>
</svg>
