<svg width="19" height="18" viewBox="0 0 19 18" fill="none" xmlns="http://www.w3.org/2000/svg">
<path d="M14.4379 11.851L12.2812 11.3119V9.8235C12.6727 9.34397 12.9667 8.76684 13.0752 8.12531C13.5505 8.00184 13.8217 7.51106 13.9223 7.09594C13.9356 7.09622 13.9471 7.09706 13.9609 7.09706C14.2047 7.09706 14.4997 7.06247 14.7877 6.94462C14.7897 6.94406 14.7911 6.94266 14.7931 6.94209C14.9582 6.87403 15.1207 6.77897 15.2701 6.64566C15.7128 6.25022 15.9375 5.62303 15.9375 4.78125C15.9375 2.27897 13.1225 0 10.0312 0C7.91119 0 7.11131 0.899156 6.81291 1.50834C6.70659 1.55362 6.59775 1.61297 6.492 1.69987C6.04425 2.06691 5.81644 2.71913 5.81334 3.63769V3.63881C5.81306 3.645 5.8125 3.65034 5.8125 3.65625V5.625V6.10566C5.67412 6.19959 5.53125 6.38466 5.53125 6.75C5.53125 7.17469 5.80406 7.96219 6.42281 8.12475C6.53025 8.78372 6.82781 9.35719 7.21875 9.82716V11.3119L5.06212 11.8513C3.68231 12.1958 2.71875 13.43 2.71875 14.8522V17.7188C2.71875 17.8743 2.84475 18 3 18C3.15525 18 3.28125 17.8743 3.28125 17.7188V14.8522C3.28125 13.6887 4.06959 12.6788 5.19853 12.3967L7.44319 11.8356C7.75988 12.051 8.70544 12.6318 9.69206 12.654L11.7188 13.4137V17.7188C11.7188 17.8743 11.8448 18 12 18C12.1552 18 12.2812 17.8743 12.2812 17.7188V13.2188C12.2812 13.1015 12.2084 12.9966 12.0987 12.9552L10.7968 12.467C11.3765 12.2709 11.8498 11.9756 12.0565 11.835L14.3012 12.3961C15.4304 12.6788 16.2188 13.6887 16.2188 14.8522V17.7188C16.2188 17.8743 16.3448 18 16.5 18C16.6552 18 16.7812 17.8743 16.7812 17.7188V14.8522C16.7812 13.43 15.8177 12.1958 14.4379 11.851ZM7.78125 10.3877C8.33897 10.8498 8.96362 11.1409 9.46875 11.2233V12.0732C8.742 11.9796 8.04619 11.5605 7.78125 11.3842V10.3877ZM10.0312 11.2269C10.5682 11.1473 11.1804 10.8512 11.7188 10.397V11.3842C11.4538 11.5605 10.758 11.9796 10.0312 12.0732V11.2269ZM6.59466 6.11072C6.51956 6.07528 6.44644 6.05025 6.375 6.03197V5.70066C6.46556 5.56903 6.66328 5.43122 7.05506 5.31731C6.91781 5.66747 6.72431 5.94731 6.59466 6.11072ZM6.375 4.98431V3.73106C6.63937 3.28866 7.63359 2.53125 9.75 2.53125C11.8664 2.53125 12.8606 3.28866 13.125 3.73106V4.98431C12.5136 4.64991 11.4372 4.5 9.75 4.5C8.06278 4.5 6.98644 4.64991 6.375 4.98431ZM13.125 5.70066V6.03197C13.0536 6.05025 12.9802 6.07528 12.9048 6.11072C12.7751 5.94816 12.5819 5.66888 12.4447 5.31703C12.8364 5.43094 13.0344 5.56903 13.125 5.70066ZM13.125 7.45256V6.63103C13.262 6.56297 13.3506 6.55903 13.3703 6.56972C13.3759 6.57281 13.4062 6.61894 13.4062 6.75C13.4062 6.94912 13.3011 7.26947 13.125 7.45256ZM6.84159 2.14059C7.11581 1.91025 7.42884 1.96059 7.44741 1.96369C7.59872 1.9935 7.74581 1.89394 7.77562 1.74262C7.806 1.59019 7.70728 1.44225 7.55512 1.41159C7.55456 1.41159 7.54922 1.41075 7.54781 1.41047C7.90556 0.993375 8.61628 0.5625 10.0312 0.5625C13.0898 0.5625 15.375 2.78972 15.375 4.78125C15.375 5.33813 15.2633 5.7645 15.0457 6.05672C15.0009 5.40731 14.6772 4.81106 14.4488 4.58241C14.3389 4.47244 14.1611 4.47244 14.0512 4.58241C13.9412 4.69237 13.9412 4.87013 14.0512 4.98009C14.2314 5.16066 14.5841 5.83931 14.459 6.46397C14.2807 6.51853 14.1015 6.53513 13.9474 6.534C13.9035 6.30872 13.7949 6.17878 13.6872 6.10566V5.625V3.65625C13.6872 3.65316 13.6855 3.65091 13.6855 3.64781C13.685 3.62897 13.6788 3.61097 13.6743 3.59241C13.6698 3.57413 13.6675 3.55584 13.6599 3.53925C13.6585 3.53644 13.6591 3.53334 13.6577 3.53081C13.6239 3.46303 13.577 3.38934 13.519 3.31284C13.7376 3.32888 13.8982 3.36628 13.901 3.36713C13.9235 3.37219 13.9462 3.375 13.9685 3.375C14.0948 3.375 14.2098 3.2895 14.2416 3.16153C14.279 3.01078 14.1876 2.85862 14.0371 2.82094C14.0132 2.81503 13.483 2.68762 12.9354 2.77537C12.6699 2.59425 12.3302 2.42241 11.912 2.28375C12.1215 2.25169 12.2784 2.25 12.2815 2.25C12.4368 2.24944 12.5625 2.12344 12.5622 1.96847C12.5622 1.81322 12.4365 1.6875 12.2812 1.6875C12.2464 1.6875 11.4628 1.69228 10.8868 2.04806C10.5431 1.99856 10.1668 1.96875 9.75 1.96875C9.53344 1.96875 9.33094 1.97859 9.13434 1.99294C9.46341 1.77272 9.81328 1.68047 9.81862 1.67906C9.96909 1.64109 10.0602 1.48866 10.0228 1.33819C9.98513 1.18744 9.83269 1.09575 9.68166 1.13344C9.63919 1.14413 8.68716 1.39078 8.23406 2.11331C7.43475 2.27616 6.85538 2.55712 6.45966 2.85216C6.53644 2.53237 6.66384 2.28966 6.84159 2.14059ZM6.12975 6.56972C6.14944 6.55875 6.23775 6.56297 6.375 6.63103V7.45256C6.19894 7.26947 6.09375 6.94912 6.09375 6.75C6.09375 6.61894 6.12413 6.57281 6.12975 6.56972ZM6.9375 6.57731C7.10822 6.38381 7.50281 5.87391 7.68506 5.18456C8.18231 5.10975 8.85197 5.0625 9.75 5.0625C10.648 5.0625 11.3177 5.10975 11.8149 5.18456C11.9972 5.87391 12.3918 6.38353 12.5625 6.57703V7.59375C12.5625 9.19716 10.9656 10.6875 9.75 10.6875C8.78728 10.6875 6.9375 9.38081 6.9375 7.59375V6.57731Z" fill="#00934C"/>
<path d="M5.8125 16.0312C5.65725 16.0312 5.53125 16.157 5.53125 16.3125V17.7188C5.53125 17.8743 5.65725 18 5.8125 18C5.96775 18 6.09375 17.8743 6.09375 17.7188V16.3125C6.09375 16.157 5.96775 16.0312 5.8125 16.0312Z" fill="#00934C"/>
<path d="M13.6875 16.0312C13.5323 16.0312 13.4062 16.157 13.4062 16.3125V17.7188C13.4062 17.8743 13.5323 18 13.6875 18C13.8427 18 13.9688 17.8743 13.9688 17.7188V16.3125C13.9688 16.157 13.8427 16.0312 13.6875 16.0312Z" fill="#00934C"/>
<path d="M10.875 14.3438C11.0303 14.3438 11.1562 14.2178 11.1562 14.0625C11.1562 13.9072 11.0303 13.7812 10.875 13.7812C10.7197 13.7812 10.5938 13.9072 10.5938 14.0625C10.5938 14.2178 10.7197 14.3438 10.875 14.3438Z" fill="#00934C"/>
<path d="M8.625 14.3438C8.78033 14.3438 8.90625 14.2178 8.90625 14.0625C8.90625 13.9072 8.78033 13.7812 8.625 13.7812C8.46967 13.7812 8.34375 13.9072 8.34375 14.0625C8.34375 14.2178 8.46967 14.3438 8.625 14.3438Z" fill="#00934C"/>
<path d="M10.875 16.0312C11.0303 16.0312 11.1562 15.9053 11.1562 15.75C11.1562 15.5947 11.0303 15.4688 10.875 15.4688C10.7197 15.4688 10.5938 15.5947 10.5938 15.75C10.5938 15.9053 10.7197 16.0312 10.875 16.0312Z" fill="#00934C"/>
<path d="M8.625 16.0312C8.78033 16.0312 8.90625 15.9053 8.90625 15.75C8.90625 15.5947 8.78033 15.4688 8.625 15.4688C8.46967 15.4688 8.34375 15.5947 8.34375 15.75C8.34375 15.9053 8.46967 16.0312 8.625 16.0312Z" fill="#00934C"/>
<path d="M10.875 17.7188C11.0303 17.7188 11.1562 17.5928 11.1562 17.4375C11.1562 17.2822 11.0303 17.1562 10.875 17.1562C10.7197 17.1562 10.5938 17.2822 10.5938 17.4375C10.5938 17.5928 10.7197 17.7188 10.875 17.7188Z" fill="#00934C"/>
<path d="M8.625 17.7188C8.78033 17.7188 8.90625 17.5928 8.90625 17.4375C8.90625 17.2822 8.78033 17.1562 8.625 17.1562C8.46967 17.1562 8.34375 17.2822 8.34375 17.4375C8.34375 17.5928 8.46967 17.7188 8.625 17.7188Z" fill="#00934C"/>
</svg>
