<svg width="24" height="24" viewBox="0 0 24 24" fill="none" xmlns="http://www.w3.org/2000/svg">
<g id="fi_6837245" clip-path="url(#clip0_2461_11993)">
<g id="Group">
<g id="Group_2">
<path id="Vector" d="M21.5544 11.374C20.415 10.9533 18.9402 10.6193 17.2369 10.3929L22.2206 3.54033C22.3717 3.33253 22.4516 3.08686 22.4516 2.82984C22.4516 2.36939 22.1957 1.95544 21.7839 1.74947L21.6368 1.67592C21.4699 1.59244 21.2831 1.54838 21.0966 1.54838C20.6095 1.54838 20.1483 1.78387 19.8629 2.17833C19.2668 3.00206 18.0986 4.61367 17.0295 6.07336L18.4691 1.93453C18.5431 1.72177 18.5807 1.49962 18.5807 1.2743C18.5807 0.818297 18.3273 0.408328 17.9195 0.204422L17.7633 0.126328C17.598 0.0436406 17.4131 0 17.2283 0C16.7127 0 16.2566 0.328687 16.0935 0.817922L13.396 8.91061C13.2376 8.92552 13.0824 8.96325 12.9355 9.02241C12.8985 8.97084 12.8578 8.92219 12.8134 8.87709L13.1566 5.10089C13.1597 5.06705 13.1613 5.03269 13.1613 4.9987C13.1613 4.37686 12.6555 3.87098 12.0336 3.87098H8.1233L7.90584 3.17513C7.74652 2.66522 7.28048 2.32261 6.74625 2.32261C6.58495 2.32261 6.42778 2.35406 6.27891 2.41603L2.37717 4.0418C1.87369 4.25156 1.54838 4.73953 1.54838 5.28492C1.54838 5.41008 1.56581 5.53458 1.60022 5.65491L2.17289 7.65919C1.89684 7.81181 1.66856 8.01914 1.49747 8.27588C1.35886 8.48391 1.26469 8.71355 1.21148 8.95819C0.921562 9.54577 0.774188 10.1779 0.774188 10.8387C0.774188 11.2777 0.841031 11.7013 0.964875 12.1001C0.324609 12.5363 0 13.0225 0 13.5484C0 15.6856 0.768094 17.7546 2.16277 19.374C3.55744 20.9935 5.48953 22.06 7.60317 22.3771L7.74197 22.3979V23.2258C7.74197 23.6527 8.08931 24 8.51616 24H15.4839C15.9108 24 16.2581 23.6527 16.2581 23.2258V22.3979L16.3969 22.3771C18.5105 22.0601 20.4426 20.9936 21.8373 19.374C23.2319 17.7546 24 15.6856 24 13.5484C24 12.7047 23.1772 11.973 21.5544 11.374ZM23.2258 13.5484C23.2258 13.8951 22.7915 14.3748 21.6699 14.8463C21.5951 13.5632 20.9497 12.431 19.9842 11.7001C20.4615 11.8232 20.8986 11.9571 21.2863 12.1002C22.5007 12.5486 23.2258 13.09 23.2258 13.5484ZM22.9695 15.6011C21.9069 16.7062 17.8449 17.8065 12 17.8065C6.15511 17.8065 2.09311 16.7063 1.03055 15.6011C0.975281 15.3847 0.928875 15.1647 0.891141 14.9417C1.51172 15.3872 2.44983 15.7818 3.68869 16.1121C5.91366 16.7055 8.86537 17.0322 12 17.0322C15.1346 17.0322 18.0863 16.7055 20.3113 16.1122C21.5502 15.7818 22.4883 15.3873 23.1089 14.9418C23.0711 15.1647 23.0247 15.3847 22.9695 15.6011ZM5.47655 14.2941C5.32973 14.3127 5.18086 14.3226 5.03227 14.3226C3.15919 14.3226 1.62736 12.8365 1.55203 10.9817C1.93594 11.7604 2.58905 12.5345 3.45867 13.1701C4.14267 13.6701 4.88123 14.0206 5.59462 14.1953C5.55469 14.2276 5.51531 14.2605 5.47655 14.2941ZM8.51611 13.9355C10.064 13.9355 11.4561 14.8683 12.0642 16.2578C12.0428 16.2578 12.0214 16.258 12 16.258C11.7296 16.258 11.4607 16.2554 11.1936 16.2505C10.6433 15.3073 9.61753 14.7097 8.51606 14.7097C7.59197 14.7097 6.71789 15.1247 6.13205 15.8304C5.84105 15.7841 5.55745 15.7342 5.28141 15.6809C5.99119 14.607 7.21191 13.9355 8.51611 13.9355ZM8.64323 10.0313C8.56125 9.94936 8.51611 9.84037 8.51611 9.72441C8.51611 9.48506 8.71083 9.29034 8.95017 9.29034H9.5295L9.67739 8.99466C9.82495 8.69948 10.1216 8.51616 10.4516 8.51616C10.7815 8.51616 11.0782 8.69948 11.2258 8.9947L11.3737 9.29034H11.953C12.1923 9.29034 12.387 9.48506 12.387 9.72441C12.387 9.84033 12.3419 9.94936 12.2599 10.0313L11.8396 10.4516L12.2599 10.8719C12.3419 10.9539 12.387 11.0629 12.387 11.1788C12.387 11.4182 12.1923 11.6129 11.953 11.6129H11.3737L11.2258 11.9086C11.0782 12.2038 10.7815 12.3871 10.4516 12.3871C10.1216 12.3871 9.82495 12.2038 9.67739 11.9085L9.5295 11.6129H8.95017C8.91033 11.6129 8.87147 11.6069 8.83387 11.5964C8.78447 11.3702 8.70947 11.14 8.61033 10.909C8.62064 10.896 8.63156 10.8836 8.64323 10.8719L9.06352 10.4516L8.64323 10.0313ZM20.9025 15.1305C20.7238 15.1891 20.533 15.2472 20.33 15.3043L20.0958 14.68C19.5816 13.3086 18.2519 12.3871 16.7872 12.3871C16.6078 12.3871 16.4299 12.4015 16.2545 12.4282C16.2566 12.3991 16.2581 12.3698 16.2581 12.3401C16.2581 12.1684 16.222 12.0024 16.1543 11.85C16.5554 11.6942 16.9856 11.6129 17.4193 11.6129C19.3403 11.6129 20.9032 13.1757 20.9032 15.0968C20.9032 15.108 20.9026 15.1193 20.9025 15.1305ZM17.1747 15.932C16.5902 15.1625 15.6862 14.7097 14.7097 14.7097C13.9105 14.7097 13.1503 15.0191 12.5804 15.5584C12.4527 15.3287 12.3066 15.1115 12.1438 14.9087C12.8514 14.2792 13.7498 13.9355 14.7097 13.9355C16.0764 13.9355 17.3286 14.6555 18.0234 15.8051C17.7468 15.8507 17.4639 15.8931 17.1747 15.932ZM16.2239 16.0456C15.1975 16.1535 14.1104 16.2215 12.9894 16.2467C13.427 15.7648 14.0507 15.4838 14.7097 15.4838C15.2754 15.4839 15.8083 15.6873 16.2239 16.0456ZM8.95022 12.3871H9.05873C9.35639 12.8682 9.87741 13.1613 10.4516 13.1613C10.6664 13.1613 10.8737 13.1203 11.0647 13.0438C11.2861 13.3521 11.6474 13.5484 12.047 13.5484H12.1556C12.2123 13.6397 12.2782 13.7237 12.3506 13.8014C12.0887 13.9564 11.841 14.1387 11.6102 14.3463C10.8215 13.6429 9.79866 13.2091 8.70084 13.1652C8.81606 12.9248 8.8807 12.6622 8.89894 12.3852C8.916 12.3859 8.93302 12.3871 8.95022 12.3871ZM18.8295 15.6595C18.2178 14.4866 17.1415 13.6417 15.8871 13.3129C16.1745 13.2138 16.4783 13.1613 16.7872 13.1613C17.931 13.1613 18.9693 13.8809 19.3709 14.9519L19.5758 15.498C19.3342 15.5548 19.0856 15.6088 18.8295 15.6595ZM14.9562 9.67744H14.9413C14.7573 9.38016 14.4879 9.15492 14.1735 9.02602L16.3481 2.50256L17.3371 2.83228L14.9562 9.67744ZM14.3226 10.156L14.4705 10.4516H15.0498C15.2891 10.4516 15.4838 10.6463 15.4838 10.8857C15.4838 11.0016 15.4387 11.1106 15.3567 11.1926L14.9364 11.6129L15.3567 12.0332C15.4387 12.1152 15.4838 12.2242 15.4838 12.3401C15.4838 12.5795 15.2891 12.7742 15.0498 12.7742H14.4705L14.3226 13.0699C14.3028 13.1094 14.28 13.1473 14.2546 13.1832C13.8645 13.2205 13.4857 13.306 13.1244 13.4366C12.9745 13.3524 12.8523 13.2261 12.7741 13.0699L12.6262 12.7742H12.0469C11.9029 12.7742 11.7728 12.7035 11.6934 12.5924C11.7483 12.5283 11.7992 12.4602 11.8444 12.3871H11.9529C12.1744 12.3871 12.3818 12.327 12.5605 12.2226C12.7654 12.5533 13.1315 12.7742 13.5483 12.7742C14.1887 12.7742 14.7096 12.2533 14.7096 11.613C14.7096 10.9726 14.1887 10.4517 13.5483 10.4517C13.3524 10.4517 13.1677 10.5007 13.0057 10.5867C12.9794 10.5401 12.9507 10.4948 12.9181 10.4517C13.0666 10.2554 13.15 10.0197 13.1594 9.77081C13.2795 9.71044 13.4128 9.67748 13.5483 9.67748C13.8783 9.67744 14.175 9.86077 14.3226 10.156ZM13.5484 11.2258C13.7618 11.2258 13.9355 11.3995 13.9355 11.6129C13.9355 11.8263 13.7618 12 13.5484 12C13.335 12 13.1613 11.8263 13.1613 11.6129C13.1613 11.3995 13.335 11.2258 13.5484 11.2258ZM10.2118 16.2213C9.12628 16.1765 8.07966 16.0911 7.09795 15.9676C7.49986 15.6581 7.99758 15.4839 8.51611 15.4839C9.16467 15.4839 9.77812 15.7603 10.2118 16.2213ZM21.0966 2.32256C21.1635 2.32256 21.2306 2.33841 21.2905 2.36841L21.4377 2.44195C21.5856 2.51588 21.6774 2.66452 21.6774 2.82989C21.6774 2.92219 21.6488 3.01031 21.5945 3.08494L21.0853 3.78511L20.1208 3.14208C20.2592 2.95102 20.3841 2.7787 20.49 2.63212C20.6303 2.43834 20.8571 2.32256 21.0966 2.32256ZM19.6659 3.76941L20.6295 4.41178L16.3561 10.2876C16.2655 10.278 16.1745 10.2685 16.0828 10.2594C15.9884 10.1043 15.8598 9.97219 15.7079 9.87309L16.1726 8.53711C17.0905 7.31086 18.6016 5.23622 19.6659 3.76941ZM17.2284 0.774188C17.2935 0.774188 17.3588 0.789562 17.4171 0.818719L17.5732 0.896812C17.7171 0.968766 17.8065 1.11337 17.8065 1.2743C17.8065 1.41281 17.7834 1.54936 17.7379 1.68019L17.5915 2.10103L16.5929 1.76817L16.828 1.06289C16.8855 0.890156 17.0464 0.774188 17.2284 0.774188ZM12.0336 4.64517C12.2285 4.64517 12.3871 4.80375 12.3871 4.9987C12.3871 5.00934 12.3866 5.01998 12.3856 5.03072L12.0682 8.52178C12.0303 8.51817 11.9919 8.51616 11.953 8.51616H11.8445C11.5468 8.03503 11.0258 7.74197 10.4516 7.74197C10.0761 7.74197 9.72384 7.86792 9.44147 8.08917L8.36527 4.64512L12.0336 4.64517ZM2.34459 5.44223C2.32997 5.39109 2.32256 5.33817 2.32256 5.28497C2.32256 5.05308 2.46084 4.84561 2.67492 4.75645L6.57666 3.13069C6.63066 3.10819 6.6877 3.09675 6.7462 3.09675C6.93998 3.09675 7.10911 3.22106 7.16686 3.40603L8.76801 8.52984C8.24072 8.60986 7.82461 9.03202 7.75308 9.56198C7.43048 9.18656 7.04606 8.82905 6.60577 8.5073C5.39222 7.62038 4.01391 7.20722 2.91853 7.4018C2.91403 7.40264 2.90967 7.40363 2.90517 7.40447L2.34459 5.44223ZM2.14172 8.7052C2.3318 8.41992 2.63873 8.23781 3.05414 8.16398C3.9323 8.00789 5.11819 8.37886 6.14902 9.13233C7.72828 10.2865 8.54058 12.045 7.92286 12.9722C7.85508 13.074 7.77014 13.1627 7.67147 13.2385C7.32473 13.3024 6.98705 13.4057 6.66403 13.5462C5.82975 13.5681 4.80919 13.1983 3.91552 12.5451C2.3362 11.3908 1.52391 9.63239 2.14172 8.7052ZM1.27111 12.8331C1.94569 14.1001 3.24159 14.9878 4.74961 15.0871C4.65145 15.223 4.56056 15.3643 4.47727 15.5105C4.27566 15.4637 4.07888 15.4149 3.88809 15.364C1.59216 14.7518 0.774141 14.0247 0.774141 13.5484C0.774187 13.327 0.948141 13.0796 1.27111 12.8331ZM8.51611 23.2258V22.4516H15.4838V23.2258H8.51611ZM16.282 21.6114L15.8421 21.6774H8.15794L7.71802 21.6114C4.85048 21.1813 2.54372 19.3351 1.45467 16.8371C2.39353 17.3312 3.627 17.6711 4.64597 17.8897C6.75361 18.3417 9.29658 18.5807 12 18.5807C14.7035 18.5807 17.2464 18.3418 19.3541 17.8897C20.373 17.6711 21.6066 17.3313 22.5454 16.8371C21.4563 19.3351 19.1496 21.1813 16.282 21.6114Z" fill="#00934C"/>
<path id="Vector_2" d="M4.64519 12C5.49897 12 6.19357 11.3054 6.19357 10.4516C6.19357 9.59785 5.49897 8.90326 4.64519 8.90326C3.79141 8.90326 3.09682 9.59785 3.09682 10.4516C3.09682 11.3054 3.79141 12 4.64519 12ZM4.64519 9.67745C5.07208 9.67745 5.41938 10.0248 5.41938 10.4516C5.41938 10.8785 5.07204 11.2258 4.64519 11.2258C4.21835 11.2258 3.871 10.8785 3.871 10.4516C3.871 10.0247 4.2183 9.67745 4.64519 9.67745Z" fill="#00934C"/>
<path id="Vector_3" d="M10.4516 11.6129C11.092 11.6129 11.6129 11.092 11.6129 10.4516C11.6129 9.81127 11.092 9.29034 10.4516 9.29034C9.81128 9.29034 9.29036 9.81127 9.29036 10.4516C9.29036 11.092 9.81128 11.6129 10.4516 11.6129ZM10.4516 10.0645C10.6651 10.0645 10.8387 10.2382 10.8387 10.4516C10.8387 10.665 10.6651 10.8387 10.4516 10.8387C10.2382 10.8387 10.0645 10.665 10.0645 10.4516C10.0645 10.2382 10.2382 10.0645 10.4516 10.0645Z" fill="#00934C"/>
<path id="Vector_4" d="M4.2168 5.24607L3.52437 5.59229L4.29851 7.14058L4.99095 6.79436L4.2168 5.24607Z" fill="#00934C"/>
<path id="Vector_5" d="M5.76514 4.47196L5.07271 4.81818L6.621 7.91476L7.31343 7.56854L5.76514 4.47196Z" fill="#00934C"/>
<path id="Vector_6" d="M10.8387 5.41937H10.0645V6.96775H10.8387V5.41937Z" fill="#00934C"/>
</g>
</g>
</g>
<defs>
<clipPath id="clip0_2461_11993">
<rect width="24" height="24" fill="white"/>
</clipPath>
</defs>
</svg>
