<svg width="40" height="60" viewBox="0 0 40 60" fill="none" xmlns="http://www.w3.org/2000/svg">
<rect x="19" y="38" width="2" height="22" fill="white"/>
<circle cx="20" cy="20" r="20" fill="white"/>
<path fill-rule="evenodd" clip-rule="evenodd" d="M21.4142 20.0002L25.7072 15.7072C26.0982 15.3162 26.0982 14.6842 25.7072 14.2932C25.3162 13.9022 24.6842 13.9022 24.2933 14.2932L20.0002 18.5862L15.7072 14.2932C15.3162 13.9022 14.6842 13.9022 14.2932 14.2932C13.9022 14.6842 13.9022 15.3162 14.2932 15.7072L18.5862 20.0002L14.2932 24.2933C13.9022 24.6842 13.9022 25.3162 14.2932 25.7072C14.4882 25.9022 14.7442 26.0002 15.0002 26.0002C15.2563 26.0002 15.5122 25.9022 15.7072 25.7072L20.0002 21.4142L24.2933 25.7072C24.4882 25.9022 24.7443 26.0002 25.0002 26.0002C25.2562 26.0002 25.5122 25.9022 25.7072 25.7072C26.0982 25.3162 26.0982 24.6842 25.7072 24.2933L21.4142 20.0002Z" fill="#EC7323"/>
<mask id="mask0_2_8297" style="mask-type:luminance" maskUnits="userSpaceOnUse" x="14" y="14" width="12" height="12">
<path fill-rule="evenodd" clip-rule="evenodd" d="M21.4142 20.0002L25.7072 15.7072C26.0982 15.3162 26.0982 14.6842 25.7072 14.2932C25.3162 13.9022 24.6842 13.9022 24.2933 14.2932L20.0002 18.5862L15.7072 14.2932C15.3162 13.9022 14.6842 13.9022 14.2932 14.2932C13.9022 14.6842 13.9022 15.3162 14.2932 15.7072L18.5862 20.0002L14.2932 24.2933C13.9022 24.6842 13.9022 25.3162 14.2932 25.7072C14.4882 25.9022 14.7442 26.0002 15.0002 26.0002C15.2563 26.0002 15.5122 25.9022 15.7072 25.7072L20.0002 21.4142L24.2933 25.7072C24.4882 25.9022 24.7443 26.0002 25.0002 26.0002C25.2562 26.0002 25.5122 25.9022 25.7072 25.7072C26.0982 25.3162 26.0982 24.6842 25.7072 24.2933L21.4142 20.0002Z" fill="white"/>
</mask>
<g mask="url(#mask0_2_8297)">
<rect x="8" y="8" width="24" height="24" fill="#EC7323"/>
</g>
</svg>
