<svg width="14" height="15" viewBox="0 0 14 15" fill="none" xmlns="http://www.w3.org/2000/svg">
<g id="fi_565350" clip-path="url(#clip0_1993_16080)">
<g id="Group">
<g id="Group_2">
<g id="Group_3">
<path id="Vector" d="M9.04119 3.80827C9.68286 3.80827 10.2079 3.28327 10.2079 2.64159C10.2079 1.99991 9.68286 1.47491 9.04119 1.47491C8.39951 1.47491 7.87451 1.99991 7.87451 2.64159C7.87451 3.28327 8.39951 3.80827 9.04119 3.80827Z" fill="#00934C"/>
<path id="Vector_2" d="M2.91619 7.59991C1.31201 7.59991 -0.000488281 8.91241 -0.000488281 10.5166C-0.000488281 12.1208 1.31201 13.4333 2.91619 13.4333C4.52036 13.4333 5.83286 12.1208 5.83286 10.5166C5.83286 8.91241 4.52034 7.59991 2.91619 7.59991ZM2.91619 12.5583C1.77869 12.5583 0.874512 11.6541 0.874512 10.5166C0.874512 9.37909 1.77869 8.47491 2.91619 8.47491C4.05369 8.47491 4.95786 9.37909 4.95786 10.5166C4.95786 11.6541 4.05369 12.5583 2.91619 12.5583Z" fill="#00934C"/>
<path id="Vector_3" d="M11.0526 6.98871V5.82203C10.1776 5.82203 9.44839 5.50121 8.92339 4.97621L7.78589 3.86788C7.61089 3.66371 7.31921 3.51788 6.99839 3.51788C6.67757 3.51788 6.38589 3.63456 6.18171 3.86788L4.57754 5.47206C4.37336 5.67623 4.22754 5.96788 4.22754 6.28873C4.22754 6.60959 4.37336 6.90123 4.57754 7.13456L6.41504 8.76788V11.6846H7.58171V8.03871L6.29839 6.75538L7.66921 5.35538L8.10671 5.79288C8.83589 6.55121 9.85671 6.98871 11.0526 6.98871Z" fill="#00934C"/>
<path id="Vector_4" d="M11.082 7.59991C9.47778 7.59991 8.16528 8.91241 8.16528 10.5166C8.16528 12.1208 9.47778 13.4333 11.082 13.4333C12.6861 13.4333 13.9986 12.1208 13.9986 10.5166C13.9986 8.91241 12.6861 7.59991 11.082 7.59991ZM11.082 12.5583C9.94446 12.5583 9.04028 11.6541 9.04028 10.5166C9.04028 9.37909 9.94446 8.47491 11.082 8.47491C12.2195 8.47491 13.1236 9.37909 13.1236 10.5166C13.1236 11.6541 12.2195 12.5583 11.082 12.5583Z" fill="#00934C"/>
</g>
</g>
</g>
</g>
<defs>
<clipPath id="clip0_1993_16080">
<rect width="14" height="14" fill="white" transform="translate(0 0.454407)"/>
</clipPath>
</defs>
</svg>
