<svg width="14" height="15" viewBox="0 0 14 15" fill="none" xmlns="http://www.w3.org/2000/svg">
<g id="fi_5637217">
<path id="Vector" d="M11.813 9.46891H11.7408L10.9511 7.62704C11.085 7.68572 11.2293 7.71696 11.3755 7.71892C11.4335 7.71892 11.4891 7.69587 11.5302 7.65485C11.5712 7.61382 11.5942 7.55818 11.5942 7.50017V5.75017C11.5942 5.69215 11.5712 5.63651 11.5302 5.59549C11.4891 5.55446 11.4335 5.53142 11.3755 5.53142C11.1477 5.53265 10.926 5.60499 10.7412 5.73832C10.5565 5.87166 10.4181 6.05934 10.3452 6.27517C10.2808 6.1853 10.1987 6.1096 10.1038 6.05279C10.009 5.99597 9.90353 5.95923 9.79393 5.94485C9.65498 5.9269 9.51388 5.93582 9.3783 5.9711H9.18799C8.8183 5.9711 8.65424 5.75235 8.39611 5.39579L8.26705 5.21423C8.39942 5.20748 8.52768 5.16598 8.63893 5.09392C8.72333 5.03265 8.7948 4.95531 8.84924 4.86634C8.90367 4.77737 8.93999 4.67852 8.95611 4.57548C9.02721 4.53452 9.08939 4.47974 9.13898 4.41437C9.18857 4.349 9.22457 4.27436 9.24486 4.19485C9.2541 4.13214 9.24798 4.06813 9.22703 4.00831C9.20607 3.94849 9.17091 3.89465 9.12455 3.85142C9.03523 3.69849 8.98629 3.52535 8.98236 3.34829C9.03884 3.34491 9.09181 3.31978 9.13015 3.27817C9.16849 3.23657 9.18922 3.18173 9.18799 3.12517C9.18801 2.89331 9.14196 2.66377 9.05251 2.44986C8.96307 2.23596 8.83201 2.04196 8.66695 1.87914C8.50189 1.71632 8.30612 1.58792 8.09101 1.50141C7.87591 1.41489 7.64576 1.37198 7.41393 1.37517C6.95898 1.38412 6.52517 1.56884 6.20341 1.89059C5.88166 2.21235 5.69694 2.64616 5.68799 3.1011C5.6839 3.33304 5.72631 3.56345 5.81272 3.77873C5.89913 3.99401 6.0278 4.1898 6.19111 4.35454C6.23951 4.40265 6.29064 4.44793 6.34424 4.49017C5.49986 4.69579 5.0558 5.48767 4.8283 6.17454C4.76356 6.10931 4.68654 6.05755 4.60169 6.02226C4.51683 5.98696 4.42583 5.96883 4.33393 5.96892H2.0108C1.89414 5.96872 1.7793 5.99787 1.67686 6.05368C1.57441 6.10949 1.48765 6.19017 1.42455 6.28829C1.39293 6.33702 1.38197 6.39632 1.39407 6.45314C1.40617 6.50996 1.44035 6.55964 1.48908 6.59126C1.53782 6.62288 1.59711 6.63384 1.65393 6.62174C1.71075 6.60964 1.76043 6.57546 1.79205 6.52673C1.81562 6.49022 1.84803 6.46025 1.88627 6.4396C1.92451 6.41895 1.96734 6.40829 2.0108 6.4086H2.40674V7.06485C2.40674 7.12287 2.42979 7.17851 2.47081 7.21953C2.51183 7.26056 2.56747 7.2836 2.62549 7.2836H3.71924C3.77725 7.2836 3.83289 7.26056 3.87392 7.21953C3.91494 7.17851 3.93799 7.12287 3.93799 7.06485V6.40642H4.33393C4.36811 6.40642 4.40196 6.41315 4.43354 6.42623C4.46513 6.43931 4.49382 6.45849 4.51799 6.48266C4.54217 6.50683 4.56134 6.53553 4.57442 6.56711C4.5875 6.59869 4.59424 6.63254 4.59424 6.66673V8.33579C4.59366 8.40445 4.56598 8.4701 4.51723 8.51845C4.46847 8.56679 4.40259 8.59392 4.33393 8.59391H2.0108C1.94815 8.59565 1.88705 8.57433 1.83907 8.53402C1.79109 8.4937 1.75957 8.43717 1.75049 8.37516H2.18799C2.246 8.37516 2.30164 8.35212 2.34267 8.3111C2.38369 8.27007 2.40674 8.21443 2.40674 8.15642C2.40674 8.0984 2.38369 8.04276 2.34267 8.00174C2.30164 7.96071 2.246 7.93767 2.18799 7.93767H1.75049V7.50017H1.96924C2.02725 7.50017 2.08289 7.47712 2.12392 7.4361C2.16494 7.39507 2.18799 7.33943 2.18799 7.28142C2.18799 7.2234 2.16494 7.16776 2.12392 7.12674C2.08289 7.08571 2.02725 7.06267 1.96924 7.06267H0.875488C0.817472 7.06267 0.761832 7.08571 0.720809 7.12674C0.679785 7.16776 0.656738 7.2234 0.656738 7.28142C0.656738 7.33943 0.679785 7.39507 0.720809 7.4361C0.761832 7.47712 0.817472 7.50017 0.875488 7.50017H1.31299V7.93767H0.437988C0.379972 7.93767 0.324332 7.96071 0.283309 8.00174C0.242285 8.04276 0.219238 8.0984 0.219238 8.15642C0.219238 8.21443 0.242285 8.27007 0.283309 8.3111C0.324332 8.35212 0.379972 8.37516 0.437988 8.37516H1.31299C1.32303 8.55237 1.40044 8.71903 1.52935 8.84103C1.65826 8.96303 1.82894 9.03114 2.00643 9.03141H3.10018C2.99895 9.13068 2.91273 9.24416 2.84424 9.36829C2.55212 9.94116 2.40207 10.5759 2.40674 11.2189C2.40674 11.2769 2.42979 11.3326 2.47081 11.3736C2.51183 11.4146 2.56747 11.4377 2.62549 11.4377H3.29705C3.35303 11.8581 3.55978 12.2438 3.87886 12.5232C4.19794 12.8026 4.60762 12.9567 5.03174 12.9567C5.45586 12.9567 5.86554 12.8026 6.18462 12.5232C6.50369 12.2438 6.71044 11.8581 6.76643 11.4377H10.0783C10.1204 11.7719 10.2581 12.0868 10.4748 12.3447C10.6915 12.6026 10.978 12.7925 11.3 12.8915C11.6219 12.9906 11.9656 12.9946 12.2898 12.9031C12.614 12.8117 12.9049 12.6286 13.1276 12.3758C13.3503 12.1231 13.4953 11.8115 13.5452 11.4783C13.5952 11.1452 13.5479 10.8047 13.4091 10.4978C13.2703 10.1909 13.0459 9.93055 12.7627 9.74804C12.4796 9.56553 12.1498 9.46861 11.813 9.46891ZM3.50049 6.84392H2.84424V6.40642H3.50049V6.84392ZM11.1567 6.0061V7.24423C11.0286 7.19913 10.9175 7.11536 10.839 7.00447C10.7604 6.89359 10.7183 6.76105 10.7183 6.62517C10.7183 6.48928 10.7604 6.35675 10.839 6.24586C10.9175 6.13497 11.0286 6.0512 11.1567 6.0061ZM9.73049 6.37579C9.81624 6.38863 9.89592 6.42769 9.95858 6.48761C10.0212 6.54754 10.0638 6.62539 10.0805 6.71048L10.1374 6.84392C9.8328 7.00048 9.493 7.07582 9.1508 7.06267C9.12067 6.93272 9.13645 6.79635 9.19547 6.67672C9.25449 6.55709 9.3531 6.46158 9.47455 6.40642C9.55705 6.37966 9.64413 6.36998 9.73049 6.37798V6.37579ZM8.65205 4.24079C8.61564 4.25914 8.58509 4.28729 8.56383 4.32208C8.54257 4.35686 8.53146 4.3969 8.53174 4.43767C8.53012 4.49273 8.51703 4.54686 8.4933 4.59658C8.46957 4.6463 8.43572 4.69052 8.39393 4.72642C8.26924 4.80954 8.03736 4.78985 7.73768 4.67173C7.72168 4.66996 7.70554 4.66996 7.68955 4.67173L7.65674 4.64329V3.80548C7.65674 3.68306 7.70537 3.56566 7.79193 3.4791C7.87849 3.39254 7.99589 3.34392 8.1183 3.34392H8.53174C8.53862 3.62708 8.62753 3.90216 8.78768 4.13579C8.7481 4.17812 8.70238 4.21426 8.65205 4.24298V4.24079ZM6.12549 3.10548C6.13643 2.76607 6.27615 2.44356 6.51626 2.20344C6.75638 1.96332 7.0789 1.8236 7.4183 1.81267H7.43799C7.74831 1.81246 8.04866 1.92222 8.28573 2.12245C8.52281 2.32268 8.68127 2.60044 8.73299 2.90642H8.1183C7.88003 2.90699 7.65169 3.0019 7.48321 3.17038C7.31472 3.33886 7.21982 3.56721 7.21924 3.80548V4.42017C6.91027 4.36797 6.63017 4.20696 6.42957 3.96624C6.22897 3.72552 6.12111 3.42098 6.12549 3.10767V3.10548ZM6.78174 4.87517C7.49705 4.87517 7.75955 5.24923 8.03736 5.64298C8.23861 5.93173 8.47486 6.24673 8.86861 6.35829C8.74475 6.55842 8.68875 6.79317 8.70893 7.02767C8.43742 6.96835 8.18134 6.85285 7.95717 6.68858C7.73301 6.52432 7.54572 6.31494 7.40736 6.07392C7.39545 6.045 7.37747 6.01898 7.35464 5.99761C7.33181 5.97623 7.30467 5.96 7.27504 5.95C7.24541 5.94001 7.21397 5.93648 7.18286 5.93966C7.15175 5.94285 7.12169 5.95266 7.09469 5.96845C7.0677 5.98423 7.0444 6.00563 7.02637 6.03118C7.00835 6.05673 6.99601 6.08585 6.99019 6.11658C6.98437 6.14731 6.98521 6.17892 6.99265 6.2093C7.00008 6.23968 7.01395 6.2681 7.0333 6.29267C7.1126 6.42573 7.20336 6.55163 7.30455 6.66892L7.28486 6.68204C7.08095 6.91659 6.93751 7.19746 6.86705 7.50017H5.03174V7.28142C5.04705 7.14798 5.29643 4.87517 6.78174 4.87517ZM5.03174 8.3336V7.93767H7.00049C7.04424 7.93767 8.09424 7.95079 8.09424 9.03141V10.1252H7.21924V9.68766C7.22477 9.54255 7.20026 9.39785 7.14725 9.26265C7.09424 9.12745 7.01387 9.00466 6.91118 8.90197C6.8085 8.79928 6.6857 8.71891 6.5505 8.66591C6.4153 8.6129 6.27061 8.58839 6.12549 8.59391H4.98143C5.01484 8.5112 5.03192 8.42281 5.03174 8.3336ZM5.03174 12.5314C4.7218 12.5311 4.42197 12.4211 4.18534 12.2209C3.94872 12.0207 3.79058 11.7433 3.73893 11.4377H4.18736C4.23774 11.623 4.34771 11.7867 4.50031 11.9033C4.6529 12.02 4.83965 12.0832 5.03174 12.0832C5.22382 12.0832 5.41057 12.02 5.56317 11.9033C5.71577 11.7867 5.82574 11.623 5.87611 11.4377H6.32455C6.27289 11.7433 6.11475 12.0207 5.87813 12.2209C5.64151 12.4211 5.34168 12.5311 5.03174 12.5314ZM4.65549 11.4377H5.40799C5.36925 11.5029 5.31419 11.557 5.24822 11.5946C5.18226 11.6322 5.10765 11.6519 5.03174 11.6519C4.95583 11.6519 4.88122 11.6322 4.81525 11.5946C4.74928 11.557 4.69423 11.5029 4.65549 11.4377ZM2.84424 11.0002C2.87215 10.4967 3.00792 10.0051 3.24236 9.5586C3.32943 9.3967 3.45937 9.26188 3.61795 9.1689C3.77652 9.07591 3.95762 9.02835 4.14143 9.03141H6.12549C6.21291 9.02668 6.30036 9.04041 6.38212 9.07171C6.46389 9.10302 6.53814 9.15119 6.60005 9.2131C6.66196 9.27501 6.71014 9.34927 6.74144 9.43103C6.77274 9.5128 6.78647 9.60024 6.78174 9.68766V10.3439C6.78174 10.5806 6.8585 10.8108 7.00049 11.0002H2.84424ZM7.87549 11.0002C7.74009 10.9998 7.60813 10.9575 7.49769 10.8792C7.38725 10.8009 7.30374 10.6903 7.25861 10.5627H8.31299C8.37009 10.559 8.42734 10.5673 8.48106 10.587C8.53478 10.6067 8.5838 10.6374 8.62498 10.6771C8.66616 10.7169 8.69859 10.7648 8.7202 10.8178C8.74181 10.8707 8.75213 10.9277 8.75049 10.9849C8.67796 10.9945 8.6049 10.9996 8.53174 11.0002H7.87549ZM9.27768 10.7442C9.24607 10.78 9.21005 10.8116 9.17049 10.8383C9.14647 10.6729 9.07238 10.5188 8.95819 10.3968C8.84399 10.2748 8.69517 10.1907 8.53174 10.1558V9.03141C8.55147 8.67449 8.43727 8.32305 8.21151 8.0459C7.98574 7.76874 7.66465 7.58584 7.31111 7.53298C7.36719 7.33678 7.46327 7.1543 7.5933 6.99704C7.59896 6.98938 7.60407 6.98134 7.60861 6.97298C7.94816 7.24839 8.35672 7.42544 8.78986 7.48485L9.40674 10.1667C9.44138 10.3687 9.39501 10.5762 9.27768 10.7442ZM9.84424 10.077L9.24268 7.50017C9.61282 7.50358 9.97856 7.41964 10.3102 7.25517L11.3427 9.66142L10.3889 11.0002H9.62549C9.7215 10.8686 9.79029 10.7191 9.82785 10.5606C9.86541 10.4021 9.87099 10.2377 9.84424 10.077ZM11.813 11.0002H11.4367C11.4849 10.9168 11.5592 10.8516 11.6482 10.8147C11.7372 10.7779 11.8358 10.7714 11.9289 10.7963C12.0219 10.8212 12.1041 10.8762 12.1627 10.9526C12.2213 11.029 12.2531 11.1226 12.2531 11.2189C12.2531 11.3152 12.2213 11.4088 12.1627 11.4852C12.1041 11.5617 12.0219 11.6166 11.9289 11.6415C11.8358 11.6664 11.7372 11.66 11.6482 11.6231C11.5592 11.5863 11.4849 11.5211 11.4367 11.4377H11.813C11.871 11.4377 11.9266 11.4146 11.9677 11.3736C12.0087 11.3326 12.0317 11.2769 12.0317 11.2189C12.0317 11.1609 12.0087 11.1053 11.9677 11.0642C11.9266 11.0232 11.871 11.0002 11.813 11.0002ZM10.9249 11.0002L11.0014 10.893C10.9882 10.928 10.9772 10.9638 10.9686 11.0002H10.9249ZM11.813 12.5314C11.503 12.5311 11.2032 12.4211 10.9666 12.2209C10.73 12.0207 10.5718 11.7433 10.5202 11.4377H10.9686C11.0165 11.6222 11.1234 11.786 11.2729 11.9042C11.4225 12.0224 11.6066 12.0886 11.7972 12.0926C11.9877 12.0966 12.1744 12.0382 12.3288 11.9264C12.4832 11.8146 12.5969 11.6554 12.6525 11.473C12.7081 11.2907 12.7026 11.0952 12.6369 10.9162C12.5712 10.7373 12.4489 10.5847 12.2885 10.4816C12.1281 10.3786 11.9385 10.3307 11.7484 10.3454C11.5583 10.36 11.3782 10.4363 11.2355 10.5627L11.7014 9.90641C11.7386 9.90641 11.7758 9.90641 11.813 9.90641C12.1611 9.90641 12.4949 10.0447 12.7411 10.2908C12.9872 10.537 13.1255 10.8708 13.1255 11.2189C13.1255 11.567 12.9872 11.9009 12.7411 12.147C12.4949 12.3931 12.1611 12.5314 11.813 12.5314Z" fill="#7E8795"/>
</g>
</svg>
