<svg width="14" height="15" viewBox="0 0 14 15" fill="none" xmlns="http://www.w3.org/2000/svg">
<g id="fi_7480410" clip-path="url(#clip0_2219_5646)">
<g id="Group">
<g id="Layer_2_00000023981117888505042570000006789484858209100955_">
<g id="Layer_1-2_00000144296235322836033260000018362511967443007140_">
<path id="package_tracking" d="M13.8109 11.1812H11.046V7.99057C11.0468 7.90677 10.9982 7.83036 10.9219 7.79568L7.8187 6.41479C8.17506 5.90095 8.49645 5.36371 8.78067 4.80673H12.1159C12.936 4.82348 13.5872 5.50189 13.5705 6.32195C13.5542 7.11843 12.9124 7.76019 12.1159 7.77647C11.5462 7.67904 11.5462 8.30339 12.1159 8.2047C13.1725 8.18568 14.0136 7.31373 13.9946 6.25714C13.976 5.22738 13.1457 4.39706 12.1159 4.3785H8.97556C11.2204 -0.834785 2.81333 -0.828599 5.0575 4.3785H0.727998L1.21704 3.89255C1.41253 3.70264 1.1134 3.40224 0.917277 3.58969L0.0657935 4.44303C-0.0168589 4.52708 -0.0168589 4.66187 0.0657935 4.74589L0.917305 5.59428C1.10784 5.79413 1.41382 5.48071 1.21707 5.29266L0.727998 4.80673H5.25176C5.53226 5.36283 5.85253 5.89796 6.21001 6.40797L3.09259 7.80129C3.01427 7.87431 2.973 7.97872 2.98025 8.08554C2.96596 8.72046 2.98769 11.1198 2.98025 11.1813H1.9134C1.09077 11.1813 0.423881 10.5144 0.423881 9.69174C0.423881 8.8691 1.09077 8.20221 1.9134 8.20221C2.48253 8.30276 2.48499 7.67655 1.9134 7.77398C0.856656 7.77398 0 8.63064 0 9.68738C0 10.7441 0.856656 11.6008 1.9134 11.6008H2.97902C2.97902 11.7187 2.97902 12.1997 2.98211 12.4939C2.98646 12.5907 3.01873 12.6919 3.10622 12.7167C3.10622 12.7167 6.92745 14.4191 6.93675 14.4259C6.99053 14.4441 7.04913 14.4416 7.10121 14.4191L10.9218 12.7167C11.0379 12.662 11.0528 12.5535 11.0528 12.4349C11.049 12.1401 11.0397 11.7299 11.0478 11.6008H13.8127C13.9285 11.5876 14.0117 11.4832 13.9986 11.3673C13.9875 11.2689 13.9094 11.1915 13.8109 11.1812ZM7.01686 9.46581L5.5168 8.79739L8.81668 7.32216L10.3136 7.99057L7.01686 9.46581ZM5.07861 2.78287C5.325 -0.778926 12.0973 0.601369 7.01683 6.79277C6.51599 6.14357 5.07861 4.13273 5.07861 2.78287ZM6.84679 7.27188C7.18318 7.51456 7.21481 7.16265 7.56611 6.76792L8.29411 7.08942L4.99609 8.56465C4.67957 8.4213 4.02542 8.13021 3.71013 7.99057L6.45953 6.76792C6.67363 7.05775 6.82506 7.24706 6.84679 7.27188ZM3.40416 12.3871V8.31826C4.24201 8.69063 5.97172 9.46581 6.79964 9.83818V13.9045L3.40416 12.3871ZM10.624 12.3871L7.22538 13.9064V9.83818L10.624 8.31826V12.3871ZM8.21529 2.80148C8.21529 2.1372 7.67679 1.5987 7.01251 1.5987C6.34822 1.5987 5.80972 2.1372 5.80972 2.80148C5.80972 3.46577 6.34822 4.00427 7.01251 4.00427C7.67679 4.00427 8.21529 3.46577 8.21529 2.80148ZM7.01686 3.58348C6.58685 3.57133 6.24811 3.21291 6.26026 2.78293C6.27192 2.36999 6.60392 2.03799 7.01686 2.02633C7.44687 2.03848 7.78561 2.3969 7.77346 2.82688C7.7618 3.23981 7.42976 3.57182 7.01686 3.58348Z" fill="#02190E"/>
</g>
</g>
</g>
</g>
<defs>
<clipPath id="clip0_2219_5646">
<rect width="14" height="14" fill="white" transform="translate(0 0.454407)"/>
</clipPath>
</defs>
</svg>
