<svg width="36" height="36" viewBox="0 0 36 36" fill="none" xmlns="http://www.w3.org/2000/svg">
<g id="fi_7780470">
<g id="c">
<path id="Vector" d="M7.8 25.65V31.8C7.8 32.79 8.61 33.6 9.6 33.6H26.4C27.39 33.6 28.2 32.79 28.2 31.8V25.65C29.94 25.092 36 22.644 36 15.6C36 11.298 32.502 7.80002 28.2 7.80002C28.038 7.80002 27.87 7.80002 27.702 7.81802C25.632 4.47002 21.954 2.40002 18 2.40002C14.046 2.40002 10.368 4.46402 8.298 7.81802C8.13 7.80602 7.962 7.80002 7.8 7.80002C3.498 7.80002 0 11.298 0 15.6C0 22.644 6.06 25.092 7.8 25.65ZM27 31.8C27 32.13 26.73 32.4 26.4 32.4H9.6C9.27 32.4 9 32.13 9 31.8V25.8H27V31.8ZM7.662 9.00602C7.578 9.18602 7.494 9.36602 7.428 9.54002C7.308 9.84602 7.458 10.194 7.764 10.32C7.836 10.35 7.908 10.362 7.986 10.362C8.226 10.362 8.454 10.218 8.544 9.98402C8.706 9.58202 8.904 9.16202 9.144 8.74802C10.956 5.57402 14.352 3.60002 18 3.60002C21.648 3.60002 25.044 5.57402 26.856 8.74202C27.09 9.15602 27.294 9.57002 27.456 9.97802C27.552 10.212 27.774 10.356 28.014 10.356C28.086 10.356 28.164 10.344 28.236 10.314C28.542 10.194 28.692 9.84602 28.572 9.53402C28.5 9.35402 28.422 9.18002 28.338 9.00002C31.914 9.07202 34.8 12 34.8 15.594C34.8 22.536 28.29 24.402 27.528 24.594H25.044C27.702 22.62 28.17 20.022 28.194 19.89C28.248 19.566 28.026 19.254 27.702 19.2C27.378 19.14 27.066 19.368 27.012 19.692C27.012 19.722 26.43 22.926 22.668 24.588H18.6V20.388C18.6 20.058 18.33 19.788 18 19.788C17.67 19.788 17.4 20.058 17.4 20.388V24.588H13.332C9.6 22.938 9.012 19.818 8.988 19.686C8.934 19.362 8.628 19.134 8.298 19.194C7.974 19.248 7.752 19.56 7.806 19.884C7.83 20.016 8.298 22.608 10.956 24.588H8.472C7.77 24.402 1.2 22.476 1.2 15.588C1.2 11.994 4.086 9.06602 7.662 8.99402V9.00602Z" fill="white"/>
</g>
</g>
</svg>
