<svg width="14" height="14" viewBox="0 0 14 14" fill="none" xmlns="http://www.w3.org/2000/svg">
<g id="fi_10760660">
<path id="Vector" fill-rule="evenodd" clip-rule="evenodd" d="M8.25441 13.8359C8.95056 12.8064 9.01471 11.6945 8.44686 10.5002C8.28895 11.1409 8.00009 11.5298 7.58025 11.6669C7.97012 10.5535 7.64435 9.35058 6.60291 8.05818C6.58043 9.39299 6.25966 10.3653 5.64057 10.9752C4.78772 11.8146 4.79775 12.7619 5.67065 13.8171C2.04711 11.8888 1.53589 9.30248 4.13694 6.05834C4.29827 6.84206 4.6892 7.32323 5.30979 7.50184C4.63334 4.63127 5.34507 2.18534 7.44496 0.164062C7.45786 4.64972 8.83339 5.04842 10.5725 7.05072C12.4503 9.45358 11.3468 12.2265 8.25441 13.8359Z" fill="url(#paint0_linear_2225_13903)"/>
</g>
<defs>
<linearGradient id="paint0_linear_2225_13903" x1="11.1973" y1="3.91639" x2="3.19779" y2="11.9159" gradientUnits="userSpaceOnUse">
<stop stop-color="#EF3E3D"/>
<stop offset="1" stop-color="#FFC828"/>
</linearGradient>
</defs>
</svg>
