<svg width="13" height="14" viewBox="0 0 13 14" fill="none" xmlns="http://www.w3.org/2000/svg">
<g id="fi_3683218">
<g id="layer1">
<path id="circle2847" d="M6.22633 1.01495C4.33507 1.01495 2.78802 2.56311 2.78802 4.45437C2.78802 5.6108 3.36815 6.63486 4.2501 7.2579C2.19709 8.08093 0.740901 10.0889 0.740901 12.4312C0.724511 13.1697 1.84063 13.1697 1.82423 12.4312C1.82423 9.94496 3.82892 7.94133 6.3152 7.94133C7.18309 7.94133 7.9887 8.18869 8.67441 8.61309C9.29084 8.99113 9.8579 8.06653 9.24147 7.68849C8.93274 7.49748 8.59821 7.34852 8.25335 7.21979C9.10471 6.59356 9.66147 5.58781 9.66147 4.45437C9.66147 2.56311 8.11761 1.01495 6.22633 1.01495ZM6.22633 2.09937C7.53213 2.09937 8.57814 3.14858 8.57814 4.45437C8.57814 5.76016 7.53213 6.80507 6.22633 6.80507C4.92054 6.80507 3.87135 5.76016 3.87135 4.45437C3.87135 3.14858 4.92054 2.09937 6.22633 2.09937ZM9.54933 11.3161V12.3995C9.56501 13.1059 10.617 13.1059 10.6327 12.3995V11.3161H11.7171C12.44 11.3161 12.44 10.2318 11.7171 10.2318H10.6327V9.14845C10.6362 8.84476 10.3894 8.59743 10.0857 8.6004C9.78614 8.60245 9.54584 8.8489 9.54933 9.14845V10.2318H8.44008C7.69123 10.2664 7.74307 11.3507 8.466 11.3161H9.54933Z" fill="#00934C"/>
</g>
</g>
</svg>
