<svg width="21" height="20" viewBox="0 0 21 20" fill="none" xmlns="http://www.w3.org/2000/svg">
<g id="vuesax/linear/gallery-export">
<g id="gallery-export">
<path id="Vector" d="M7.99992 8.33333C8.92039 8.33333 9.66659 7.58714 9.66659 6.66667C9.66659 5.74619 8.92039 5 7.99992 5C7.07944 5 6.33325 5.74619 6.33325 6.66667C6.33325 7.58714 7.07944 8.33333 7.99992 8.33333Z" stroke="#00934C" stroke-linecap="round" stroke-linejoin="round"/>
<path id="Vector_2" d="M11.3334 1.66675H8.00008C3.83341 1.66675 2.16675 3.33341 2.16675 7.50008V12.5001C2.16675 16.6667 3.83341 18.3334 8.00008 18.3334H13.0001C17.1667 18.3334 18.8334 16.6667 18.8334 12.5001V8.33342" stroke="#00934C" stroke-linecap="round" stroke-linejoin="round"/>
<path id="Vector_3" d="M15.5 6.66675V1.66675L17.1667 3.33341" stroke="#00934C" stroke-linecap="round" stroke-linejoin="round"/>
<path id="Vector_4" d="M15.4999 1.66675L13.8333 3.33341" stroke="#00934C" stroke-linecap="round" stroke-linejoin="round"/>
<path id="Vector_5" d="M2.7251 15.7916L6.83343 13.0332C7.49176 12.5916 8.44176 12.6416 9.03343 13.1499L9.30843 13.3916C9.95843 13.9499 11.0084 13.9499 11.6584 13.3916L15.1251 10.4166C15.7751 9.85822 16.8251 9.85822 17.4751 10.4166L18.8334 11.5832" stroke="#00934C" stroke-width="1.5" stroke-linecap="round" stroke-linejoin="round"/>
</g>
</g>
</svg>
