<svg width="20" height="20" viewBox="0 0 20 20" fill="none" xmlns="http://www.w3.org/2000/svg">
<g id="vuesax/bold/graph">
<g id="graph">
<path id="Vector" d="M18.0585 5.7916C17.5251 3.98326 16.0168 2.47493 14.2085 1.9416C12.8335 1.5416 11.8835 1.57493 11.2251 2.0666C10.4335 2.65826 10.3418 3.72493 10.3418 4.48326V6.55826C10.3418 8.60826 11.2751 9.64993 13.1085 9.64993H15.5001C16.2501 9.64993 17.3251 9.55826 17.9168 8.7666C18.4251 8.1166 18.4668 7.1666 18.0585 5.7916Z" fill="#00934C"/>
<path id="Vector_2" d="M15.7595 11.1332C15.5428 10.8832 15.2261 10.7416 14.9011 10.7416H11.9178C10.4511 10.7416 9.25947 9.54991 9.25947 8.08324V5.09991C9.25947 4.77491 9.1178 4.45824 8.8678 4.24158C8.62614 4.02491 8.2928 3.92491 7.97614 3.96658C6.0178 4.21658 4.2178 5.29158 3.0428 6.90824C1.85947 8.53324 1.42614 10.5166 1.80114 12.4999C2.3428 15.3666 4.63447 17.6582 7.50947 18.1999C7.9678 18.2916 8.42614 18.3332 8.88447 18.3332C10.3928 18.3332 11.8511 17.8666 13.0928 16.9582C14.7095 15.7832 15.7845 13.9832 16.0345 12.0249C16.0761 11.6999 15.9761 11.3749 15.7595 11.1332Z" fill="#00934C"/>
</g>
</g>
</svg>
