<svg width="20" height="20" viewBox="0 0 20 20" fill="none" xmlns="http://www.w3.org/2000/svg">
<path fill-rule="evenodd" clip-rule="evenodd" d="M12.5 15.8333V12.5H15.8333L15.8342 15.8333H12.5ZM15.8335 10.833H12.5002C11.581 10.833 10.8335 11.5805 10.8335 12.4997V15.833C10.8335 16.7522 11.581 17.4997 12.5002 17.4997H15.8335C16.7527 17.4997 17.5002 16.7522 17.5002 15.833V12.4997C17.5002 11.5805 16.7527 10.833 15.8335 10.833ZM4.1665 15.8333V12.5H7.49984L7.50067 15.8333H4.1665ZM7.5 10.833H4.16667C3.2475 10.833 2.5 11.5805 2.5 12.4997V15.833C2.5 16.7522 3.2475 17.4997 4.16667 17.4997H7.5C8.41917 17.4997 9.16667 16.7522 9.16667 15.833V12.4997C9.16667 11.5805 8.41917 10.833 7.5 10.833ZM12.5 7.50033V4.16699H15.8333L15.8342 7.50033H12.5ZM15.8335 2.5H12.5002C11.581 2.5 10.8335 3.2475 10.8335 4.16667V7.5C10.8335 8.41917 11.581 9.16667 12.5002 9.16667H15.8335C16.7527 9.16667 17.5002 8.41917 17.5002 7.5V4.16667C17.5002 3.2475 16.7527 2.5 15.8335 2.5ZM4.1665 7.50033V4.16699H7.49984L7.50067 7.50033H4.1665ZM7.5 2.5H4.16667C3.2475 2.5 2.5 3.2475 2.5 4.16667V7.5C2.5 8.41917 3.2475 9.16667 4.16667 9.16667H7.5C8.41917 9.16667 9.16667 8.41917 9.16667 7.5V4.16667C9.16667 3.2475 8.41917 2.5 7.5 2.5Z" fill="#77838F"/>
<mask id="mask0_118_3699" style="mask-type:luminance" maskUnits="userSpaceOnUse" x="2" y="2" width="16" height="16">
<path fill-rule="evenodd" clip-rule="evenodd" d="M12.5 15.8333V12.5H15.8333L15.8342 15.8333H12.5ZM15.8335 10.833H12.5002C11.581 10.833 10.8335 11.5805 10.8335 12.4997V15.833C10.8335 16.7522 11.581 17.4997 12.5002 17.4997H15.8335C16.7527 17.4997 17.5002 16.7522 17.5002 15.833V12.4997C17.5002 11.5805 16.7527 10.833 15.8335 10.833ZM4.1665 15.8333V12.5H7.49984L7.50067 15.8333H4.1665ZM7.5 10.833H4.16667C3.2475 10.833 2.5 11.5805 2.5 12.4997V15.833C2.5 16.7522 3.2475 17.4997 4.16667 17.4997H7.5C8.41917 17.4997 9.16667 16.7522 9.16667 15.833V12.4997C9.16667 11.5805 8.41917 10.833 7.5 10.833ZM12.5 7.50033V4.16699H15.8333L15.8342 7.50033H12.5ZM15.8335 2.5H12.5002C11.581 2.5 10.8335 3.2475 10.8335 4.16667V7.5C10.8335 8.41917 11.581 9.16667 12.5002 9.16667H15.8335C16.7527 9.16667 17.5002 8.41917 17.5002 7.5V4.16667C17.5002 3.2475 16.7527 2.5 15.8335 2.5ZM4.1665 7.50033V4.16699H7.49984L7.50067 7.50033H4.1665ZM7.5 2.5H4.16667C3.2475 2.5 2.5 3.2475 2.5 4.16667V7.5C2.5 8.41917 3.2475 9.16667 4.16667 9.16667H7.5C8.41917 9.16667 9.16667 8.41917 9.16667 7.5V4.16667C9.16667 3.2475 8.41917 2.5 7.5 2.5Z" fill="white"/>
</mask>
<g mask="url(#mask0_118_3699)">
<rect width="20" height="20" fill="#77838F"/>
</g>
</svg>
