<svg width="14" height="15" viewBox="0 0 14 15" fill="none" xmlns="http://www.w3.org/2000/svg">
<g id="fi_4308457">
<g id="08 Delivery">
<path id="Vector" d="M12.83 9.07159C12.7091 8.86654 12.5223 8.70853 12.3 8.62334C12.0777 8.53815 11.8331 8.53081 11.6061 8.60252L11.0669 8.7737V2.89949C11.0666 2.70203 10.9879 2.51279 10.8481 2.37329C10.7084 2.23379 10.519 2.15544 10.3215 2.15544H3.67222C3.47476 2.15544 3.28537 2.23379 3.14561 2.37329C3.00586 2.51279 2.92717 2.70203 2.92681 2.89949V8.02157C2.71843 8.06137 2.50679 8.08167 2.29464 8.08222H1.36457C1.2752 8.08222 1.18948 8.11772 1.12629 8.18092C1.06309 8.24412 1.02759 8.32983 1.02759 8.4192C1.02759 8.50857 1.06309 8.59428 1.12629 8.65748C1.18948 8.72068 1.2752 8.75618 1.36457 8.75618H2.29464C3.00423 8.75697 3.70154 8.57102 4.31653 8.21701L6.91802 6.71139C7.02425 6.66359 7.14433 6.65642 7.25549 6.69123C7.36666 6.72605 7.46119 6.80043 7.52117 6.90029C7.58115 7.00015 7.60242 7.11855 7.58094 7.23304C7.55946 7.34753 7.49672 7.45016 7.40462 7.52149L4.92174 8.98263C4.78381 9.06436 4.67647 9.18904 4.61615 9.33758C4.55583 9.48613 4.54585 9.65035 4.58775 9.8051C4.62965 9.95985 4.72112 10.0966 4.84814 10.1944C4.97517 10.2922 5.13075 10.3457 5.29108 10.3467H7.69712H7.7079C8.13251 10.3472 8.55457 10.2813 8.95878 10.1513L11.8123 9.23469C11.8931 9.20925 11.9801 9.21192 12.0592 9.24228C12.1383 9.27263 12.2047 9.32887 12.2477 9.40183C12.2747 9.44703 12.2916 9.49756 12.2972 9.54992C12.3028 9.60228 12.2969 9.65523 12.2801 9.70511C12.2639 9.75541 12.2371 9.80166 12.2015 9.84072C12.166 9.87979 12.1224 9.91076 12.0738 9.93156L8.31582 11.5639C8.26614 11.5844 8.21405 11.5984 8.16081 11.6057L4.6562 12.0694C4.42613 12.0986 4.19248 12.0621 3.98224 11.9642L2.57635 11.3078C2.27834 11.1685 1.95368 11.0953 1.62472 11.0935H1.36457C1.2752 11.0935 1.18948 11.129 1.12629 11.1922C1.06309 11.2554 1.02759 11.3411 1.02759 11.4304C1.02759 11.5198 1.06309 11.6055 1.12629 11.6687C1.18948 11.7319 1.2752 11.7674 1.36457 11.7674H1.62472C1.85465 11.7681 2.08174 11.8182 2.29059 11.9143L3.69648 12.5762C3.9474 12.6941 4.22123 12.7553 4.4985 12.7554C4.58193 12.7556 4.66527 12.7498 4.74786 12.7379L8.25247 12.2756C8.36786 12.2612 8.48049 12.2298 8.58675 12.1826L12.3421 10.5543C12.4772 10.4955 12.5984 10.4088 12.6976 10.2998C12.7969 10.1909 12.8721 10.0622 12.9181 9.92223C12.9642 9.78223 12.9802 9.63409 12.965 9.48749C12.9498 9.3409 12.9038 9.19917 12.83 9.07159ZM8.39535 2.8294C8.37954 3.18879 8.22566 3.52822 7.96575 3.77695C7.70585 4.02567 7.35999 4.1645 7.00024 4.1645C6.6405 4.1645 6.29464 4.02567 6.03474 3.77695C5.77483 3.52822 5.62094 3.18879 5.60514 2.8294H8.39535ZM8.75255 9.51505C8.41498 9.62361 8.0625 9.67864 7.7079 9.67815H7.69982H5.29377C5.28525 9.67823 5.27682 9.67648 5.26904 9.673C5.26126 9.66953 5.25432 9.66442 5.24869 9.65803C5.24307 9.65163 5.23888 9.6441 5.23643 9.63594C5.23397 9.62779 5.2333 9.61919 5.23446 9.61076C5.23425 9.60014 5.23689 9.58966 5.2421 9.58042C5.24732 9.57117 5.25492 9.56349 5.26412 9.55819L7.74295 8.10244C7.9962 7.94398 8.17783 7.69318 8.24938 7.40314C8.32093 7.1131 8.27679 6.8066 8.1263 6.54854C7.9758 6.29048 7.73078 6.10112 7.44311 6.02057C7.15544 5.94002 6.84771 5.97459 6.58508 6.11696L3.98224 7.62258C3.85925 7.69396 3.73184 7.75745 3.60078 7.81264V2.89949C3.60078 2.89017 3.60263 2.88095 3.60624 2.87235C3.60985 2.86376 3.61513 2.85597 3.62178 2.84945C3.62843 2.84292 3.63632 2.83779 3.64498 2.83434C3.65364 2.8309 3.6629 2.82922 3.67222 2.8294H4.93118C4.93118 3.37815 5.14917 3.90442 5.53719 4.29244C5.92522 4.68046 6.45149 4.89845 7.00024 4.89845C7.54899 4.89845 8.07527 4.68046 8.46329 4.29244C8.85132 3.90442 9.06931 3.37815 9.06931 2.8294H10.3283C10.3376 2.82922 10.3468 2.8309 10.3555 2.83434C10.3642 2.83779 10.3721 2.84292 10.3787 2.84945C10.3854 2.85597 10.3906 2.86376 10.3942 2.87235C10.3979 2.88095 10.3997 2.89017 10.3997 2.89949V8.98532L8.75255 9.51505Z" fill="#9FA8B8"/>
</g>
</g>
</svg>
