<svg width="32" height="32" viewBox="0 0 32 32" fill="none" xmlns="http://www.w3.org/2000/svg">
<g id="fi_3035357">
<g id="Safe">
<path id="Vector" d="M28.3103 25.255C28.0964 25.0929 27.8473 24.9836 27.5832 24.9358C27.3191 24.888 27.0474 24.9032 26.7903 24.98L19.9303 27H16.1303L13.4303 25.5H18.5003C18.6329 25.5 18.7601 25.4473 18.8538 25.3536C18.9476 25.2598 19.0003 25.1326 19.0003 25V23.5C18.9993 23.3674 18.9474 23.2403 18.8553 23.145L17.8553 22.145C17.7852 22.0763 17.6966 22.0294 17.6003 22.01L10.1003 20.51C10.0672 20.5042 10.0338 20.5009 10.0003 20.5H7.00028C6.93688 20.499 6.87394 20.5109 6.81528 20.535L5.00028 21.26V20.5C5.00062 20.381 4.95852 20.2658 4.88153 20.1751C4.80455 20.0843 4.69773 20.024 4.58028 20.005L1.58028 19.505C1.50848 19.4948 1.43536 19.4998 1.3656 19.5196C1.29585 19.5394 1.23102 19.5736 1.17527 19.62C1.12067 19.6672 1.0768 19.7255 1.04662 19.791C1.01643 19.8566 1.00063 19.9278 1.00027 20V30C1.00027 30.1326 1.05295 30.2598 1.14672 30.3536C1.24049 30.4473 1.36767 30.5 1.50028 30.5C1.52704 30.5008 1.55382 30.4992 1.58028 30.495L4.58028 29.995C4.69773 29.976 4.80455 29.9157 4.88153 29.8249C4.95852 29.7342 5.00062 29.619 5.00028 29.5V29H6.42028L12.3403 30.975C12.3922 30.9906 12.4461 30.999 12.5003 31H20.0003C20.0567 31.0002 20.1126 30.99 20.1653 30.97L27.8503 28.26C28.1864 28.1412 28.4775 27.9212 28.6835 27.6302C28.8894 27.3392 29.0001 26.9915 29.0003 26.635C29.0018 26.3669 28.9402 26.1023 28.8203 25.8625C28.7004 25.6227 28.5257 25.4146 28.3103 25.255ZM4.00028 29.075L2.00028 29.41V20.59L4.00028 20.925V29.075ZM27.5203 27.315L19.9153 30H12.5803L6.66028 28.025C6.60834 28.0094 6.55451 28.001 6.50028 28H5.00028V22.34L7.09528 21.5H9.95028L17.2553 22.96L18.0003 23.705V24.5H11.5003C11.39 24.5003 11.2829 24.5371 11.1957 24.6046C11.1085 24.6721 11.0461 24.7666 11.0181 24.8733C10.9902 24.9799 10.9983 25.0929 11.0412 25.1945C11.0841 25.2961 11.1593 25.3806 11.2553 25.435L15.7553 27.935C15.8295 27.9785 15.9142 28.001 16.0003 28H20.0003C20.0477 28.0011 20.095 27.9943 20.1403 27.98L27.0753 25.94C27.1827 25.9074 27.2963 25.9008 27.4067 25.9208C27.5171 25.9408 27.6212 25.9868 27.7103 26.055C27.815 26.1333 27.8965 26.2385 27.9462 26.3595C27.9958 26.4804 28.0118 26.6126 27.9923 26.7418C27.9728 26.8711 27.9186 26.9927 27.8355 27.0936C27.7524 27.1946 27.6434 27.2711 27.5203 27.315Z" fill="#00934C"/>
<path id="Vector_2" d="M16.0003 20C20.4113 20 24.0003 15.2895 24.0003 9.49999V3.49999C24.0003 3.38986 23.9639 3.28282 23.8968 3.19548C23.8297 3.10815 23.7357 3.0454 23.6293 3.01699L16.1293 1.01699C16.0448 0.994419 15.9558 0.994419 15.8713 1.01699L8.37128 3.01699C8.26488 3.0454 8.17083 3.10815 8.10375 3.19548C8.03666 3.28282 8.00029 3.38986 8.00027 3.49999V9.49999C8.00027 15.2895 11.5893 20 16.0003 20ZM9.00028 3.88449L16.0003 2.01749L23.0003 3.88449V9.49999C23.0003 14.7385 19.8603 19 16.0003 19C12.1403 19 9.00028 14.7385 9.00028 9.49999V3.88449Z" fill="#00934C"/>
<path id="Vector_3" d="M14.0003 12.5V14C14.0003 14.2652 14.1056 14.5196 14.2932 14.7071C14.4807 14.8946 14.7351 15 15.0003 15H17.0003C17.2655 15 17.5199 14.8946 17.7074 14.7071C17.8949 14.5196 18.0003 14.2652 18.0003 14V12.5H19.5003C19.7655 12.5 20.0199 12.3946 20.2074 12.2071C20.3949 12.0196 20.5003 11.7652 20.5003 11.5V9.5C20.5003 9.23478 20.3949 8.98043 20.2074 8.79289C20.0199 8.60536 19.7655 8.5 19.5003 8.5H18.0003V7C18.0003 6.73478 17.8949 6.48043 17.7074 6.29289C17.5199 6.10536 17.2655 6 17.0003 6H15.0003C14.7351 6 14.4807 6.10536 14.2932 6.29289C14.1056 6.48043 14.0003 6.73478 14.0003 7V8.5H12.5003C12.2351 8.5 11.9807 8.60536 11.7932 8.79289C11.6056 8.98043 11.5003 9.23478 11.5003 9.5V11.5C11.5003 11.7652 11.6056 12.0196 11.7932 12.2071C11.9807 12.3946 12.2351 12.5 12.5003 12.5H14.0003ZM12.5003 9.5H14.0003C14.2655 9.5 14.5198 9.39464 14.7074 9.20711C14.8949 9.01957 15.0003 8.76522 15.0003 8.5V7H17.0003V8.5C17.0003 8.76522 17.1056 9.01957 17.2932 9.20711C17.4807 9.39464 17.7351 9.5 18.0003 9.5H19.5003V11.5H18.0003C17.7351 11.5 17.4807 11.6054 17.2932 11.7929C17.1056 11.9804 17.0003 12.2348 17.0003 12.5V14H15.0003V12.5C15.0003 12.2348 14.8949 11.9804 14.7074 11.7929C14.5198 11.6054 14.2655 11.5 14.0003 11.5H12.5003V9.5Z" fill="#00934C"/>
<path id="Vector_4" d="M26.0003 4H27.0003V3H28.0003V2H27.0003V1H26.0003V2H25.0003V3H26.0003V4Z" fill="#00934C"/>
<path id="Vector_5" d="M31.0003 5H30.0003V4H29.0003V5H28.0003V6H29.0003V7H30.0003V6H31.0003V5Z" fill="#00934C"/>
<path id="Vector_6" d="M24.0003 16.5V17.5H23.0003V18.5H24.0003V19.5H25.0003V18.5H26.0003V17.5H25.0003V16.5H24.0003Z" fill="#00934C"/>
<path id="Vector_7" d="M28.0003 13.5H27.0003V14.5H26.0003V15.5H27.0003V16.5H28.0003V15.5H29.0003V14.5H28.0003V13.5Z" fill="#00934C"/>
<path id="Vector_8" d="M5.00028 4H6.00028V3H7.00028V2H6.00028V1H5.00028V2H4.00027V3H5.00028V4Z" fill="#00934C"/>
<path id="Vector_9" d="M2.00028 7H3.00028V6H4.00028V5H3.00028V4H2.00028V5H1.00027V6H2.00028V7Z" fill="#00934C"/>
<path id="Vector_10" d="M7.00028 16.5V17.5H6.00027V18.5H7.00028V19.5H8.00028V18.5H9.00028V17.5H8.00028V16.5H7.00028Z" fill="#00934C"/>
<path id="Vector_11" d="M5.00028 16.5V15.5H6.00028V14.5H5.00028V13.5H4.00028V14.5H3.00027V15.5H4.00028V16.5H5.00028Z" fill="#00934C"/>
</g>
</g>
</svg>
