<svg width="21" height="20" viewBox="0 0 21 20" fill="none" xmlns="http://www.w3.org/2000/svg">
<g id="Iconly/Bold/Home">
<g id="Home">
<path id="Home_2" d="M8.11199 17.3111V14.763C8.11199 14.1126 8.64315 13.5853 9.29837 13.5853H11.6935C12.0082 13.5853 12.3099 13.7094 12.5324 13.9302C12.7549 14.1511 12.8799 14.4507 12.8799 14.763V17.3111C12.8779 17.5816 12.9847 17.8416 13.1767 18.0335C13.3686 18.2254 13.6297 18.3333 13.9021 18.3333H15.5362C16.2994 18.3353 17.032 18.0357 17.5723 17.5007C18.1127 16.9657 18.4163 16.2392 18.4163 15.4815V8.2224C18.4163 7.6104 18.1431 7.02989 17.6702 6.63724L12.1114 2.22991C11.1444 1.45716 9.75894 1.48211 8.82083 2.28917L3.38885 6.63724C2.89363 7.01831 2.59763 7.60055 2.58301 8.2224V15.4741C2.58301 17.0532 3.87249 18.3333 5.46315 18.3333H7.05992C7.6257 18.3334 8.08551 17.8802 8.08961 17.3185L8.11199 17.3111Z" fill="#A0ACC3"/>
</g>
</g>
</svg>
