<svg width="25" height="24" viewBox="0 0 25 24" fill="none" xmlns="http://www.w3.org/2000/svg">
<g id="fi_2708428" clip-path="url(#clip0_2225_14130)">
<g id="Group">
<path id="Vector" d="M0.500977 4.26624H1.90711V1.40711H4.76624V0.000976562H0.500977V4.26624Z" fill="white"/>
<path id="Vector_2" d="M24.4989 4.26624V0.000976562H20.2336V1.40711H23.0928V4.26624H24.4989Z" fill="white"/>
<path id="Vector_3" d="M0.500977 19.7336V23.9989H4.76624V22.5928H1.90711V19.7336H0.500977Z" fill="white"/>
<path id="Vector_4" d="M23.0928 22.5928H20.2336V23.9989H24.4989V19.7336H23.0928V22.5928Z" fill="white"/>
<path id="Vector_5" d="M20.7708 15.3865C22.4218 14.2206 23.5007 13.1506 24.5 12C23.5361 10.89 22.4614 9.80733 20.7708 8.61338C18.0462 6.68937 15.1863 5.67236 12.5 5.67236C9.8137 5.67236 6.95372 6.68937 4.22916 8.61338C2.57812 9.77939 1.49934 10.8493 0.5 12C1.46395 13.1099 2.53856 14.1926 4.2292 15.3865C6.95377 17.3105 9.81375 18.3276 12.5 18.3276C15.1863 18.3276 18.0463 17.3106 20.7708 15.3865ZM2.39472 12C2.90369 11.4849 3.83699 10.6084 5.06941 9.74147C6.79652 8.52667 9.48757 7.07849 12.5 7.07849C15.5124 7.07849 18.2035 8.52662 19.9305 9.74147C21.163 10.6084 22.0963 11.4849 22.6052 12C22.0963 12.515 21.163 13.3915 19.9305 14.2584C18.2034 15.4732 15.5124 16.9214 12.5 16.9214C9.48757 16.9214 6.79647 15.4733 5.06941 14.2584C3.83684 13.3915 2.90355 12.5149 2.39472 12Z" fill="white"/>
<path id="Vector_6" d="M16.0153 11.9999C16.0153 10.0616 14.4383 8.48462 12.4999 8.48462C10.5616 8.48462 8.98462 10.0616 8.98462 11.9999C8.98462 13.9383 10.5616 15.5153 12.4999 15.5153C14.4383 15.5153 16.0153 13.9383 16.0153 11.9999ZM10.3908 11.9999C10.3908 10.8369 11.3369 9.89075 12.4999 9.89075C13.663 9.89075 14.6091 10.8369 14.6091 11.9999C14.6091 13.163 13.663 14.1091 12.4999 14.1091C11.3369 14.1091 10.3908 13.163 10.3908 11.9999Z" fill="white"/>
</g>
</g>
<defs>
<clipPath id="clip0_2225_14130">
<rect width="24" height="24" fill="white" transform="translate(0.5)"/>
</clipPath>
</defs>
</svg>
