<svg width="24" height="24" viewBox="0 0 24 24" fill="none" xmlns="http://www.w3.org/2000/svg">
<g id="fi_5121221" clip-path="url(#clip0_2461_11951)">
<g id="Group">
<path id="Vector" d="M11.5436 4.72565L11.6818 3.96385C10.5538 3.7583 9.37471 3.89727 8.34503 4.40475L8.68684 5.0992C9.56864 4.66565 10.5786 4.55069 11.5436 4.72565Z" fill="#00934C"/>
<path id="Vector_2" d="M14.1732 5.07873C13.6719 4.68853 13.1133 4.38621 12.5121 4.18066L12.2621 4.91344C12.7816 5.09112 13.2647 5.35241 13.6978 5.68995L14.1732 5.07873Z" fill="#00934C"/>
<path id="Vector_3" d="M21.2477 14.1759C21.9116 13.8023 22.5461 13.373 23.1449 12.883C23.6884 12.4386 24 11.7809 24 11.0791C24 9.87639 23.0609 8.856 21.8628 8.75613C20.148 8.61329 18.5423 7.76516 17.4569 6.42968L16.3111 5.0191C14.9183 3.30542 12.8532 2.32258 10.6452 2.32258C8.30942 2.32258 6.24581 3.51135 5.02761 5.31523C3.83497 4.29484 3.09677 2.784 3.09677 1.10206V0H2.32258V1.10206C2.32258 2.53665 2.79639 3.86052 3.60232 4.92503C1.4551 5.73523 0 7.79652 0 10.1342V13.4005L0.560129 13.1203C1.93819 12.4312 3.10761 11.383 3.95419 10.1067C4.03006 10.6134 4.16245 11.1077 4.35213 11.5862C3.65381 12.3213 3.10839 13.1992 2.75923 14.172C0.954968 15.0732 0 16.1934 0 17.4194V18.9677C0 21.7897 5.2711 24 12 24C18.7289 24 24 21.7897 24 18.9677V17.4194C24 16.2031 23.0288 15.0681 21.2477 14.1759ZM10.6452 3.09677C12.6194 3.09677 14.465 3.97548 15.7099 5.50761L16.8557 6.91819C18.0735 8.41665 19.8751 9.36774 21.7986 9.528C22.5987 9.59419 23.2258 10.2755 23.2258 11.0791C23.2258 11.5479 23.0179 11.9872 22.6548 12.2837C21.3561 13.3459 19.8863 14.117 18.2834 14.5874C17.3845 11.4735 14.544 9.29032 11.2258 9.29032H9.67742C7.88284 9.29032 6.23806 9.93832 4.95987 11.0098C4.75316 10.3959 4.64516 9.75523 4.64516 9.09677C4.64516 8.14606 4.87355 7.24916 5.26877 6.44942C5.98374 6.89768 6.79703 7.21394 7.68271 7.35019L7.80077 6.5849C7.01071 6.46335 6.28645 6.17923 5.652 5.77587C6.72852 4.16245 8.56413 3.09677 10.6452 3.09677ZM5.66129 17.5301C5.23316 17.4221 4.81471 17.2881 4.41019 17.1186C4.84877 16.0912 5.49523 15.1881 6.29342 14.4546C6.58839 14.9799 6.78968 15.5582 6.88916 16.1706C6.47884 16.2813 6.19355 16.651 6.19355 17.0772C6.19355 17.1406 6.15832 17.1975 6.10181 17.2258L5.93923 17.3071C5.8289 17.3625 5.73987 17.4418 5.66129 17.5301ZM7.65135 15.9786C7.52555 15.252 7.27123 14.5665 6.90542 13.9498C7.64361 13.3974 8.47626 12.9751 9.36813 12.7107C9.60464 13.231 9.77071 13.7837 9.87097 14.3563L9.4951 14.7317C9.47729 14.7495 9.45523 14.7631 9.43084 14.7712L8.61058 15.0445C8.37561 15.1231 8.17742 15.295 8.06748 15.516L7.89677 15.8578C7.87471 15.9012 7.83561 15.9329 7.78877 15.9449L7.65135 15.9786ZM10.579 13.9455C10.4745 13.4559 10.325 12.9813 10.1295 12.5272C10.5968 12.4386 11.0748 12.3871 11.561 12.3871H13.0455C13.1663 12.6434 13.2774 12.9043 13.3726 13.1717C13.0908 13.1977 12.8338 13.3421 12.6747 13.5801L12.2992 14.1434C12.2578 14.2057 12.1785 14.232 12.1084 14.2088L11.4329 13.9835C11.3369 13.9517 11.2366 13.9355 11.136 13.9355H10.6808C10.6463 13.9355 10.6126 13.9417 10.579 13.9455ZM14.1855 13.1702C14.0996 12.905 14.0052 12.643 13.896 12.3871H16.2519C16.8995 13.152 17.3737 14.0733 17.6187 15.0968H17.3284C17.2723 15.0968 17.2208 15.0689 17.1898 15.0228L16.7446 14.3543C16.5697 14.0919 16.277 13.9355 15.9615 13.9355H15.3255C15.2814 13.9355 15.2392 13.9181 15.2079 13.8867L14.7577 13.4365C14.6025 13.2813 14.4012 13.1915 14.1855 13.1702ZM13.5221 11.6129C13.2577 11.1209 12.9515 10.6521 12.6043 10.2139C13.68 10.4415 14.6644 10.9254 15.4788 11.6129H13.5221ZM11.4554 10.0746C11.9052 10.5426 12.3015 11.0586 12.6348 11.6129H11.5614C10.9537 11.6129 10.3572 11.683 9.77729 11.808C9.44052 11.2107 9.02168 10.6603 8.53084 10.1706C8.90361 10.1044 9.28568 10.0645 9.67742 10.0645H11.2258C11.3032 10.0645 11.3787 10.0723 11.4554 10.0746ZM7.63123 10.3955C8.172 10.8646 8.62994 11.4097 8.99381 12.0116C8.08181 12.3012 7.23058 12.7452 6.46839 13.3107C6.06852 12.8021 5.5831 12.3588 5.028 11.9977C5.75032 11.2754 6.63871 10.7214 7.63123 10.3955ZM5.85987 13.807C4.94903 14.6214 4.20852 15.6314 3.71032 16.7876C3.50323 16.6785 3.29923 16.5631 3.10026 16.4373C3.14555 14.9876 3.66735 13.6591 4.50619 12.5911C5.03342 12.9186 5.48748 13.3305 5.85987 13.807ZM6.28529 18L6.44787 17.9187C6.76839 17.7581 6.96774 17.4356 6.96774 17.0772C6.96774 17.0005 7.01961 16.9343 7.09355 16.9157L7.97613 16.6951C8.24284 16.6281 8.46658 16.4489 8.5889 16.2035L8.76 15.8613C8.77935 15.8222 8.81419 15.792 8.85561 15.7785L9.67548 15.5052C9.81368 15.4591 9.94142 15.3801 10.0428 15.2779L10.5623 14.7585C10.5945 14.7271 10.6366 14.7097 10.6808 14.7097H11.136C11.1542 14.7097 11.172 14.7124 11.1886 14.7182L11.8637 14.9435C12.2667 15.0774 12.7095 14.9245 12.9437 14.5726L13.3192 14.0098C13.3502 13.9634 13.4021 13.9355 13.4578 13.9355H14.0938C14.1379 13.9355 14.1801 13.9529 14.2115 13.9843L14.6617 14.4345C14.839 14.6121 15.0751 14.7097 15.3259 14.7097H15.9619C16.0181 14.7097 16.0695 14.7375 16.1005 14.7836L16.5457 15.4521C16.7206 15.7146 17.0133 15.871 17.3288 15.871H18.0263C18.0592 15.871 18.091 15.8806 18.1185 15.8988L19.0006 16.4872C19.1559 16.5906 19.3363 16.6452 19.5225 16.6452H19.9003C19.9444 16.6452 19.9866 16.6626 20.0179 16.6939L20.6969 17.3725C20.8277 17.5041 20.9032 17.6865 20.9032 17.8723C20.9032 17.9319 20.8711 17.9868 20.8192 18.0166C19.2875 18.8923 17.5452 19.3548 15.7812 19.3548H12.0403C10.2434 19.3548 8.44374 19.1574 6.69058 18.7676C6.39755 18.7026 6.19355 18.4483 6.19355 18.1486C6.19355 18.0852 6.22877 18.0283 6.28529 18ZM0.774194 12.1192V10.1342C0.774194 8.05781 2.10697 6.23381 4.05174 5.58542C2.93381 6.90039 1.97419 8.34774 1.20194 9.89148L1.89445 10.2379C2.60555 8.81613 3.48542 7.48219 4.50194 6.26013C4.16168 6.99368 3.95032 7.79652 3.89381 8.64271C3.22181 10.0839 2.12903 11.299 0.774194 12.1192ZM12 23.2258C6.17652 23.2258 1.22129 21.4394 0.805548 19.2631C2.52581 21.1467 6.83148 22.4516 12 22.4516C17.1685 22.4516 21.4742 21.1467 23.1945 19.2631C22.7787 21.4394 17.8235 23.2258 12 23.2258ZM12 21.6774C5.91484 21.6774 0.774194 19.7272 0.774194 17.4194C0.774194 16.6587 1.37265 15.8961 2.4631 15.2245C2.37252 15.6848 2.32258 16.159 2.32258 16.6452V16.8523L2.49484 16.9672C3.39639 17.568 4.38387 17.9988 5.42942 18.2675C5.48052 18.8795 5.91252 19.3877 6.52219 19.5232C8.33071 19.9254 10.1868 20.129 12.0403 20.129H15.7812C17.6799 20.129 19.555 19.6308 21.2036 18.689C21.4955 18.5218 21.6774 18.209 21.6774 17.8723C21.6774 17.477 21.5237 17.105 21.2439 16.8252L20.5645 16.1462C20.3868 15.9685 20.1507 15.871 19.8999 15.871H19.5221C19.4892 15.871 19.4574 15.8613 19.4299 15.8431L18.6124 15.2981C19.2186 15.1146 19.8062 14.8889 20.3745 14.6237C22.1876 15.4088 23.2258 16.4222 23.2258 17.4194C23.2258 19.7272 18.0852 21.6774 12 21.6774Z" fill="#00934C"/>
<path id="Vector_4" d="M10.5621 16.371L11.3361 15.5969L11.8836 16.1443L11.1095 16.9184L10.5621 16.371Z" fill="#00934C"/>
<path id="Vector_5" d="M12.8843 17.3057L13.4317 16.7582L14.2058 17.5323L13.6583 18.0797L12.8843 17.3057Z" fill="#00934C"/>
<path id="Vector_6" d="M14.4326 15.9843L15.2067 15.2102L15.7542 15.7576L14.9801 16.5317L14.4326 15.9843Z" fill="#00934C"/>
<path id="Vector_7" d="M16.3677 17.6932L16.9151 17.1457L17.6892 17.9198L17.1418 18.4673L16.3677 17.6932Z" fill="#00934C"/>
<path id="Vector_8" d="M9.01369 17.6924L9.56112 17.1449L10.3352 17.919L9.78776 18.4665L9.01369 17.6924Z" fill="#00934C"/>
</g>
</g>
<defs>
<clipPath id="clip0_2461_11951">
<rect width="24" height="24" fill="white"/>
</clipPath>
</defs>
</svg>
