<svg width="24" height="24" viewBox="0 0 24 24" fill="none" xmlns="http://www.w3.org/2000/svg">
<g id="fi_4713955" clip-path="url(#clip0_2818_5665)">
<g id="Group">
<g id="Page-1_47_">
<g id="_x30_48---Pasta">
<path id="Shape_111_" d="M23.2001 12.8503H21.7673C21.2973 12.3069 20.8797 11.7203 20.5201 11.0983C19.9321 10.0855 19.3765 9.12825 18.4233 8.61825C17.1432 7.92623 15.706 8.23664 15.0776 8.19267C14.8765 8.04094 14.687 7.87434 14.5108 7.69425C14.38 7.56825 14.2752 7.45223 14.1756 7.34226C13.8339 6.93323 13.4048 6.60604 12.92 6.38465C13.0112 6.32174 13.0969 6.25138 13.1764 6.17423C14.5104 4.84063 14.1892 2.80821 14.1764 2.7222C14.1483 2.55359 14.0162 2.42149 13.8476 2.39341C13.7612 2.3794 11.7276 2.05821 10.3952 3.3934C10.3318 3.46067 10.2731 3.53234 10.2196 3.60781C10.1659 3.53244 10.1071 3.46081 10.0436 3.3934C8.71001 2.0598 6.6776 2.38099 6.59121 2.39341C6.4225 2.42154 6.29036 2.55387 6.26242 2.72262C6.24803 2.80821 5.92764 4.84264 7.26241 6.17423C7.3684 6.27806 7.48563 6.3697 7.61201 6.44742H7.60882C7.31937 6.61059 7.0481 6.80404 6.79961 7.02464C6.27517 7.50647 5.83938 8.07656 5.512 8.70905C4.53198 9.07383 2.59997 9.91904 1.93519 12.8503H0.800013C0.560293 12.8503 0.333183 12.9578 0.18126 13.1432C0.0293377 13.3286 -0.0314594 13.5724 0.0156501 13.8075L0.234042 14.8975C1.02717 18.8191 4.46982 21.6415 8.47086 21.6503H15.5293C19.5303 21.6415 22.973 18.8191 23.7661 14.8975L23.9845 13.8071C24.0314 13.5721 23.9706 13.3284 23.8187 13.1431C23.6668 12.9578 23.4397 12.8503 23.2001 12.8503ZM13.9148 8.23027C14.1796 8.5275 14.4949 8.77561 14.8461 8.96307C15.4001 9.12066 16.8621 8.68308 18.0433 9.32307C18.7977 9.72629 19.2977 10.5879 19.8385 11.5195C20.109 11.9804 20.4068 12.4248 20.7301 12.8503H19.7113C19.5173 12.5531 19.3281 12.2347 19.1457 11.9203C18.6714 11.1003 18.223 10.3255 17.6658 10.0259C17.0704 9.77518 16.4184 9.68977 15.7786 9.77865C15.3622 9.82716 14.9405 9.80007 14.5337 9.69863C14.103 9.48952 13.7171 9.19866 13.3973 8.84222C13.323 8.77064 13.2469 8.6978 13.1706 8.62622C13.3333 8.45016 13.5417 8.32275 13.7726 8.2582C13.8248 8.24705 13.8665 8.24025 13.9148 8.23027ZM8.76003 11.1127C8.81642 11.0123 8.87084 10.9127 8.92404 10.8095C8.99844 10.6679 9.07123 10.5319 9.14764 10.4063C9.57322 10.7342 9.97813 11.0883 10.3601 11.4662C10.8657 11.9628 11.4038 12.4252 11.9709 12.8502H10.6908C10.3856 12.5854 10.0908 12.3102 9.81083 12.0458L9.78083 12.0182C9.36444 11.6263 9.02525 11.3151 8.76003 11.1127ZM9.50122 12.8503H6.22122C6.48522 12.628 6.79558 12.4677 7.12962 12.3811C7.5177 12.2669 7.8822 12.0843 8.20601 11.8419C8.23601 11.8163 8.26081 11.785 8.28879 11.7574C8.55157 11.9606 8.95161 12.3342 9.23839 12.6022L9.266 12.6282C9.34081 12.7007 9.42242 12.7763 9.50122 12.8503ZM10.9096 10.8839C10.5096 10.5063 10.1236 10.1443 9.75922 9.86429C10.0504 9.81019 10.3476 9.79674 10.6424 9.8243C10.7225 9.82791 10.8 9.8303 10.8788 9.83269C11.1658 9.99413 11.4219 10.2051 11.6353 10.4559C12.2081 11.0948 12.9112 11.6036 13.6973 11.9479C15.3204 12.5479 16.15 11.7147 16.7568 12.6247C16.7968 12.6959 16.8413 12.7739 16.8836 12.8491H14.7784C14.2219 12.8667 13.6666 12.7855 13.1384 12.6091C12.4172 12.3043 11.6165 11.5495 10.9096 10.8839ZM13.9764 11.1995C13.2989 10.8905 12.6931 10.4438 12.1976 9.88787C12.1232 9.81427 12.052 9.74429 11.982 9.67707C12.2241 9.5649 12.4425 9.40754 12.6256 9.21347C12.696 9.27947 12.7672 9.34749 12.8412 9.41869C13.2366 9.85505 13.717 10.2061 14.2528 10.4503C14.7594 10.5948 15.2894 10.6386 15.8128 10.5791C16.309 10.5087 16.8149 10.5611 17.286 10.7319C17.6432 10.9243 18.0548 11.6347 18.4528 12.3223C18.5544 12.4975 18.6581 12.6755 18.7636 12.8516H17.8208C17.6848 12.6431 17.562 12.4311 17.4424 12.2143C16.6549 10.7855 15.4649 11.7495 13.9764 11.1995ZM13.2945 7.58147C12.9 7.77019 12.5561 8.04984 12.2909 8.39747L12.2885 8.40028L12.2845 8.40347V8.40628C11.7697 8.9963 11.6401 9.0675 10.6785 9.0263C9.29487 8.96349 8.87248 9.19191 8.21726 10.4375C8.08788 10.7319 7.90812 11.0014 7.68607 11.2339C7.4336 11.41 7.15385 11.5435 6.85807 11.6287C6.29125 11.8335 5.54645 12.1067 5.32928 12.8503H4.45323C4.85322 11.5031 5.80281 11.1559 6.58043 10.8755C6.75879 10.819 6.93265 10.7491 7.10041 10.6663C7.1501 10.6383 7.19318 10.6 7.22683 10.5539C7.33015 10.3961 7.42366 10.232 7.50682 10.0627C7.72038 9.59902 8.01888 9.1794 8.38681 8.82549C8.50526 8.71669 8.63586 8.62196 8.77601 8.54306C9.37498 8.25506 10.0439 8.14486 10.7036 8.22548C10.9634 8.27573 11.2324 8.24489 11.474 8.13708C11.7016 7.96509 12.154 7.42865 12.5824 7.10948C12.8437 7.22728 13.0842 7.38665 13.2945 7.58147ZM10.96 3.95783C11.5785 3.4069 12.3868 3.11773 13.2144 3.15143C13.2869 3.15143 13.3537 3.15143 13.4145 3.15621C13.491 4.0483 13.2023 4.93325 12.6144 5.60863C12.1523 6.04907 11.4258 6.04907 10.9636 5.60863C10.5074 5.15352 10.5058 4.41495 10.96 3.95783ZM7.02401 3.15781C7.91628 3.08056 8.80165 3.36936 9.4768 3.95783C9.93163 4.41411 9.93163 5.15235 9.4768 5.60863C9.01451 6.04912 8.28786 6.04912 7.82557 5.60863C7.23677 4.93368 6.94694 4.04872 7.02237 3.15621L7.02401 3.15781ZM5.9252 9.41026C6.01717 9.37651 6.09367 9.31036 6.14041 9.22425C6.43422 8.62275 6.83608 8.08041 7.32602 7.62426C7.53129 7.44047 7.75596 7.27954 7.99601 7.14426C9.1429 6.58462 10.4564 6.46931 11.6832 6.82068C11.5084 6.9855 11.1396 7.36148 11.0592 7.43667C10.9632 7.43667 10.8424 7.42987 10.7352 7.42345C9.92806 7.33518 9.11253 7.48054 8.38559 7.84223C8.19373 7.94981 8.01481 8.07909 7.85238 8.22745C7.41059 8.64633 7.05176 9.14475 6.79479 9.69666C6.73999 9.80668 6.67479 9.92345 6.63039 10.0022C6.53041 10.0422 6.376 10.097 6.31319 10.1194C5.47037 10.4226 4.09117 10.923 3.62518 12.8474H2.754C3.09338 11.2031 4.3134 9.88069 5.9252 9.41026ZM22.9817 14.7407C22.2642 18.2889 19.1493 20.8425 15.5292 20.8503H8.47081C4.85078 20.8425 1.73592 18.2889 1.01836 14.7407L0.799966 13.6503H15.08H23.2001L22.9817 14.7407Z" fill="#00934C"/>
<path id="Path_105_" fill-rule="evenodd" clip-rule="evenodd" d="M8.47078 19.2503C5.73473 19.2503 3.34519 17.3994 2.66119 14.7503C2.62992 14.6071 2.5229 14.4925 2.38223 14.4515C2.24156 14.4105 2.08973 14.4498 1.98647 14.5538C1.88325 14.6578 1.84514 14.8099 1.88719 14.9503C2.66236 17.9525 5.37019 20.0501 8.47078 20.0503C8.6917 20.0503 8.87076 19.8712 8.87076 19.6503C8.87076 19.4294 8.6917 19.2503 8.47078 19.2503Z" fill="#00934C"/>
</g>
</g>
</g>
</g>
<defs>
<clipPath id="clip0_2818_5665">
<rect width="24" height="24" fill="white"/>
</clipPath>
</defs>
</svg>
