<svg width="24" height="24" viewBox="0 0 24 24" fill="none" xmlns="http://www.w3.org/2000/svg">
<g id="fi_3978693">
<g id="Group">
<g id="Group_2">
<path id="Vector" d="M11.4011 13.4861C10.0049 13.4861 8.86908 14.6219 8.86908 16.0181V16.7385C8.86908 17.1163 9.17644 17.4236 9.5542 17.4236H13.248C13.6258 17.4236 13.9331 17.1162 13.9331 16.7385V16.0181C13.9331 14.6219 12.7973 13.4861 11.4011 13.4861ZM11.4011 14.1892C11.758 14.1892 12.0911 14.2924 12.3729 14.4699L11.2922 15.1904C11.0211 15.031 10.7057 14.9392 10.3691 14.9392H9.92555C10.2586 14.4849 10.7959 14.1892 11.4011 14.1892ZM9.5722 16.7205V16.0181C9.5722 15.9864 9.573 15.9548 9.57464 15.9233C9.57469 15.9221 9.57483 15.9211 9.57488 15.92C9.57989 15.8264 9.59199 15.7337 9.6112 15.6423H10.369C10.9736 15.6423 11.4684 16.1218 11.493 16.7205H9.5722ZM13.23 16.7205H12.196C12.186 16.3291 12.0531 15.9677 11.8336 15.6744L12.8958 14.9663C13.106 15.264 13.23 15.6267 13.23 16.0181V16.7205Z" fill="#00934C"/>
<path id="Vector_2" d="M23.4141 18.2211H21.331C21.6299 17.8024 21.8066 17.2909 21.8066 16.7384V16.018C21.8066 15.1346 21.546 14.2821 21.0531 13.5529C20.9444 13.392 20.7258 13.3497 20.5649 13.4585C20.404 13.5672 20.3618 13.7858 20.4705 13.9467C20.8846 14.5592 21.1034 15.2755 21.1034 16.0181V16.7384C21.1034 17.3436 20.8123 17.882 20.3628 18.2212H15.3326C15.5029 17.9823 15.6335 17.7133 15.7141 17.4236H17.8121H19.2464C19.6242 17.4236 19.9315 17.1162 19.9315 16.7384V16.0181C19.9315 14.6219 18.7957 13.4861 17.3995 13.4861C16.6356 13.4861 15.9498 13.8263 15.4852 14.363C15.3307 13.9832 15.1241 13.63 14.8753 13.3113C15.5372 12.6934 16.4247 12.3142 17.3995 12.3142C18.1096 12.3142 18.8005 12.5167 19.3973 12.9C19.5607 13.0048 19.7782 12.9575 19.8831 12.7941C19.988 12.6307 19.9406 12.4132 19.7772 12.3083C19.0668 11.8522 18.2446 11.6111 17.3994 11.6111C16.2419 11.6111 15.1874 12.0599 14.4002 12.7924C13.6131 12.0599 12.5586 11.6111 11.401 11.6111C11.0036 11.6111 10.6183 11.664 10.2518 11.7631C10.2528 11.7341 10.254 11.7051 10.254 11.6759V11.308L22.3239 4.33943C22.5953 4.18277 22.6886 3.83449 22.5319 3.56304L21.577 1.90882C21.5011 1.77729 21.3786 1.68321 21.2319 1.64398C21.0853 1.6046 20.9321 1.62485 20.8006 1.70074L9.36403 8.3036C8.55891 7.23841 7.28227 6.54851 5.84719 6.54851C3.41714 6.54851 1.44019 8.52546 1.44019 10.9555V11.6759C1.44019 13.0875 2.58867 14.236 4.00031 14.236H7.37109C7.12898 14.7812 6.99408 15.3841 6.99408 16.018V16.7384C6.99408 17.2909 7.17075 17.8024 7.46967 18.2211H0.585938C0.262828 18.2211 0 18.484 0 18.8071V19.9682C0 20.2913 0.262828 20.5541 0.585938 20.5541H2.6303V21.7897C2.6303 22.1128 2.89313 22.3757 3.21623 22.3757H7.40625C7.60041 22.3757 7.75781 22.2183 7.75781 22.0241C7.75781 21.8299 7.60041 21.6725 7.40625 21.6725H3.33342V20.5541H16.2656C16.4598 20.5541 16.6172 20.3967 16.6172 20.2025C16.6172 20.0084 16.4598 19.851 16.2656 19.851H0.703125V18.9243H23.2969V19.851H17.9062C17.7121 19.851 17.5547 20.0084 17.5547 20.2025C17.5547 20.3967 17.7121 20.5541 17.9062 20.5541H20.6666V21.6725H9.04688C8.85272 21.6725 8.69531 21.8299 8.69531 22.0241C8.69531 22.2183 8.85272 22.3757 9.04688 22.3757H20.7838C21.1069 22.3757 21.3697 22.1128 21.3697 21.7897V20.5541H23.4141C23.7372 20.5541 24 20.2913 24 19.9682V18.8071C24 18.484 23.7372 18.2211 23.4141 18.2211ZM19.2285 16.0181V16.7204H18.1945C18.1845 16.3291 18.0516 15.9677 17.8321 15.6744L18.8943 14.9662C19.1045 15.264 19.2285 15.6267 19.2285 16.0181ZM17.3996 14.1892C17.7565 14.1892 18.0896 14.2924 18.3714 14.4699L17.2907 15.1903C17.0196 15.031 16.7042 14.9392 16.3676 14.9392H15.924C16.2571 14.4849 16.7944 14.1892 17.3996 14.1892ZM16.3676 15.6423C16.9722 15.6423 17.4669 16.1218 17.4916 16.7204H15.8081V16.0181C15.8081 15.8915 15.8024 15.7662 15.7919 15.6423H16.3676ZM21.0354 2.37705L21.2698 2.78299L12.7395 7.70796L9.94078 9.32379C9.88223 9.17745 9.81563 9.03523 9.74231 8.89709L21.0354 2.37705ZM9.83105 10.199L12.2672 8.79251L21.6214 3.3919L21.8558 3.79784L6.87619 12.4463C6.82195 12.4775 6.75881 12.4859 6.69839 12.4697C6.63792 12.4535 6.58739 12.4147 6.55608 12.3605C6.49148 12.2486 6.52992 12.1049 6.64186 12.0403L9.83105 10.199ZM5.73825 10.1278C5.46712 9.96851 5.15175 9.87668 4.81514 9.87668H4.37161C4.7047 9.42237 5.24189 9.12668 5.84714 9.12668C6.20409 9.12668 6.53719 9.22985 6.81895 9.40737L5.73825 10.1278ZM5.9392 11.6579H4.01827V10.9556C4.01827 10.9239 4.01906 10.8922 4.0207 10.8607C4.02075 10.8596 4.02089 10.8585 4.02094 10.8574C4.02595 10.7639 4.03805 10.6712 4.05727 10.5798H4.81509C5.41978 10.5798 5.9145 11.0592 5.9392 11.6579ZM7.34194 9.90373C7.49555 10.1214 7.6028 10.3738 7.64958 10.6466L6.58753 11.2598C6.52809 11.0221 6.42244 10.8026 6.2798 10.6119L7.34194 9.90373ZM2.14327 11.6759V10.9556C2.14327 8.91321 3.8048 7.25168 5.84714 7.25168C7.44136 7.25168 8.8027 8.26441 9.32372 9.68004L8.28619 10.2791C7.98956 9.21045 7.00898 8.42351 5.84714 8.42351C4.45097 8.42351 3.31514 9.55934 3.31514 10.9555V11.6759C3.31514 12.0537 3.6225 12.361 4.00027 12.361H5.82905C5.84409 12.4813 5.88281 12.6006 5.94717 12.712C6.07237 12.9289 6.27455 13.084 6.51642 13.1488C6.59719 13.1704 6.67913 13.1812 6.76055 13.1812C6.92302 13.1812 7.08333 13.1386 7.2278 13.0552L9.55008 11.7144C9.52941 12.7206 8.70506 13.5329 7.69402 13.5329H4.00027C2.97633 13.5329 2.14327 12.6999 2.14327 11.6759ZM7.6972 16.7384V16.0181C7.6972 15.3528 7.87462 14.7287 8.1832 14.1886C9.07069 14.0161 9.79603 13.3842 10.1 12.5509C10.505 12.3982 10.9433 12.3142 11.4011 12.3142C13.4434 12.3142 15.105 13.9757 15.105 16.0181V16.7384C15.105 17.3436 14.8139 17.882 14.3644 18.2212H8.43778C7.9883 17.8819 7.6972 17.3436 7.6972 16.7384Z" fill="#00934C"/>
</g>
</g>
</g>
</svg>
