<svg width="12" height="12" viewBox="0 0 12 12" fill="none" xmlns="http://www.w3.org/2000/svg">
<g id="ic16-trending-up">
<path id="Icon" d="M2.70967 8.84272L2.78033 8.78033L4.5 7.06125L5.46967 8.03033C5.74003 8.30069 6.16546 8.32149 6.45967 8.09272L6.53033 8.03033L8.625 5.93625L9.21967 6.53033C9.6716 6.98226 10.4304 6.69575 10.4955 6.08522L10.5 6L10.4987 3.70546L10.492 3.63979L10.4732 3.55062L10.4551 3.49375L10.4297 3.43258L10.3905 3.35947L10.3403 3.28723L10.2803 3.21964C10.2538 3.19312 10.2257 3.16898 10.1965 3.14725L10.113 3.0935L10.0285 3.05342L9.9495 3.02688L9.86135 3.00826L9.81694 3.00297L9.75 3H7.5C6.86087 3 6.52692 3.73914 6.91258 4.2169L6.96967 4.28033L7.56375 4.875L6 6.43875L5.03033 5.46967C4.75997 5.19931 4.33454 5.17851 4.04033 5.40728L3.96967 5.46967L1.71967 7.71967C1.42678 8.01256 1.42678 8.48744 1.71967 8.78033C1.99003 9.05069 2.41546 9.07149 2.70967 8.84272Z" fill="#0A9A55"/>
</g>
</svg>
