<svg width="12" height="12" viewBox="0 0 12 12" fill="none" xmlns="http://www.w3.org/2000/svg">
<g id="ic16-trending-up">
<path id="Icon" d="M2.70967 3.15728L2.78033 3.21967L4.5 4.93875L5.46967 3.96967C5.74003 3.69931 6.16546 3.67851 6.45967 3.90728L6.53033 3.96967L8.625 6.06375L9.21967 5.46967C9.6716 5.01774 10.4304 5.30425 10.4955 5.91478L10.5 6L10.4987 8.29454L10.492 8.36021L10.4732 8.44938L10.4551 8.50625L10.4297 8.56742L10.3905 8.64053L10.3403 8.71277L10.2803 8.78036C10.2538 8.80688 10.2257 8.83102 10.1965 8.85275L10.113 8.9065L10.0285 8.94658L9.9495 8.97312L9.86135 8.99174L9.81694 8.99703L9.75 9H7.5C6.86087 9 6.52692 8.26086 6.91258 7.7831L6.96967 7.71967L7.56375 7.125L6 5.56125L5.03033 6.53033C4.75997 6.80069 4.33454 6.82149 4.04033 6.59272L3.96967 6.53033L1.71967 4.28033C1.42678 3.98744 1.42678 3.51256 1.71967 3.21967C1.99003 2.94931 2.41546 2.92851 2.70967 3.15728Z" fill="#F42828"/>
</g>
</svg>
