<svg width="21" height="20" viewBox="0 0 21 20" fill="none" xmlns="http://www.w3.org/2000/svg">
<g id="vuesax/linear/message">
<g id="vuesax/linear/message_2">
<g id="message">
<path id="Vector" d="M7.12858 15.8334H6.71191C3.37858 15.8334 1.71191 15.0001 1.71191 10.8334V6.66675C1.71191 3.33341 3.37858 1.66675 6.71191 1.66675H13.3786C16.7119 1.66675 18.3786 3.33341 18.3786 6.66675V10.8334C18.3786 14.1667 16.7119 15.8334 13.3786 15.8334H12.9619C12.7036 15.8334 12.4536 15.9584 12.2952 16.1667L11.0452 17.8334C10.4952 18.5667 9.59525 18.5667 9.04525 17.8334L7.79525 16.1667C7.66191 15.9834 7.35358 15.8334 7.12858 15.8334Z" stroke="#00934C" stroke-width="1.5" stroke-miterlimit="10" stroke-linecap="round" stroke-linejoin="round"/>
<path id="Vector_2" d="M13.375 9.16667H13.3825" stroke="#00934C" stroke-width="2" stroke-linecap="round" stroke-linejoin="round"/>
<path id="Vector_3" d="M10.041 9.16667H10.0485" stroke="#00934C" stroke-width="2" stroke-linecap="round" stroke-linejoin="round"/>
<path id="Vector_4" d="M6.70701 9.16667H6.7145" stroke="#00934C" stroke-width="2" stroke-linecap="round" stroke-linejoin="round"/>
</g>
</g>
</g>
</svg>
