<svg width="25" height="24" viewBox="0 0 25 24" fill="none" xmlns="http://www.w3.org/2000/svg">
<g id="fi_2515188" clip-path="url(#clip0_2818_5687)">
<g id="Group">
<g id="Group_2">
<path id="Vector" d="M5.58946 4.59751C5.685 4.83915 5.91731 4.9868 6.1626 4.9868C6.2377 4.9868 6.31406 4.97293 6.38803 4.94373V4.94368L9.03956 3.89583C9.35517 3.7711 9.51046 3.41283 9.38578 3.09722L8.97843 2.06649C8.91801 1.91358 8.80167 1.7934 8.65087 1.72796C8.50003 1.66257 8.33278 1.65976 8.17987 1.72027L5.52829 2.76812C5.21268 2.89285 5.05739 3.25107 5.18212 3.56673L5.58946 4.59751ZM8.35668 2.40638L8.69957 3.27413L6.21112 4.25757L5.86823 3.38982L8.35668 2.40638Z" fill="#00934C"/>
<path id="Vector_2" d="M18.8236 8.23122C19.6316 8.23122 20.441 7.95245 21.0907 7.38911C21.2079 7.28748 21.2783 7.1402 21.2838 6.98509C21.2894 6.82998 21.2296 6.67806 21.1199 6.56833L17.0188 2.46728C16.9091 2.35759 16.7569 2.29759 16.6021 2.30336C16.447 2.30889 16.2997 2.37925 16.198 2.49653C15.0125 3.86369 15.0872 5.93805 16.3681 7.219C17.0405 7.89128 17.9312 8.23122 18.8236 8.23122ZM16.6325 3.0753L20.5119 6.95477C19.4237 7.79739 17.8504 7.70678 16.8654 6.7218C15.8804 5.73681 15.7899 4.1635 16.6325 3.0753Z" fill="#00934C"/>
<path id="Vector_3" d="M17.1883 5.8416C17.051 5.97889 17.051 6.2015 17.1883 6.33875C17.2569 6.40743 17.3469 6.44174 17.4369 6.44174C17.5269 6.44174 17.6168 6.40743 17.6855 6.3388L17.9863 6.03796C18.1236 5.90066 18.1236 5.67805 17.9863 5.5408C17.849 5.4035 17.6264 5.40346 17.4891 5.54075L17.1883 5.8416Z" fill="#00934C"/>
<path id="Vector_4" d="M17.3441 5.10547C17.5382 5.10547 17.6956 4.94811 17.6956 4.75391C17.6956 4.5597 17.5382 4.40234 17.3441 4.40234H16.9186C16.7244 4.40234 16.567 4.5597 16.567 4.75391C16.567 4.94811 16.7244 5.10547 16.9186 5.10547H17.3441Z" fill="#00934C"/>
<path id="Vector_5" d="M18.7482 7.02021C18.9423 7.02021 19.0997 6.86285 19.0997 6.66865V6.24316C19.0997 6.04896 18.9423 5.8916 18.7482 5.8916C18.554 5.8916 18.3966 6.04896 18.3966 6.24316V6.66865C18.3966 6.86281 18.554 7.02021 18.7482 7.02021Z" fill="#00934C"/>
<path id="Vector_6" d="M24.4968 21.1875C24.3939 19.8735 24.0312 18.6103 23.4417 17.4598C23.4433 17.4252 23.4445 17.3905 23.4445 17.3555C23.4445 16.5282 22.9688 15.7798 22.2487 15.4166C22.3359 15.1785 22.3812 14.9255 22.3812 14.6692C22.3812 13.704 21.7477 12.8844 20.8748 12.6032C20.8494 12.194 20.7047 11.8013 20.4503 11.468C20.1111 11.0235 19.6191 10.7377 19.065 10.6633C18.6359 10.6055 18.2084 10.6814 17.8333 10.8739C17.649 10.2926 17.3224 9.76255 16.869 9.32567C16.7292 9.19095 16.5067 9.19508 16.3719 9.33486C16.2372 9.47464 16.2413 9.6972 16.3811 9.83192C16.6567 10.0975 16.8745 10.4057 17.0293 10.7419C16.9128 10.7047 16.7923 10.6774 16.6689 10.6608C16.5189 10.6407 16.3693 10.6372 16.2219 10.6489C15.7939 10.0402 15.0866 9.64152 14.2876 9.64152C13.4391 9.64152 12.6939 10.091 12.2769 10.7643C12.0418 10.7032 11.7965 10.6897 11.5564 10.7245C12.0389 9.69931 13.0814 8.98761 14.2876 8.98761C14.5565 8.98761 14.823 9.02295 15.0799 9.09261C15.2674 9.1437 15.4604 9.03275 15.5112 8.84539C15.562 8.65799 15.4513 8.46486 15.2639 8.41405C14.9471 8.32808 14.6186 8.28448 14.2876 8.28448C12.7655 8.28448 11.4547 9.2037 10.8793 10.5159C10.841 10.4784 10.8014 10.4421 10.7597 10.408C10.3858 10.1018 9.91508 9.9598 9.43438 10.0074C8.95358 10.0553 8.52022 10.2875 8.21408 10.6613C8.12488 10.7702 8.05016 10.889 7.98918 11.0141C7.48204 10.7543 6.90838 10.6068 6.3005 10.6068C4.24893 10.6068 2.57989 12.2758 2.57989 14.3274C2.57989 14.7328 2.64599 15.1227 2.76655 15.4881L2.22744 15.7012C1.91183 15.8259 1.75654 16.1841 1.88127 16.4998L2.02489 16.8633C1.72293 16.7563 1.38444 16.8999 1.25516 17.198L0.814301 18.215C0.679395 18.5263 0.822879 18.8894 1.13422 19.0244L1.62543 19.2374L0.889254 19.5283C0.573645 19.653 0.418348 20.0113 0.543082 20.3269L0.950426 21.3576C1.01085 21.5105 1.12719 21.6307 1.27799 21.6962C1.35655 21.7303 1.43952 21.7473 1.52268 21.7473C1.59913 21.7473 1.67572 21.7328 1.74899 21.7039L2.16782 21.5383C2.2115 21.703 2.29452 21.8568 2.41222 21.9841C2.61144 22.1996 2.89396 22.3231 3.18735 22.3231H6.12505C6.31921 22.3231 6.47661 22.1657 6.47661 21.9715C6.47661 21.7773 6.31921 21.62 6.12505 21.62H3.18739C3.08797 21.62 2.996 21.5797 2.9285 21.5067C2.86147 21.4342 2.8288 21.3403 2.83649 21.2424C3.01682 18.9412 4.05102 16.8054 5.7486 15.2285C7.45518 13.6431 9.67864 12.7701 12.0094 12.7701C14.3129 12.7701 16.5171 13.6254 18.216 15.1785C18.3593 15.3095 18.5816 15.2996 18.7127 15.1562C18.8436 15.0129 18.8337 14.7905 18.6904 14.6595C18.1185 14.1367 17.4934 13.6873 16.8284 13.3166C17.071 13.1392 17.3696 13.034 17.6924 13.034C18.1051 13.034 18.501 13.2093 18.7788 13.5149C18.9059 13.6549 19.1211 13.6692 19.2657 13.5472C19.5297 13.3245 19.8653 13.2019 20.2108 13.2019C21.0199 13.2019 21.678 13.86 21.678 14.6691C21.678 14.9358 21.6057 15.197 21.4689 15.4243C21.4124 15.5181 21.4029 15.633 21.4432 15.7349C21.4835 15.8368 21.569 15.914 21.6744 15.9439C22.3026 16.1216 22.7414 16.702 22.7414 17.3553C22.7414 17.6944 22.6252 18.0065 22.4312 18.2552C22.1385 17.7434 21.5876 17.3976 20.9571 17.3976C20.9048 17.3976 20.8534 17.4006 20.8024 17.4053C20.5397 16.902 20.2322 16.4181 19.8803 15.9583C19.7623 15.804 19.5416 15.7746 19.3875 15.8927C19.2333 16.0107 19.2039 16.2313 19.3219 16.3856C20.4864 17.9075 21.1336 19.7107 21.2044 21.62H7.81264C7.61849 21.62 7.46108 21.7773 7.46108 21.9715C7.46108 22.1657 7.61849 22.3231 7.81264 22.3231H23.445C23.7384 22.3231 24.0209 22.1995 24.2202 21.9841C24.4188 21.7692 24.5196 21.4789 24.4968 21.1875ZM2.17644 20.779L1.57213 21.0178L1.22924 20.1501L2.36718 19.7004C2.28411 20.0546 2.22022 20.4145 2.17644 20.779ZM2.59358 18.8908L1.49432 18.4143L1.86543 17.5582L2.9255 18.0178C2.80129 18.3031 2.69043 18.5944 2.59358 18.8908ZM3.22939 17.3831L2.93614 17.256L2.56743 16.3229L3.43513 15.98L3.68244 16.6059C3.51946 16.8583 3.36833 17.1176 3.22939 17.3831ZM6.43096 13.4626C6.44075 13.561 6.4588 13.6572 6.48374 13.7509C6.05788 14.0378 5.6518 14.3587 5.27 14.7134C5.1246 14.8484 4.98393 14.9875 4.84766 15.13C4.71552 14.892 4.64 14.6184 4.64 14.3275C4.64 13.4119 5.38489 12.667 6.30046 12.667C6.3763 12.667 6.45093 12.6722 6.52405 12.6821C6.43691 12.929 6.40424 13.1943 6.43096 13.4626ZM6.91288 12.0452C6.7175 11.9925 6.51233 11.9639 6.3005 11.9639C4.99724 11.9639 3.93693 13.0242 3.93693 14.3275C3.93693 14.829 4.09466 15.294 4.36227 15.6769C4.29613 15.7571 4.23088 15.838 4.16741 15.92L4.05679 15.6402C3.95436 15.3809 3.6943 15.23 3.42979 15.2536C3.33519 14.9615 3.28302 14.6506 3.28302 14.3275C3.28302 12.6636 4.63663 11.31 6.3005 11.31C6.7581 11.31 7.19183 11.4131 7.58071 11.5963C7.3288 11.6934 7.09986 11.8463 6.91288 12.0452ZM12.0094 12.0671C10.2789 12.0671 8.60347 12.5143 7.12752 13.3518C7.10999 13.0723 7.19708 12.8007 7.37549 12.5829C7.57255 12.3422 7.86379 12.1951 8.17466 12.1791C8.36357 12.1694 8.51094 12.0121 8.50818 11.8229C8.50438 11.5626 8.59316 11.3083 8.75811 11.1069C8.94524 10.8784 9.21018 10.7365 9.50408 10.7072C9.5414 10.7035 9.57861 10.7016 9.61564 10.7016C9.87013 10.7016 10.1148 10.7887 10.3143 10.9521C10.4698 11.0795 10.5875 11.2462 10.6547 11.4346C10.6916 11.5378 10.7744 11.6179 10.8787 11.6512C10.983 11.6846 11.097 11.6674 11.1869 11.6048C11.5905 11.3234 12.1385 11.3447 12.5194 11.6567C12.6667 11.7773 12.7774 11.9306 12.8458 12.1028C12.5687 12.0794 12.2898 12.0671 12.0094 12.0671ZM14.3343 12.3428C14.0916 12.2844 13.8465 12.2348 13.5991 12.1948C13.524 11.7695 13.3024 11.3891 12.9648 11.1126C12.9484 11.0992 12.9312 11.087 12.9144 11.0742C13.2133 10.6344 13.7171 10.3447 14.2877 10.3447C14.7547 10.3447 15.1767 10.5392 15.4786 10.8507C15.3535 10.9115 15.2335 10.9851 15.1204 11.0714C14.7066 11.3871 14.4306 11.8354 14.3343 12.3428ZM19.0692 12.8237C18.6835 12.5077 18.1963 12.3309 17.6924 12.3309C17.091 12.3309 16.5465 12.5774 16.1532 12.9741C15.7833 12.8037 15.4034 12.6563 15.0153 12.5329C15.0683 12.1721 15.2564 11.852 15.5469 11.6304C15.8421 11.4051 16.2073 11.3081 16.5754 11.3578C16.8672 11.3969 17.1341 11.5248 17.3472 11.7276C17.4826 11.8565 17.6952 11.8568 17.831 11.7284C18.138 11.4384 18.5539 11.3041 18.9715 11.3602C19.5868 11.4428 20.0543 11.9185 20.1558 12.4999C19.7702 12.5097 19.3948 12.6223 19.0692 12.8237ZM21.5944 19.4596C21.4752 19.0017 21.323 18.5538 21.1386 18.1182C21.6003 18.2039 21.9513 18.6089 21.9513 19.0951C21.9513 19.2263 21.9254 19.3514 21.8789 19.4661C21.8188 19.4596 21.7577 19.4561 21.6959 19.4561C21.6618 19.4561 21.6281 19.4576 21.5944 19.4596ZM22.5742 21.62H21.9075C21.8905 21.1266 21.8381 20.6398 21.7505 20.162C22.2733 20.1906 22.6903 20.6237 22.6903 21.1535C22.6902 21.3186 22.6505 21.4773 22.5742 21.62ZM23.7038 21.5068C23.6363 21.5798 23.5443 21.62 23.4449 21.62H23.3285C23.3713 21.47 23.3933 21.3136 23.3933 21.1535C23.3933 20.528 23.0529 19.9808 22.5479 19.6864C22.6167 19.5022 22.6544 19.3031 22.6544 19.0952C22.6544 19.0733 22.6536 19.0517 22.6528 19.0301C22.8434 18.873 23.0067 18.6839 23.1347 18.4714C23.495 19.347 23.7205 20.2802 23.7958 21.2425C23.8035 21.3404 23.7709 21.4343 23.7038 21.5068Z" fill="#00934C"/>
<path id="Vector_7" d="M10.9416 7.61213C11.0428 7.67611 11.1561 7.70836 11.2699 7.70836C11.3675 7.70836 11.4656 7.6846 11.5565 7.63688L13.3 6.7216C13.58 6.5746 13.7036 6.24422 13.5874 5.95308C13.4066 5.50046 13.0929 5.12325 12.6801 4.8623C12.2673 4.6013 11.7921 4.47975 11.3056 4.51046C10.9928 4.53028 10.7473 4.78355 10.7346 5.09967L10.6555 7.06716C10.6466 7.28949 10.7535 7.49321 10.9416 7.61213ZM11.4339 5.20903C11.7429 5.20528 12.0415 5.29031 12.3044 5.45658C12.5673 5.6228 12.7723 5.85675 12.9013 6.13674L11.3642 6.94369L11.4339 5.20903Z" fill="#00934C"/>
<path id="Vector_8" d="M4.93705 8.97009C5.65475 8.97009 6.23862 8.38621 6.23862 7.66851C6.23862 6.95076 5.65475 6.36688 4.93705 6.36688C4.21934 6.36688 3.63547 6.9508 3.63547 7.66855C3.63547 8.38621 4.21934 8.97009 4.93705 8.97009ZM4.93705 7.07005C5.26705 7.07005 5.5355 7.33855 5.5355 7.66855C5.5355 7.99851 5.267 8.26701 4.93705 8.26701C4.60709 8.26701 4.33859 7.99851 4.33859 7.66855C4.33859 7.33855 4.60705 7.07005 4.93705 7.07005Z" fill="#00934C"/>
<path id="Vector_9" d="M15.217 19.4307C15.3543 19.5679 15.5769 19.5679 15.7141 19.4307C16.0092 19.1356 16.4893 19.1356 16.7844 19.4307C16.853 19.4993 16.943 19.5336 17.033 19.5336C17.123 19.5336 17.213 19.4993 17.2816 19.4306C17.4189 19.2934 17.4189 19.0707 17.2816 18.9335C16.7123 18.3643 15.7861 18.3643 15.217 18.9335C15.0797 19.0708 15.0797 19.2934 15.217 19.4307Z" fill="#00934C"/>
<path id="Vector_10" d="M10.7995 19.4306C10.8681 19.4993 10.9581 19.5336 11.0481 19.5336C11.138 19.5336 11.228 19.4993 11.2966 19.4307C11.5917 19.1356 12.0718 19.1356 12.3669 19.4307C12.5042 19.5679 12.7268 19.5679 12.8641 19.4307C13.0014 19.2934 13.0014 19.0708 12.8641 18.9335C12.2949 18.3643 11.3687 18.3643 10.7995 18.9335C10.6622 19.0707 10.6622 19.2934 10.7995 19.4306Z" fill="#00934C"/>
<path id="Vector_11" d="M8.19806 19.5336C8.28801 19.5336 8.37801 19.4993 8.44663 19.4306C8.58393 19.2934 8.58393 19.0707 8.44663 18.9335C7.87738 18.3643 6.95118 18.3643 6.38203 18.9335C6.24473 19.0708 6.24473 19.2934 6.38203 19.4307C6.51932 19.5679 6.74193 19.5679 6.87918 19.4307C7.17426 19.1356 7.6544 19.1356 7.94948 19.4307C8.0181 19.4993 8.10806 19.5336 8.19806 19.5336Z" fill="#00934C"/>
<path id="Vector_12" d="M13.771 15.9169C13.6337 16.0542 13.6337 16.2768 13.771 16.414C13.8396 16.4827 13.9296 16.517 14.0196 16.517C14.1095 16.517 14.1995 16.4827 14.2682 16.4141C14.5633 16.1189 15.0434 16.119 15.3385 16.4141C15.4758 16.5513 15.6984 16.5513 15.8356 16.4141C15.9729 16.2768 15.9729 16.0542 15.8356 15.9169C15.2664 15.3477 14.3403 15.3477 13.771 15.9169Z" fill="#00934C"/>
<path id="Vector_13" d="M8.79392 15.9169C8.65662 16.0542 8.65662 16.2768 8.79392 16.4141C8.93122 16.5513 9.15383 16.5513 9.29108 16.4141C9.58616 16.119 10.0663 16.119 10.3614 16.4141C10.43 16.4827 10.52 16.517 10.61 16.517C10.6999 16.517 10.7899 16.4827 10.8585 16.414C10.9958 16.2768 10.9958 16.0541 10.8585 15.9169C10.2893 15.3477 9.36308 15.3477 8.79392 15.9169Z" fill="#00934C"/>
</g>
</g>
</g>
<defs>
<clipPath id="clip0_2818_5687">
<rect width="24" height="24" fill="white" transform="translate(0.5)"/>
</clipPath>
</defs>
</svg>
