<svg width="26" height="28" viewBox="0 0 26 28" fill="none" xmlns="http://www.w3.org/2000/svg">
<g filter="url(#filter0_d_1100_15175)">
<g filter="url(#filter1_d_1100_15175)">
<path d="M15.5251 8.97496L20.2417 5.81665C20.7167 5.49998 20.8417 4.84998 20.5251 4.38331L19.0084 2.12496C18.6917 1.64996 18.0417 1.52497 17.5751 1.84163L12.8584 4.99997L15.5251 8.97496Z" stroke="#00934C" stroke-width="1.5" stroke-linecap="round" stroke-linejoin="round"/>
<path d="M13.145 5.39936L9.16357 8.06592L11.2968 11.251L15.2782 8.58448L13.145 5.39936Z" stroke="#00934C" stroke-width="1.5" stroke-linecap="round" stroke-linejoin="round"/>
<path d="M7.85837 13.2499L11.15 11.0499L9.28337 8.2666L5.9917 10.4666C5.60836 10.7249 5.50837 11.2416 5.7667 11.6249L6.70836 13.0249C6.95836 13.3999 7.47504 13.4999 7.85837 13.2499Z" stroke="#00934C" stroke-width="1.5" stroke-linecap="round" stroke-linejoin="round"/>
<path d="M13.0417 10.1666L9.30005 18.3333" stroke="#00934C" stroke-width="1.5" stroke-linecap="round" stroke-linejoin="round"/>
<path d="M13 10.1666L16.7 18.3333" stroke="#00934C" stroke-width="1.5" stroke-linecap="round" stroke-linejoin="round"/>
</g>
</g>
<defs>
<filter id="filter0_d_1100_15175" x="0.873291" y="0.916748" width="24.5767" height="26.1667" filterUnits="userSpaceOnUse" color-interpolation-filters="sRGB">
<feFlood flood-opacity="0" result="BackgroundImageFix"/>
<feColorMatrix in="SourceAlpha" type="matrix" values="0 0 0 0 0 0 0 0 0 0 0 0 0 0 0 0 0 0 127 0" result="hardAlpha"/>
<feOffset dy="4"/>
<feGaussianBlur stdDeviation="2"/>
<feComposite in2="hardAlpha" operator="out"/>
<feColorMatrix type="matrix" values="0 0 0 0 0 0 0 0 0 0 0 0 0 0 0 0 0 0 0.25 0"/>
<feBlend mode="normal" in2="BackgroundImageFix" result="effect1_dropShadow_1100_15175"/>
<feBlend mode="normal" in="SourceGraphic" in2="effect1_dropShadow_1100_15175" result="shape"/>
</filter>
<filter id="filter1_d_1100_15175" x="0.873291" y="0.916748" width="24.5767" height="26.1667" filterUnits="userSpaceOnUse" color-interpolation-filters="sRGB">
<feFlood flood-opacity="0" result="BackgroundImageFix"/>
<feColorMatrix in="SourceAlpha" type="matrix" values="0 0 0 0 0 0 0 0 0 0 0 0 0 0 0 0 0 0 127 0" result="hardAlpha"/>
<feOffset dy="4"/>
<feGaussianBlur stdDeviation="2"/>
<feComposite in2="hardAlpha" operator="out"/>
<feColorMatrix type="matrix" values="0 0 0 0 0 0 0 0 0 0 0 0 0 0 0 0 0 0 0.25 0"/>
<feBlend mode="normal" in2="BackgroundImageFix" result="effect1_dropShadow_1100_15175"/>
<feBlend mode="normal" in="SourceGraphic" in2="effect1_dropShadow_1100_15175" result="shape"/>
</filter>
</defs>
</svg>
