<svg width="14" height="14" viewBox="0 0 14 14" fill="none" xmlns="http://www.w3.org/2000/svg">
<g id="fi_12328925" clip-path="url(#clip0_2099_1963)">
<g id="Layer 2">
<path id="Vector" d="M6.99976 11.5202C6.7229 11.5202 6.45231 11.5023 6.19425 11.4775C4.31779 11.2673 3.06226 10.4057 3.06226 9.33275C3.07039 9.11071 3.12487 8.89283 3.22219 8.69309C3.31951 8.49335 3.45752 8.31617 3.62736 8.17292C3.66937 8.13372 3.71868 8.10317 3.77249 8.08303C3.8263 8.06289 3.88355 8.05354 3.94097 8.05553C3.99839 8.05751 4.05486 8.07079 4.10715 8.09459C4.15944 8.1184 4.20653 8.15227 4.24573 8.19428C4.28493 8.23628 4.31547 8.2856 4.33561 8.33941C4.35575 8.39322 4.3651 8.45047 4.36312 8.50789C4.36113 8.56531 4.34786 8.62177 4.32405 8.67407C4.30024 8.72636 4.26637 8.77345 4.22437 8.81265C4.06391 8.94144 3.96074 9.12834 3.93726 9.33275C3.93726 9.83006 4.8151 10.4427 6.28426 10.6074C6.7626 10.6501 7.2438 10.6498 7.72209 10.6065C9.18441 10.4427 10.0623 9.83006 10.0623 9.33275C10.0388 9.12834 9.9356 8.94144 9.77515 8.81265C9.69031 8.73348 9.6404 8.62385 9.6364 8.50789C9.63239 8.39192 9.67461 8.27911 9.75378 8.19428C9.83295 8.10944 9.94258 8.05953 10.0585 8.05553C10.1745 8.05152 10.2873 8.09375 10.3722 8.17292C10.542 8.31617 10.68 8.49335 10.7773 8.69309C10.8746 8.89283 10.9291 9.11071 10.9373 9.33275C10.9373 10.4057 9.68172 11.2673 7.81209 11.4767C7.5472 11.5023 7.27661 11.5202 6.99976 11.5202Z" fill="#00934C"/>
<path id="Vector_2" d="M6.99972 13.2705C3.4832 13.2705 0.728882 11.541 0.728882 9.33301C0.760603 8.77735 0.932092 8.23869 1.22745 7.76697C1.52281 7.29524 1.93249 6.90572 2.4185 6.63451C2.46645 6.60286 2.52017 6.58097 2.57658 6.57009C2.633 6.5592 2.691 6.55954 2.74729 6.57107C2.80357 6.5826 2.85703 6.60511 2.90462 6.6373C2.95221 6.6695 2.99299 6.71075 3.02463 6.7587C3.05628 6.80666 3.07817 6.86038 3.08905 6.91679C3.09993 6.9732 3.0996 7.03121 3.08807 7.08749C3.07653 7.14378 3.05403 7.19724 3.02183 7.24483C2.98964 7.29242 2.94839 7.3332 2.90043 7.36484C2.53758 7.55906 2.22895 7.84079 2.00254 8.18449C1.77613 8.52818 1.6391 8.92295 1.60388 9.33301C1.60388 10.993 4.07507 12.3955 6.99972 12.3955C9.92436 12.3955 12.3955 10.993 12.3955 9.33301C12.3603 8.92295 12.2233 8.52818 11.9969 8.18449C11.7705 7.84079 11.4619 7.55906 11.099 7.36484C11.0021 7.30093 10.9347 7.20117 10.9114 7.08749C10.8881 6.97382 10.9109 6.85555 10.9748 6.7587C11.0387 6.66186 11.1385 6.59436 11.2521 6.57107C11.3658 6.54778 11.4841 6.5706 11.5809 6.63451C12.0669 6.90572 12.4766 7.29524 12.772 7.76697C13.0673 8.23869 13.2388 8.77735 13.2705 9.33301C13.2705 11.541 10.5162 13.2705 6.99972 13.2705Z" fill="#00934C"/>
<path id="Vector_3" d="M6.99972 9.77052C6.88422 9.77063 6.7734 9.72495 6.69153 9.64349C6.34973 9.30425 3.35388 6.27394 3.35388 4.37468C3.35388 3.40775 3.738 2.48042 4.42172 1.79669C5.10545 1.11296 6.03278 0.728851 6.99972 0.728851C7.96665 0.728851 8.89398 1.11296 9.57771 1.79669C10.2614 2.48042 10.6455 3.40775 10.6455 4.37468C10.6455 6.27394 7.6497 9.30425 7.3079 9.64349C7.22603 9.72495 7.11521 9.77063 6.99972 9.77052ZM6.99972 1.60385C6.2651 1.60469 5.56081 1.89688 5.04136 2.41633C4.52191 2.93578 4.22972 3.64007 4.22888 4.37468C4.22888 5.54164 6.01249 7.66448 6.99972 8.7061C7.98694 7.66448 9.77055 5.54164 9.77055 4.37468C9.76971 3.64007 9.47752 2.93578 8.95807 2.41633C8.43862 1.89688 7.73433 1.60469 6.99972 1.60385Z" fill="#00934C"/>
<path id="Vector_4" d="M6.99967 5.54134C7.64401 5.54134 8.16634 5.01901 8.16634 4.37467C8.16634 3.73034 7.64401 3.20801 6.99967 3.20801C6.35534 3.20801 5.83301 3.73034 5.83301 4.37467C5.83301 5.01901 6.35534 5.54134 6.99967 5.54134Z" fill="#00934C"/>
</g>
</g>
<defs>
<clipPath id="clip0_2099_1963">
<rect width="14" height="14" fill="white"/>
</clipPath>
</defs>
</svg>
