<svg width="20" height="20" viewBox="0 0 20 20" fill="none" xmlns="http://www.w3.org/2000/svg">
<g id="Iconly/Bold/Notification">
<g id="Notification">
<path id="Notification_2" fill-rule="evenodd" clip-rule="evenodd" d="M15.5896 7.3303C15.5896 8.3769 15.8662 8.99379 16.4749 9.70468C16.9362 10.2284 17.0837 10.9007 17.0837 11.63C17.0837 12.3586 16.8443 13.0501 16.3648 13.6116C15.737 14.2847 14.8516 14.7145 13.948 14.7892C12.6386 14.9008 11.3284 14.9948 10.0007 14.9948C8.67228 14.9948 7.36287 14.9386 6.05345 14.7892C5.14904 14.7145 4.26367 14.2847 3.63671 13.6116C3.15718 13.0501 2.91699 12.3586 2.91699 11.63C2.91699 10.9007 3.06524 10.2284 3.52573 9.70468C4.15352 8.99379 4.41193 8.3769 4.41193 7.3303V6.97527C4.41193 5.57364 4.76143 4.65712 5.48115 3.75991C6.55121 2.45143 8.26645 1.66669 9.96347 1.66669H10.038C11.7715 1.66669 13.5422 2.4892 14.594 3.85391C15.2765 4.73266 15.5896 5.61057 15.5896 6.97527V7.3303ZM7.56172 16.7174C7.56172 16.2977 7.94684 16.1055 8.30298 16.0233C8.71957 15.9352 11.2581 15.9352 11.6747 16.0233C12.0308 16.1055 12.4159 16.2977 12.4159 16.7174C12.3952 17.1169 12.1608 17.4711 11.837 17.696C11.4171 18.0233 10.9243 18.2306 10.4091 18.3053C10.1242 18.3423 9.84429 18.3431 9.56932 18.3053C9.05334 18.2306 8.56055 18.0233 8.14147 17.6952C7.81681 17.4711 7.58243 17.1169 7.56172 16.7174Z" fill="#A0ACC3"/>
</g>
</g>
</svg>
