<svg width="36" height="36" viewBox="0 0 36 36" fill="none" xmlns="http://www.w3.org/2000/svg">
<g id="fi_707681">
<g id="Group">
<g id="Group_2">
<path id="Vector" d="M27.1061 19.7467C27.0234 19.4921 26.8033 19.3067 26.5384 19.2683L21.0739 18.4757L18.6288 13.5249C18.5103 13.285 18.266 13.1331 17.9983 13.1331H17.9981C17.7305 13.1332 17.4861 13.2852 17.3677 13.5252L14.9253 18.4774L9.46123 19.2728C9.19643 19.3114 8.97642 19.497 8.89374 19.7515C8.81112 20.0061 8.8801 20.2855 9.07184 20.4723L13.0269 24.3255L12.0949 29.768C12.0497 30.0318 12.1582 30.2984 12.3748 30.4556C12.4972 30.5445 12.6422 30.5897 12.788 30.5897C12.9 30.5897 13.0124 30.563 13.1153 30.5089L18.0021 27.9381L22.8903 30.5062C23.1272 30.6307 23.4142 30.6099 23.6307 30.4525C23.8473 30.2951 23.9556 30.0285 23.9103 29.7647L22.9754 24.3227L26.9284 20.4675C27.12 20.2806 27.1889 20.0012 27.1061 19.7467ZM21.7289 23.5741C21.5633 23.7357 21.4877 23.9685 21.5269 24.1966L22.2832 28.5988L18.329 26.5213C18.1242 26.4137 17.8795 26.4138 17.6746 26.5215L13.7215 28.601L14.4754 24.1984C14.5145 23.9703 14.4388 23.7376 14.2731 23.5761L11.0736 20.4591L15.4937 19.8157C15.7228 19.7824 15.9207 19.6385 16.0231 19.4309L17.9988 15.4249L19.9767 19.4298C20.0792 19.6373 20.2772 19.7811 20.5062 19.8143L24.9266 20.4555L21.7289 23.5741Z" fill="white"/>
</g>
</g>
<g id="Group_3">
<g id="Group_4">
<path id="Vector_2" d="M9.80934 24.708C9.72651 24.4534 9.50651 24.268 9.24164 24.2296L6.69225 23.8599L5.55151 21.5501C5.43303 21.3102 5.18869 21.1583 4.92109 21.1583H4.92087C4.65327 21.1584 4.40886 21.3104 4.29045 21.5505L3.15097 23.8607L0.601867 24.2318C0.337071 24.2704 0.117064 24.456 0.0343764 24.7105C-0.0482407 24.9651 0.0207358 25.2445 0.212478 25.4313L2.05768 27.2289L1.62287 29.768C1.57766 30.0317 1.68615 30.2984 1.90272 30.4556C2.0252 30.5445 2.17018 30.5897 2.31594 30.5897C2.42795 30.5897 2.54031 30.563 2.64318 30.509L4.92305 29.3096L7.2035 30.5077C7.44045 30.6321 7.72753 30.6113 7.94395 30.454C8.16052 30.2966 8.26887 30.03 8.22352 29.7662L7.78744 27.2274L9.63166 25.4288C9.82319 25.2419 9.8921 24.9625 9.80934 24.708ZM6.54087 26.4787C6.37529 26.6403 6.29963 26.8731 6.33886 27.1012L6.59635 28.6002L5.24994 27.8928C5.04512 27.7852 4.80036 27.7853 4.59554 27.8929L3.24941 28.6011L3.50612 27.1018C3.54521 26.8737 3.46949 26.641 3.30376 26.4795L2.21434 25.4181L3.71945 25.199C3.94845 25.1657 4.14638 25.0218 4.24876 24.8142L4.92151 23.4502L5.59503 24.8139C5.69747 25.0214 5.89547 25.1652 6.12448 25.1985L7.62973 25.4167L6.54087 26.4787Z" fill="white"/>
</g>
</g>
<g id="Group_5">
<g id="Group_6">
<path id="Vector_3" d="M35.9656 24.7104C35.883 24.4559 35.663 24.2703 35.3981 24.2318L32.849 23.8606L31.7095 21.5504C31.5911 21.3103 31.3467 21.1583 31.0791 21.1583H31.0789C30.8113 21.1583 30.567 21.3101 30.4485 21.55L29.3077 23.8598L26.7584 24.2295C26.4936 24.2679 26.2735 24.4534 26.1907 24.7079C26.1079 24.9624 26.1767 25.2419 26.3683 25.4288L28.2126 27.2273L27.7765 29.7661C27.7312 30.0299 27.8395 30.2965 28.056 30.4539C28.2725 30.6113 28.5595 30.6322 28.7965 30.5076L31.0769 29.3096L33.3568 30.509C33.4597 30.563 33.572 30.5898 33.6841 30.5898C33.8297 30.5898 33.9748 30.5445 34.0973 30.4555C34.3139 30.2982 34.4224 30.0316 34.3772 29.7679L33.9424 27.2288L35.7875 25.4312C35.9792 25.2445 36.0482 24.965 35.9656 24.7104ZM32.6963 26.4794C32.5306 26.6409 32.4549 26.8737 32.4939 27.1018L32.7507 28.601L31.4045 27.8929C31.302 27.839 31.1897 27.8121 31.0772 27.8121C30.9648 27.8121 30.8524 27.839 30.7502 27.8927L29.4038 28.6001L29.6613 27.1011C29.7005 26.873 29.6248 26.6402 29.4593 26.4787L28.3704 25.4167L29.8757 25.1984C30.1047 25.1652 30.3027 25.0214 30.4051 24.8139L31.0786 23.4501L31.7514 24.8142C31.8538 25.0217 32.0517 25.1656 32.2807 25.199L33.7857 25.4181L32.6963 26.4794Z" fill="white"/>
</g>
</g>
<g id="Group_7">
<g id="Group_8">
<path id="Vector_4" d="M27.4972 12.3641C27.2225 12.0896 26.7774 12.0896 26.5028 12.3641L24.1825 14.6844C23.9079 14.9591 23.9079 15.4043 24.1825 15.6789C24.3198 15.8161 24.4996 15.8848 24.6796 15.8848C24.8596 15.8848 25.0396 15.8162 25.1769 15.6789L27.4972 13.3586C27.7718 13.0839 27.7718 12.6387 27.4972 12.3641Z" fill="white"/>
</g>
</g>
<g id="Group_9">
<g id="Group_10">
<path id="Vector_5" d="M29.1586 10.703C29.0271 10.5721 28.8464 10.4969 28.6608 10.4969C28.4759 10.4969 28.2945 10.5722 28.1637 10.703C28.0328 10.8337 27.9577 11.0152 27.9577 11.2001C27.9577 11.3856 28.0329 11.5664 28.1637 11.6971C28.2945 11.8286 28.4759 11.9032 28.6608 11.9032C28.8464 11.9032 29.0271 11.8287 29.1586 11.6971C29.2893 11.5664 29.3639 11.3857 29.3639 11.2001C29.3639 11.0152 29.2893 10.8337 29.1586 10.703Z" fill="white"/>
</g>
</g>
<g id="Group_11">
<g id="Group_12">
<path id="Vector_6" d="M7.83639 10.703C7.7049 10.5721 7.5242 10.4969 7.33858 10.4969C7.15365 10.4969 6.97295 10.5722 6.84147 10.703C6.71062 10.8337 6.63545 11.0152 6.63545 11.2001C6.63545 11.3856 6.71069 11.5664 6.84147 11.6971C6.97295 11.8286 7.15436 11.9032 7.33858 11.9032C7.52343 11.9032 7.7049 11.8287 7.83639 11.6971C7.96717 11.5664 8.0424 11.385 8.0424 11.2001C8.0424 11.0152 7.9671 10.8337 7.83639 10.703Z" fill="white"/>
</g>
</g>
<g id="Group_13">
<g id="Group_14">
<path id="Vector_7" d="M11.7229 14.5898L9.49731 12.3642C9.2226 12.0897 8.77752 12.0897 8.50288 12.3642C8.22831 12.6389 8.22831 13.0841 8.50288 13.3587L10.7285 15.5842C10.8658 15.7214 11.0457 15.7901 11.2257 15.7901C11.4056 15.7901 11.5855 15.7214 11.7229 15.5842C11.9975 15.3095 11.9975 14.8643 11.7229 14.5898Z" fill="white"/>
</g>
</g>
<g id="Group_15">
<g id="Group_16">
<path id="Vector_8" d="M18 5.41025C17.6117 5.41025 17.2968 5.72511 17.2968 6.11337V10.8855C17.2968 11.2737 17.6117 11.5886 18 11.5886C18.3883 11.5886 18.7031 11.2737 18.7031 10.8855V6.11337C18.7031 5.72511 18.3882 5.41025 18 5.41025Z" fill="white"/>
</g>
</g>
</g>
</svg>
