<svg width="20" height="20" viewBox="0 0 20 20" fill="none" xmlns="http://www.w3.org/2000/svg">
<g id="Iconly/Bold/Paper">
<g id="Paper">
<path id="Paper_2" fill-rule="evenodd" clip-rule="evenodd" d="M7.43844 13.6584H11.9269C12.2652 13.6584 12.5457 13.375 12.5457 13.0334C12.5457 12.6917 12.2652 12.4167 11.9269 12.4167H7.43844C7.10016 12.4167 6.81963 12.6917 6.81963 13.0334C6.81963 13.375 7.10016 13.6584 7.43844 13.6584ZM10.2272 8.25002H7.43844C7.10016 8.25002 6.81963 8.53335 6.81963 8.87502C6.81963 9.21669 7.10016 9.49169 7.43844 9.49169H10.2272C10.5655 9.49169 10.846 9.21669 10.846 8.87502C10.846 8.53335 10.5655 8.25002 10.2272 8.25002ZM16.1154 7.52136C16.3093 7.51912 16.5205 7.51669 16.7124 7.51669C16.9186 7.51669 17.0837 7.68335 17.0837 7.89169V14.5917C17.0837 16.6584 15.4252 18.3334 13.379 18.3334H6.81138C4.66617 18.3334 2.91699 16.575 2.91699 14.4084V5.42502C2.91699 3.35835 4.58366 1.66669 6.63811 1.66669H11.0441C11.2586 1.66669 11.4236 1.84169 11.4236 2.05002V4.73335C11.4236 6.25835 12.6695 7.50835 14.1794 7.51669C14.5321 7.51669 14.843 7.51932 15.1151 7.52163C15.3268 7.52342 15.5149 7.52502 15.681 7.52502C15.7985 7.52502 15.9507 7.52326 16.1154 7.52136ZM16.3429 6.30502C15.6647 6.30752 14.8652 6.30502 14.2901 6.29919C13.3776 6.29919 12.6259 5.54002 12.6259 4.61835V2.42169C12.6259 2.06252 13.0574 1.88419 13.3041 2.14335C13.7511 2.61279 14.3656 3.25826 14.977 3.90058C15.5856 4.5399 16.1913 5.1761 16.6259 5.63252C16.8668 5.88502 16.6903 6.30419 16.3429 6.30502Z" fill="#A0ACC3"/>
</g>
</g>
</svg>
