<svg width="14" height="15" viewBox="0 0 14 15" fill="none" xmlns="http://www.w3.org/2000/svg">
<g id="fi_1054056" clip-path="url(#clip0_2219_5622)">
<g id="Group">
<g id="Group_2">
<path id="Vector" d="M13.9991 0.711435C13.9941 0.644799 13.967 0.578326 13.9226 0.533674C13.8483 0.459053 13.7243 0.433049 13.626 0.473217L0.170516 5.9425C0.0737737 5.98182 0.00787544 6.07277 0.000656703 6.17695C-0.00656203 6.2811 0.046184 6.38028 0.13661 6.43256L2.52667 7.81464C2.52667 7.81464 4.56407 12.2151 4.56519 12.2175C4.64802 12.3964 4.90322 12.4273 5.02654 12.2737C5.02722 12.2728 5.02801 12.2721 5.02867 12.2713L6.65114 10.1997C6.65114 10.1997 9.21324 11.6813 9.2163 11.683C9.35316 11.7622 9.54317 11.7045 9.60642 11.5497C9.60642 11.5497 13.9804 0.834345 13.9822 0.829943C13.9969 0.79374 14.0022 0.75256 13.9991 0.711435ZM0.894085 6.23877L11.0012 2.13052L2.78679 7.33326L0.894085 6.23877ZM5.02134 8.85636C4.9803 8.8965 4.94896 8.95819 4.94136 9.01643L4.6647 11.1307L3.11114 7.77524L11.6773 2.34971C11.6773 2.34971 5.02476 8.85299 5.02134 8.85636ZM5.21786 11.1426L5.43812 9.49822L6.17292 9.92314L5.21786 11.1426ZM9.21854 11.0525L5.66138 8.99556L9.35756 5.38229L12.9777 1.84344L9.21854 11.0525Z" fill="#02190E"/>
</g>
</g>
<g id="Group_3">
<g id="Group_4">
<path id="Vector_2" d="M3.35212 11.1026C3.29937 11.0498 3.22907 11.0235 3.15877 11.0235C3.08844 11.0235 3.01811 11.0499 2.96542 11.1026C2.96542 11.1026 0.877401 13.1904 0.876799 13.191C0.773221 13.2945 0.770186 13.471 0.876799 13.5777C0.982346 13.6832 1.15822 13.683 1.26352 13.5777L3.35212 11.4892C3.45878 11.3826 3.45878 11.2092 3.35212 11.1026Z" fill="#02190E"/>
</g>
</g>
<g id="Group_5">
<g id="Group_6">
<path id="Vector_3" d="M0.296685 13.8842C0.149904 13.8842 0.0231934 14.0119 0.0231934 14.1577C0.0231934 14.304 0.146158 14.4311 0.296658 14.4311C0.445462 14.4311 0.570149 14.3062 0.570149 14.1577C0.570177 14.0133 0.441005 13.8842 0.296685 13.8842Z" fill="#02190E"/>
</g>
</g>
<g id="Group_7">
<g id="Group_8">
<path id="Vector_4" d="M7.1399 11.8546C7.08718 11.8018 7.01688 11.7755 6.94658 11.7755C6.87622 11.7755 6.80589 11.8019 6.7532 11.8546L5.39944 13.2082C5.2928 13.3149 5.2928 13.4882 5.39941 13.5949C5.50302 13.6985 5.68308 13.698 5.78614 13.5949L7.1399 12.2413C7.24656 12.1346 7.24656 11.9613 7.1399 11.8546Z" fill="#02190E"/>
</g>
</g>
<g id="Group_9">
<g id="Group_10">
<path id="Vector_5" d="M2.08037 8.62771C1.976 8.52334 1.79747 8.52389 1.69365 8.62771C1.69365 8.62771 0.920616 9.40042 0.91996 9.40107C0.814386 9.50662 0.814495 9.68252 0.91996 9.78798C0.971776 9.8398 1.04257 9.86548 1.11333 9.86542C1.18432 9.86537 1.25528 9.83945 1.30698 9.78801L2.08037 9.01438C2.18704 8.90774 2.18704 8.73438 2.08037 8.62771Z" fill="#02190E"/>
</g>
</g>
<g id="Group_11">
<g id="Group_12">
<path id="Vector_6" d="M4.81335 14.4544C4.96437 14.4544 5.08679 14.332 5.08679 14.181C5.08679 14.03 4.96437 13.9075 4.81335 13.9075C4.66234 13.9075 4.53992 14.03 4.53992 14.181C4.53992 14.332 4.66234 14.4544 4.81335 14.4544Z" fill="#02190E"/>
</g>
</g>
<g id="Group_13">
<g id="Group_14">
<path id="Vector_7" d="M0.328124 10.6534C0.47914 10.6534 0.601561 10.5309 0.601561 10.3799C0.601561 10.2289 0.47914 10.1065 0.328124 10.1065C0.177109 10.1065 0.0546875 10.2289 0.0546875 10.3799C0.0546875 10.5309 0.177109 10.6534 0.328124 10.6534Z" fill="#02190E"/>
</g>
</g>
</g>
<defs>
<clipPath id="clip0_2219_5622">
<rect width="14" height="14" fill="white" transform="translate(0 0.454407)"/>
</clipPath>
</defs>
</svg>
