<svg width="14" height="15" viewBox="0 0 14 15" fill="none" xmlns="http://www.w3.org/2000/svg">
<g id="fi_7480410" clip-path="url(#clip0_1993_16112)">
<g id="Group">
<g id="Layer_2_00000023981117888505042570000006789484858209100955_">
<g id="Layer_1-2_00000144296235322836033260000018362511967443007140_">
<path id="package_tracking" d="M13.8109 11.1812H11.046V7.99058C11.0468 7.90678 10.9982 7.83037 10.9219 7.79569L7.8187 6.41479C8.17506 5.90095 8.49645 5.36371 8.78067 4.80674H12.1159C12.936 4.82349 13.5872 5.5019 13.5705 6.32196C13.5542 7.11843 12.9124 7.76019 12.1159 7.77648C11.5462 7.67905 11.5462 8.3034 12.1159 8.20471C13.1725 8.18569 14.0136 7.31373 13.9946 6.25715C13.976 5.22739 13.1457 4.39706 12.1159 4.37851H8.97556C11.2204 -0.834777 2.81333 -0.828592 5.0575 4.37851H0.727998L1.21704 3.89256C1.41253 3.70265 1.1134 3.40225 0.917277 3.5897L0.0657935 4.44304C-0.0168589 4.52709 -0.0168589 4.66188 0.0657935 4.7459L0.917305 5.59429C1.10784 5.79414 1.41382 5.48071 1.21707 5.29267L0.727998 4.80674H5.25176C5.53226 5.36284 5.85253 5.89797 6.21001 6.40798L3.09259 7.8013C3.01427 7.87432 2.973 7.97873 2.98025 8.08555C2.96596 8.72047 2.98769 11.1198 2.98025 11.1813H1.9134C1.09077 11.1813 0.423881 10.5144 0.423881 9.69174C0.423881 8.86911 1.09077 8.20222 1.9134 8.20222C2.48253 8.30277 2.48499 7.67656 1.9134 7.77399C0.856656 7.77399 0 8.63064 0 9.68739C0 10.7441 0.856656 11.6008 1.9134 11.6008H2.97902C2.97902 11.7187 2.97902 12.1997 2.98211 12.4939C2.98646 12.5907 3.01873 12.6919 3.10622 12.7167C3.10622 12.7167 6.92745 14.4191 6.93675 14.4259C6.99053 14.4441 7.04913 14.4417 7.10121 14.4191L10.9218 12.7167C11.0379 12.6621 11.0528 12.5535 11.0528 12.4349C11.049 12.1401 11.0397 11.7299 11.0478 11.6008H13.8127C13.9285 11.5877 14.0117 11.4832 13.9986 11.3673C13.9875 11.2689 13.9094 11.1915 13.8109 11.1812ZM7.01686 9.46582L5.5168 8.7974L8.81668 7.32216L10.3136 7.99058L7.01686 9.46582ZM5.07861 2.78288C5.325 -0.778919 12.0973 0.601376 7.01683 6.79278C6.51599 6.14357 5.07861 4.13274 5.07861 2.78288ZM6.84679 7.27189C7.18318 7.51456 7.21481 7.16266 7.56611 6.76793L8.29411 7.08942L4.99609 8.56466C4.67957 8.4213 4.02542 8.13021 3.71013 7.99058L6.45953 6.76793C6.67363 7.05776 6.82506 7.24707 6.84679 7.27189ZM3.40416 12.3871V8.31826C4.24201 8.69064 5.97172 9.46582 6.79964 9.83819V13.9046L3.40416 12.3871ZM10.624 12.3871L7.22538 13.9064V9.83819L10.624 8.31826V12.3871ZM8.21529 2.80149C8.21529 2.13721 7.67679 1.59871 7.01251 1.59871C6.34822 1.59871 5.80972 2.13721 5.80972 2.80149C5.80972 3.46577 6.34822 4.00427 7.01251 4.00427C7.67679 4.00427 8.21529 3.46577 8.21529 2.80149ZM7.01686 3.58349C6.58685 3.57133 6.24811 3.21292 6.26026 2.78293C6.27192 2.37 6.60392 2.038 7.01686 2.02634C7.44687 2.03849 7.78561 2.3969 7.77346 2.82689C7.7618 3.23982 7.42976 3.57183 7.01686 3.58349Z" fill="#02190E"/>
</g>
</g>
</g>
</g>
<defs>
<clipPath id="clip0_1993_16112">
<rect width="14" height="14" fill="white" transform="translate(0 0.454407)"/>
</clipPath>
</defs>
</svg>
