<svg width="36" height="36" viewBox="0 0 36 36" fill="none" xmlns="http://www.w3.org/2000/svg">
<g id="fi_415654" clip-path="url(#clip0_2046_20240)">
<g id="Group">
<g id="Group_2">
<path id="Vector" d="M28.3988 16.6874C26.457 16.3493 24.306 16.8462 22.178 18.1244C21.8251 18.3364 21.5008 18.5528 21.2091 18.7616C20.6057 18.0463 19.9418 17.3237 19.2326 16.6145C18.4591 15.8409 17.6697 15.1214 16.8911 14.4755C17.1399 14.0723 17.3914 13.6284 17.6287 13.1523C19.0972 10.2053 19.293 7.43321 18.1952 5.13603C18.0592 4.85141 17.7183 4.73096 17.4336 4.86702C17.1491 5.00293 17.0286 5.34395 17.1646 5.6285C18.5355 8.49711 17.2518 11.6605 15.9855 13.7545C15.2371 13.1837 14.5087 12.6905 13.8258 12.2974C11.9144 11.1977 10.5885 10.9966 9.88481 11.7001C9.86344 11.7215 9.84291 11.7435 9.82322 11.7661C9.75122 11.8247 9.69342 11.9009 9.65651 11.9893L9.60089 12.1227C9.59442 12.1379 9.58781 12.1529 9.58184 12.1685L6.90743 18.5863C6.90736 18.5865 6.90722 18.5867 6.90715 18.587L6.90005 18.604L3.67081 26.3532C3.67074 26.3533 3.67067 26.3535 3.67059 26.3537L2.09046 30.1453C2.09032 30.1456 2.09018 30.1461 2.09004 30.1465L0.0439464 35.0563C-0.0450692 35.2699 0.00365738 35.5161 0.167275 35.6798C0.27654 35.7891 0.422579 35.847 0.57122 35.847C0.645259 35.847 0.71979 35.8326 0.790735 35.803L7.10599 33.1714C7.1067 33.1711 7.10733 33.1709 7.10796 33.1707L12.1196 31.0821C12.1198 31.0821 12.1198 31.0821 12.1199 31.082L17.4236 28.8718C17.4246 28.8714 17.4258 28.8711 17.4268 28.8707L23.2338 26.4508C23.2341 26.4506 23.2344 26.4504 23.2348 26.4502L23.8578 26.1906C23.9487 26.1527 24.0265 26.0923 24.0858 26.0172C24.1062 25.9991 24.1274 25.9818 24.1469 25.9622C24.8505 25.2586 24.6496 23.9327 23.5496 22.0213C23.1203 21.2751 22.5721 20.475 21.9326 19.6536C23.4068 18.6107 25.7479 17.3848 28.2028 17.8125C28.5137 17.8668 28.8093 17.6586 28.8634 17.3479C28.9176 17.0373 28.7096 16.7415 28.3988 16.6874ZM1.63188 34.2152L2.88774 31.2016C3.74463 31.7185 4.60934 32.1905 5.47334 32.6144L1.63188 34.2152ZM11.8846 29.9428C10.4884 29.4462 9.07524 28.8116 7.68066 28.0519C7.4037 27.901 7.05685 28.0031 6.90595 28.2802C6.75506 28.5571 6.85723 28.904 7.13426 29.0549C8.19963 29.6353 9.27668 30.1467 10.3504 30.5821L6.89541 32.0219C5.70832 31.4887 4.51245 30.8556 3.3319 30.1357L4.4562 27.4377C4.67895 27.5855 4.90205 27.7302 5.12367 27.8706C5.39009 28.0393 5.74299 27.9602 5.91181 27.6938C6.08056 27.4273 6.00145 27.0744 5.73497 26.9056C5.45906 26.7309 5.18098 26.5489 4.90416 26.363L6.05117 23.6104C9.1549 25.856 12.3091 27.4801 15.4562 28.4545L11.8846 29.9428ZM17.1597 27.7444C13.6119 26.8677 10.0318 25.1153 6.5089 22.5316L7.67166 19.7249C9.7624 21.3618 11.9038 22.7293 14.0464 23.7951C14.3288 23.9357 14.6715 23.8206 14.812 23.5382C14.9525 23.2558 14.8375 22.913 14.5551 22.7725C12.3967 21.6987 10.2359 20.3052 8.12686 18.6285L9.8742 14.4355C9.91765 14.5388 9.96476 14.6443 10.0154 14.7522C10.0166 14.7548 10.0178 14.7573 10.0189 14.7598C10.041 14.8068 10.064 14.8543 10.0875 14.9023C10.092 14.9117 10.0965 14.9209 10.1011 14.9304C10.1218 14.9724 10.1433 15.0149 10.1651 15.0575C10.1727 15.0727 10.1801 15.0876 10.188 15.1027C10.208 15.1416 10.2289 15.1809 10.2497 15.2204C10.2597 15.2392 10.2693 15.2578 10.2794 15.2766C10.3012 15.3173 10.3238 15.3585 10.3464 15.3997C10.356 15.4171 10.3652 15.4344 10.375 15.4519C10.4045 15.505 10.4349 15.5588 10.4659 15.6129C10.4689 15.6182 10.4717 15.6234 10.4748 15.6287C10.4772 15.6328 10.4794 15.6369 10.4818 15.641C10.4874 15.6507 10.4936 15.6606 10.4991 15.6702C10.5264 15.7172 10.5536 15.7643 10.582 15.8121C10.5944 15.833 10.6078 15.8543 10.6204 15.8753C10.655 15.933 10.6903 15.9909 10.7262 16.0493C10.7531 16.093 10.7803 16.1368 10.8079 16.1808C10.8477 16.2441 10.8883 16.3077 10.9297 16.3717C10.9546 16.4104 10.9799 16.4491 11.0055 16.4881C11.0516 16.5582 11.0985 16.6288 11.1463 16.6997C11.1682 16.7321 11.1904 16.7647 11.2127 16.7973C11.2658 16.8751 11.3197 16.953 11.3747 17.0314C11.3928 17.057 11.411 17.0827 11.4292 17.1084C11.49 17.1938 11.5514 17.2794 11.6144 17.3656C11.628 17.3843 11.6419 17.403 11.6556 17.4217C11.7236 17.5143 11.7925 17.6072 11.863 17.7006C11.8725 17.7133 11.8824 17.7261 11.8921 17.7389C11.9668 17.8375 12.0428 17.9364 12.1203 18.0357C12.1267 18.0438 12.1331 18.0519 12.1395 18.06C12.2204 18.1634 12.3026 18.2671 12.3863 18.3711C12.39 18.3756 12.3937 18.3802 12.3973 18.3847C12.4834 18.4915 12.5708 18.5986 12.6599 18.7059C12.6626 18.7091 12.6653 18.7123 12.668 18.7155C12.7579 18.8237 12.8489 18.932 12.9416 19.0406C12.9446 19.0442 12.9478 19.0478 12.9508 19.0514C13.0429 19.1592 13.1361 19.2671 13.2308 19.3751C13.2365 19.3815 13.2422 19.3879 13.2479 19.3942C13.3402 19.4992 13.4333 19.6042 13.5279 19.7092C13.5392 19.7218 13.5509 19.7343 13.5622 19.747C13.6515 19.8458 13.7414 19.9445 13.8327 20.0432C13.8544 20.0665 13.8765 20.0899 13.8983 20.1132C13.9804 20.2015 14.0628 20.2899 14.1465 20.378C14.1829 20.4162 14.2199 20.4542 14.2565 20.4924C14.327 20.566 14.3973 20.6398 14.4688 20.7132C14.5439 20.7903 14.6201 20.8668 14.6962 20.9436C14.7307 20.9784 14.7644 21.0132 14.7991 21.0479C14.8321 21.0809 14.8653 21.1131 14.8984 21.1459C14.9768 21.2237 15.0552 21.3017 15.134 21.3784C15.2066 21.4491 15.2793 21.5186 15.3521 21.5882C15.3911 21.6257 15.43 21.6635 15.469 21.7007C15.5582 21.7853 15.6475 21.8687 15.7369 21.9518C15.7591 21.9725 15.7813 21.9936 15.8036 22.0141C15.9028 22.106 16.0021 22.1964 16.1014 22.2861C16.1135 22.2971 16.1256 22.3082 16.1378 22.3192C16.2431 22.4141 16.3484 22.5076 16.4537 22.6002C16.4597 22.6055 16.4658 22.6109 16.4718 22.6162C16.5803 22.7115 16.6887 22.8051 16.797 22.8977C16.8 22.9003 16.8031 22.9029 16.806 22.9054C16.9156 22.999 17.0251 23.091 17.1345 23.1817C17.1364 23.1834 17.1383 23.185 17.1402 23.1866C17.2485 23.2765 17.3565 23.3646 17.4642 23.4515C17.4679 23.4545 17.4715 23.4574 17.4752 23.4605C17.5801 23.5449 17.6847 23.6277 17.7889 23.7094C17.7961 23.715 17.8033 23.7207 17.8104 23.7264C17.9105 23.8045 18.0102 23.8809 18.1095 23.9564C18.1216 23.9655 18.1337 23.9748 18.1457 23.9839C18.2396 24.0548 18.3331 24.1243 18.4264 24.1926C18.4445 24.206 18.4627 24.2193 18.4807 24.2325C18.5674 24.2957 18.6536 24.3575 18.7395 24.4185C18.7647 24.4363 18.7899 24.4543 18.815 24.4718C18.8246 24.4786 18.8343 24.4855 18.844 24.4923C18.0557 24.2522 17.2613 23.9685 16.4632 23.6399C16.1714 23.5197 15.8377 23.6588 15.7177 23.9505C15.5976 24.2421 15.7366 24.5758 16.0282 24.6959C17.6704 25.3723 19.3014 25.8707 20.8998 26.1858L17.1597 27.7444ZM22.5597 22.5911C23.5614 24.332 23.4622 25.0319 23.3394 25.1547C23.3331 25.161 23.3249 25.1672 23.3156 25.1732C23.3156 25.1732 23.3155 25.1733 23.3154 25.1733C23.3099 25.1769 23.3037 25.1803 23.2972 25.1836C23.2961 25.1842 23.295 25.1848 23.2938 25.1854C23.2882 25.1881 23.282 25.1907 23.2758 25.1933C23.2736 25.1942 23.2715 25.1951 23.2692 25.196C23.2622 25.1987 23.2547 25.2011 23.247 25.2035C23.2455 25.204 23.244 25.2045 23.2424 25.205C22.9646 25.2861 22.1922 25.1923 20.7605 24.3662C20.6933 24.3273 20.625 24.2866 20.5568 24.2457C20.5002 24.2118 20.4434 24.1772 20.3863 24.1419C20.3478 24.1182 20.3092 24.0941 20.2705 24.0698C20.2063 24.0294 20.1417 23.9883 20.0768 23.9462C20.0452 23.9258 20.0135 23.905 19.9816 23.8842C19.9091 23.8365 19.8361 23.788 19.7627 23.7383C19.7387 23.7221 19.7146 23.7056 19.6905 23.6891C19.6093 23.6336 19.5278 23.5772 19.4456 23.5194C19.4293 23.5078 19.4129 23.4962 19.3966 23.4846C19.3073 23.4212 19.2174 23.3567 19.127 23.2907C19.1179 23.284 19.1088 23.2772 19.0996 23.2705C19.0027 23.1995 18.9053 23.127 18.8075 23.0529C18.8047 23.0508 18.802 23.0486 18.7992 23.0466C18.1744 22.5729 17.5326 22.0398 16.891 21.461C16.886 21.4565 16.881 21.4518 16.8761 21.4473C16.7744 21.3554 16.6727 21.2626 16.5711 21.1685C16.5552 21.1537 16.5392 21.1385 16.5233 21.1237C16.4323 21.0391 16.3413 20.954 16.2505 20.8677C16.2174 20.8362 16.1843 20.804 16.1512 20.7722C16.077 20.7011 16.0026 20.63 15.9285 20.5578C15.8579 20.4889 15.7874 20.4188 15.7169 20.3489C15.6802 20.3125 15.6433 20.2767 15.6067 20.2401C15.5694 20.2028 15.5332 20.1655 15.4962 20.1281C15.4269 20.0582 15.3574 19.9884 15.2891 19.9183C15.2165 19.8437 15.145 19.769 15.0735 19.6942C15.0422 19.6615 15.0103 19.629 14.9793 19.5963C14.8933 19.5058 14.8086 19.4152 14.7243 19.3245C14.709 19.3081 14.6935 19.2918 14.6784 19.2755C14.5847 19.1743 14.4922 19.073 14.4008 18.9718C14.3959 18.9664 14.3908 18.9609 14.3859 18.9555C13.8073 18.314 13.2744 17.6723 12.8007 17.0476C12.7986 17.0447 12.7963 17.0418 12.7942 17.039C12.7202 16.9414 12.6479 16.8442 12.5769 16.7474C12.57 16.7381 12.5632 16.7287 12.5563 16.7195C12.4904 16.6293 12.426 16.5397 12.3628 16.4504C12.351 16.4339 12.3392 16.4173 12.3276 16.4009C12.27 16.3191 12.2138 16.2377 12.1584 16.1568C12.1418 16.1324 12.1251 16.1081 12.1087 16.0838C12.0592 16.0106 12.0109 15.9379 11.9634 15.8656C11.9424 15.8336 11.9214 15.8016 11.9009 15.7698C11.859 15.7051 11.8181 15.6408 11.7778 15.5769C11.7533 15.5379 11.7291 15.499 11.7052 15.4603C11.67 15.4033 11.6356 15.3467 11.6018 15.2904C11.5608 15.2219 11.5199 15.1536 11.4809 15.0861C10.6544 13.6538 10.561 12.8814 10.6424 12.6039C10.6426 12.6033 10.6428 12.6028 10.643 12.6022C10.6457 12.5933 10.6485 12.585 10.6514 12.5772C10.6521 12.5755 10.6528 12.574 10.6534 12.5724C10.6561 12.5654 10.659 12.5588 10.662 12.5527C10.6623 12.552 10.6628 12.5513 10.6631 12.5506C10.6666 12.5438 10.6701 12.5374 10.6739 12.5316C10.6739 12.5314 10.674 12.5313 10.6741 12.5311C10.68 12.5219 10.6861 12.5138 10.6924 12.5075C10.7312 12.4686 10.8279 12.4322 10.9971 12.4322C11.3625 12.4322 12.0662 12.6024 13.2559 13.2872C13.9187 13.6686 14.6289 14.1515 15.3607 14.7136C14.7651 15.5658 14.2873 16.0901 14.2672 16.1119C14.0524 16.3429 14.0656 16.7042 14.2966 16.919C14.4066 17.0212 14.5462 17.0719 14.6854 17.0719C14.8385 17.0719 14.9913 17.0106 15.1038 16.8895C15.1383 16.8526 15.634 16.3151 16.2573 15.4337C16.9768 16.0358 17.7069 16.7039 18.425 17.4221C19.1005 18.0976 19.7322 18.7838 20.3061 19.4616C19.8365 19.8557 19.5643 20.1352 19.5427 20.1575C19.3237 20.3842 19.33 20.7453 19.5566 20.9645C19.6675 21.0717 19.8105 21.125 19.9536 21.125C20.1028 21.125 20.2519 21.0669 20.3639 20.9514C20.3732 20.9419 20.6123 20.6989 21.0284 20.3503C21.6356 21.1302 22.1548 21.8873 22.5597 22.5911Z" fill="white"/>
</g>
</g>
<g id="Group_3">
<g id="Group_4">
<path id="Vector_2" d="M23.6746 8.1886C23.3641 8.14156 23.0722 8.35468 23.0236 8.66574C23.0188 8.69696 22.4987 11.8271 19.3192 15.0066C19.0962 15.2297 19.0962 15.5912 19.3192 15.8143C19.4307 15.9257 19.5768 15.9815 19.723 15.9815C19.8691 15.9815 20.0154 15.9257 20.1268 15.8143C23.5889 12.3521 24.1314 8.97934 24.1528 8.83745C24.1997 8.52617 23.9858 8.23627 23.6746 8.1886Z" fill="white"/>
</g>
</g>
<g id="Group_5">
<g id="Group_6">
<path id="Vector_3" d="M14.8847 3.89658C14.8847 3.26257 14.6378 2.66653 14.1895 2.21829C13.7412 1.76991 13.1451 1.52304 12.5111 1.52304C11.8771 1.52304 11.2811 1.76991 10.8328 2.21815C10.3845 2.66639 10.1375 3.2625 10.1375 3.89651C10.1375 4.53052 10.3845 5.12656 10.8328 5.5748C11.2811 6.02311 11.8771 6.26998 12.5111 6.26998C13.1451 6.26998 13.7412 6.02311 14.1895 5.5748C14.6378 5.12656 14.8847 4.53059 14.8847 3.89658ZM13.3819 4.76733C13.1494 4.99985 12.8402 5.12796 12.5112 5.12796C12.1823 5.12796 11.8731 4.99985 11.6405 4.76733C11.4079 4.53481 11.2799 4.22564 11.2799 3.89665C11.2798 3.56773 11.408 3.25849 11.6405 3.0259C11.873 2.79338 12.1823 2.66534 12.5112 2.66534C12.84 2.66534 13.1493 2.79345 13.3819 3.02597C13.6145 3.25849 13.7426 3.56766 13.7426 3.89665C13.7426 4.22557 13.6145 4.53481 13.3819 4.76733Z" fill="white"/>
</g>
</g>
<g id="Group_7">
<g id="Group_8">
<path id="Vector_4" d="M25.2664 2.2183C24.3409 1.29292 22.8351 1.29292 21.9097 2.2183C21.4615 2.66654 21.2145 3.26265 21.2145 3.89666C21.2145 4.53067 21.4614 5.1267 21.9097 5.57502C22.3724 6.03767 22.9802 6.269 23.5881 6.269C24.1959 6.269 24.8036 6.03767 25.2664 5.57502C25.7147 5.12678 25.9617 4.53067 25.9617 3.89666C25.9617 3.26265 25.7146 2.66654 25.2664 2.2183ZM24.4587 4.76734C23.9786 5.24757 23.1974 5.24743 22.7173 4.76734C22.4848 4.53481 22.3567 4.22565 22.3567 3.89666C22.3567 3.56767 22.4848 3.2585 22.7173 3.02598C22.9574 2.78586 23.2727 2.66591 23.588 2.66591C23.9034 2.66591 24.2186 2.786 24.4588 3.02598C24.6913 3.2585 24.8194 3.56767 24.8194 3.89666C24.8193 4.22558 24.6912 4.53481 24.4587 4.76734Z" fill="white"/>
</g>
</g>
<g id="Group_9">
<g id="Group_10">
<path id="Vector_5" d="M31.9816 23.2276C31.0562 22.3023 29.5504 22.3023 28.625 23.2276C27.6995 24.153 27.6995 25.6589 28.625 26.5843C29.0877 27.047 29.6955 27.2783 30.3033 27.2783C30.9112 27.2783 31.519 27.047 31.9817 26.5843C32.9071 25.6589 32.9071 24.153 31.9816 23.2276ZM31.174 25.7766C30.6939 26.2569 29.9127 26.2569 29.4326 25.7766C28.9525 25.2965 28.9525 24.5154 29.4326 24.0353C29.6726 23.7952 29.988 23.6753 30.3033 23.6753C30.6187 23.6753 30.934 23.7953 31.1741 24.0353C31.6541 24.5154 31.6541 25.2965 31.174 25.7766Z" fill="white"/>
</g>
</g>
<g id="Group_11">
<g id="Group_12">
<path id="Vector_6" d="M31.86 10.051C31.8222 9.73799 31.538 9.51467 31.2246 9.55271C31.1025 9.56741 28.1936 9.95553 24.6 13.5491C24.377 13.7722 24.377 14.1337 24.6 14.3567C24.7115 14.4682 24.8577 14.5239 25.0038 14.5239C25.1499 14.5239 25.2961 14.4682 25.4076 14.3567C27.1275 12.6368 28.6568 11.7302 29.6369 11.2724C30.6912 10.78 31.3524 10.6878 31.3644 10.6862C31.6761 10.647 31.8978 10.3633 31.86 10.051Z" fill="white"/>
</g>
</g>
<g id="Group_13">
<g id="Group_14">
<path id="Vector_7" d="M33.0832 2.47767L32.1271 2.04919C31.8589 1.92896 31.6448 1.71485 31.5245 1.44647L31.096 0.490433C31.0039 0.28505 30.7998 0.152863 30.5748 0.152863C30.3498 0.152863 30.1457 0.28498 30.0537 0.490433L29.6252 1.44654C29.505 1.71485 29.2909 1.92889 29.0225 2.04919L28.0665 2.47767C27.8611 2.56964 27.7289 2.77383 27.7289 2.99883C27.7289 3.22383 27.8612 3.42802 28.0666 3.51999L29.0227 3.94847C29.291 4.06878 29.5051 4.28281 29.6253 4.55119L30.0538 5.50723C30.1458 5.71261 30.35 5.8448 30.575 5.8448C30.8 5.8448 31.0041 5.71268 31.0961 5.50723L31.5245 4.55119C31.6448 4.28288 31.8588 4.06871 32.1272 3.94847L33.0832 3.51999C33.2886 3.42802 33.4208 3.22383 33.4208 2.99883C33.4208 2.77383 33.2886 2.56964 33.0832 2.47767ZM30.575 3.89939C30.3638 3.52132 30.0525 3.20991 29.6745 2.99883C30.0525 2.78775 30.3639 2.47627 30.575 2.09827C30.7861 2.47634 31.0975 2.78775 31.4755 2.99883C31.0975 3.20991 30.7861 3.52132 30.575 3.89939Z" fill="white"/>
</g>
</g>
<g id="Group_15">
<g id="Group_16">
<path id="Vector_8" d="M7.64079 10.2397L6.68468 9.81118C6.41644 9.69095 6.20234 9.47685 6.08203 9.20846L5.65355 8.25243C5.56151 8.04704 5.35739 7.91486 5.13239 7.91486C4.90732 7.91486 4.70327 8.04697 4.61123 8.25243L4.18275 9.20846C4.06244 9.47678 3.84848 9.69095 3.5801 9.81118L2.62406 10.2397C2.41868 10.3316 2.28649 10.5358 2.28649 10.7608C2.28649 10.9859 2.41868 11.19 2.62406 11.282L3.58017 11.7105C3.84841 11.8307 4.06251 12.0447 4.18282 12.3131L4.6113 13.2692C4.70334 13.4746 4.90746 13.6068 5.13246 13.6068C5.35753 13.6068 5.56158 13.4747 5.65362 13.2692L6.08203 12.3131C6.20234 12.0448 6.41637 11.8307 6.68475 11.7105L7.64079 11.282C7.84617 11.19 7.97836 10.9858 7.97836 10.7608C7.97836 10.5358 7.84617 10.3316 7.64079 10.2397ZM5.13246 11.6614C4.92131 11.2834 4.6099 10.972 4.23197 10.7609C4.60997 10.5497 4.92138 10.2383 5.13246 9.86033C5.34361 10.2384 5.65495 10.5498 6.03295 10.7609C5.65509 10.9719 5.34361 11.2833 5.13246 11.6614Z" fill="white"/>
</g>
</g>
<g id="Group_17">
<g id="Group_18">
<path id="Vector_9" d="M23.6315 31.2609L22.6754 30.8325C22.4071 30.7122 22.193 30.4981 22.0727 30.2297L21.6442 29.2737C21.5522 29.0683 21.3481 28.9361 21.1231 28.9361C20.8981 28.9361 20.694 29.0682 20.6019 29.2737L20.1734 30.2297C20.0531 30.498 19.8392 30.7122 19.5708 30.8325L18.6147 31.2609C18.4094 31.3529 18.2772 31.5571 18.2772 31.7821C18.2772 32.0071 18.4094 32.2113 18.6147 32.3033L19.5708 32.7317C19.8391 32.852 20.0532 33.0661 20.1735 33.3345L20.602 34.2905C20.694 34.4959 20.8981 34.6281 21.1231 34.6281C21.3481 34.6281 21.5523 34.4959 21.6443 34.2905L22.0728 33.3345C22.1931 33.0661 22.407 32.852 22.6754 32.7317L23.6315 32.3033C23.8368 32.2113 23.969 32.0071 23.969 31.7821C23.969 31.5571 23.8368 31.3529 23.6315 31.2609ZM21.1232 32.6827C20.9121 32.3046 20.6007 31.9932 20.2227 31.7821C20.6007 31.571 20.9121 31.2596 21.1232 30.8815C21.3344 31.2596 21.6457 31.571 22.0237 31.7821C21.6457 31.9932 21.3344 32.3046 21.1232 32.6827Z" fill="white"/>
</g>
</g>
<g id="Group_19">
<g id="Group_20">
<path id="Vector_10" d="M35.6625 14.7383L34.7064 14.3098C34.4381 14.1895 34.224 13.9755 34.1037 13.7071L33.6753 12.751C33.5832 12.5456 33.3791 12.4135 33.1541 12.4135C32.9291 12.4135 32.725 12.5456 32.6329 12.751L32.2045 13.7071C32.0842 13.9754 31.8702 14.1894 31.6018 14.3098L30.6458 14.7383C30.4404 14.8302 30.3082 15.0344 30.3082 15.2594C30.3082 15.4844 30.4404 15.6886 30.6458 15.7806L31.6017 16.2091C31.8701 16.3294 32.0842 16.5435 32.2045 16.8118L32.6329 17.7678C32.725 17.9732 32.9291 18.1054 33.1541 18.1054C33.3791 18.1054 33.5832 17.9733 33.6753 17.7678L34.1037 16.8118C34.224 16.5435 34.438 16.3294 34.7064 16.2091L35.6624 15.7806C35.8678 15.6886 36 15.4844 36 15.2594C36.0001 15.0344 35.8679 14.8302 35.6625 14.7383ZM33.1543 16.16C32.9432 15.782 32.6318 15.4706 32.2538 15.2594C32.6318 15.0483 32.9432 14.737 33.1543 14.3589C33.3655 14.7369 33.6769 15.0483 34.0549 15.2594C33.6768 15.4706 33.3655 15.782 33.1543 16.16Z" fill="white"/>
</g>
</g>
</g>
<defs>
<clipPath id="clip0_2046_20240">
<rect width="36" height="36" fill="white"/>
</clipPath>
</defs>
</svg>
