<svg width="13" height="12" viewBox="0 0 13 12" fill="none" xmlns="http://www.w3.org/2000/svg">
<g id="fi_482541" clip-path="url(#clip0_1993_17012)">
<g id="Group">
<g id="Group_2">
<g id="Group_3">
<path id="Vector" d="M11.9538 6.05082V4.36424C11.9538 3.79234 11.5102 3.32724 10.9497 3.28214L9.38342 0.546384C9.23827 0.293366 9.00389 0.112525 8.72344 0.0374321C8.44432 -0.0371492 8.15243 0.00202069 7.90261 0.147425L2.53331 3.27334H1.59029C0.988654 3.27334 0.49939 3.76258 0.49939 4.36424V10.9096C0.49939 11.5112 0.988629 12.0005 1.59029 12.0005H10.8629C11.4645 12.0005 11.9538 11.5113 11.9538 10.9096V9.22301C12.2705 9.11006 12.4992 8.81017 12.4992 8.45509V6.81875C12.4992 6.46366 12.2705 6.16378 11.9538 6.05082ZM10.3159 3.27334H7.93884L9.72166 2.23539L10.3159 3.27334ZM9.45066 1.76206L6.85479 3.27334H5.77806L9.18143 1.29184L9.45066 1.76206ZM8.17718 0.618818C8.3005 0.54664 8.44457 0.527464 8.58228 0.564231C8.72157 0.601508 8.8377 0.691532 8.90988 0.817505L8.91044 0.818502L4.69406 3.27334H3.61738L8.17718 0.618818ZM11.4083 10.9096C11.4083 11.2103 11.1636 11.455 10.8629 11.455H1.59029C1.28961 11.455 1.04485 11.2103 1.04485 10.9096V4.36424C1.04485 4.06356 1.28961 3.8188 1.59029 3.8188H10.8629C11.1636 3.8188 11.4083 4.06356 11.4083 4.36424V6.00058H9.77197C8.86964 6.00058 8.13564 6.73458 8.13564 7.63692C8.13564 8.53926 8.86964 9.27326 9.77197 9.27326H11.4083V10.9096ZM11.9538 8.45509C11.9538 8.60555 11.8315 8.72782 11.681 8.72782H9.77197C9.17034 8.72782 8.68107 8.23858 8.68107 7.63692C8.68107 7.03528 9.17031 6.54602 9.77197 6.54602H11.681C11.8315 6.54602 11.9538 6.66826 11.9538 6.81875V8.45509Z" fill="#00934C"/>
<path id="Vector_2" d="M9.77206 7.09131C9.47138 7.09131 9.22662 7.33607 9.22662 7.63675C9.22662 7.93742 9.47138 8.18218 9.77206 8.18218C10.0727 8.18218 10.3175 7.93742 10.3175 7.63675C10.3175 7.33607 10.0728 7.09131 9.77206 7.09131Z" fill="#00934C"/>
</g>
</g>
</g>
</g>
<defs>
<clipPath id="clip0_1993_17012">
<rect width="12" height="12" fill="white" transform="translate(0.5)"/>
</clipPath>
</defs>
</svg>
