<svg width="13" height="14" viewBox="0 0 13 14" fill="none" xmlns="http://www.w3.org/2000/svg">
<g id="fi_2636861" clip-path="url(#clip0_2099_1952)">
<g id="Group">
<path id="Vector" d="M9.51638 5.33718C9.68537 5.60476 10.0868 5.56081 10.1957 5.26576L10.652 4.03013L11.9286 3.7055C12.2339 3.62786 12.318 3.23262 12.0706 3.0374L11.0364 2.22161L11.1221 0.907199C11.1427 0.592775 10.7928 0.390675 10.5306 0.565685L9.43516 1.29716L8.21159 0.809449C7.919 0.692734 7.61854 0.96303 7.704 1.26646L8.06115 2.53433L7.21921 3.54732C7.0178 3.78957 7.18204 4.15883 7.497 4.1713L8.81316 4.22342L9.51638 5.33718ZM8.84861 2.52052L8.64638 1.80269L9.33913 2.0788C9.45554 2.12523 9.58734 2.11137 9.69164 2.04175L10.3119 1.62763L10.2633 2.37179C10.2551 2.49689 10.3091 2.61797 10.4075 2.69558L10.993 3.15744L10.2702 3.34124C10.1488 3.37214 10.0502 3.46082 10.0068 3.5784L9.74849 4.27798L9.35036 3.64741C9.28343 3.54143 9.16864 3.47514 9.0434 3.47019L8.29821 3.44069L8.7749 2.86717C8.85503 2.77081 8.88258 2.64117 8.84861 2.52052Z" fill="#00934C"/>
<path id="Vector_2" d="M12.6215 6.64642H9.54938C9.33905 6.64642 9.16853 6.81694 9.16853 7.02727V8.16979H6.50264C6.29231 8.16979 6.1218 8.34031 6.1218 8.55064V9.69316H3.4559C3.24557 9.69316 3.07506 9.86368 3.07506 10.074V11.2165H0.383772C0.173445 11.2165 0.00292969 11.387 0.00292969 11.5974V13.1207C0.00292969 13.3311 0.173445 13.5016 0.383772 13.5016H12.6215C12.8318 13.5016 13.0023 13.3311 13.0023 13.1207V7.02727C13.0023 6.81694 12.8318 6.64642 12.6215 6.64642ZM0.764614 11.9782H3.07506V12.7399H0.764614V11.9782ZM3.83674 10.4548H6.1218V12.7399H3.83674V10.4548ZM6.88348 8.93148H9.16853V12.7399H6.88348V8.93148ZM12.2407 12.7399H9.93022V7.40811H12.2407V12.7399Z" fill="#00934C"/>
<path id="Vector_3" d="M7.64523 5.50383C7.64523 5.71382 7.47439 5.88467 7.26439 5.88467H5.74102C5.11103 5.88467 4.5985 6.39721 4.5985 7.0272C4.5985 7.23719 4.42765 7.40804 4.21765 7.40804H2.69428C2.0643 7.40804 1.55176 7.92058 1.55176 8.55057C1.55176 8.76089 1.72227 8.93141 1.9326 8.93141C2.14293 8.93141 2.31344 8.76089 2.31344 8.55057C2.31344 8.34057 2.48429 8.16972 2.69428 8.16972H4.21765C4.84764 8.16972 5.36018 7.65719 5.36018 7.0272C5.36018 6.8172 5.53103 6.64635 5.74102 6.64635H7.26439C7.89438 6.64635 8.40692 6.13382 8.40692 5.50383C8.40692 5.2935 8.2364 5.12299 8.02608 5.12299C7.81575 5.12299 7.64523 5.2935 7.64523 5.50383Z" fill="#00934C"/>
</g>
</g>
<defs>
<clipPath id="clip0_2099_1952">
<rect width="13" height="13" fill="white" transform="translate(0 0.5)"/>
</clipPath>
</defs>
</svg>
