<svg width="28" height="29" viewBox="0 0 28 29" fill="none" xmlns="http://www.w3.org/2000/svg">
<g id="fi_1288677" clip-path="url(#clip0_1993_16122)">
<path id="Vector" d="M25.422 0.39975C25.3917 0.39975 25.3616 0.401031 25.3312 0.403595C25.1524 0.418335 21.1542 0.78534 19.6518 3.70087L14.2262 3.14951C12.9114 3.016 11.6228 3.4755 10.6912 4.40861L1.33042 13.7384C-0.371091 15.4429 -0.37045 18.2153 1.3317 19.919L8.51137 27.1046C9.37377 27.9676 10.5051 28.3998 11.6326 28.3998C12.7445 28.3996 13.8528 27.9794 14.6956 27.1375C15.1226 26.7107 15.123 26.0185 14.6962 25.5915C14.2696 25.1643 13.5772 25.1641 13.1502 25.5907C12.3058 26.4345 10.9185 26.4202 10.0582 25.559L2.87834 18.3734C2.02726 17.5217 2.02705 16.1355 2.87577 15.2852L12.2368 5.95524C12.7035 5.48783 13.348 5.25798 14.0051 5.32463L22.3236 6.17015L22.4319 7.23314C20.9167 7.79796 19.4747 7.88811 19.4418 7.89003C18.8396 7.9225 18.3774 8.43669 18.409 9.03911C18.4397 9.62252 18.9223 10.075 19.4997 10.075C19.5192 10.075 19.5386 10.0745 19.5581 10.0735C19.6281 10.0698 21.0271 9.98974 22.6594 9.46743L23.1683 14.4647C23.2352 15.1205 23.0066 15.764 22.5409 16.2307L17.2076 21.4859C16.7775 21.9095 16.7724 22.6019 17.196 23.0319C17.6199 23.4619 18.312 23.467 18.742 23.0432L24.0785 17.7851C24.0802 17.7834 24.082 17.7817 24.0839 17.7797C25.0183 16.8462 25.4776 15.5572 25.3436 14.2432L24.7632 8.54543C25.4985 8.11498 26.1184 7.60783 26.614 7.02977C27.5604 5.92512 28.04 4.58955 28.0389 3.06043V3.01685C28.0389 1.57382 26.865 0.39975 25.422 0.39975ZM25.8525 3.06107C25.8533 4.283 25.4109 5.27442 24.5098 6.05842L24.4084 5.06187C24.3558 4.54575 23.9476 4.13752 23.4313 4.08497L22.1632 3.95615C23.2822 2.88804 25.1311 2.62677 25.4613 2.5879C25.6803 2.60798 25.8525 2.79276 25.8525 3.01685V3.06107ZM16.9924 16.4168C16.5656 16.8438 15.8735 16.8438 15.4464 16.4168C15.0194 15.9898 15.0194 15.2976 15.4464 14.8708C15.5631 14.7542 15.5842 14.619 15.5815 14.526C15.5772 14.3767 15.512 14.2317 15.3982 14.118L14.7285 13.4481C14.5548 13.2744 14.3313 13.1774 14.0993 13.1749C13.9366 13.1734 13.7043 13.2154 13.4931 13.4269L13.3205 13.5995C12.9641 13.9557 12.9511 14.5442 13.2916 14.8849L14 15.5931C14.5804 16.1735 14.9045 16.9393 14.913 17.7498C14.9214 18.5716 14.6046 19.346 14.0203 19.9301L13.9398 20.0106C13.3489 20.6017 12.5877 20.8963 11.8217 20.8963C11.171 20.8965 10.5171 20.6831 9.96017 20.259L9.50237 20.7008C9.29024 20.9055 9.01659 21.0072 8.74337 21.0072C8.45711 21.0072 8.17107 20.8954 7.95659 20.673C7.53725 20.2385 7.54985 19.5464 7.98436 19.1273L8.39409 18.7318C7.93309 18.2324 7.67269 17.5967 7.65837 16.9287C7.64299 16.2006 7.92049 15.5134 8.44002 14.9939C8.86706 14.567 9.5592 14.567 9.98623 14.9939C10.413 15.4209 10.413 16.113 9.98623 16.5401C9.88924 16.6368 9.84161 16.752 9.84438 16.8821C9.84737 17.0218 9.90975 17.1596 10.0204 17.27L11.1718 18.4215C11.5324 18.7821 12.0577 18.8004 12.3938 18.4646L12.4743 18.3839C12.6394 18.2189 12.7289 18.0019 12.7266 17.7725C12.724 17.5375 12.6273 17.3125 12.454 17.1393L11.7454 16.4309C10.5466 15.2318 10.5596 13.2682 11.7743 12.0533L11.9471 11.8807C12.5232 11.3046 13.2829 10.9884 14.0893 10.9884H14.123C14.6806 10.9946 15.2174 11.1514 15.6876 11.4392L16.1572 10.9542C16.5774 10.5204 17.2693 10.5093 17.7032 10.9293C18.1368 11.3492 18.1479 12.0414 17.7279 12.4752L17.2644 12.954C17.5752 13.3972 17.751 13.9183 17.767 14.4619C17.7886 15.2015 17.5137 15.8958 16.9924 16.4168Z" fill="#00934C"/>
</g>
<defs>
<clipPath id="clip0_1993_16122">
<rect width="28" height="28" fill="white" transform="translate(0 0.454407)"/>
</clipPath>
</defs>
</svg>
