<svg width="10" height="10" viewBox="0 0 10 10" fill="none" xmlns="http://www.w3.org/2000/svg">
<g id="fi_2636861" clip-path="url(#clip0_1993_15956)">
<g id="Group">
<path id="Vector" d="M7.31768 3.72019C7.44767 3.92602 7.75643 3.89221 7.84021 3.66525L8.19121 2.71476L9.1732 2.46505C9.40809 2.40532 9.47278 2.1013 9.28244 1.95113L8.48692 1.3236L8.55288 0.312509C8.56868 0.070645 8.29953 -0.0848168 8.09786 0.0498061L7.2552 0.612476L6.31399 0.237317C6.08893 0.147536 5.8578 0.355456 5.92354 0.588864L6.19828 1.56415L5.55063 2.34337C5.3957 2.52971 5.52204 2.81376 5.76431 2.82335L6.77675 2.86345L7.31768 3.72019ZM6.80401 1.55353L6.64845 1.00135L7.18134 1.21374C7.27088 1.24946 7.37227 1.2388 7.4525 1.18524L7.92959 0.866683L7.89224 1.43912C7.88596 1.53534 7.92744 1.62849 8.00314 1.68819L8.45355 2.04347L7.89758 2.18485C7.80412 2.20862 7.72834 2.27683 7.69495 2.36728L7.49623 2.90542L7.18997 2.42036C7.13849 2.33884 7.05019 2.28785 6.95385 2.28404L6.38063 2.26135L6.74731 1.82018C6.80895 1.74606 6.83014 1.64634 6.80401 1.55353Z" fill="#00934C"/>
<path id="Vector_2" d="M9.70684 4.72681H7.34366C7.18187 4.72681 7.05071 4.85797 7.05071 5.01976V5.89863H5.00002C4.83823 5.89863 4.70706 6.0298 4.70706 6.19158V7.07045H2.65637C2.49459 7.07045 2.36342 7.20162 2.36342 7.36341V8.24227H0.2932C0.13141 8.24227 0.000244141 8.37344 0.000244141 8.53523V9.70705C0.000244141 9.86884 0.13141 10 0.2932 10H9.70684C9.86863 10 9.99979 9.86884 9.99979 9.70705V5.01976C9.99979 4.85797 9.86863 4.72681 9.70684 4.72681ZM0.586155 8.82819H2.36342V9.4141H0.586155V8.82819ZM2.94933 7.65636H4.70706V9.4141H2.94933V7.65636ZM5.29297 6.48454H7.05071V9.4141H5.29297V6.48454ZM9.41388 9.4141H7.63662V5.31272H9.41388V9.4141Z" fill="#00934C"/>
<path id="Vector_3" d="M5.87894 3.84789C5.87894 4.00942 5.74752 4.14084 5.58598 4.14084H4.41416C3.92955 4.14084 3.5353 4.5351 3.5353 5.01971C3.5353 5.18125 3.40388 5.31267 3.24234 5.31267H2.07052C1.58591 5.31267 1.19165 5.70692 1.19165 6.19153C1.19165 6.35332 1.32282 6.48449 1.48461 6.48449C1.6464 6.48449 1.77756 6.35332 1.77756 6.19153C1.77756 6.03 1.90898 5.89858 2.07052 5.89858H3.24234C3.72695 5.89858 4.12121 5.50432 4.12121 5.01971C4.12121 4.85817 4.25263 4.72675 4.41416 4.72675H5.58598C6.07059 4.72675 6.46485 4.33249 6.46485 3.84789C6.46485 3.6861 6.33368 3.55493 6.1719 3.55493C6.01011 3.55493 5.87894 3.6861 5.87894 3.84789Z" fill="#00934C"/>
</g>
</g>
<defs>
<clipPath id="clip0_1993_15956">
<rect width="10" height="10" fill="white"/>
</clipPath>
</defs>
</svg>
