<svg width="20" height="20" viewBox="0 0 20 20" fill="none" xmlns="http://www.w3.org/2000/svg">
<g id="vuesax/linear/security-time">
<g id="security-time">
<g id="Group">
<path id="Vector" d="M8.74179 1.85833L4.58346 3.41666C3.62513 3.775 2.8418 4.90833 2.8418 5.93333V12.125C2.8418 13.1083 3.49181 14.4 4.28347 14.9917L7.8668 17.6667C9.0418 18.55 10.9751 18.55 12.1501 17.6667L15.7335 14.9917C16.5251 14.4 17.1751 13.1083 17.1751 12.125V5.93333C17.1751 4.90833 16.3918 3.775 15.4335 3.41666L11.2751 1.85833C10.5668 1.6 9.43345 1.6 8.74179 1.85833Z" stroke="#00934C" stroke-width="1.5" stroke-linecap="round" stroke-linejoin="round"/>
</g>
<g id="Group_2">
<path id="Vector_2" d="M10.4165 13.3333C12.4876 13.3333 14.1665 11.6544 14.1665 9.58334C14.1665 7.51228 12.4876 5.83334 10.4165 5.83334C8.34544 5.83334 6.6665 7.51228 6.6665 9.58334C6.6665 11.6544 8.34544 13.3333 10.4165 13.3333Z" stroke="#00934C" stroke-width="1.5" stroke-miterlimit="10" stroke-linecap="round" stroke-linejoin="round"/>
<path id="Vector_3" d="M9.1665 9.98336L9.9915 10.8084L11.7665 9.16669" stroke="#00934C" stroke-width="1.5" stroke-linecap="round" stroke-linejoin="round"/>
</g>
</g>
</g>
</svg>
