<svg width="32" height="32" viewBox="0 0 32 32" fill="none" xmlns="http://www.w3.org/2000/svg">
<g id="fi_4233839" clip-path="url(#clip0_2106_5441)">
<g id="Group">
<g id="Group_2">
<path id="Vector" d="M29.4323 2.32825H25.3422C25.0833 2.32825 24.8734 2.53812 24.8734 2.797C24.8734 3.05587 25.0833 3.26575 25.3422 3.26575H29.4323C29.6911 3.26575 29.901 3.05587 29.901 2.797C29.901 2.53812 29.6912 2.32825 29.4323 2.32825Z" fill="#00934C"/>
<path id="Vector_2" d="M23.0196 3.26575H23.5181C23.777 3.26575 23.9869 3.05587 23.9869 2.797C23.9869 2.53812 23.777 2.32825 23.5181 2.32825H23.0196C22.7607 2.32825 22.5508 2.53812 22.5508 2.797C22.5508 3.05587 22.7607 3.26575 23.0196 3.26575Z" fill="#00934C"/>
<path id="Vector_3" d="M23.0196 5.46774H29.4323C29.6912 5.46774 29.9011 5.25787 29.9011 4.99899C29.9011 4.74012 29.6912 4.53024 29.4323 4.53024H23.0196C22.7607 4.53024 22.5508 4.74012 22.5508 4.99899C22.5508 5.25787 22.7607 5.46774 23.0196 5.46774Z" fill="#00934C"/>
<path id="Vector_4" d="M24.715 27.7562C24.715 25.8838 24.0899 24.0469 22.9513 22.5627L23.0381 20.9624C23.0973 19.873 22.2328 18.9514 21.1333 18.9514H16.0021C15.7661 18.7846 15.6229 18.5136 15.6229 18.221V16.9122C16.4184 16.3977 16.977 15.8109 17.3873 15.1127H18.2944C19.3439 15.1127 20.1976 14.2589 20.1976 13.2095V9.70874C20.1976 9.11831 19.8561 8.59637 19.3453 8.34943V5.89256C19.3453 4.77406 18.4353 3.86406 17.3168 3.86406H17.2643C17.2323 3.86406 17.2063 3.83799 17.2063 3.80606C17.2063 2.68756 16.2963 1.77756 15.1778 1.77756H10.2134C7.74925 1.77756 5.74443 3.78237 5.74443 6.24656V8.34937C5.23368 8.59631 4.89206 9.11824 4.89206 9.70868V11.4891C4.89206 12.3221 5.56974 12.9997 6.40274 12.9997H7.00787C7.16449 14.3245 7.78593 15.5344 8.75931 16.3755C8.98768 16.5729 9.22387 16.7492 9.46681 16.9067V18.2209C9.46681 18.5127 9.32306 18.7837 9.08593 18.9513H3.95662C2.86562 18.9513 1.99218 19.8644 2.0518 20.9623L2.13868 22.5626C0.99999 24.0469 0.374864 25.8838 0.374864 27.7562V29.5218C0.141802 29.783 -0.000198364 30.1271 -0.000198364 30.5038C-0.000198364 31.3181 0.66224 31.9804 1.47649 31.9804H23.6134C24.4276 31.9804 25.0901 31.318 25.0901 30.5038C25.0901 30.1271 24.9481 29.783 24.715 29.5219V27.7562ZM23.7775 27.7562V29.0364C23.7236 29.0304 23.6689 29.0271 23.6134 29.0271H22.6004L22.8649 24.1527C23.4583 25.2547 23.7775 26.4961 23.7775 27.7562ZM19.2121 9.47987C19.2429 9.55037 19.2603 9.62774 19.2603 9.70881V11.4892C19.2603 11.8052 19.0031 12.0624 18.6871 12.0624H18.1296V10.2953L18.4185 10.1947C18.7759 10.0702 19.0569 9.80768 19.2121 9.47987ZM16.0825 14.911H14.9061C14.7165 14.911 14.5622 14.7567 14.5622 14.5671C14.5622 14.3775 14.7165 14.2232 14.9061 14.2232H16.0825C16.2721 14.2232 16.4264 14.3775 16.4264 14.5671C16.4264 14.7567 16.2721 14.911 16.0825 14.911ZM18.2946 14.1752H17.8208C17.9528 13.7989 18.0439 13.4046 18.0919 12.9999H18.6871C18.8899 12.9999 19.0834 12.9594 19.2603 12.8866V13.2096C19.2603 13.7421 18.827 14.1752 18.2946 14.1752ZM6.68206 6.24668C6.68206 4.29943 8.26631 2.71518 10.2136 2.71518H15.1779C15.7794 2.71518 16.2689 3.20462 16.2689 3.80618C16.2689 4.35512 16.7155 4.80168 17.2644 4.80168H17.3169C17.9185 4.80168 18.4079 5.29112 18.4079 5.89268V8.89037C18.4079 9.07899 18.2882 9.24737 18.1101 9.30943L17.125 9.65249C17.0853 9.66624 17.0444 9.63762 17.0444 9.59493L17.0462 7.73218C17.0519 6.37274 15.7789 5.18712 13.9954 5.75999C13.0984 6.04824 11.9884 6.04724 11.0944 5.75999C9.32937 5.19274 8.03793 6.35731 8.04362 7.73074L8.04581 9.59506C8.04581 9.63806 8.00393 9.66637 7.96518 9.65249L6.97981 9.30937C6.80168 9.24737 6.68199 9.07893 6.68199 8.89031L6.68206 6.24668ZM5.82968 11.4892V9.70874C5.82968 9.62774 5.84706 9.55031 5.87787 9.47981C6.03306 9.80768 6.31412 10.0702 6.67162 10.1947L6.96043 10.2952V12.0623H6.40293C6.08681 12.0624 5.82968 11.8052 5.82968 11.4892ZM7.9065 12.4584C7.89093 11.8422 7.9005 11.1881 7.89787 10.5892C7.92675 10.5917 7.95568 10.5931 7.98462 10.5931C8.54193 10.5931 8.98425 10.1401 8.98331 9.59368L8.98112 7.72818C8.97793 6.96706 9.66068 6.28387 10.8076 6.65249C11.8946 7.00174 13.1988 7.00068 14.2823 6.65249C15.3749 6.30143 16.1121 6.91949 16.1087 7.72974L16.1069 9.59381C16.1061 10.1748 16.6028 10.6403 17.192 10.5892V12.4964C17.1784 12.9015 17.1117 13.2969 16.9986 13.6729C16.7658 13.4344 16.4413 13.2857 16.0825 13.2857H14.9061C14.1996 13.2857 13.6247 13.8605 13.6247 14.5671C13.6247 15.2736 14.1996 15.8484 14.9061 15.8484H15.5017C14.6359 16.5242 13.6513 16.8766 12.5695 16.8946C10.203 16.8756 7.97418 15.1273 7.9065 12.4584ZM10.4045 18.2211V17.4009C11.0821 17.6814 11.8049 17.8268 12.5682 17.8322H12.5716C12.574 17.8322 12.5764 17.8322 12.5789 17.8321C13.3221 17.8206 14.0257 17.6766 14.6856 17.4047V18.221C14.6856 18.4769 14.7391 18.7247 14.8378 18.9514H10.2517C10.3507 18.7246 10.4045 18.4768 10.4045 18.2211ZM2.22493 24.1527L2.29893 25.5166C2.31299 25.7751 2.53443 25.9739 2.79237 25.9592C3.05087 25.9452 3.24905 25.7243 3.23505 25.4658L2.98787 20.9116C2.9578 20.3576 3.39743 19.8889 3.95662 19.8889H21.1333C21.6884 19.8889 22.1323 20.3534 22.1021 20.9116L21.6616 29.0272H14.3111C14.4006 28.4917 14.6418 27.9881 15.0132 27.5755L15.0266 27.5605C16.4455 25.9731 16.0208 23.4909 14.1868 22.4487C13.7162 22.1814 13.1185 22.5148 13.1185 23.0691V25.196C13.1185 25.2935 13.0392 25.3727 12.9417 25.3727H12.1482C12.0507 25.3727 11.9714 25.2934 11.9714 25.196V23.0691C11.9714 22.5159 11.3746 22.1808 10.9031 22.4487C9.06381 23.4937 8.64775 25.9769 10.0647 27.5621L10.0767 27.5755C10.4481 27.9881 10.6892 28.4917 10.7788 29.0271H3.42837L3.35318 27.6413C3.33918 27.3828 3.11824 27.1844 2.85974 27.1986C2.60124 27.2126 2.40305 27.4336 2.41705 27.6921L2.48949 29.0271H1.47649C1.42099 29.0271 1.3663 29.0305 1.31237 29.0364V27.7562C1.31237 26.4962 1.63168 25.2547 2.22493 24.1527ZM11.726 29.0271C11.6301 28.2591 11.3008 27.534 10.7736 26.9483L10.7622 26.9356C9.85656 25.9225 9.97787 24.3558 11.0339 23.4917V25.1959C11.0339 25.8104 11.5338 26.3102 12.1482 26.3102H12.9417C13.5562 26.3102 14.0561 25.8103 14.0561 25.1959V23.4917C15.1051 24.3501 15.2395 25.9156 14.3266 26.9369L14.3164 26.9482C13.7891 27.534 13.4599 28.2591 13.3639 29.0271H11.726ZM23.6134 31.043H1.47649C1.17918 31.043 0.937302 30.8011 0.937302 30.5039C0.937302 30.2066 1.17918 29.9647 1.47649 29.9647H23.6134C23.9107 29.9647 24.1526 30.2066 24.1526 30.5039C24.1526 30.8012 23.9107 31.043 23.6134 31.043Z" fill="#00934C"/>
<path id="Vector_5" d="M31.5311 3.2275C31.7899 3.2275 31.9998 3.01762 31.9998 2.75875V1.8515C31.9998 0.841374 31.178 0.0195618 30.1678 0.0195618H22.284C21.2738 0.0195618 20.452 0.841374 20.452 1.8515V5.7945C20.452 6.80469 21.2738 7.6265 22.284 7.6265C22.4645 7.6265 22.6114 7.77338 22.6114 7.95388V10.3923C22.6114 10.7445 22.8394 11.0443 23.1788 11.1382C23.5202 11.2327 23.869 11.0906 24.0491 10.7903L25.8509 7.7855C25.9098 7.68744 26.0174 7.6265 26.1318 7.6265H30.1679C31.1781 7.6265 31.9999 6.80469 31.9999 5.7945V4.95025C31.9999 4.69137 31.79 4.4815 31.5311 4.4815C31.2723 4.4815 31.0624 4.69137 31.0624 4.95025V5.7945C31.0624 6.28775 30.6611 6.689 30.1679 6.689H26.1317C25.6898 6.689 25.2741 6.92444 25.0469 7.30337L23.5488 9.8015V7.95388C23.5488 7.25644 22.9814 6.689 22.2839 6.689C21.7907 6.689 21.3894 6.28775 21.3894 5.7945V1.8515C21.3894 1.35831 21.7907 0.957062 22.2839 0.957062H30.1678C30.6611 0.957062 31.0623 1.35831 31.0623 1.8515V2.75875C31.0623 3.01762 31.2722 3.2275 31.5311 3.2275Z" fill="#00934C"/>
</g>
</g>
</g>
<defs>
<clipPath id="clip0_2106_5441">
<rect width="32" height="32" fill="white"/>
</clipPath>
</defs>
</svg>
