<svg width="24" height="24" viewBox="0 0 24 24" fill="none" xmlns="http://www.w3.org/2000/svg">
<path d="M3 9.10938V14.8794C3 16.9994 3 16.9994 5 18.3494L10.5 21.5294C11.33 22.0094 12.68 22.0094 13.5 21.5294L19 18.3494C21 16.9994 21 16.9994 21 14.8894V9.10938C21 6.99938 21 6.99938 19 5.64938L13.5 2.46938C12.68 1.98937 11.33 1.98937 10.5 2.46938L5 5.64938C3 6.99938 3 6.99938 3 9.10938Z" stroke="#EC7323" stroke-width="2" stroke-linecap="round" stroke-linejoin="round"/>
<path d="M12 15C13.6569 15 15 13.6569 15 12C15 10.3431 13.6569 9 12 9C10.3431 9 9 10.3431 9 12C9 13.6569 10.3431 15 12 15Z" stroke="#EC7323" stroke-width="2" stroke-linecap="round" stroke-linejoin="round"/>
</svg>
