<svg width="32" height="32" viewBox="0 0 32 32" fill="none" xmlns="http://www.w3.org/2000/svg">
<g id="fi_6080065">
<path id="Vector" d="M7.49992 14C7.49992 14.3978 7.65795 14.7794 7.93926 15.0607C8.22056 15.342 8.60209 15.5 8.99992 15.5H22.9999C23.3978 15.5 23.7793 15.342 24.0606 15.0607C24.3419 14.7794 24.4999 14.3978 24.4999 14V6C24.4999 5.60218 24.3419 5.22065 24.0606 4.93934C23.7793 4.65804 23.3978 4.5 22.9999 4.5H21.2869C20.9615 3.34844 20.2691 2.3346 19.3148 1.61259C18.3605 0.890577 17.1966 0.499878 15.9999 0.499878C14.8033 0.499878 13.6393 0.890577 12.6851 1.61259C11.7308 2.3346 11.0383 3.34844 10.7129 4.5H8.99992C8.60209 4.5 8.22056 4.65804 7.93926 4.93934C7.65795 5.22065 7.49992 5.60218 7.49992 6V14ZM15.9999 1.5C16.8899 1.5 17.76 1.76392 18.5 2.25839C19.24 2.75285 19.8168 3.45566 20.1574 4.27793C20.498 5.10019 20.5871 6.00499 20.4135 6.87791C20.2398 7.75082 19.8112 8.55265 19.1819 9.18198C18.5526 9.81132 17.7507 10.2399 16.8778 10.4135C16.0049 10.5872 15.1001 10.4981 14.2778 10.1575C13.4556 9.81686 12.7528 9.24009 12.2583 8.50007C11.7638 7.76005 11.4999 6.89002 11.4999 6C11.5014 4.80697 11.9759 3.66323 12.8195 2.81963C13.6631 1.97603 14.8069 1.50146 15.9999 1.5ZM8.49992 6C8.49992 5.86739 8.5526 5.74022 8.64636 5.64645C8.74013 5.55268 8.86731 5.5 8.99992 5.5H10.5254C10.5104 5.665 10.4999 5.831 10.4999 6C10.4999 7.45869 11.0794 8.85764 12.1108 9.88909C13.1423 10.9205 14.5412 11.5 15.9999 11.5C17.4586 11.5 18.8576 10.9205 19.889 9.88909C20.9205 8.85764 21.4999 7.45869 21.4999 6C21.4999 5.831 21.4894 5.665 21.4744 5.5H22.9999C23.1325 5.5 23.2597 5.55268 23.3535 5.64645C23.4473 5.74022 23.4999 5.86739 23.4999 6V14C23.4999 14.1326 23.4473 14.2598 23.3535 14.3536C23.2597 14.4473 23.1325 14.5 22.9999 14.5H8.99992C8.86731 14.5 8.74013 14.4473 8.64636 14.3536C8.5526 14.2598 8.49992 14.1326 8.49992 14V6Z" fill="#00934C"/>
<path id="Vector_2" d="M14.2194 6.876L14.0044 8.4315C13.9912 8.52437 14.0044 8.61907 14.0425 8.70478C14.0806 8.7905 14.142 8.86377 14.2198 8.91623C14.2976 8.96869 14.3885 8.99823 14.4822 9.00146C14.576 9.00469 14.6687 8.98148 14.7499 8.9345L15.9999 8.2215L17.2524 8.9345C17.3335 8.98078 17.426 9.00341 17.5193 8.99982C17.6127 8.99624 17.7031 8.96659 17.7805 8.91423C17.8578 8.86188 17.9189 8.7889 17.9569 8.70358C17.9949 8.61827 18.0082 8.52401 17.9954 8.4315L17.7804 6.876L18.8449 5.862C18.9105 5.79894 18.9577 5.71917 18.9813 5.63128C19.0049 5.5434 19.0041 5.45073 18.979 5.36328C18.9538 5.27582 18.9053 5.19688 18.8386 5.13498C18.7718 5.07308 18.6895 5.03056 18.6004 5.012L17.1184 4.708L16.4524 3.2875C16.412 3.2016 16.348 3.12897 16.2679 3.0781C16.1878 3.02722 16.0948 3.00021 15.9999 3.00021C15.905 3.00021 15.812 3.02722 15.7319 3.0781C15.6518 3.12897 15.5878 3.2016 15.5474 3.2875L14.8814 4.7065L13.3994 5.0105C13.3103 5.02906 13.228 5.07158 13.1613 5.13348C13.0946 5.19538 13.046 5.27432 13.0209 5.36177C12.9957 5.44923 12.9949 5.5419 13.0185 5.62978C13.0421 5.71767 13.0893 5.79744 13.1549 5.8605L14.2194 6.876ZM15.3279 5.6355C15.4037 5.6196 15.4748 5.58629 15.5355 5.53822C15.5963 5.49015 15.645 5.42863 15.6779 5.3585L15.9999 4.677L16.3199 5.3585C16.3528 5.42863 16.4016 5.49015 16.4623 5.53822C16.523 5.58629 16.5941 5.6196 16.6699 5.6355L17.4604 5.798L16.9049 6.329C16.8476 6.38373 16.8041 6.45131 16.778 6.52616C16.7519 6.60101 16.744 6.68099 16.7549 6.7595L16.8659 7.5635L16.2479 7.2135C16.1725 7.17054 16.0872 7.14795 16.0004 7.14795C15.9136 7.14795 15.8283 7.17054 15.7529 7.2135L15.1349 7.5635L15.2459 6.7595C15.2568 6.68099 15.2489 6.60101 15.2228 6.52616C15.1968 6.45131 15.1532 6.38373 15.0959 6.329L14.5374 5.8L15.3279 5.6355Z" fill="#00934C"/>
<path id="Vector_3" d="M21.4999 12.5H10.4999V13.5H21.4999V12.5Z" fill="#00934C"/>
<path id="Vector_4" d="M0.8784 4.485C1.42026 4.62151 1.92213 4.88429 2.34299 5.25188C2.76385 5.61947 3.09175 6.08143 3.2999 6.6L3.5339 7.186C3.57093 7.27895 3.63499 7.35865 3.7178 7.4148C3.8006 7.47095 3.89835 7.50096 3.9984 7.50096C4.09845 7.50096 4.1962 7.47095 4.27901 7.4148C4.36182 7.35865 4.42588 7.27895 4.4629 7.186L4.6999 6.6C4.9082 6.08126 5.23633 5.61919 5.65747 5.25158C6.0786 4.88398 6.58077 4.62129 7.1229 4.485C7.23102 4.45791 7.32698 4.39546 7.39555 4.30759C7.46411 4.21972 7.50135 4.11146 7.50135 4C7.50135 3.88855 7.46411 3.78028 7.39555 3.69241C7.32698 3.60454 7.23102 3.5421 7.1229 3.515C6.58077 3.37871 6.0786 3.11602 5.65747 2.74842C5.23633 2.38082 4.9082 1.91875 4.6999 1.4L4.4644 0.814003C4.42738 0.721057 4.36332 0.641356 4.28051 0.585207C4.1977 0.529058 4.09995 0.499043 3.9999 0.499043C3.89985 0.499043 3.8021 0.529058 3.7193 0.585207C3.63649 0.641356 3.57243 0.721057 3.5354 0.814003L3.2999 1.4C3.09175 1.91858 2.76385 2.38054 2.34299 2.74813C1.92213 3.11572 1.42026 3.3785 0.8784 3.515C0.770286 3.5421 0.674326 3.60454 0.605759 3.69241C0.537193 3.78028 0.499952 3.88855 0.499952 4C0.499952 4.11146 0.537193 4.21972 0.605759 4.30759C0.674326 4.39546 0.770286 4.45791 0.8784 4.485ZM3.9999 2.2595C4.39573 2.98197 4.98016 3.5835 5.6909 4C4.98016 4.41651 4.39573 5.01804 3.9999 5.7405C3.60407 5.01804 3.01965 4.41651 2.3089 4C3.01965 3.5835 3.60407 2.98197 3.9999 2.2595Z" fill="#00934C"/>
<path id="Vector_5" d="M31.1214 3.515C30.5796 3.3785 30.0777 3.11572 29.6568 2.74813C29.236 2.38054 28.9081 1.91858 28.6999 1.4L28.4659 0.814003C28.4289 0.721057 28.3648 0.641356 28.282 0.585207C28.1992 0.529058 28.1015 0.499043 28.0014 0.499043C27.9014 0.499043 27.8036 0.529058 27.7208 0.585207C27.638 0.641356 27.574 0.721057 27.5369 0.814003L27.2999 1.4C27.0916 1.91875 26.7635 2.38082 26.3424 2.74842C25.9212 3.11602 25.4191 3.37871 24.8769 3.515C24.7688 3.5421 24.6729 3.60454 24.6043 3.69241C24.5357 3.78028 24.4985 3.88855 24.4985 4C24.4985 4.11146 24.5357 4.21972 24.6043 4.30759C24.6729 4.39546 24.7688 4.45791 24.8769 4.485C25.4191 4.62129 25.9212 4.88398 26.3424 5.25158C26.7635 5.61919 27.0916 6.08126 27.2999 6.6L27.5339 7.186C27.571 7.27895 27.635 7.35865 27.7178 7.4148C27.8006 7.47095 27.8984 7.50096 27.9984 7.50096C28.0985 7.50096 28.1962 7.47095 28.279 7.4148C28.3618 7.35865 28.4259 7.27895 28.4629 7.186L28.6999 6.6C28.9082 6.08126 29.2364 5.61919 29.6575 5.25158C30.0786 4.88398 30.5808 4.62129 31.1229 4.485C31.231 4.45791 31.327 4.39546 31.3956 4.30759C31.4641 4.21972 31.5014 4.11146 31.5014 4C31.5014 3.88855 31.4641 3.78028 31.3956 3.69241C31.327 3.60454 31.231 3.5421 31.1229 3.515H31.1214ZM27.9999 5.7405C27.6041 5.01804 27.0197 4.41651 26.3089 4C27.0197 3.5835 27.6041 2.98197 27.9999 2.2595C28.3958 2.98197 28.9802 3.5835 29.6909 4C28.9802 4.41651 28.3958 5.01804 27.9999 5.7405Z" fill="#00934C"/>
<path id="Vector_6" d="M6.49991 26.5C6.36731 26.5 6.24013 26.5527 6.14636 26.6464C6.05259 26.7402 5.99991 26.8674 5.99991 27V31C5.99991 31.1326 6.05259 31.2598 6.14636 31.3536C6.24013 31.4473 6.36731 31.5 6.49991 31.5H14.4999C14.6325 31.5 14.7597 31.4473 14.8535 31.3536C14.9472 31.2598 14.9999 31.1326 14.9999 31V27C14.9999 26.8674 14.9472 26.7402 14.8535 26.6464C14.7597 26.5527 14.6325 26.5 14.4999 26.5H13.9999V24.571C14.0019 23.8484 13.8605 23.1327 13.584 22.4651C13.3075 21.7976 12.9013 21.1915 12.3889 20.682L8.70692 17C8.41462 16.7221 8.03532 16.5537 7.63317 16.5233C7.23101 16.4929 6.83069 16.6023 6.49991 16.833V13C6.49912 12.3372 6.23547 11.7018 5.7668 11.2331C5.29813 10.7644 4.66271 10.5008 3.99991 10.5C3.60209 10.5 3.22056 10.658 2.93925 10.9393C2.65795 11.2206 2.49991 11.6022 2.49991 12V20C2.49993 20.1154 2.53985 20.2272 2.61291 20.3165L6.99991 25.6785V26.5H6.49991ZM13.9999 30.5H6.99991V27.5H13.9999V30.5ZM7.88691 25.1835L3.49991 19.8215V12C3.49991 11.8674 3.55259 11.7402 3.64636 11.6464C3.74013 11.5527 3.8673 11.5 3.99991 11.5C4.39774 11.5 4.77927 11.658 5.06057 11.9393C5.34188 12.2206 5.49991 12.6022 5.49991 13V17.793L5.14641 18.1465C5.05268 18.2403 5.00002 18.3674 5.00002 18.5C5.00002 18.6326 5.05268 18.7597 5.14641 18.8535L8.14641 21.8535L8.85342 21.1465L6.20691 18.5L6.99991 17.707C7.13557 17.5803 7.31428 17.5098 7.49991 17.5098C7.68555 17.5098 7.86426 17.5803 7.99992 17.707L11.6819 21.389C12.1011 21.8059 12.4334 22.3018 12.6597 22.848C12.8859 23.3942 13.0015 23.9798 12.9999 24.571V26.5H7.99992V25.5C7.99989 25.3846 7.95997 25.2728 7.88691 25.1835Z" fill="#00934C"/>
<path id="Vector_7" d="M29.3869 20.3165C29.46 20.2272 29.4999 20.1154 29.4999 20V12C29.4999 11.6022 29.3419 11.2206 29.0606 10.9393C28.7793 10.658 28.3977 10.5 27.9999 10.5C27.3371 10.5008 26.7017 10.7644 26.233 11.2331C25.7644 11.7018 25.5007 12.3372 25.4999 13V16.833C25.1691 16.6023 24.7688 16.4929 24.3667 16.5233C23.9645 16.5537 23.5852 16.7221 23.2929 17L19.6109 20.682C19.0986 21.1915 18.6924 21.7976 18.4158 22.4651C18.1393 23.1327 17.9979 23.8484 17.9999 24.571V26.5H17.4999C17.3673 26.5 17.2401 26.5527 17.1464 26.6464C17.0526 26.7402 16.9999 26.8674 16.9999 27V31C16.9999 31.1326 17.0526 31.2598 17.1464 31.3536C17.2401 31.4473 17.3673 31.5 17.4999 31.5H25.4999C25.6325 31.5 25.7597 31.4473 25.8535 31.3536C25.9472 31.2598 25.9999 31.1326 25.9999 31V27C25.9999 26.8674 25.9472 26.7402 25.8535 26.6464C25.7597 26.5527 25.6325 26.5 25.4999 26.5H24.9999V25.6785L29.3869 20.3165ZM24.9999 30.5H17.9999V27.5H24.9999V30.5ZM18.9999 26.5V24.571C18.9983 23.9798 19.1139 23.3942 19.3402 22.848C19.5664 22.3018 19.8987 21.8059 20.3179 21.389L23.9999 17.707C24.1356 17.5803 24.3143 17.5098 24.4999 17.5098C24.6856 17.5098 24.8643 17.5803 24.9999 17.707L25.7929 18.5L23.1464 21.1465L23.8534 21.8535L26.8534 18.8535C26.9472 18.7597 26.9998 18.6326 26.9998 18.5C26.9998 18.3674 26.9472 18.2403 26.8534 18.1465L26.4999 17.793V13C26.4999 12.6022 26.658 12.2206 26.9393 11.9393C27.2206 11.658 27.6021 11.5 27.9999 11.5C28.1325 11.5 28.2597 11.5527 28.3535 11.6464C28.4472 11.7402 28.4999 11.8674 28.4999 12V19.8215L24.1129 25.1835C24.0399 25.2728 23.9999 25.3846 23.9999 25.5V26.5H18.9999Z" fill="#00934C"/>
</g>
</svg>
