<svg width="9" height="9" viewBox="0 0 9 9" fill="none" xmlns="http://www.w3.org/2000/svg">
<g id="Star" clip-path="url(#clip0_1993_16009)">
<path id="Shape" d="M4.44036 1.59561C4.636 1.19921 5.20125 1.19921 5.39688 1.59561L6.13803 3.09735L7.7953 3.33816C8.23275 3.40173 8.40742 3.93931 8.09088 4.24787L6.89167 5.41681L7.17477 7.06738C7.24949 7.50306 6.79219 7.83531 6.40093 7.62961L4.91862 6.85031L3.43631 7.62961C3.04505 7.83531 2.58775 7.50306 2.66248 7.06738L2.94557 5.41681L1.74636 4.24787C1.42982 3.93931 1.60449 3.40173 2.04194 3.33816L3.69921 3.09735L4.44036 1.59561ZM4.91862 2.13292L4.26601 3.45525C4.18832 3.61266 4.03816 3.72176 3.86444 3.74701L2.40516 3.95905L3.46111 4.98835C3.58681 5.11087 3.64417 5.2874 3.61449 5.46041L3.36522 6.9138L4.67044 6.2276C4.82581 6.14592 5.01143 6.14592 5.1668 6.2276L6.47202 6.9138L6.22275 5.46042C6.19308 5.28741 6.25043 5.11087 6.37613 4.98835L7.43208 3.95905L5.9728 3.74701C5.79909 3.72176 5.64892 3.61266 5.57123 3.45525L4.91862 2.13292Z" fill="#FCB116"/>
</g>
<defs>
<clipPath id="clip0_1993_16009">
<rect width="8" height="8" fill="white" transform="translate(0.918091 0.565002)"/>
</clipPath>
</defs>
</svg>
