<svg width="24" height="24" viewBox="0 0 24 24" fill="none" xmlns="http://www.w3.org/2000/svg">
<g id="fi_5136903" clip-path="url(#clip0_2461_11974)">
<path id="Vector" d="M23.598 1.9142C24.0534 1.90262 24.067 1.23023 23.598 1.21422H4.09586C3.9541 1.21422 3.83879 1.09887 3.83879 0.9571C3.83879 0.815332 3.95414 0.700023 4.09586 0.700023H23.598C23.7914 0.700023 23.948 0.543323 23.948 0.350037C23.948 0.156751 23.7914 5.09181e-05 23.598 5.09181e-05H4.09586C3.2979 -0.00806876 2.84282 0.956773 3.35651 1.56421C2.84483 2.17169 3.2943 3.13532 4.09586 3.12837H6.30432V7.50777C6.01314 7.61258 5.7296 7.72579 5.45628 7.84637C5.12408 7.3541 4.49275 7.65574 4.19853 8.00386C4.1234 8.09271 4.04808 8.19785 3.97304 8.31852C3.69735 7.96322 3.43318 7.77478 3.16089 7.73465C2.93536 7.70152 2.73531 7.7781 2.61164 7.94478C2.40202 8.22753 2.44169 8.71279 2.74431 9.56751C2.74664 9.57404 2.74898 9.58062 2.75126 9.58715C1.70098 10.5879 1.14744 11.7417 1.14744 12.9367C1.14744 13.5384 1.22635 15.5071 2.14817 17.6962L0.85308 17.177C0.6737 17.1051 0.470148 17.1921 0.398098 17.3714C-0.604076 19.7239 0.657227 22.6466 3.04903 23.548C4.46788 24.1168 6.11011 23.9602 7.39787 23.1379C10.3823 24.438 14.9377 24.2665 17.6729 22.6315C18.0533 22.4144 17.7236 21.7965 17.3259 22.0236C14.8836 23.4879 10.7918 23.6913 8.04511 22.6418C8.55324 22.1778 8.9673 21.5962 9.24033 20.9171C9.30137 20.7115 9.23656 20.5597 9.04588 20.4617L3.09122 18.0743C2.68327 17.2544 2.40828 16.4497 2.22325 15.7245C6.31249 20.5582 17.7189 20.5567 21.7985 15.7025C21.3397 17.5404 20.4048 19.5139 18.7979 20.9601C18.4697 21.2556 18.9364 21.7772 19.2662 21.4803C20.5321 20.3412 21.4933 18.8542 22.1232 17.0608C22.589 15.7345 22.8562 14.2313 22.8562 12.9367C22.8562 11.5964 22.1718 10.3261 20.8738 9.25093C21.0347 8.62539 21.0761 7.96826 20.9961 7.32741C21.0617 7.16082 21.2059 6.7811 21.3285 6.36821C21.5871 5.49787 21.6018 5.01073 21.3779 4.73938C21.2458 4.57936 21.0421 4.51338 20.8189 4.55827C20.5497 4.6124 20.2963 4.81371 20.0399 5.18167C19.7788 4.80788 19.3934 4.42164 18.928 4.51548C18.7344 4.5544 18.5828 4.674 18.5013 4.85217C18.4117 5.04779 18.3407 5.42022 18.756 6.39178C18.8932 6.71279 19.0418 7.00276 19.1288 7.16623C19.0309 7.4332 18.8818 7.69457 18.7027 7.91618C16.5455 6.91331 13.6124 6.43452 10.9441 6.59878V3.12837H23.598C23.7914 3.12837 23.948 2.97167 23.948 2.77838C23.948 2.5851 23.7914 2.4284 23.598 2.4284H10.9441V1.9142H23.598ZM6.08374 21.6824L5.40584 19.7564L7.30841 20.5191C7.02231 21.0354 6.58931 21.4336 6.08374 21.6824ZM4.73499 21.9751C3.83114 21.9474 2.9747 21.478 2.46549 20.7281L4.62159 19.6366L5.42264 21.9124C5.1986 21.9607 4.96775 21.9823 4.73499 21.9751ZM2.70455 18.6734C2.70698 18.6744 2.70936 18.6754 2.71179 18.6763L3.97122 19.1813L2.14663 20.105C1.947 19.5591 1.92077 18.9751 2.06879 18.4186L2.70455 18.6734ZM3.30956 22.8982C2.29918 22.4932 1.50793 21.7202 1.0815 20.7218C0.703845 19.8375 0.653121 18.87 0.930963 17.9624L1.41516 18.1565C0.917664 19.8583 1.82002 21.7145 3.4461 22.398C5.11932 23.0988 7.11918 22.3964 7.96214 20.7812L8.44633 20.9753C7.50879 22.8272 5.27919 23.6879 3.30956 22.8982ZM7.61757 1.9142V4.19163C7.63189 4.65435 8.30335 4.65403 8.31754 4.19163V1.9142H8.93081V11.5758C8.91107 11.5846 8.89133 11.5938 8.87173 11.6033C8.67989 11.696 8.49514 11.7678 8.31754 11.8214V6.01981C8.30321 5.55709 7.63175 5.55741 7.61757 6.01981V11.9463C7.39927 11.9574 7.19478 11.9407 7.0043 11.9033V1.9142H7.61757ZM12.3904 11.0025C12.4218 11.2052 12.483 11.4021 12.5717 11.5867C12.0323 11.5166 11.4771 11.5354 10.9441 11.6449V11.0715C11.4193 10.985 11.909 10.9623 12.3904 11.0025ZM19.0529 8.57845L20.1711 9.16838C19.9706 9.88404 19.587 10.5366 19.084 11.0815L18.587 10.3534C18.4781 10.1937 18.2603 10.1526 18.1007 10.2616C17.941 10.3706 17.8999 10.5883 18.0089 10.748L18.5657 11.5637C18.366 11.7221 18.1555 11.8604 17.9348 11.9781C17.668 11.9546 17.3974 11.9483 17.1299 11.9593L17.0313 11.0668C17.01 10.8747 16.8374 10.7362 16.645 10.7574C16.4529 10.7786 16.3143 10.9516 16.3355 11.1437L16.4332 12.0278C15.9864 12.0977 15.5543 12.2158 15.1429 12.377C15.0565 12.3605 14.9707 12.3417 14.8854 12.3205C14.9961 12.0063 15.173 11.5165 15.3468 11.0871C15.4194 10.908 15.3329 10.7039 15.1537 10.6314C14.9745 10.5588 14.7705 10.6454 14.698 10.8245C14.5147 11.2772 14.3323 11.7829 14.2201 12.102C13.3861 11.7585 12.756 10.965 13.2198 10.0484C13.5421 9.37049 14.3442 9.07141 15.0458 9.36759C17.0785 10.2257 18.429 9.24132 19.0529 8.57845ZM11.2403 18.4649C11.2415 18.5061 11.2422 18.5473 11.2424 18.5886C11.0519 18.5807 10.8625 18.5699 10.6742 18.5561C10.6626 17.5667 10.352 16.6175 9.7788 15.8125C9.96317 15.7529 10.1453 15.6832 10.3242 15.6036C10.9018 16.4643 11.178 17.4382 11.2403 18.4649ZM9.40077 18.4158C9.35196 17.5359 8.96618 16.689 8.34288 16.0675C8.57494 16.0592 8.80729 16.035 9.03818 15.9953C9.62117 16.7093 9.94577 17.5786 9.97269 18.4907C9.78048 18.4688 9.58976 18.4438 9.40077 18.4158ZM8.09401 18.1668C7.88934 17.1339 6.99538 16.3392 5.92037 16.2758C5.38358 16.2442 4.86308 16.3925 4.42882 16.6968C4.25611 16.5886 4.09148 16.4775 3.9351 16.3635C4.50064 15.905 5.2175 15.6713 5.9542 15.7149C6.71782 15.76 7.42316 16.0951 7.94025 16.6586C8.36206 17.1182 8.62053 17.6878 8.68838 18.2941C8.48786 18.2552 8.28963 18.2128 8.09401 18.1668ZM7.29721 17.9561C6.52295 17.7276 5.79773 17.4409 5.13822 17.1002C5.36944 17.003 5.62157 16.9593 5.87911 16.9745C6.50951 17.0118 7.05129 17.4058 7.29721 17.9561ZM2.97554 15.5212C3.46444 15.0825 4.04505 14.7662 4.67768 14.5944C4.8418 14.7592 5.01624 14.9139 5.20028 15.0562C4.52761 15.1647 3.8967 15.461 3.37984 15.9166C3.23527 15.7875 3.10046 15.6556 2.97554 15.5212ZM2.23646 14.4856C2.71379 14.081 3.26327 13.7574 3.84728 13.5366C3.94672 13.7019 4.05592 13.8625 4.17454 14.0175C3.57093 14.2265 3.01492 14.5515 2.53395 14.9771C2.42125 14.8159 2.32195 14.652 2.23646 14.4856ZM10.9475 15.277C11.1403 15.1556 11.3069 15.0079 11.4452 14.8414C11.6813 14.7688 11.9518 14.7508 12.1965 14.7899C11.8956 15.2578 11.6564 15.7698 11.4911 16.3151C11.3441 15.9539 11.1624 15.6061 10.9475 15.277ZM12.6452 14.1786C12.3923 14.0986 12.1141 14.0611 11.8487 14.0701C11.8995 13.8875 11.9253 13.698 11.9247 13.507C12.3122 13.5063 12.6991 13.5826 13.0571 13.731C12.9127 13.8733 12.7752 14.0227 12.6452 14.1786ZM13.6335 13.2296C13.0743 12.9333 12.4338 12.787 11.8015 12.8092C11.7361 12.6279 11.6292 12.4241 11.5163 12.2653C12.4292 12.1755 13.3679 12.3901 14.1471 12.875C13.9699 12.9847 13.7984 13.103 13.6335 13.2296ZM11.037 12.8174C11.291 13.2779 11.2768 13.8805 10.9672 14.3146C10.7327 14.5842 10.4618 14.7659 10.1401 14.9177C10.0118 14.6052 9.80381 14.1104 9.59765 13.6685C9.51598 13.4933 9.30763 13.4175 9.13254 13.4992C8.95736 13.5809 8.88158 13.7891 8.96329 13.9643C9.15858 14.383 9.36017 14.8622 9.48682 15.17C8.97519 15.3259 8.43448 15.3958 7.90021 15.363L7.97698 14.0726C7.98846 13.8797 7.84132 13.714 7.64836 13.7025C7.45517 13.6911 7.28965 13.8381 7.27822 14.0311L7.20505 15.2609C6.71213 15.1446 6.2263 14.9326 5.76903 14.6075L6.28402 13.7651C6.38487 13.6001 6.33288 13.3847 6.16797 13.2839C6.00301 13.183 5.7876 13.235 5.68681 13.4L5.22632 14.1532C4.69723 13.637 4.27879 13.0034 4.04253 12.3014L5.13117 11.6543C5.78844 12.2831 7.1883 13.1951 9.1764 12.2335C9.83993 11.9125 10.683 12.1625 11.037 12.8174ZM4.09586 2.4284C3.75675 2.41944 3.75703 1.92302 4.09586 1.9142H6.30432V2.4284H4.09586ZM6.30432 11.6538C5.73221 11.3517 5.23817 10.8474 4.98296 10.2495C5.23075 9.72201 5.47901 9.14925 5.56137 8.56683C5.80034 8.45651 6.04869 8.35203 6.30432 8.25431V11.6538ZM3.70467 9.1766C3.77052 9.28892 3.89339 9.3556 4.02339 9.34912C4.15345 9.34286 4.26927 9.26488 4.32406 9.14678C4.58025 8.59436 4.78058 8.38227 4.88147 8.31395C4.84236 8.92372 4.5578 9.53918 4.28826 10.0791C4.24543 10.165 4.23964 10.2647 4.27235 10.3548C4.36997 10.6241 4.50246 10.8794 4.66704 11.1159L3.86735 11.5913C3.81709 11.2787 3.80015 10.9596 3.81793 10.6387C3.82456 10.5197 3.8519 10.4039 3.79558 10.2896C3.54097 9.74936 3.24087 9.09797 3.18114 8.4958C3.28796 8.57971 3.4636 8.76557 3.70467 9.1766ZM3.03186 10.296C3.06952 10.3833 3.10172 10.4554 3.125 10.5067C3.06467 11.3259 3.20261 12.1553 3.52632 12.9102C2.96844 13.1294 2.43992 13.4319 1.96692 13.8024C1.62543 12.5269 2.0316 11.3593 3.03186 10.296ZM11.9531 18.6041C11.9267 18.3254 11.922 18.0447 11.9386 17.7653C12.117 14.7746 14.7073 12.4857 17.7145 12.6636C19.26 12.7549 20.6878 13.4916 21.654 14.6909C21.5556 14.8577 21.4433 15.0219 21.3172 15.183C20.4574 14.033 19.1281 13.31 17.6806 13.2245C14.9876 13.0652 12.6657 15.1173 12.5058 17.7984C12.4898 18.0652 12.4959 18.3325 12.5237 18.5968C12.3345 18.6022 12.1437 18.6047 11.9531 18.6041ZM20.414 16.0963C19.7856 15.1476 18.7589 14.5523 17.6055 14.4842C15.6098 14.366 13.8902 15.8866 13.7717 17.8731C13.7589 18.0885 13.7653 18.3036 13.7908 18.5162C13.6033 18.5349 13.4144 18.5507 13.2243 18.5634C13.1968 18.3243 13.1901 18.082 13.2045 17.84C13.3416 15.544 15.3299 13.787 17.6394 13.9232C18.9272 13.9993 20.1058 14.6641 20.8386 15.7157C20.7065 15.8453 20.5649 15.9722 20.414 16.0963ZM15.7364 17.9896C15.7905 17.0826 16.5767 16.3892 17.4891 16.4425C18.0076 16.4732 18.4709 16.7389 18.7574 17.1553C17.8556 17.6082 16.8353 17.9617 15.7377 18.2061C15.7325 18.1344 15.732 18.062 15.7364 17.9896ZM19.3743 16.8188C18.9709 16.1914 18.2926 15.7888 17.5304 15.7438C16.2331 15.6668 15.1146 16.6559 15.0376 17.9479C15.0297 18.0805 15.033 18.2128 15.0474 18.3437C14.862 18.3764 14.6747 18.4061 14.4857 18.4328C14.4653 18.2616 14.4601 18.0883 14.4704 17.9148C14.566 16.3133 15.9553 15.088 17.5643 15.1829C18.5082 15.2387 19.3468 15.7317 19.852 16.5159C19.6998 16.6194 19.5406 16.7205 19.3743 16.8188ZM22.1562 12.9367C22.1562 13.294 22.0959 13.6471 21.9779 13.9922C21.1669 13.0922 20.1126 12.4555 18.9486 12.1531C19.6792 11.5894 20.2745 10.8173 20.6324 9.96682C21.6314 10.8632 22.1562 11.8823 22.1562 12.9367ZM19.7302 6.02933C19.8583 6.27278 20.2235 6.27255 20.3506 6.02747C20.5695 5.60552 20.735 5.41032 20.8374 5.3204C20.82 5.67193 20.6066 6.43336 20.3152 7.14546C20.2641 7.26497 20.3013 7.39591 20.3133 7.51766C20.3449 7.83004 20.3434 8.14241 20.3099 8.45016L19.4884 8.01679C19.6408 7.7718 19.7601 7.50949 19.8439 7.23506C19.8719 7.14346 19.8611 7.04434 19.814 6.9609C19.4336 6.2858 19.1354 5.51877 19.1288 5.2238C19.2314 5.28424 19.4432 5.4841 19.7302 6.02933ZM12.0018 7.26912C14.2324 7.26912 16.3993 7.68425 18.167 8.44424C17.5581 8.91667 16.6157 9.27053 15.3181 8.72278C14.0753 8.17643 12.6303 8.98695 12.4015 10.3012C11.9169 10.2644 11.424 10.2843 10.944 10.3615V7.29992C11.2944 7.27944 11.6489 7.26912 12.0018 7.26912ZM10.2441 6.97112V6.97383V10.7773C10.2439 10.7838 10.2439 10.7903 10.2441 10.7968V11.4339C10.0445 11.3917 9.83792 11.3781 9.63078 11.3952V1.9142H10.2441V6.97112Z" fill="#00934C"/>
</g>
<defs>
<clipPath id="clip0_2461_11974">
<rect width="24" height="24" fill="white"/>
</clipPath>
</defs>
</svg>
