<svg width="33" height="32" viewBox="0 0 33 32" fill="none" xmlns="http://www.w3.org/2000/svg">
<g id="fi_9568923">
<path id="Vector" d="M18.1108 6.84063C18.1108 6.67331 18.0279 6.517 17.889 6.42325C17.7507 6.32963 17.5745 6.31088 17.4193 6.37331C16.1042 6.90288 14.9548 7.15994 13.9056 7.15994C12.6543 7.15994 11.7012 6.78932 10.7796 6.43107C9.90046 6.08925 8.99164 5.73575 7.88739 5.73575C7.03314 5.73575 6.14558 5.94688 5.17427 6.38075C4.99283 6.46175 4.87608 6.64206 4.87608 6.84056C4.87608 8.01675 5.43714 8.98838 6.45577 9.57625L11.2417 12.3396C11.3195 12.3845 11.4066 12.4069 11.4935 12.4069C11.5803 12.4069 11.6674 12.3845 11.7452 12.3396L16.5314 9.57625C17.55 8.98825 18.1108 8.01663 18.1108 6.84063ZM16.0278 8.70413L11.4935 11.322L6.95939 8.70413C6.35208 8.35369 5.9917 7.82575 5.90433 7.16544C6.61721 6.88144 7.26883 6.74306 7.88746 6.74306C8.80264 6.74306 9.58571 7.04738 10.4146 7.36957C11.3759 7.7435 12.4654 8.16725 13.9057 8.16725C14.8565 8.16725 15.8671 7.98488 16.975 7.61131C16.811 8.06581 16.4913 8.43638 16.0278 8.70413ZM22.3187 18.5131C22.0406 18.5131 21.8151 18.7385 21.8151 19.0167V21.8257C21.2226 22.0342 20.7959 22.5981 20.7959 23.2611C20.7959 24.1007 21.479 24.7836 22.3186 24.7836C23.1583 24.7836 23.8412 24.1007 23.8412 23.2611C23.8412 22.5982 23.4148 22.0344 22.8221 21.8257V19.0167C22.8222 18.7385 22.5968 18.5131 22.3187 18.5131ZM22.3187 23.7764C22.0343 23.7764 21.803 23.5452 21.803 23.2611C21.803 22.9767 22.0343 22.7455 22.3187 22.7455C22.6028 22.7455 22.834 22.9767 22.834 23.2611C22.834 23.5452 22.6028 23.7764 22.3187 23.7764ZM31.5608 24.6381L30.5412 23.4632C30.3856 23.2845 30.1264 23.2382 29.9185 23.3518L28.5543 24.1C28.3108 24.234 28.2213 24.54 28.3551 24.7839C28.4888 25.027 28.7944 25.1164 29.0389 24.9832L29.5302 24.7136C28.8354 28.1581 25.717 30.6906 22.1398 30.616C18.1912 30.5196 15.0388 27.351 14.9636 23.402C14.888 19.4529 17.917 16.166 21.8591 15.9193C25.6854 15.6832 29.089 18.4662 29.607 22.2628C29.6448 22.5382 29.8971 22.7303 30.1743 22.6937C30.4498 22.656 30.6427 22.4022 30.6051 22.1266C30.4197 20.7689 29.9094 19.5249 29.1624 18.4655C29.5658 18.1499 29.8062 17.6507 29.7667 17.111C29.708 16.3154 29.0631 15.6873 28.2662 15.6501C27.7263 15.6257 27.2283 15.8761 26.9225 16.2922C25.7232 15.4972 24.3161 15.0059 22.8222 14.9152V13.8608H23.903C24.1812 13.8608 24.4065 13.6353 24.4065 13.3571C24.4065 13.0789 24.1812 12.8534 23.903 12.8534H20.7342C20.456 12.8534 20.2306 13.0789 20.2306 13.3571C20.2306 13.6353 20.4559 13.8608 20.7342 13.8608H21.8151V14.9135C21.8086 14.9138 21.8025 14.9138 21.7962 14.9143C20.2812 15.0091 18.8855 15.4998 17.704 16.2801C17.396 15.8727 16.899 15.6258 16.3706 15.6502C16.1738 15.6594 15.9866 15.7053 15.8148 15.7801L12.5007 13.8666L17.3813 11.0488C18.9254 10.1573 19.8109 8.62375 19.8109 6.84075V1.38207H20.6937C20.9719 1.38207 21.1973 1.15669 21.1973 0.878379C21.1973 0.600317 20.972 0.374817 20.6937 0.374817H2.29333C2.01526 0.374817 1.78976 0.600254 1.78976 0.878379C1.78976 1.15663 2.0152 1.38207 2.29333 1.38207H3.17608V6.84063C3.17608 8.62363 4.06152 10.1574 5.60558 11.0486L10.4861 13.8665L5.60539 16.6844C4.06158 17.5762 3.17614 19.1099 3.17614 20.8927V26.351H2.29333C2.01526 26.351 1.78976 26.5764 1.78976 26.8546C1.78976 27.1327 2.0152 27.3582 2.29333 27.3582H15.0215C16.4195 29.8516 19.0567 31.5483 22.1153 31.6226C22.1832 31.6244 22.2505 31.6251 22.3178 31.6251C26.2849 31.6249 29.7105 28.7886 30.5067 24.9603L30.8 25.2984C30.8997 25.4132 31.0397 25.4719 31.1807 25.4719C31.2977 25.4719 31.4153 25.4314 31.5106 25.3486C31.7206 25.1663 31.743 24.8482 31.5608 24.6381ZM28.2193 16.6564C28.5078 16.6696 28.7412 16.8971 28.7622 17.1844C28.7768 17.384 28.6863 17.5684 28.5348 17.6821C28.2829 17.4027 28.0128 17.1407 27.7268 16.8976C27.8378 16.741 28.0236 16.6464 28.2193 16.6564ZM14.0696 24.651H5.88333V22.4582C8.29958 21.6176 9.36527 21.9983 10.6999 22.4742C11.5642 22.7826 12.5398 23.1236 13.9579 23.1459C13.9566 23.2375 13.9546 23.3291 13.9563 23.4215C13.9643 23.8397 14.003 24.2501 14.0696 24.651ZM16.4176 16.6564C16.605 16.6432 16.7874 16.7352 16.9002 16.8845C16.6127 17.1289 16.342 17.3917 16.0904 17.6721C15.9468 17.5569 15.8609 17.3758 15.8751 17.1847C15.896 16.8967 16.1293 16.6696 16.4176 16.6564ZM6.10927 10.1764C4.88514 9.46994 4.18333 8.25406 4.18333 6.84063V1.38207H18.8038V6.84063C18.8038 8.25381 18.1017 9.46994 16.8779 10.1764L11.4936 13.285L6.10927 10.1764ZM4.18333 26.351V20.8927C4.18333 19.4792 4.88514 18.2632 6.10908 17.5569L11.4936 14.448L15.0479 16.5003C14.9514 16.6857 14.8865 16.8909 14.8703 17.111C14.831 17.6481 15.0633 18.1446 15.4633 18.4606C14.7133 19.5316 14.2101 20.7854 14.0297 22.1394C12.7443 22.1284 11.8759 21.8244 11.0385 21.5258C9.57733 21.0042 8.19671 20.5124 5.20333 21.6333C5.00664 21.7069 4.8762 21.8949 4.8762 22.1049V25.1547C4.8762 25.4328 5.10164 25.6582 5.37977 25.6582H14.3041C14.374 25.8939 14.454 26.125 14.5433 26.3511H4.18333V26.351Z" fill="#00934C"/>
</g>
</svg>
