<svg width="14" height="14" viewBox="0 0 14 14" fill="none" xmlns="http://www.w3.org/2000/svg">
<g id="fi_1946485" clip-path="url(#clip0_2099_1984)">
<path id="Vector" d="M10.0049 3.63506C9.90974 3.47752 9.72111 3.40264 9.5438 3.4521C9.36639 3.50155 9.24377 3.66305 9.24377 3.84719C9.24377 4.34782 8.8365 4.75498 8.33598 4.75498C7.83535 4.75498 7.42818 4.34782 7.42818 3.84719V0.409674C7.42818 0.243795 7.32821 0.0942592 7.17493 0.0307063C7.02166 -0.0327398 6.84521 0.00240124 6.72793 0.11968C6.682 0.165716 5.58814 1.26577 4.48008 2.92797C3.82671 3.90807 3.30525 4.88027 2.93034 5.81755C2.45546 7.00486 2.2146 8.14166 2.2146 9.1961C2.2146 11.8447 4.36942 13.9995 7.01792 13.9995C9.66653 13.9995 11.8213 11.8447 11.8213 9.1961C11.8213 7.50079 11.2102 5.62977 10.0049 3.63506ZM7.01792 13.1792C4.82177 13.1792 3.03491 11.3924 3.03491 9.1961C3.03491 7.03424 4.18709 4.84898 5.15374 3.39634C5.67765 2.60903 6.20562 1.94552 6.60776 1.47362V3.84719C6.60776 4.80006 7.383 5.5753 8.33587 5.5753C8.91842 5.5753 9.43464 5.28562 9.74781 4.84268C10.5799 6.40949 11.001 7.87089 11.001 9.1961C11.001 11.3924 9.21429 13.1792 7.01792 13.1792Z" fill="#00934C"/>
<path id="Vector_2" d="M9.3447 6.92209H7.58744C7.36089 6.92209 7.17728 7.1057 7.17728 7.33214C7.17717 7.55869 7.36089 7.7424 7.58733 7.7424H8.35456L6.60221 9.49465L5.64966 8.5421C5.48955 8.38199 5.22978 8.38199 5.06967 8.5421L4.13763 9.47403C3.97742 9.63425 3.97742 9.89391 4.13753 10.0541C4.29774 10.2143 4.5574 10.2142 4.71762 10.0541L5.35966 9.41219L6.3121 10.3647C6.38901 10.4416 6.49336 10.4849 6.60221 10.4849C6.71094 10.4849 6.81529 10.4416 6.8922 10.3647L8.93455 8.3225V9.08951C8.93455 9.31595 9.11815 9.49967 9.3447 9.49967C9.57125 9.49967 9.75486 9.31595 9.75486 9.08951V7.33225C9.75486 7.1057 9.57125 6.92209 9.3447 6.92209Z" fill="#00934C"/>
</g>
<defs>
<clipPath id="clip0_2099_1984">
<rect width="14" height="14" fill="white"/>
</clipPath>
</defs>
</svg>
