<svg width="25" height="24" viewBox="0 0 25 24" fill="none" xmlns="http://www.w3.org/2000/svg">
<g id="fi_2940800">
<path id="Vector" d="M14.75 9.5625C14.6505 9.5625 14.5552 9.60201 14.4848 9.67233C14.4145 9.74266 14.375 9.83804 14.375 9.9375C14.375 10.037 14.4145 10.1323 14.4848 10.2027C14.5552 10.273 14.6505 10.3125 14.75 10.3125C14.8495 10.3125 14.9448 10.352 15.0152 10.4223C15.0855 10.4927 15.125 10.588 15.125 10.6875C15.125 10.787 15.0855 10.8823 15.0152 10.9527C14.9448 11.023 14.8495 11.0625 14.75 11.0625C14.6505 11.0625 14.5552 11.102 14.4848 11.1723C14.4145 11.2427 14.375 11.338 14.375 11.4375C14.375 11.537 14.4145 11.6323 14.4848 11.7027C14.5552 11.773 14.6505 11.8125 14.75 11.8125C15.0484 11.8125 15.3345 11.694 15.5455 11.483C15.7565 11.272 15.875 10.9859 15.875 10.6875C15.875 10.3891 15.7565 10.103 15.5455 9.892C15.3345 9.68103 15.0484 9.5625 14.75 9.5625Z" fill="#00934C"/>
<path id="Vector_2" d="M11.75 11.0625C11.6505 11.0625 11.5552 11.102 11.4848 11.1723C11.4145 11.2427 11.375 11.338 11.375 11.4375C11.375 11.537 11.4145 11.6323 11.4848 11.7027C11.5552 11.773 11.6505 11.8125 11.75 11.8125C11.8495 11.8125 11.9448 11.852 12.0152 11.9223C12.0855 11.9927 12.125 12.088 12.125 12.1875C12.125 12.287 12.0855 12.3823 12.0152 12.4527C11.9448 12.523 11.8495 12.5625 11.75 12.5625C11.6505 12.5625 11.5552 12.602 11.4848 12.6723C11.4145 12.7427 11.375 12.838 11.375 12.9375C11.375 13.037 11.4145 13.1323 11.4848 13.2027C11.5552 13.273 11.6505 13.3125 11.75 13.3125C12.0484 13.3125 12.3345 13.194 12.5455 12.983C12.7565 12.772 12.875 12.4859 12.875 12.1875C12.875 11.8891 12.7565 11.603 12.5455 11.392C12.3345 11.181 12.0484 11.0625 11.75 11.0625Z" fill="#00934C"/>
<path id="Vector_3" d="M12.125 6.70312C12.0255 6.70312 11.9302 6.74263 11.8598 6.81296C11.7895 6.88329 11.75 6.97867 11.75 7.07812C11.75 7.17758 11.7895 7.27296 11.8598 7.34329C11.9302 7.41362 12.0255 7.45312 12.125 7.45312C12.2245 7.45312 12.3198 7.49263 12.3902 7.56296C12.4605 7.63329 12.5 7.72867 12.5 7.82812C12.5 7.92758 12.4605 8.02296 12.3902 8.09329C12.3198 8.16362 12.2245 8.20312 12.125 8.20312C12.0255 8.20312 11.9302 8.24263 11.8598 8.31296C11.7895 8.38329 11.75 8.47867 11.75 8.57812C11.75 8.67758 11.7895 8.77296 11.8598 8.84329C11.9302 8.91362 12.0255 8.95312 12.125 8.95312C12.4234 8.95312 12.7095 8.8346 12.9205 8.62362C13.1315 8.41264 13.25 8.12649 13.25 7.82812C13.25 7.52976 13.1315 7.24361 12.9205 7.03263C12.7095 6.82165 12.4234 6.70313 12.125 6.70312Z" fill="#00934C"/>
<path id="Vector_4" d="M12.5 1.125C10.3491 1.125 8.24656 1.76281 6.45817 2.95777C4.66979 4.15273 3.27591 5.85117 2.45281 7.83832C1.62971 9.82546 1.41435 12.0121 1.83396 14.1216C2.25358 16.2312 3.28932 18.1689 4.81021 19.6898C6.33111 21.2107 8.26885 22.2464 10.3784 22.666C12.4879 23.0857 14.6745 22.8703 16.6617 22.0472C18.6488 21.2241 20.3473 19.8302 21.5422 18.0418C22.7372 16.2534 23.375 14.1509 23.375 12C23.3717 9.11678 22.2249 6.35259 20.1862 4.31384C18.1474 2.2751 15.3832 1.12829 12.5 1.125ZM12.5 22.125C10.4975 22.125 8.5399 21.5312 6.87485 20.4186C5.2098 19.3061 3.91206 17.7248 3.14572 15.8747C2.37938 14.0246 2.17887 11.9888 2.56955 10.0247C2.96023 8.06065 3.92454 6.25655 5.34055 4.84054C6.75655 3.42454 8.56065 2.46022 10.5247 2.06955C12.4888 1.67887 14.5246 1.87938 16.3747 2.64572C18.2248 3.41206 19.8061 4.7098 20.9186 6.37485C22.0312 8.0399 22.625 9.99746 22.625 12C22.6219 14.6844 21.5542 17.2579 19.6561 19.1561C17.7579 21.0542 15.1844 22.1219 12.5 22.125Z" fill="#00934C"/>
<path id="Vector_5" d="M20.8936 7.34108C20.825 7.31268 20.7496 7.30524 20.6768 7.31971C20.6041 7.33419 20.5373 7.36991 20.4848 7.42237L18.5547 9.3525C17.672 8.11016 14.6738 4.3125 11 4.3125C6.70179 4.3125 3.3257 9.51397 3.18395 9.73552C3.1454 9.79584 3.12491 9.86592 3.12491 9.9375C3.12491 10.0091 3.1454 10.0792 3.18395 10.1395C3.3257 10.361 6.70179 15.5625 11 15.5625C11.5378 15.5578 12.0722 15.4773 12.5875 15.3234C12.4048 16.1532 12.5101 17.0205 12.886 17.7825C12.7104 18.0174 12.6252 18.3076 12.646 18.6001C12.6668 18.8927 12.7921 19.168 12.9992 19.3757C13.2095 19.5781 13.4841 19.7003 13.7753 19.721C14.0665 19.7418 14.3557 19.6596 14.5925 19.489C15.2945 19.8359 16.0875 19.954 16.86 19.8266C17.6326 19.6993 18.3457 19.3329 18.8992 18.7791L19.4957 18.1824C19.9202 17.7581 20.004 17.0739 19.7312 16.2559C19.4256 15.4297 18.9372 14.6833 18.3025 14.0724C17.7998 13.5604 17.2128 13.1388 16.567 12.826C17.2957 12.1178 17.9604 11.3466 18.5535 10.5214L20.4848 12.4527C20.5372 12.5051 20.604 12.5409 20.6768 12.5554C20.7495 12.5698 20.825 12.5624 20.8935 12.534C20.962 12.5056 21.0206 12.4576 21.0618 12.3959C21.103 12.3342 21.125 12.2617 21.125 12.1875V7.6875C21.125 7.61334 21.103 7.54085 21.0618 7.47919C21.0206 7.41753 20.9621 7.36946 20.8936 7.34108ZM8.68625 14.2515C6.30613 13.1316 4.45786 10.6606 3.953 9.9375C4.45745 9.21375 6.30395 6.74216 8.68606 5.62275C9.54949 8.43421 9.54955 11.44 8.68625 14.2515ZM18.7599 15.9058C18.8631 16.0938 18.95 16.2902 19.0196 16.493C19.1121 16.7434 19.1467 17.0115 19.1209 17.2772L17.7496 15.9058H18.7599ZM17.2194 14.1124C17.6077 14.4171 17.958 14.7674 18.2627 15.1558H17.2194V14.1124ZM17.2194 16.4361L18.5905 17.8074C18.3248 17.8331 18.0568 17.7985 17.8064 17.7061C17.6037 17.6365 17.4073 17.5496 17.2194 17.4465V16.4361ZM17.5695 18.4179C17.7195 18.4684 17.873 18.5079 18.0287 18.5361C17.5549 18.8873 16.9878 19.0907 16.3987 19.1207C15.8096 19.1506 15.2248 19.0058 14.7178 18.7044C14.6391 18.6576 14.5461 18.6412 14.4562 18.6583C14.3662 18.6753 14.2857 18.7247 14.2296 18.7971L14.1926 18.8454C14.105 18.9336 13.9859 18.9834 13.8616 18.9839C13.7372 18.9843 13.6178 18.9353 13.5295 18.8477C13.4413 18.7601 13.3915 18.641 13.391 18.5166C13.3906 18.3922 13.4396 18.2728 13.5272 18.1846L13.577 18.1459C13.6498 18.09 13.6995 18.0094 13.7167 17.9193C13.734 17.8292 13.7177 17.7359 13.6708 17.657C13.3691 17.1494 13.2243 16.5639 13.2547 15.9742C13.2852 15.3844 13.4894 14.8169 13.8418 14.343C13.8687 14.4999 13.9072 14.6546 13.9571 14.8057C14.2627 15.6319 14.7512 16.3784 15.3859 16.9893C15.9967 17.624 16.7432 18.1124 17.5695 18.4179ZM15.9391 15.1558H14.9285C14.8253 14.9678 14.7384 14.7713 14.6687 14.5684C14.5763 14.3181 14.5416 14.05 14.5675 13.7844L15.9391 15.1558ZM15.0904 13.2468C15.1405 13.2399 15.1909 13.2365 15.2414 13.2365C15.4599 13.242 15.6761 13.2821 15.882 13.3554C16.0848 13.4251 16.2814 13.512 16.4694 13.6152V14.6256L15.0904 13.2468ZM16.4694 15.9058V16.9497C16.0809 16.6448 15.7305 16.2943 15.4257 15.9058H16.4694ZM15.7655 12.5484C15.4969 12.4642 15.2112 12.4504 14.9358 12.5084C14.6604 12.5663 14.4045 12.694 14.1926 12.8793L13.5961 13.4758C13.3179 13.7537 13.0853 14.0737 12.9068 14.424C12.301 14.6714 11.6543 14.8032 11 14.8125C10.4496 14.8081 9.90351 14.714 9.38338 14.5338C10.3159 11.5404 10.3159 8.33407 9.38338 5.3406C9.90358 5.16076 10.4496 5.06683 11 5.0625C14.4365 5.0625 17.3875 8.99288 18.047 9.9375C17.3796 10.8849 16.6149 11.76 15.7655 12.5484ZM20.375 11.2822L19.0303 9.9375L20.375 8.59279V11.2822Z" fill="#00934C"/>
<path id="Vector_6" d="M7.25 9.375C7.45711 9.375 7.625 9.20711 7.625 9C7.625 8.79289 7.45711 8.625 7.25 8.625C7.04289 8.625 6.875 8.79289 6.875 9C6.875 9.20711 7.04289 9.375 7.25 9.375Z" fill="#00934C"/>
<path id="Vector_7" d="M5.75 14.25C5.45333 14.25 5.16332 14.338 4.91665 14.5028C4.66997 14.6676 4.47771 14.9019 4.36418 15.176C4.25065 15.4501 4.22094 15.7517 4.27882 16.0426C4.3367 16.3336 4.47956 16.6009 4.68934 16.8107C4.89912 17.0204 5.16639 17.1633 5.45737 17.2212C5.74834 17.2791 6.04994 17.2494 6.32403 17.1358C6.59812 17.0223 6.83238 16.83 6.99721 16.5834C7.16203 16.3367 7.25 16.0467 7.25 15.75C7.24958 15.3523 7.09142 14.971 6.8102 14.6898C6.52899 14.4086 6.1477 14.2504 5.75 14.25ZM5.75 16.5C5.60166 16.5 5.45666 16.456 5.33332 16.3736C5.20999 16.2912 5.11386 16.1741 5.05709 16.037C5.00033 15.9 4.98547 15.7492 5.01441 15.6037C5.04335 15.4582 5.11478 15.3246 5.21967 15.2197C5.32456 15.1148 5.4582 15.0433 5.60368 15.0144C5.74917 14.9855 5.89997 15.0003 6.03701 15.0571C6.17406 15.1139 6.29119 15.21 6.3736 15.3333C6.45601 15.4567 6.5 15.6017 6.5 15.75C6.49977 15.9488 6.42068 16.1395 6.28008 16.2801C6.13948 16.4207 5.94884 16.4998 5.75 16.5Z" fill="#00934C"/>
<path id="Vector_8" d="M9.5 16.5C9.12916 16.5 8.76665 16.61 8.45831 16.816C8.14996 17.022 7.90964 17.3149 7.76773 17.6575C7.62581 18.0001 7.58868 18.3771 7.66103 18.7408C7.73338 19.1045 7.91195 19.4386 8.17418 19.7008C8.4364 19.963 8.77049 20.1416 9.13421 20.214C9.49792 20.2863 9.87492 20.2492 10.2175 20.1073C10.5601 19.9654 10.853 19.725 11.059 19.4167C11.265 19.1084 11.375 18.7458 11.375 18.375C11.3744 17.8779 11.1767 17.4013 10.8252 17.0498C10.4737 16.6983 9.9971 16.5006 9.5 16.5ZM9.5 19.5C9.2775 19.5 9.05999 19.434 8.87498 19.3104C8.68998 19.1868 8.54579 19.0111 8.46064 18.8055C8.37549 18.6 8.35321 18.3738 8.39662 18.1555C8.44003 17.9373 8.54717 17.7368 8.70451 17.5795C8.86184 17.4222 9.0623 17.315 9.28052 17.2716C9.49875 17.2282 9.72495 17.2505 9.93052 17.3356C10.1361 17.4208 10.3118 17.565 10.4354 17.75C10.559 17.935 10.625 18.1525 10.625 18.375C10.6247 18.6733 10.506 18.9592 10.2951 19.1701C10.0842 19.381 9.79827 19.4997 9.5 19.5Z" fill="#00934C"/>
</g>
</svg>
