<svg width="24" height="24" viewBox="0 0 24 24" fill="none" xmlns="http://www.w3.org/2000/svg">
<g id="user-01">
<path id="Icon" d="M19.6 20.5499C19.6 19.2242 19.6 18.5613 19.4364 18.0219C19.068 16.8074 18.1176 15.857 16.9031 15.4886C16.3637 15.3249 15.7008 15.3249 14.375 15.3249H9.62503C8.29924 15.3249 7.63635 15.3249 7.09694 15.4886C5.88246 15.857 4.93206 16.8074 4.56365 18.0219C4.40002 18.5613 4.40002 19.2242 4.40002 20.5499M16.275 7.72495C16.275 10.086 14.361 11.9999 12 11.9999C9.63901 11.9999 7.72502 10.086 7.72502 7.72495C7.72502 5.36393 9.63901 3.44995 12 3.44995C14.361 3.44995 16.275 5.36393 16.275 7.72495Z" stroke="#8D8D8D" stroke-width="1.7" stroke-linecap="round" stroke-linejoin="round"/>
</g>
</svg>
