<svg width="16" height="16" viewBox="0 0 16 16" fill="none" xmlns="http://www.w3.org/2000/svg">
<g id="vuesax/linear/user-edit">
<g id="user-edit">
<path id="Vector" d="M7.99984 7.99992C9.84079 7.99992 11.3332 6.50753 11.3332 4.66658C11.3332 2.82564 9.84079 1.33325 7.99984 1.33325C6.15889 1.33325 4.6665 2.82564 4.6665 4.66658C4.6665 6.50753 6.15889 7.99992 7.99984 7.99992Z" stroke="#00934C" stroke-width="1.2" stroke-linecap="round" stroke-linejoin="round"/>
<g id="Group">
<path id="Vector_2" d="M12.8065 10.4933L10.4465 12.8534C10.3532 12.9467 10.2665 13.12 10.2465 13.2467L10.1199 14.1467C10.0732 14.4733 10.2999 14.7 10.6265 14.6533L11.5265 14.5267C11.6532 14.5067 11.8332 14.42 11.9199 14.3267L14.2799 11.9667C14.6865 11.56 14.8799 11.0867 14.2799 10.4867C13.6865 9.89334 13.2132 10.0867 12.8065 10.4933Z" stroke="#00934C" stroke-miterlimit="10" stroke-linecap="round" stroke-linejoin="round"/>
<path id="Vector_3" d="M12.4668 10.8333C12.6668 11.5533 13.2268 12.1132 13.9468 12.3132" stroke="#00934C" stroke-miterlimit="10" stroke-linecap="round" stroke-linejoin="round"/>
</g>
<path id="Vector_4" d="M2.27344 14.6667C2.27344 12.0867 4.84012 10 8.00012 10C8.69346 10 9.3601 10.1 9.9801 10.2867" stroke="#00934C" stroke-width="1.2" stroke-linecap="round" stroke-linejoin="round"/>
</g>
</g>
</svg>
