<svg width="19" height="18" viewBox="0 0 19 18" fill="none" xmlns="http://www.w3.org/2000/svg">
<g clip-path="url(#clip0_2840_6932)">
<path d="M16.3175 8.31447C16.8446 7.94407 17.1936 7.32793 17.1936 6.63343C17.1936 5.4973 16.2747 4.57842 15.1386 4.57842C14.0025 4.57842 13.0836 5.4973 13.0836 6.63343C13.0836 7.32793 13.4291 7.94407 13.9597 8.31447C13.5074 8.47118 13.0943 8.71336 12.7453 9.02678C12.2644 8.6172 11.6982 8.30379 11.0785 8.11859C11.8299 7.66271 12.3357 6.83287 12.3357 5.88907C12.3357 4.45021 11.1711 3.28558 9.73219 3.28558C8.29333 3.28558 7.12871 4.45377 7.12871 5.88907C7.12871 6.83287 7.63089 7.66271 8.38593 8.11859C7.77335 8.30379 7.21419 8.61364 6.73694 9.01609C6.38791 8.7098 5.9819 8.47118 5.5367 8.31803C6.06381 7.94763 6.41284 7.33149 6.41284 6.63699C6.41284 5.50086 5.49397 4.58198 4.35784 4.58198C3.22171 4.58198 2.30283 5.50086 2.30283 6.63699C2.30283 7.33149 2.6483 7.94763 3.17897 8.31803C1.76504 8.80596 0.75 10.1487 0.75 11.7264V11.9615C0.75 11.9686 0.757123 11.9757 0.764246 11.9757H5.12C5.09507 12.1716 5.08083 12.3746 5.08083 12.5776V12.8198C5.08083 13.8669 5.92847 14.7145 6.97556 14.7145H12.4959C13.543 14.7145 14.3907 13.8669 14.3907 12.8198V12.5776C14.3907 12.3746 14.3764 12.1716 14.3515 11.9757H18.7358C18.7429 11.9757 18.75 11.9686 18.75 11.9615V11.7264C18.7429 10.1451 17.7314 8.8024 16.3175 8.31447ZM13.6534 6.62986C13.6534 5.81071 14.3195 5.1447 15.1386 5.1447C15.9578 5.1447 16.6238 5.81071 16.6238 6.62986C16.6238 7.43833 15.972 8.09722 15.1671 8.11503C15.1564 8.11503 15.1493 8.11503 15.1386 8.11503C15.1279 8.11503 15.1208 8.11503 15.1101 8.11503C14.3016 8.10078 13.6534 7.44189 13.6534 6.62986ZM7.69143 5.88907C7.69143 4.76718 8.60319 3.85543 9.72507 3.85543C10.847 3.85543 11.7587 4.76718 11.7587 5.88907C11.7587 6.97177 10.9075 7.85859 9.8426 7.91914C9.80342 7.91914 9.76425 7.91914 9.72507 7.91914C9.68589 7.91914 9.64672 7.91914 9.60754 7.91914C8.54264 7.85859 7.69143 6.97177 7.69143 5.88907ZM2.86199 6.62986C2.86199 5.81071 3.528 5.1447 4.34715 5.1447C5.1663 5.1447 5.83231 5.81071 5.83231 6.62986C5.83231 7.43833 5.18055 8.09722 4.37564 8.11503C4.36496 8.11503 4.35784 8.11503 4.34715 8.11503C4.33647 8.11503 4.32934 8.11503 4.31866 8.11503C3.51375 8.10078 2.86199 7.44189 2.86199 6.62986ZM5.21973 11.4023H1.32697C1.48724 9.88511 2.76939 8.69556 4.32578 8.68487C4.3329 8.68487 4.34003 8.68487 4.34715 8.68487C4.35427 8.68487 4.3614 8.68487 4.36852 8.68487C5.10932 8.68843 5.78601 8.96267 6.30956 9.40786C5.7967 9.96346 5.41561 10.6473 5.21973 11.4023ZM13.8137 12.8198C13.8137 13.5499 13.2189 14.1447 12.4888 14.1447H6.96844C6.23833 14.1447 5.64355 13.5499 5.64355 12.8198V12.5776C5.64355 10.3659 7.41007 8.55666 9.60754 8.49255C9.64672 8.49611 9.68945 8.49611 9.72863 8.49611C9.76781 8.49611 9.81055 8.49611 9.84972 8.49255C12.0472 8.55666 13.8137 10.3659 13.8137 12.5776V12.8198ZM14.2375 11.4023C14.0417 10.6508 13.6677 9.97771 13.1584 9.42211C13.6855 8.96623 14.3693 8.69199 15.1172 8.68487C15.1244 8.68487 15.1315 8.68487 15.1386 8.68487C15.1457 8.68487 15.1529 8.68487 15.16 8.68487C16.7164 8.69556 17.9985 9.88511 18.1588 11.4023H14.2375Z" fill="white"/>
</g>
<defs>
<clipPath id="clip0_2840_6932">
<rect width="18" height="18" fill="white" transform="translate(0.75)"/>
</clipPath>
</defs>
</svg>
