<svg width="40" height="41" viewBox="0 0 40 41" fill="none" xmlns="http://www.w3.org/2000/svg">
<g id="fi_3448102" clip-path="url(#clip0_2046_20218)">
<path id="Vector" d="M6.88641 35.6598C8.5234 36.2512 10.2517 36.55 11.9922 36.5426C13.8928 36.5361 15.7789 36.2113 17.5722 35.5817C21.177 34.3279 24.1701 31.9947 26.0001 29.0119C27.8548 25.9891 28.298 22.6619 27.2481 19.6433C27.2278 19.5858 27.2043 19.5295 27.1778 19.4745C27.4413 19.661 27.7429 19.7867 28.0608 19.8424C28.3788 19.8982 28.7051 19.8826 29.0163 19.7969L38.9368 14.9831C39.161 14.8754 39.3615 14.7242 39.5266 14.5382C39.6918 14.3523 39.8183 14.1353 39.8988 13.9C39.9793 13.6647 40.0122 13.4157 39.9955 13.1676C39.9789 12.9194 39.913 12.677 39.8018 12.4546L39.6554 12.1619C39.4394 11.7281 39.0637 11.3951 38.6072 11.2327C38.1507 11.0703 37.649 11.0912 37.2077 11.2911L27.8654 15.5567C27.3999 15.6859 26.9897 15.9643 26.6978 16.3493C26.406 16.7343 26.2487 17.2044 26.25 17.6875C26.2499 17.9355 26.2922 18.1817 26.375 18.4155L26.1912 18.538C23.7388 17.3115 17.7909 18.3003 12.2337 20.2333C11.9072 20.3469 11.5817 20.4639 11.2572 20.5844C10.643 18.3092 12.2323 16.6532 12.3188 16.5655L11.4334 15.6833C10.8277 16.3382 10.3747 17.1192 10.1069 17.9701C9.79063 18.9667 9.78189 20.0355 10.0818 21.0373C9.0818 21.4366 8.12086 21.8587 7.21156 22.2973C6.70726 20.4253 6.6625 18.4937 6.73117 17.098C6.74464 16.8162 6.70168 16.5347 6.60481 16.2698C6.50794 16.0049 6.35911 15.762 6.16706 15.5555C5.97502 15.3489 5.74363 15.1828 5.48649 15.067C5.22935 14.9511 4.95165 14.8877 4.6697 14.8807C4.38774 14.8737 4.10722 14.923 3.84461 15.0259C3.58201 15.1288 3.34261 15.2831 3.14048 15.4798C2.93835 15.6765 2.77757 15.9116 2.66759 16.1713C2.5576 16.4311 2.50062 16.7101 2.5 16.9922V21.4125C2.49981 21.502 2.46414 21.5878 2.4008 21.6511C2.33747 21.7143 2.25163 21.7499 2.16211 21.75C1.9528 21.7499 1.74555 21.7912 1.55227 21.8716C1.35899 21.9519 1.18351 22.0697 1.03592 22.2181C0.888334 22.3665 0.771554 22.5426 0.692303 22.7364C0.613052 22.9301 0.572894 23.1376 0.57414 23.3469C0.601848 24.3609 0.782558 25.365 1.11016 26.3251C0.153827 27.349 -0.188204 28.277 0.0937494 29.0879C1.14383 32.1065 3.55617 34.4405 6.88641 35.6598ZM17.1616 34.4007C13.8286 35.56 10.3322 35.5904 7.31617 34.4861C5.08773 33.6701 3.32398 32.3059 2.19117 30.5537C2.84469 30.6816 3.5097 30.7414 4.17555 30.7323C4.55841 30.7323 4.96727 30.7174 5.40211 30.6876C7.55703 30.5398 10.1505 30.0256 12.8722 29.2176C12.9269 29.2263 14.4172 28.7381 15.1086 28.4976C16.6857 27.9518 18.2334 27.3247 19.7456 26.6188L19.7775 26.604C21.4126 25.8345 22.8758 25.0162 24.0789 24.1912C25.1554 23.4532 25.9662 22.7548 26.5114 22.096C26.9816 27.0872 23.1688 32.3112 17.1616 34.4007ZM23.6684 21.8226C23.5366 22.9429 23.3173 23.1737 23.308 23.183L23.3202 23.1951C22.8027 23.5474 22.2352 23.8988 21.6248 24.2456C22.0327 23.4383 22.3021 22.5683 22.4219 21.6719C22.4425 21.5205 22.5172 21.3817 22.6322 21.2812C22.7473 21.1806 22.8948 21.1252 23.0476 21.125C23.1358 21.125 23.223 21.1436 23.3035 21.1797C23.384 21.2158 23.456 21.2686 23.5146 21.3345C23.5733 21.4004 23.6173 21.478 23.6439 21.5621C23.6704 21.6463 23.6788 21.7351 23.6685 21.8227L23.6684 21.8226ZM37.7228 12.4297C37.8698 12.3634 38.0368 12.3567 38.1887 12.4109C38.3406 12.4651 38.4655 12.5761 38.5373 12.7205L38.6838 13.0132C38.721 13.0876 38.7429 13.1687 38.7484 13.2517C38.7539 13.3347 38.7427 13.4179 38.7156 13.4966C38.6884 13.5752 38.6459 13.6476 38.5904 13.7096C38.5349 13.7716 38.4676 13.8219 38.3924 13.8575L30.6239 17.6418C30.6176 17.3327 30.5457 17.0286 30.413 16.7494C30.2803 16.4702 30.0898 16.2224 29.8541 16.0224L37.7228 12.4297ZM28.4375 16.75C28.6331 16.7498 28.8238 16.8108 28.983 16.9244C29.1421 17.0381 29.2616 17.1988 29.3248 17.3839C29.388 17.569 29.3916 17.7692 29.3352 17.9565C29.2788 18.1437 29.1652 18.3086 29.0103 18.428L28.6666 18.5956C28.5554 18.625 28.4396 18.6324 28.3255 18.6176L28.472 18.5201C28.5411 18.4749 28.6007 18.4165 28.6471 18.3482C28.6936 18.28 28.7261 18.2031 28.7427 18.1222C28.7593 18.0413 28.7597 17.9579 28.7438 17.8769C28.728 17.7958 28.6963 17.7187 28.6504 17.6499C28.6046 17.5812 28.5456 17.5223 28.4769 17.4765C28.4082 17.4307 28.331 17.399 28.2499 17.3832C28.1689 17.3674 28.0855 17.3678 28.0046 17.3844C27.9237 17.4011 27.8469 17.4336 27.7786 17.4801L27.5014 17.6648C27.5075 17.4204 27.6087 17.188 27.7835 17.0172C27.9584 16.8463 28.193 16.7504 28.4375 16.75ZM11.3948 23.4001L12.3552 22.5999C12.1282 22.3295 11.9244 22.0406 11.7458 21.7361C12.044 21.626 12.3442 21.5183 12.6442 21.4139C16.0622 20.2251 19.3942 19.4708 22.0256 19.2904C23.2501 19.2065 24.2822 19.2554 25.01 19.432C25.6023 19.5756 25.9777 19.7964 26.0671 20.0537C26.1566 20.3109 25.9991 20.7169 25.624 21.1971C25.4068 21.4682 25.1684 21.7214 24.9108 21.9544C24.9635 21.4635 24.8208 20.9715 24.5136 20.5851C24.2063 20.1986 23.7591 19.9487 23.269 19.8895C22.7788 19.8303 22.285 19.9665 21.8946 20.2687C21.5041 20.5709 21.2484 21.0147 21.1827 21.5041C20.8652 23.8408 19.4838 25.2026 19.0985 25.5417C17.6621 26.2068 16.1932 26.7993 14.6973 27.317C14.0597 27.5388 13.4265 27.7451 12.7977 27.9359C10.3284 27.4594 8.58242 25.9672 7.60477 23.4947C8.53695 23.04 9.52977 22.6028 10.5644 22.19C10.801 22.6196 11.0791 23.0249 11.3948 23.4001ZM1.92187 23.0998C1.95327 23.0681 1.99068 23.0429 2.03193 23.0257C2.07318 23.0086 2.11744 22.9998 2.16211 23C2.5831 22.9995 2.98671 22.8321 3.28439 22.5344C3.58208 22.2367 3.74952 21.8331 3.75 21.4121V16.9922C3.75014 16.7622 3.84156 16.5417 4.00415 16.3791C4.16675 16.2165 4.38724 16.1251 4.61719 16.125C4.73475 16.125 4.85107 16.149 4.95908 16.1954C5.06709 16.2418 5.16454 16.3097 5.24551 16.395C5.32647 16.4802 5.38926 16.581 5.43005 16.6913C5.47085 16.8015 5.4888 16.9189 5.48281 17.0363C5.39344 18.8522 5.48633 21.5236 6.43648 23.938C6.98375 25.3287 7.75781 26.473 8.73703 27.3391C9.29468 27.8309 9.92231 28.2371 10.5994 28.5444C9.16995 28.9142 7.71671 29.185 6.25 29.3548L5.72789 29.2585C4.33195 29.0259 3.2718 28.1439 2.5768 26.6373C2.11281 25.5976 1.85716 24.4771 1.8243 23.3391C1.82386 23.2947 1.83226 23.2507 1.84902 23.2096C1.86577 23.1686 1.89054 23.1312 1.92187 23.0998ZM1.27445 28.6773C1.18797 28.4287 1.33109 28.0497 1.66445 27.6048C2.03341 28.3057 2.5376 28.9266 3.14789 29.4316C2.8731 29.4059 2.60038 29.3615 2.33164 29.2987C1.73969 29.1551 1.36437 28.9346 1.27469 28.6776V28.6772L1.27445 28.6773Z" fill="white"/>
<path id="Vector_2" d="M5.625 8.625C5.25416 8.625 4.89165 8.73497 4.58331 8.94099C4.27496 9.14702 4.03464 9.43986 3.89273 9.78247C3.75081 10.1251 3.71368 10.5021 3.78603 10.8658C3.85838 11.2295 4.03695 11.5636 4.29918 11.8258C4.5614 12.088 4.89549 12.2666 5.25921 12.339C5.62292 12.4113 5.99992 12.3742 6.34253 12.2323C6.68514 12.0904 6.97798 11.85 7.18401 11.5417C7.39003 11.2334 7.5 10.8708 7.5 10.5C7.49944 10.0029 7.30172 9.5263 6.95021 9.17479C6.5987 8.82328 6.12211 8.62556 5.625 8.625ZM5.625 11.125C5.50139 11.125 5.38055 11.0883 5.27777 11.0197C5.17499 10.951 5.09488 10.8534 5.04758 10.7392C5.00027 10.625 4.98789 10.4993 5.01201 10.3781C5.03613 10.2568 5.09565 10.1455 5.18306 10.0581C5.27047 9.97065 5.38183 9.91112 5.50307 9.88701C5.62431 9.86289 5.74997 9.87527 5.86418 9.92258C5.97838 9.96988 6.07599 10.05 6.14467 10.1528C6.21335 10.2555 6.25 10.3764 6.25 10.5C6.24981 10.6657 6.18391 10.8246 6.06674 10.9417C5.94957 11.0589 5.7907 11.1248 5.625 11.125Z" fill="white"/>
<path id="Vector_3" d="M11.875 6.125C11.875 5.75416 11.765 5.39165 11.559 5.08331C11.353 4.77496 11.0601 4.53464 10.7175 4.39273C10.3749 4.25081 9.99792 4.21368 9.63421 4.28603C9.27049 4.35838 8.9364 4.53695 8.67418 4.79918C8.41195 5.0614 8.23338 5.39549 8.16103 5.75921C8.08868 6.12292 8.12581 6.49992 8.26773 6.84253C8.40964 7.18514 8.64996 7.47798 8.95831 7.68401C9.26665 7.89003 9.62916 8 10 8C10.4971 7.99944 10.9737 7.80172 11.3252 7.45021C11.6767 7.0987 11.8744 6.62211 11.875 6.125ZM9.375 6.125C9.375 6.00139 9.41166 5.88055 9.48033 5.77777C9.54901 5.67499 9.64662 5.59488 9.76082 5.54758C9.87503 5.50027 10.0007 5.48789 10.1219 5.51201C10.2432 5.53613 10.3545 5.59565 10.4419 5.68306C10.5294 5.77047 10.5889 5.88183 10.613 6.00307C10.6371 6.12431 10.6247 6.24997 10.5774 6.36418C10.5301 6.47838 10.45 6.57599 10.3472 6.64467C10.2445 6.71335 10.1236 6.75 10 6.75C9.8343 6.74981 9.67543 6.68391 9.55827 6.56674C9.4411 6.44957 9.37519 6.2907 9.375 6.125Z" fill="white"/>
<path id="Vector_4" d="M8.125 13H9.375V14.25H8.125V13Z" fill="white"/>
<path id="Vector_5" d="M7.5 18.625H8.75V19.875H7.5V18.625Z" fill="white"/>
<path id="Vector_6" d="M11.25 24.25H12.5V25.5H11.25V24.25Z" fill="white"/>
<path id="Vector_7" d="M1.25 12.375H2.5V13.625H1.25V12.375Z" fill="white"/>
<path id="Vector_8" d="M6.52836 29.145L7.22172 28.105C5.69422 27.0866 5.6268 26.1484 5.625 26.109C5.62555 26.1195 5.625 26.125 5.625 26.125H4.375C4.375 26.2872 4.43539 27.75 6.52836 29.145Z" fill="white"/>
<path id="Vector_9" d="M12.6945 10.1632C12.9526 9.77262 13.2448 9.4056 13.5675 9.0664L12.683 8.18304C12.5991 8.26711 10.625 10.2656 10.625 12.375H11.875C11.875 11.7377 12.1584 10.9728 12.6945 10.1632Z" fill="white"/>
</g>
<defs>
<clipPath id="clip0_2046_20218">
<rect width="40" height="40" fill="white" transform="translate(0 0.5)"/>
</clipPath>
</defs>
</svg>
